<?xml version="1.0" encoding="UTF-8" standalone="no"?>
<svg
   xmlns:dc="http://purl.org/dc/elements/1.1/"
   xmlns:cc="http://creativecommons.org/ns#"
   xmlns:rdf="http://www.w3.org/1999/02/22-rdf-syntax-ns#"
   xmlns:svg="http://www.w3.org/2000/svg"
   xmlns="http://www.w3.org/2000/svg"
   xmlns:sodipodi="http://sodipodi.sourceforge.net/DTD/sodipodi-0.dtd"
   xmlns:inkscape="http://www.inkscape.org/namespaces/inkscape"
   inkscape:export-ydpi="300"
   inkscape:export-xdpi="300"
   inkscape:export-filename="C:\Users\austi\Documents\Code\______Projects\2020-5-28 Personal Portfolio\__Construction Zone\Website Videos\Coming Soon.png"
   sodipodi:docname="Coming Soon.svg"
   inkscape:version="1.0 (4035a4fb49, 2020-05-01)"
   id="svg8"
   version="1.1"
   viewBox="0 0 508 285.75001"
   height="1080"
   width="1920">
  <defs
     id="defs2" />
  <sodipodi:namedview
     inkscape:snap-global="false"
     inkscape:window-maximized="1"
     inkscape:window-y="-9"
     inkscape:window-x="-9"
     inkscape:window-height="1001"
     inkscape:window-width="1920"
     units="px"
     showgrid="false"
     inkscape:document-rotation="0"
     inkscape:current-layer="layer1"
     inkscape:document-units="mm"
     inkscape:cy="621.07579"
     inkscape:cx="1010.5918"
     inkscape:zoom="0.5"
     inkscape:pageshadow="2"
     inkscape:pageopacity="0.0"
     borderopacity="1.0"
     bordercolor="#666666"
     pagecolor="#ffffff"
     id="base" />
  <metadata
     id="metadata5">
    <rdf:RDF>
      <cc:Work
         rdf:about="">
        <dc:format>image/svg+xml</dc:format>
        <dc:type
           rdf:resource="http://purl.org/dc/dcmitype/StillImage" />
        <dc:title></dc:title>
      </cc:Work>
    </rdf:RDF>
  </metadata>
  <g
     id="layer1"
     inkscape:groupmode="layer"
     inkscape:label="Layer 1">
    <rect
       y="-1.5875"
       x="-2.1166663"
       height="294.74582"
       width="514.34998"
       id="rect883"
       style="fill:#f6f3f8;stroke-width:0.750001;stroke-linecap:round;stroke-linejoin:round" />
    <path
       d="m 118.93101,131.37699 -1.02023,3.02462 c 0,0 0.015,0.0186 0.015,0.0222 -0.0189,0.0215 -0.0305,0.0531 -0.0305,0.0925 v 8.81548 c -0.1893,0.28529 -0.4339,0.42776 -0.73767,0.51883 v -5.4007 h -0.23401 v 5.45807 c -0.0939,0.0215 -0.19287,0.0399 -0.29651,0.0574 v -2.94659 h -0.23349 v 2.98534 c -0.31334,0.0513 -0.66308,0.11178 -1.05743,0.2279 -0.0352,0.004 -0.0641,0.0502 -0.0641,0.1111 v 13.7759 l -2.55911,3.63182 0.0672,0.0739 c -0.002,0.0108 -0.004,0.0261 -0.004,0.0408 V 183.118 h -0.76815 v -6.97321 h -0.35282 v 6.97321 h -0.56048 c -0.0366,0 -0.0661,0.05 -0.0661,0.11266 v 15.27038 h -8.48938 V 181.5212 c 0,-0.0627 -0.029,-0.11265 -0.0656,-0.11265 h -1.38287 v -5.41363 h -0.23401 v 5.41363 h -1.313646 v -6.29729 c 0,-0.0627 -0.02925,-0.11266 -0.06612,-0.11266 h -12.10296 c -0.03663,0 -0.06612,0.05 -0.06612,0.11266 v 6.29729 H 84.87742 c -0.03663,0 -0.06612,0.05 -0.06612,0.11265 v 11.85354 h -8.922264 c -0.03663,0 -0.06716,0.05 -0.06716,0.11266 v 5.01364 h -1.373052 v -14.41462 c 0,-0.0627 -0.02949,-0.11472 -0.06612,-0.11472 h -4.552568 v -5.86941 c 0,-0.0627 -0.02949,-0.11265 -0.06612,-0.11265 h -2.431513 v -2.87838 c 0,-0.0627 -0.02896,-0.11266 -0.0656,-0.11266 h -0.433924 l 0.506245,-3.23546 -12.371947,3.23546 h -0.05217 c -0.01468,0 -0.02767,0.0115 -0.03874,0.0259 l -0.248987,0.0646 0.224191,0.007 c 0,0.007 -0.0026,0.01 -0.0026,0.0165 v 2.87838 H 49.17234 c -0.03663,0 -0.06612,0.052 -0.06612,0.11472 v 5.86889 h -5.118216 v -13.1346 c 0,-0.0627 -0.02949,-0.11317 -0.06612,-0.11317 H 42.17948 c -2.555695,-3.93687 -6.812716,-4.9097 -10.277237,-4.94647 -3.128968,-0.0323 -5.611543,0.69608 -5.611543,0.69608 l -2.824626,4.23024 0.01188,0.0186 H 23.32964 c -0.03668,0 -0.06612,0.05 -0.06612,0.11265 v 13.13512 H 16.5879 c -0.03665,0 -0.06561,0.05 -0.06561,0.11265 v 14.41669 H 6.6593493 v -3.30574 c 0,-0.0627 -0.029476,-0.11317 -0.066121,-0.11317 H 0.52916666 v 41.87858 H 508.13279 V 192.5469 l -2.05442,-3.51555 c -0.0259,-0.0444 -0.067,-0.0444 -0.093,0 l -2.28738,3.91501 h -1.84416 c -0.0366,0 -0.0672,0.0505 -0.0672,0.11317 v 1.59629 h -5.17657 c -0.0366,0 -0.0661,0.0505 -0.0661,0.11317 v 3.73362 h -3.13611 v 9.08988 h -1.20881 c -0.116,0 -0.20868,0.16061 -0.20868,0.35915 v 1.50379 h -0.10746 c -0.116,0 -0.20868,0.15905 -0.20868,0.3576 v 0.85214 h -0.44788 v -1.65416 c 0,-0.19855 -0.0938,-0.35708 -0.20973,-0.35708 h -1.70366 c -0.0862,0 -0.15941,0.0878 -0.19165,0.21446 h -1.03985 c -0.11601,0 -0.20871,0.16111 -0.20871,0.35966 v 1.43712 h -2.90778 v -0.2651 c 0,-0.19854 -0.0927,-0.35708 -0.20871,-0.35708 h -0.0671 v -2.204 c 0,-0.19855 -0.0938,-0.35967 -0.20974,-0.35967 h -3.14696 c -0.116,0 -0.2087,0.16112 -0.2087,0.35967 v 1.67018 h -0.6395 c -0.11601,0 -0.20921,0.15905 -0.20921,0.35761 v 1.50378 c -0.0733,0.0557 -0.1245,0.17957 -0.1245,0.32608 v 0.23357 c -0.0111,0.0346 -0.0177,0.0722 -0.0217,0.11266 h -0.0888 c -0.11603,0 -0.20871,0.15905 -0.20871,0.3576 v 0.9834 h -0.46182 v -0.92811 c 0,-0.19855 -0.0932,-0.35915 -0.20921,-0.35915 h -0.34198 v -0.88883 c 0,-0.19855 -0.0938,-0.3576 -0.20971,-0.3576 h -0.42876 v -0.16278 c 0,-0.19856 -0.0927,-0.3576 -0.2087,-0.3576 h -0.25621 c -0.11603,0 -0.21027,0.15904 -0.21027,0.3576 v 0.16278 h -2.38293 c -0.11601,0 -0.20871,0.15905 -0.20871,0.3576 v 0.88883 h -0.18905 c -0.11601,0 -0.21024,0.1606 -0.21024,0.35915 v 0.22066 h -1.77238 v -0.47955 c 0,-0.19856 -0.0943,-0.35761 -0.21024,-0.35761 h -1.10909 c -0.116,0 -0.20974,0.15905 -0.20974,0.35761 v 0.47955 h -1.69694 v -7.18406 c 0,-0.19855 -0.0927,-0.35966 -0.20868,-0.35966 h -1.12459 c -0.11601,0 -0.20871,0.16111 -0.20871,0.35966 v 7.18406 h -1.54298 v -0.14469 c 0,-0.19855 -0.0932,-0.35709 -0.20924,-0.35709 h -0.15755 v -5.51025 c 0,-0.19856 -0.0932,-0.35709 -0.20921,-0.35709 h -0.49951 c -0.11603,0 -0.20923,0.15853 -0.20923,0.35709 v 6.01203 h -3.69193 v -1.31671 c 0,-0.19855 -0.0943,-0.35967 -0.21027,-0.35967 h -9.69711 c -0.116,0 -0.2087,0.16112 -0.2087,0.35967 v 1.99471 c -0.007,-0.001 -0.014,-0.007 -0.0217,-0.007 h -2.68157 V 212.749 c 0,-0.19855 -0.0938,-0.35915 -0.20974,-0.35915 h -2.8117 c -0.116,0 -0.2087,0.1606 -0.2087,0.35915 v 0.59842 h -1.70882 c -0.11603,0 -0.2087,0.1606 -0.2087,0.35915 v 0.45579 h -2.13501 v -0.46664 c 0,-0.398 -0.18742,-0.71882 -0.41995,-0.71882 h -1.81578 l -0.43804,-1.45004 c -0.007,-0.0863 -0.0301,-0.16123 -0.0661,-0.21653 l -0.59975,-1.9854 c -0.0276,-0.0914 -0.0716,-0.0914 -0.0992,0 l -0.57185,1.89084 h -0.38485 l -1.6861,-5.57847 c -0.0276,-0.0914 -0.0722,-0.0914 -0.0997,0 l -0.9877,3.26698 -0.48041,-1.5906 c -0.0276,-0.0914 -0.0721,-0.0914 -0.0997,0 l -1.81059,5.99292 v -7.98247 c 0,-0.19854 -0.0938,-0.35708 -0.20974,-0.35708 h -22.28756 c -0.116,0 -0.21027,0.15854 -0.21027,0.35708 v 8.83823 h -2.93465 v -0.46664 c 0,-0.398 -0.18742,-0.71882 -0.41998,-0.71882 h -1.42727 v -11.03447 c 0,-0.398 -0.18742,-0.71882 -0.41998,-0.71882 h -7.79873 c -0.23254,0 -0.41995,0.32082 -0.41995,0.71882 v 9.09557 h -1.28215 v -0.46664 c 0,-0.14851 -0.0322,-0.27846 -0.077,-0.39274 v -8.86406 c 0,-0.398 -0.18744,-0.7183 -0.41997,-0.7183 h -1.52442 v -13.58884 c 0,-0.39799 -0.18742,-0.71882 -0.41998,-0.71882 h -3.32467 v -6.97269 c 0,-0.39801 -0.18688,-0.71882 -0.41944,-0.71882 h -7.71143 V 164.3809 c 0,-0.398 -0.18742,-0.71675 -0.41998,-0.71675 h -5.69935 c -0.23254,0 -0.41998,0.31875 -0.41998,0.71675 v 26.55859 h -1.06051 v -10.48257 c 0,-0.398 -0.0418,-0.71882 -0.0935,-0.71882 -0.0517,0 -0.093,0.32082 -0.093,0.71882 v 10.48257 h -0.34817 v -4.55993 c 0,-0.398 -0.18741,-0.71831 -0.41997,-0.71831 h -0.91436 c -0.23251,0 -0.41995,0.32031 -0.41995,0.71831 v 3.39308 c -0.019,-0.016 -0.039,-0.0241 -0.0594,-0.0351 -0.0506,-0.29951 -0.2045,-0.52244 -0.39623,-0.52244 h -0.4675 c -0.18287,0 -0.3327,0.2019 -0.39052,0.48007 h -0.92313 c -0.23256,0 -0.41998,0.3203 -0.41998,0.7183 v 4.88187 h -1.86843 V 190.315 c 0,-0.398 -0.18742,-0.71831 -0.41998,-0.71831 h -2.23263 v -14.2167 c 0,-0.398 -0.18741,-0.7183 -0.41998,-0.7183 h -1.82556 v -0.22221 c 0,-0.39799 -0.18744,-0.71882 -0.41997,-0.71882 h -1.39374 c -0.23254,0 -0.41945,0.32083 -0.41945,0.71882 v 0.22221 h -0.0455 c -0.23256,0 -0.41998,0.3203 -0.41998,0.7183 v 8.7142 h -0.0987 c -0.23257,0 -0.41998,0.3203 -0.41998,0.7183 v 13.59452 h -1.21291 v -2.39314 c 0,-0.398 -0.18744,-0.71882 -0.41997,-0.71882 H 355.856 c -0.23253,0 -0.41944,0.32082 -0.41944,0.71882 v 2.39314 h -0.60182 v -2.07274 c 0,-0.398 -0.18744,-0.71882 -0.41997,-0.71882 h -2.98581 c -0.23254,0 -0.41945,0.32082 -0.41945,0.71882 v 8.59534 h -1.86587 v -0.94051 c 0,-0.39799 -0.18744,-0.71675 -0.41997,-0.71675 h -1.25941 v -3.55069 c 0,-0.398 -0.0412,-0.71831 -0.093,-0.71831 -0.0518,0 -0.093,0.32031 -0.093,0.71831 v 3.55069 h -0.60747 c -0.23257,0 -0.41948,0.31876 -0.41948,0.71675 v 0.94051 h -0.83993 v -1.4149 c 0,-0.39737 -0.18688,-0.71781 -0.41894,-0.71882 v 0 c -0.0736,-0.10925 -0.1657,-0.18139 -0.2712,-0.18139 h -0.46751 c -0.10585,0 -0.19908,0.0716 -0.27276,0.18139 h -1.04142 c -0.23253,0 -0.41945,0.32082 -0.41945,0.71882 v 1.4149 h -2.0012 v -0.81856 c 0,-0.398 -0.0423,-0.7183 -0.094,-0.7183 -0.0517,0 -0.093,0.3203 -0.093,0.7183 v 0.89659 c -0.13984,0.1163 -0.23815,0.35587 -0.23815,0.64079 v 0.46664 h -1.77237 v -0.46664 c 0,-0.398 -0.18741,-0.71882 -0.41998,-0.71882 h -0.1874 c -0.23253,0 -0.41841,0.32082 -0.41841,0.71882 v 0.46664 h -0.93395 v -4.73408 c 0,-0.39799 -0.18745,-0.71675 -0.41998,-0.71675 h -2.98581 c -0.23254,0 -0.41945,0.31876 -0.41945,0.71675 v 4.73408 h -1.21343 v -0.46664 c 0,-0.398 -0.18691,-0.71882 -0.41948,-0.71882 h -0.46644 c -0.23259,0 -0.41998,0.32082 -0.41998,0.71882 v 0.46664 h -0.60181 v -0.34469 c 0,-0.398 -0.18744,-0.7183 -0.41998,-0.7183 h -2.98631 c -0.23256,0 -0.41998,0.3203 -0.41998,0.7183 v 3.42822 h -0.55737 v -1.83503 c 0,-0.398 -0.18744,-0.71882 -0.41998,-0.71882 -0.0421,-0.0627 -0.0902,-0.10889 -0.14465,-0.13901 -0.0122,-0.17856 -0.0969,-0.31833 -0.20455,-0.31833 h -4.58978 l -1.68816,-2.88923 c -0.16443,-0.28143 -0.42807,-0.28143 -0.5925,0 l -1.41127,2.41484 v -0.48317 c 0,-0.39803 -0.18745,-0.71882 -0.41998,-0.71882 h -2.98684 c -0.23256,0 -0.41945,0.32083 -0.41945,0.71882 v 0.90537 c -0.0755,-0.18889 -0.19659,-0.3204 -0.34095,-0.3204 h -3.59743 v -0.94051 c 0,-0.39799 -0.18691,-0.71881 -0.41945,-0.71881 h -2.07351 v -3.54863 c 0,-0.39799 -0.0618,-0.7183 -0.13846,-0.7183 -0.0767,0 -0.13843,0.32031 -0.13843,0.7183 v 3.54863 h -1.10391 c -0.23257,0 -0.41998,0.32082 -0.41998,0.71881 v 0.94051 h -1.2465 v -1.41489 c 0,-0.39801 -0.18744,-0.71831 -0.41997,-0.71831 h -3.45435 c -0.23253,0 -0.41944,0.3203 -0.41944,0.71831 v 1.41489 h -3.18158 c -0.23254,0 -0.41998,0.32084 -0.41998,0.71882 v 0.46664 h -2.63195 v -0.46664 c 0,-0.39803 -0.18692,-0.71882 -0.41945,-0.71882 h -0.68393 c -0.15335,0 -0.28218,0.14652 -0.35542,0.35554 -0.0358,-0.33495 -0.1981,-0.59221 -0.40448,-0.59221 h -1.04554 v -3.31195 c 0,-0.398 -0.18691,-0.7183 -0.41945,-0.7183 h -4.8398 c -0.23253,0 -0.41944,0.3203 -0.41944,0.7183 v 3.31195 h -5.04177 v -0.46716 c 0,-0.39799 -0.18641,-0.7183 -0.41894,-0.7183 h -2.89334 v -1.75958 c 0,-0.39804 -0.0417,-0.7183 -0.0935,-0.7183 -0.0518,0 -0.093,0.3203 -0.093,0.7183 v 1.75958 h -2.39896 c -0.23257,0 -0.41998,0.32031 -0.41998,0.7183 v 0.29301 h -0.21955 l -3.05605,-1.46141 c -0.17023,-0.0814 -0.4445,-0.0814 -0.61472,0 l -1.97693,0.94464 v -4.04316 c 0,-0.398 -0.18744,-0.71882 -0.41998,-0.71882 H 254.2284 v -3.31298 c 0,-0.39799 -0.0618,-0.71882 -0.13844,-0.71882 -0.0767,0 -0.13844,0.32083 -0.13844,0.71882 v 3.31298 h -0.74128 v -0.22944 c 0,-0.39803 -0.0412,-0.71882 -0.093,-0.71882 -0.0517,0 -0.093,0.32079 -0.093,0.71882 v 0.22944 h -1.95368 c -0.0767,-0.14511 -0.18556,-0.23875 -0.30943,-0.23875 h -3.45381 c -0.23256,0 -0.41998,0.32082 -0.41998,0.71882 v 1.41491 h -3.18158 c -0.23254,0 -0.41997,0.32031 -0.41997,0.7183 v 1.64486 c 0,0.18698 0.0437,0.35407 0.11158,0.48162 h -0.10848 c -0.0589,-0.27459 -0.20918,-0.47232 -0.39053,-0.47232 h -0.79191 v -2.83755 c 0,-0.398 -0.1864,-0.71831 -0.41894,-0.71831 h -2.98683 c -0.0208,0 -0.0384,0.0152 -0.0584,0.0202 v -1.31672 c 0,-0.39799 -0.18741,-0.71882 -0.41998,-0.71882 h -13.37048 v -1.65209 c 0,-0.398 -0.18743,-0.71831 -0.41998,-0.71831 h -4.27774 l -1.77805,-3.04322 c -0.16444,-0.28143 -0.42962,-0.28143 -0.59406,0 l -1.77805,3.04322 h -5.11098 v -1.71152 c 0,-0.398 -0.18692,-0.7183 -0.41946,-0.7183 h -0.063 c -0.23255,0 -0.41998,0.3203 -0.41998,0.7183 v 1.78542 c -0.0156,-0.003 -0.0295,-0.0145 -0.0454,-0.0145 h -4.66053 v -0.8816 c 0,-0.398 -0.0412,-0.71882 -0.093,-0.71882 -0.0517,0 -0.093,0.32082 -0.093,0.71882 v 0.8816 h -0.66587 v -1.6521 c 0,-0.39803 -0.18743,-0.71882 -0.41997,-0.71882 h -5.4948 c -0.23254,0 -0.41997,0.32082 -0.41997,0.71882 v 1.4702 h -1.36324 c -0.10584,0 -0.2001,0.072 -0.27378,0.1819 h -0.98511 c -0.23254,0 -0.41946,0.3203 -0.41946,0.7183 v 1.17822 h -0.71029 c -0.059,0 -0.11446,0.0201 -0.1653,0.0574 v -1.17615 c 0,-0.398 -0.18641,-0.71882 -0.41894,-0.71882 h -2.98683 c -0.23256,0 -0.41946,0.32082 -0.41946,0.71882 v 3.55223 h -1.62256 c -0.004,-1.8e-4 -0.007,-0.004 -0.0108,-0.004 h -0.15343 v -1.53325 c 0,-0.39798 -0.18742,-0.71881 -0.41997,-0.71881 h -5.49583 c -0.23255,0 -0.41998,0.32083 -0.41998,0.71881 v 1.46865 h -1.36375 c -0.10584,0 -0.2001,0.0736 -0.27379,0.18345 h -0.98459 c -0.23254,0 -0.41997,0.3203 -0.41997,0.7183 v 1.17771 h -0.70977 c -0.23254,0 -0.41998,0.32082 -0.41998,0.71882 v 0.82217 h -0.99647 v -0.6997 c 0,-0.398 -0.18742,-0.71882 -0.41997,-0.71882 h -4.82945 c -0.0532,-0.0414 -0.11171,-0.0687 -0.17409,-0.0687 h -1.75429 c -0.10583,0 -0.2001,0.0736 -0.27378,0.18345 h -0.26862 c -0.23254,0 -0.41842,0.32082 -0.41842,0.71882 v 1.52601 c -0.082,0.045 -0.14924,0.13034 -0.20043,0.24443 h -18.40812 c -0.23254,0 -0.41997,0.32082 -0.41997,0.71882 v 3.3631 h -2.09729 c -0.11601,0 -0.2087,0.16059 -0.2087,0.35915 v 1.21543 h -2.47284 l -7.53681,-3.60443 c -0.17022,-0.0814 -0.4445,-0.0814 -0.61472,0 l -0.78003,0.37259 -2.08541,-0.99684 v -4.36304 c 0,-0.19855 -0.0943,-0.3576 -0.21024,-0.3576 h -1.02902 v -3.7822 h -1.11115 v -15.27194 c 0,-0.0627 -0.0295,-0.11265 -0.0661,-0.11265 h -1.43143 v -5.01572 c 0,-0.0627 -0.0295,-0.11265 -0.0661,-0.11265 h -5.1771 v -16.12408 c 0,-0.0627 -0.029,-0.11524 -0.0656,-0.11524 h -0.20921 l -2.97133,-3.63182 v -13.77384 c 0,-0.0627 -0.0295,-0.11472 -0.0661,-0.11472 h -0.9319 c -0.76091,-0.1817 -1.16446,-0.25008 -1.37409,-0.62787 v -9.08626 c 0,-0.0459 -0.0166,-0.0857 -0.0387,-0.10336 l 0.009,-0.0114 z m 79.02754,69.63761 h 0.10384 c -0.0192,0.028 -0.0351,0.059 -0.0511,0.0925 -0.0164,-0.0341 -0.033,-0.0641 -0.0527,-0.0925 z"
       style="fill:#d9d9d9;fill-opacity:1;stroke-width:4.99999;stroke-linejoin:round"
       id="rect1225" />
    <path
       transform="scale(0.26458333)"
       d="M 0 895.30664 L 0 1054.0215 L 24.931641 1054.0215 C 25.070194 1054.0215 25.181641 1053.832 25.181641 1053.5938 L 25.181641 1041.0645 L 62.470703 1041.0645 L 62.470703 1082.0215 L 281.48438 1082.0215 L 281.48438 1041.0684 L 286.67578 1041.0684 L 286.67578 1060.0703 C 286.67578 1060.3075 286.79113 1060.498 286.92969 1060.498 L 320.66406 1060.498 L 320.66406 1082.0215 L 387.68945 1082.0215 L 387.68945 1041.0684 L 419.78711 1041.0684 L 419.78711 1082.0215 L 498.14062 1082.0215 L 498.14062 1041.0527 L 502.3418 1041.0527 L 502.3418 1026.7207 L 506.23242 1026.7207 C 506.6716 1026.7207 507.02734 1026.117 507.02734 1025.3652 L 507.02734 1008.8281 L 514.91211 1005.0527 L 517.86133 1006.4629 C 518.50494 1006.7717 519.54186 1006.7717 520.18555 1006.4629 L 548.68164 992.80469 L 558.03125 992.80469 L 558.03125 997.4082 C 558.03125 998.1604 558.38166 998.76953 558.82031 998.76953 L 566.75 998.76953 L 566.75 1011.5176 C 566.75 1013.0259 567.45862 1014.2402 568.33789 1014.2402 L 637.95312 1014.2402 C 638.14713 1014.6723 638.39944 1014.9952 638.70898 1015.166 L 638.70898 1020.9512 C 638.70898 1022.4596 639.41374 1023.6738 640.29297 1023.6738 L 641.30859 1023.6738 C 641.5868 1024.0898 641.94391 1024.3691 642.34375 1024.3691 L 648.97461 1024.3691 C 649.21053 1024.3691 649.43369 1024.2666 649.63477 1024.1094 L 667.89453 1024.1094 C 668.77418 1024.1094 669.48242 1022.8931 669.48242 1021.3848 L 669.48242 1018.7324 L 673.25 1018.7324 L 673.25 1021.8477 C 673.25 1023.356 673.95866 1024.5723 674.83789 1024.5723 L 677.52148 1024.5723 L 677.52148 1029.0352 C 677.52148 1030.5435 678.23014 1031.7598 679.10938 1031.7598 L 682.83203 1031.7598 C 683.11024 1032.1757 683.46735 1032.4551 683.86719 1032.4551 L 689.02344 1032.4551 L 689.02344 1038.0195 C 689.02344 1039.5278 689.73014 1040.7441 690.60938 1040.7441 L 711.38672 1040.7441 C 712.26633 1040.7441 712.97461 1039.5278 712.97461 1038.0195 L 712.97461 1032.209 L 713.55469 1032.209 C 713.5717 1032.209 713.58059 1032.194 713.5957 1032.1934 L 719.72852 1032.1934 L 719.72852 1045.6562 C 719.72852 1047.1646 720.4371 1048.3789 721.31641 1048.3789 L 732.60742 1048.3789 C 733.48696 1048.3789 734.19141 1047.1646 734.19141 1045.6562 L 734.19141 1041.1992 C 734.38382 1041.336 734.59499 1041.416 734.81836 1041.416 L 737.50195 1041.416 L 737.50195 1045.8809 C 737.50195 1047.3892 738.21061 1048.6035 739.08984 1048.6035 L 742.8125 1048.6035 C 743.09075 1049.0206 743.44782 1049.293 743.84766 1049.293 L 749.00195 1049.293 L 749.00195 1054.8652 C 749.00195 1056.3735 749.71057 1057.5898 750.58984 1057.5898 L 771.36719 1057.5898 C 772.24683 1057.5898 772.95508 1056.3736 772.95508 1054.8652 L 772.95508 1048.6055 L 775.4707 1048.6055 L 775.4707 1051.9453 C 775.4707 1053.4536 775.62686 1054.6699 775.82227 1054.6699 C 776.01767 1054.6699 776.17383 1053.4536 776.17383 1051.9453 L 776.17383 1048.6055 L 793.79492 1048.6055 C 793.85539 1048.6055 793.91124 1048.5621 793.9668 1048.5508 L 793.9668 1055.3164 C 793.9668 1056.8249 794.67546 1058.041 795.55469 1058.041 L 795.79297 1058.041 C 796.67186 1058.041 797.38086 1056.8249 797.38086 1055.3164 L 797.38086 1048.832 L 816.70508 1048.832 L 823.42578 1060.3633 C 824.04744 1061.4293 825.05037 1061.4293 825.67188 1060.3633 L 832.39453 1048.832 L 848.56836 1048.832 C 849.44801 1048.832 850.15625 1047.6159 850.15625 1046.1074 L 850.15625 1039.8477 L 900.71094 1039.8477 C 901.59058 1039.8477 902.29686 1038.6315 902.29688 1037.123 L 902.29688 1032.1328 C 902.37207 1032.16 902.43859 1032.2148 902.51758 1032.2148 L 913.81055 1032.2148 C 914.69012 1032.2148 915.39453 1030.9985 915.39453 1029.4902 L 915.39453 1018.7383 L 918.38867 1018.7383 C 919.07394 1018.7383 919.64457 1017.9876 919.86719 1016.9473 L 920.27539 1016.9473 C 920.01895 1017.4313 919.85352 1018.065 919.85352 1018.7734 L 919.85352 1025.0059 C 919.85352 1026.5142 920.56214 1027.7285 921.44141 1027.7285 L 933.4707 1027.7285 L 933.4707 1033.0918 C 933.4707 1034.6001 934.17936 1035.8145 935.05859 1035.8145 L 948.11914 1035.8145 C 948.58784 1035.8145 948.99917 1035.4601 949.28906 1034.9102 L 956.67383 1034.9102 L 956.67383 1035.7812 C 956.67383 1037.2897 956.82999 1038.5039 957.02539 1038.5039 C 957.22155 1038.5039 957.37695 1037.2898 957.37695 1035.7812 L 957.37695 1034.9102 L 960.17969 1034.9102 L 960.17969 1047.4668 C 960.17969 1048.9751 960.41326 1050.1914 960.70312 1050.1914 C 960.99215 1050.1914 961.22656 1048.9751 961.22656 1047.4668 L 961.22656 1034.9102 L 1005.4102 1034.9102 C 1006.2898 1034.9102 1006.998 1033.6958 1006.998 1032.1875 L 1006.998 1016.8633 L 1014.4727 1020.4434 C 1015.1163 1020.7521 1016.1532 1020.7521 1016.7969 1020.4434 L 1028.3516 1014.9062 L 1029.1816 1014.9062 L 1029.1816 1016.0156 C 1029.1816 1017.5241 1029.8902 1018.7383 1030.7695 1018.7383 L 1039.8398 1018.7383 L 1039.8398 1025.4062 C 1039.8398 1026.9146 1039.996 1028.1309 1040.1914 1028.1309 C 1040.3868 1028.1309 1040.543 1026.9147 1040.543 1025.4062 L 1040.543 1018.7383 L 1051.4844 1018.7383 C 1052.3639 1018.7383 1053.0664 1017.5241 1053.0664 1016.0156 L 1053.0664 1014.2461 L 1072.1289 1014.2461 L 1072.1289 1026.7969 C 1072.1289 1028.3052 1072.8376 1029.5195 1073.7168 1029.5195 L 1092.0137 1029.5195 C 1092.8933 1029.5195 1093.6016 1028.3052 1093.6016 1026.7969 L 1093.6016 1014.2461 L 1097.5547 1014.2461 C 1098.3351 1014.2461 1098.9487 1013.2692 1099.084 1012 C 1099.3609 1012.7924 1099.8462 1013.3477 1100.4258 1013.3477 L 1103.0117 1013.3477 C 1103.8906 1013.3477 1104.5996 1012.1336 1104.5996 1010.625 L 1104.5996 1008.8555 L 1114.5488 1008.8555 L 1114.5488 1010.625 C 1114.5488 1012.1334 1115.2575 1013.3477 1116.1367 1013.3477 L 1128.166 1013.3477 L 1128.166 1018.7109 C 1128.166 1020.2194 1128.8748 1021.4336 1129.7539 1021.4336 L 1142.8145 1021.4336 C 1143.6933 1021.4336 1144.4004 1020.2194 1144.4004 1018.7109 L 1144.4004 1013.3477 L 1149.1152 1013.3477 L 1149.1152 1016.9141 C 1149.1152 1018.4224 1149.8219 1019.6367 1150.7012 1019.6367 L 1154.875 1019.6367 L 1154.875 1033.0859 C 1154.875 1034.5944 1155.1085 1035.8086 1155.3984 1035.8086 C 1155.6882 1035.8086 1155.9219 1034.5944 1155.9219 1033.0859 L 1155.9219 1019.6367 L 1163.7617 1019.6367 C 1164.6414 1019.6367 1165.3496 1018.4224 1165.3496 1016.9141 L 1165.3496 1013.3477 L 1178.9492 1013.3477 C 1179.4954 1013.3477 1179.9533 1012.8494 1180.2383 1012.1328 L 1180.2383 1015.5645 C 1180.2383 1017.0728 1180.9449 1018.2891 1181.8242 1018.2891 L 1193.1172 1018.2891 C 1193.9961 1018.2891 1194.7051 1017.0729 1194.7051 1015.5645 L 1194.7051 1013.7344 L 1200.041 1022.8867 C 1200.6627 1023.9527 1201.6617 1023.9527 1202.2832 1022.8867 L 1208.666 1011.9355 L 1226.0176 1011.9355 C 1226.4245 1011.9355 1226.7434 1011.4078 1226.791 1010.7305 C 1226.9969 1010.6153 1227.1807 1010.4416 1227.3398 1010.2031 C 1228.2195 1010.2031 1228.9277 1008.9868 1228.9277 1007.4785 L 1228.9277 1000.5234 L 1231.0332 1000.5234 L 1231.0332 1013.5156 C 1231.0332 1015.0239 1231.7419 1016.2383 1232.6211 1016.2383 L 1243.9141 1016.2383 C 1244.793 1016.2383 1245.502 1015.0241 1245.502 1013.5156 L 1245.502 1012.209 L 1247.7754 1012.209 L 1247.7754 1013.9785 C 1247.7754 1015.4868 1248.4839 1016.7012 1249.3633 1016.7012 L 1251.127 1016.7012 C 1252.0066 1016.7012 1252.7148 1015.487 1252.7148 1013.9785 L 1252.7148 1012.209 L 1257.3008 1012.209 L 1257.3008 1030.1504 C 1257.3008 1031.6586 1258.0094 1032.8672 1258.8887 1032.8672 L 1270.1777 1032.8672 C 1271.0567 1032.8672 1271.7637 1031.6588 1271.7637 1030.1504 L 1271.7637 1012.209 L 1275.2949 1012.209 L 1275.2949 1013.9785 C 1275.2949 1015.4868 1275.9996 1016.7012 1276.8789 1016.7012 L 1277.5859 1016.7012 C 1278.4649 1016.7012 1279.1738 1015.487 1279.1738 1013.9785 L 1279.1738 1012.209 L 1285.877 1012.209 L 1285.877 1013.9785 C 1285.877 1015.0579 1286.2465 1015.9662 1286.7754 1016.4062 L 1286.7754 1019.8047 C 1286.7754 1021.313 1286.9335 1022.5273 1287.1289 1022.5273 C 1287.3239 1022.5273 1287.4844 1021.313 1287.4844 1019.8047 L 1287.4844 1016.7012 L 1295.0488 1016.7012 L 1295.0488 1022.0645 C 1295.0488 1023.5729 1295.7575 1024.7871 1296.6367 1024.7871 L 1300.5723 1024.7871 C 1300.8512 1025.2031 1301.2037 1025.4766 1301.6035 1025.4766 L 1303.3711 1025.4766 C 1303.7702 1025.4766 1304.1199 1025.2016 1304.3984 1024.7871 L 1304.4023 1024.7871 C 1305.2795 1024.7832 1305.9863 1023.5705 1305.9863 1022.0645 L 1305.9863 1016.7012 L 1309.1602 1016.7012 L 1309.1602 1020.2676 C 1309.1602 1021.7756 1309.8689 1022.9844 1310.748 1022.9844 L 1313.043 1022.9844 L 1313.043 1036.4395 C 1313.043 1037.9479 1313.1988 1039.1621 1313.3945 1039.1621 C 1313.5899 1039.1621 1313.7461 1037.9479 1313.7461 1036.4395 L 1313.7461 1022.9844 L 1318.5078 1022.9844 C 1319.3875 1022.9844 1320.0957 1021.7759 1320.0957 1020.2676 L 1320.0957 1016.7012 L 1327.1504 1016.7012 L 1327.1504 1049.2773 C 1327.1504 1050.7857 1327.859 1052 1328.7383 1052 L 1340.0254 1052 C 1340.9043 1052 1341.6133 1050.7857 1341.6133 1049.2773 L 1341.6133 1041.4238 L 1343.8887 1041.4238 L 1343.8887 1050.4922 C 1343.8887 1052.0005 1344.5954 1053.2148 1345.4746 1053.2148 L 1347.2383 1053.2148 C 1348.118 1053.2148 1348.8262 1052.0005 1348.8262 1050.4922 L 1348.8262 1041.4238 L 1353.4121 1041.4238 L 1353.4121 1082.0215 L 1374.0664 1082.0215 L 1374.0664 1074.8125 L 1382.5078 1074.8125 C 1383.3875 1074.8125 1384.0957 1073.5981 1384.0957 1072.0898 L 1384.0957 1053.2148 L 1391.1602 1053.2148 L 1391.1602 1071.7246 C 1391.1602 1073.2329 1391.8687 1074.4473 1392.748 1074.4473 L 1396.2383 1074.4473 C 1396.4569 1075.5013 1397.0236 1076.2656 1397.7148 1076.2656 L 1399.4824 1076.2656 C 1400.2072 1076.2656 1400.7888 1075.4222 1400.9805 1074.2871 C 1401.0579 1074.2467 1401.134 1074.2044 1401.2051 1074.1504 L 1401.2051 1082.0215 L 1407.8379 1082.0215 L 1407.8379 1069.7285 L 1409.1562 1069.7285 L 1409.1562 1082.0215 L 1409.8574 1082.0215 L 1409.8574 1069.7285 L 1413.8672 1069.7285 L 1413.8672 1082.0215 L 1483.4922 1082.0215 L 1483.4922 1033.1309 L 1489.2578 1033.1309 C 1490.1366 1033.1309 1490.8457 1031.9165 1490.8457 1030.4082 L 1490.8457 996.81445 C 1491.015 996.38151 1491.1348 995.88966 1491.1348 995.32617 L 1491.1348 993.55859 L 1495.9844 993.55859 L 1495.9844 1028.0293 C 1495.9844 1029.5376 1496.693 1030.752 1497.5723 1030.752 L 1527.0586 1030.752 C 1527.9382 1030.752 1528.6465 1029.5376 1528.6465 1028.0293 L 1528.6465 986.20898 L 1534.043 986.20898 C 1534.9226 986.20898 1535.6309 984.99466 1535.6309 983.48633 L 1535.6309 981.7168 L 1546.7266 981.7168 L 1546.7266 1015.2109 C 1546.7266 1015.9628 1547.0809 1016.5664 1547.5195 1016.5664 L 1631.7871 1016.5664 C 1632.226 1016.5664 1632.582 1015.9627 1632.582 1015.2109 L 1632.582 984.95898 L 1639.4277 1007.6738 C 1639.532 1008.0204 1639.6984 1008.0204 1639.8027 1007.6738 L 1641.6211 1001.6445 L 1645.3555 1014.0254 C 1645.459 1014.372 1645.6281 1014.372 1645.7324 1014.0254 L 1652.1055 992.88477 L 1653.5625 992.88477 L 1655.7227 1000.0508 C 1655.8262 1000.3977 1655.9949 1000.3977 1656.0996 1000.0508 L 1658.3652 992.52539 C 1658.5017 992.3168 1658.5926 992.03163 1658.6152 991.70508 L 1660.2715 986.20898 L 1667.1387 986.20898 C 1668.0176 986.20898 1668.7246 984.99462 1668.7246 983.48633 L 1668.7246 981.7168 L 1676.7969 981.7168 L 1676.7969 983.44336 C 1676.7969 984.19545 1677.1493 984.80469 1677.5879 984.80469 L 1684.0469 984.80469 L 1684.0469 987.07227 C 1684.0469 987.82432 1684.3973 988.43359 1684.8359 988.43359 L 1695.4668 988.43359 C 1695.906 988.43359 1696.2598 987.82405 1696.2598 987.07227 L 1696.2598 984.80469 L 1706.3984 984.80469 C 1706.4253 984.80469 1706.4502 984.78308 1706.4805 984.7793 L 1706.4805 992.33789 C 1706.4805 993.09009 1706.8328 993.69922 1707.2715 993.69922 L 1743.9336 993.69922 C 1744.3724 993.69922 1744.7285 993.08968 1744.7285 992.33789 L 1744.7285 987.34766 L 1758.6875 987.34766 L 1758.6875 1010.1309 C 1758.6875 1010.8828 1759.0399 1011.4863 1759.4785 1011.4863 L 1761.3672 1011.4863 C 1761.8058 1011.4863 1762.1582 1010.8826 1762.1582 1010.1309 L 1762.1582 989.25 L 1762.7539 989.25 C 1763.1926 989.25 1763.543 988.64632 1763.543 987.89453 L 1763.543 987.34766 L 1769.3789 987.34766 L 1769.3789 1014.5742 C 1769.3789 1015.3264 1769.7293 1015.9375 1770.168 1015.9375 L 1774.418 1015.9375 C 1774.8566 1015.9375 1775.207 1015.326 1775.207 1014.5742 L 1775.207 987.34766 L 1781.623 987.34766 L 1781.623 989.16602 C 1781.623 989.91791 1781.9794 990.52148 1782.418 990.52148 L 1786.6113 990.52148 C 1787.0502 990.52148 1787.4043 989.9178 1787.4043 989.16602 L 1787.4043 987.34766 L 1794.1055 987.34766 L 1794.1055 988.18359 C 1794.1055 988.93568 1794.4618 989.54492 1794.9004 989.54492 L 1795.6152 989.54492 L 1795.6152 992.91406 C 1795.6152 993.666 1795.9678 994.26953 1796.4062 994.26953 L 1805.4141 994.26953 L 1805.4141 994.88672 C 1805.4141 995.63866 1805.7703 996.24219 1806.209 996.24219 L 1807.1777 996.24219 C 1807.6164 996.24219 1807.9668 995.6385 1807.9668 994.88672 L 1807.9668 994.26953 L 1809.5879 994.26953 C 1810.0268 994.26953 1810.3809 993.66721 1810.3809 992.91406 L 1810.3809 989.54492 L 1811.6738 989.54492 C 1812.1124 989.54492 1812.4629 988.93538 1812.4629 988.18359 L 1812.4629 984.66797 L 1814.2109 984.66797 L 1814.2109 988.39453 C 1814.2109 989.14643 1814.5614 989.74805 1815 989.74805 L 1815.3359 989.74805 C 1815.3541 989.90131 1815.3783 990.04243 1815.418 990.17773 L 1815.418 991.0625 C 1815.418 991.61786 1815.6116 992.0856 1815.8887 992.29688 L 1815.8887 997.99609 C 1815.8887 998.74799 1816.2391 999.35156 1816.6777 999.35156 L 1819.0957 999.35156 L 1819.0957 1005.6816 C 1819.0957 1006.4337 1819.4461 1007.043 1819.8848 1007.043 L 1831.7832 1007.043 C 1832.222 1007.043 1832.5762 1006.4348 1832.5762 1005.6816 L 1832.5762 997.33008 L 1832.8301 997.33008 C 1833.2687 997.33008 1833.6191 996.7264 1833.6191 995.97461 L 1833.6191 994.9707 L 1844.6133 994.9707 L 1844.6133 1000.418 C 1844.6133 1001.1702 1844.9637 1001.7793 1845.4023 1001.7793 L 1849.334 1001.7793 C 1849.4559 1002.2589 1849.7332 1002.5938 1850.0586 1002.5938 L 1856.498 1002.5938 C 1856.9369 1002.5937 1857.291 1001.9901 1857.291 1001.2383 L 1857.291 994.9707 L 1858.9863 994.9707 L 1858.9863 998.19922 C 1858.9863 998.95112 1859.3368 999.55469 1859.7754 999.55469 L 1860.1797 999.55469 L 1860.1797 1005.2539 C 1860.1797 1006.006 1860.5321 1006.6152 1860.9707 1006.6152 L 1865.541 1006.6152 L 1865.541 1041.0645 L 1877.3965 1041.0645 L 1877.3965 1055.2148 C 1877.3965 1055.452 1877.5078 1055.6445 1877.6465 1055.6445 L 1897.2207 1055.6445 L 1897.2207 1061.6934 C 1897.2207 1061.9305 1897.3339 1062.123 1897.4727 1062.123 L 1904.4453 1062.123 L 1913.0938 1076.9609 C 1913.1907 1077.1287 1913.347 1077.1287 1913.4453 1076.9609 L 1920 1065.7188 L 1920 895.30664 L 0 895.30664 z M 748.66406 1031.1895 C 748.72416 1031.3168 748.78599 1031.4325 748.85742 1031.541 L 748.46484 1031.541 C 748.5393 1031.4341 748.60057 1031.3248 748.66406 1031.1895 z "
       style="fill:#eae8f3;fill-opacity:1;stroke-width:18.8976;stroke-linejoin:round"
       id="path4437" />
    <text
       id="text835"
       y="100.0063"
       x="89.743713"
       style="font-style:normal;font-weight:normal;font-size:55.4115px;line-height:1.25;font-family:sans-serif;letter-spacing:0px;word-spacing:0px;fill:#000314;fill-opacity:1;stroke:none;stroke-width:0.264584"
       xml:space="preserve"><tspan
         style="font-style:normal;font-variant:normal;font-weight:bold;font-stretch:normal;font-family:Roboto;-inkscape-font-specification:'Roboto Bold';fill:#000314;stroke-width:0.264584"
         y="100.0063"
         x="89.743713"
         id="tspan833"
         sodipodi:role="line">Coming Soon!</tspan></text>
  </g>
</svg>
