<?xml version="1.0" encoding="UTF-8" standalone="no"?>
<svg
   xmlns:dc="http://purl.org/dc/elements/1.1/"
   xmlns:cc="http://creativecommons.org/ns#"
   xmlns:rdf="http://www.w3.org/1999/02/22-rdf-syntax-ns#"
   xmlns:svg="http://www.w3.org/2000/svg"
   xmlns="http://www.w3.org/2000/svg"
   xmlns:sodipodi="http://sodipodi.sourceforge.net/DTD/sodipodi-0.dtd"
   xmlns:inkscape="http://www.inkscape.org/namespaces/inkscape"
   sodipodi:docname="The Ashton.svg"
   inkscape:version="1.0 (4035a4fb49, 2020-05-01)"
   id="svg6658"
   version="1.1"
   viewBox="0 0 421.82125 1054.1451"
   height="1054.1451mm"
   width="421.82126mm">
  <defs
     id="defs6652">
    <marker
       inkscape:stockid="Arrow1Lstart"
       orient="auto"
       refY="0"
       refX="0"
       id="Arrow1Lstart"
       style="overflow:visible"
       inkscape:isstock="true">
      <path
         id="path2781"
         d="M 0,0 5,-5 -12.5,0 5,5 Z"
         style="fill:#000000;fill-opacity:1;fill-rule:evenodd;stroke:#000000;stroke-width:1pt;stroke-opacity:1"
         transform="matrix(0.8,0,0,0.8,10,0)" />
    </marker>
  </defs>
  <sodipodi:namedview
     inkscape:snap-bbox="false"
     inkscape:window-maximized="0"
     inkscape:window-y="0"
     inkscape:window-x="696"
     inkscape:window-height="1001"
     inkscape:window-width="1206"
     fit-margin-bottom="0"
     fit-margin-right="0"
     fit-margin-left="0"
     fit-margin-top="0"
     showgrid="false"
     inkscape:document-rotation="0"
     inkscape:current-layer="layer1"
     inkscape:document-units="mm"
     inkscape:cy="1835.7427"
     inkscape:cx="652.0542"
     inkscape:zoom="0.175"
     inkscape:pageshadow="2"
     inkscape:pageopacity="0.0"
     borderopacity="1.0"
     bordercolor="#666666"
     pagecolor="#ffffff"
     id="base"
     inkscape:object-nodes="false"
     inkscape:object-paths="false" />
  <metadata
     id="metadata6655">
    <rdf:RDF>
      <cc:Work
         rdf:about="">
        <dc:format>image/svg+xml</dc:format>
        <dc:type
           rdf:resource="http://purl.org/dc/dcmitype/StillImage" />
        <dc:title></dc:title>
      </cc:Work>
    </rdf:RDF>
  </metadata>
  <g
     transform="translate(-235.46099,-78.78593)"
     id="layer1"
     inkscape:groupmode="layer"
     inkscape:label="Layer 1">
    <path
       sodipodi:nodetypes="sccccssssscsscssssccsscs"
       transform="matrix(0.26458333,0,0,0.26458333,143.23458,299.87183)"
       d="m 514.70508,-835.59375 c -101.02311,-0.40763 -166.13281,18.45117 -166.13281,18.45117 v 188.57031 h 80 c 0,1258.69076 0,2517.38147 0,3776.07227 0,0.5938 0.47673,1.0703 1.07031,1.0703 H 1941.7852 c 0.5935,0 1.0722,-0.4765 1.0722,-1.0703 V -513.21484 c 0,-0.59358 -0.4787,-1.07032 -1.0722,-1.07032 h -67.5 v -50.35742 c 0,-0.59357 -0.4768,-1.07226 -1.0704,-1.07226 h -90.3574 v -44.64258 c 0,-0.59354 -0.4787,-1.07031 -1.0722,-1.07031 h -632.1426 c -0.5936,0 -1.0703,0.47677 -1.0703,1.07031 v 44.64258 h -85.7149 v -170.35743 c 0,-0.59357 -0.4787,-1.07031 -1.0722,-1.07031 H 898.71484 c -144.5236,-78.13779 -282.42408,-98.04127 -384.00976,-98.45117 z"
       style="fill:#000314;fill-opacity:1;stroke:none;stroke-width:1.00157;stroke-linejoin:round"
       id="rect4956" />
  </g>
</svg>
