<?xml version="1.0" encoding="UTF-8" standalone="no"?>
<svg
   xmlns:dc="http://purl.org/dc/elements/1.1/"
   xmlns:cc="http://creativecommons.org/ns#"
   xmlns:rdf="http://www.w3.org/1999/02/22-rdf-syntax-ns#"
   xmlns:svg="http://www.w3.org/2000/svg"
   xmlns="http://www.w3.org/2000/svg"
   xmlns:sodipodi="http://sodipodi.sourceforge.net/DTD/sodipodi-0.dtd"
   xmlns:inkscape="http://www.inkscape.org/namespaces/inkscape"
   sodipodi:docname="17_One Eleven Congress.svg"
   inkscape:version="1.0 (4035a4fb49, 2020-05-01)"
   id="svg6658"
   version="1.1"
   viewBox="0 0 510.62637 736.10638"
   height="736.10638mm"
   width="510.62637mm">
  <defs
     id="defs6652">
    <marker
       inkscape:stockid="Arrow1Lstart"
       orient="auto"
       refY="0"
       refX="0"
       id="Arrow1Lstart"
       style="overflow:visible"
       inkscape:isstock="true">
      <path
         id="path2781"
         d="M 0,0 5,-5 -12.5,0 5,5 Z"
         style="fill:#000000;fill-opacity:1;fill-rule:evenodd;stroke:#000000;stroke-width:1pt;stroke-opacity:1"
         transform="matrix(0.8,0,0,0.8,10,0)" />
    </marker>
  </defs>
  <sodipodi:namedview
     inkscape:window-maximized="0"
     inkscape:window-y="0"
     inkscape:window-x="942"
     inkscape:window-height="1001"
     inkscape:window-width="960"
     fit-margin-bottom="0"
     fit-margin-right="0"
     fit-margin-left="0"
     fit-margin-top="0"
     showgrid="false"
     inkscape:document-rotation="0"
     inkscape:current-layer="layer1"
     inkscape:document-units="mm"
     inkscape:cy="1454.9204"
     inkscape:cx="985.27232"
     inkscape:zoom="2.8"
     inkscape:pageshadow="2"
     inkscape:pageopacity="0.0"
     borderopacity="1.0"
     bordercolor="#666666"
     pagecolor="#ffffff"
     id="base"
     inkscape:object-nodes="false"
     inkscape:object-paths="false" />
  <metadata
     id="metadata6655">
    <rdf:RDF>
      <cc:Work
         rdf:about="">
        <dc:format>image/svg+xml</dc:format>
        <dc:type
           rdf:resource="http://purl.org/dc/dcmitype/StillImage" />
        <dc:title />
      </cc:Work>
    </rdf:RDF>
  </metadata>
  <g
     transform="translate(141.13929,200.27038)"
     id="layer1"
     inkscape:groupmode="layer"
     inkscape:label="Layer 1">
    <g
       transform="translate(819.73552,-1029.3293)"
       id="g4894">
      <path
         id="path3090-0"
         style="fill:#cdc8e0;fill-opacity:1;stroke:none;stroke-width:0.264582px;stroke-linecap:butt;stroke-linejoin:miter;stroke-opacity:1"
         d="m -754.24245,1565.1653 v -49.4602 h -16.6595 v -46.9876 h -19.8329 v -48.2239 h -21.4193 v -49.4602 h -19.8329 v -43.8958 h -19.03916 c 0,0 0.2381,-41.7594 0.3199,-79.7956 h -16.0404 c -0.157,0 -0.2837,-0.1264 -0.2837,-0.2834 v -12.1063 h -27.4148 c -0.1571,0 -0.2837,-0.1265 -0.2837,-0.2834 v -23.2571 h -65.8622 c -0.1571,0 -0.2837,-0.1266 -0.2837,-0.2834 v -23.8001 c 0,-0.157 0.1266,-0.2829 0.2837,-0.2829 h 109.5949 c -0.01,-0.102 -0.02,-0.1944 -0.03,-0.2514 134.05426,0.8993 269.18096,-0.5746 400.43136,-0.5746 0.157,0 0.2832,0.126 0.2832,0.2829 v 21.7352 c 0,0.157 -0.1262,0.2835 -0.2832,0.2835 h -8.8119 v 1.3685 c 0,0.1568 -0.1261,0.2834 -0.2832,0.2834 h -6.8745 c -0.1571,0 -0.2837,-0.1266 -0.2837,-0.2834 v 3.3039 c 0,0.1569 -0.1262,0.2834 -0.2832,0.2834 h -7.1582 v 24.0831 c 0,0.1568 -0.1262,0.2834 -0.2832,0.2834 h -7.1582 v 3.4335 c 0,0.1568 -0.1262,0.2834 -0.2832,0.2834 h -4.6777 v 1.7815 c 0,0.1569 -0.1266,0.2834 -0.2837,0.2834 h -56.8968 c -0.157,0 -0.2837,-0.1265 -0.2837,-0.2834 v -1.7815 h -7.1577 c -0.1571,0 -0.2837,-0.1266 -0.2837,-0.2834 v -3.4335 h -6.6973 v 94.8583 h -19.388 v 40.1866 h -23.1975 v 50.6972 h -20.6256 v 45.7506 h -18.2465 v 48.8419 h -16.0408 v 46.9874 z"
         sodipodi:nodetypes="ccccccccccccsscsscsssscccssscssscsscsscsscsssscsscccccccccccccc" />
      <path
         sodipodi:nodetypes="ccccccccccccsscsscsssscccssscssscsscsscsscsssscsscccccccccccccc"
         d="m -754.17925,829.05892 v 49.51065 h -16.6595 v 47.03538 h -19.8329 v 48.27302 h -21.4193 v 49.51063 h -19.8329 v 43.9405 h -19.0392 c 0,0 0.2381,41.8019 0.3199,79.8768 h -16.0404 c -0.157,0 -0.2837,0.1266 -0.2837,0.2837 v 12.1186 h -27.4148 c -0.157,0 -0.2837,0.1267 -0.2837,0.2837 v 23.2808 h -65.8622 c -0.1571,0 -0.2837,0.1267 -0.2837,0.2837 v 23.8243 c 0,0.1572 0.1266,0.2832 0.2837,0.2832 h 109.5949 c -0.01,0.1021 -0.02,0.1946 -0.03,0.2517 134.0543,-0.9002 269.181,0.5752 400.4314,0.5752 0.157,0 0.2832,-0.1262 0.2832,-0.2832 v -21.7574 c 0,-0.1571 -0.1262,-0.2837 -0.2832,-0.2837 h -8.8119 v -1.3699 c 0,-0.157 -0.1261,-0.2837 -0.2832,-0.2837 h -6.8745 c -0.1571,0 -0.2837,0.1267 -0.2837,0.2837 v -3.3073 c 0,-0.1571 -0.1262,-0.2837 -0.2832,-0.2837 h -7.1582 v -24.1076 c 0,-0.157 -0.1262,-0.2837 -0.2832,-0.2837 h -7.1582 v -3.437 c 0,-0.157 -0.1262,-0.2837 -0.2832,-0.2837 h -4.6777 v -1.7833 c 0,-0.1571 -0.1266,-0.2837 -0.2837,-0.2837 h -56.8968 c -0.157,0 -0.2837,0.1266 -0.2837,0.2837 v 1.7833 h -7.1577 c -0.1571,0 -0.2837,0.1267 -0.2837,0.2837 v 3.437 h -6.6973 v -94.9549 h -19.388 v -40.2275 h -23.1975 v -50.74882 h -20.6256 v -45.7972 h -18.2465 v -48.89159 h -16.0408 v -47.03537 z"
         style="fill:#000314;fill-opacity:1;stroke:none;stroke-width:0.264582px;stroke-linecap:butt;stroke-linejoin:miter;stroke-opacity:1"
         id="path3090" />
    </g>
  </g>
</svg>
