<?xml version="1.0" encoding="UTF-8" standalone="no"?>
<svg
   xmlns:dc="http://purl.org/dc/elements/1.1/"
   xmlns:cc="http://creativecommons.org/ns#"
   xmlns:rdf="http://www.w3.org/1999/02/22-rdf-syntax-ns#"
   xmlns:svg="http://www.w3.org/2000/svg"
   xmlns="http://www.w3.org/2000/svg"
   xmlns:sodipodi="http://sodipodi.sourceforge.net/DTD/sodipodi-0.dtd"
   xmlns:inkscape="http://www.inkscape.org/namespaces/inkscape"
   width="162.5473mm"
   height="763.17456mm"
   viewBox="0 0 162.5473 763.17456"
   version="1.1"
   id="svg6658"
   inkscape:version="1.0 (4035a4fb49, 2020-05-01)"
   sodipodi:docname="28_San Jacinto Center.svg">
  <defs
     id="defs6652">
    <marker
       inkscape:isstock="true"
       style="overflow:visible"
       id="Arrow1Lstart"
       refX="0"
       refY="0"
       orient="auto"
       inkscape:stockid="Arrow1Lstart">
      <path
         transform="matrix(0.8,0,0,0.8,10,0)"
         style="fill:#000000;fill-opacity:1;fill-rule:evenodd;stroke:#000000;stroke-width:1pt;stroke-opacity:1"
         d="M 0,0 5,-5 -12.5,0 5,5 Z"
         id="path2781" />
    </marker>
  </defs>
  <sodipodi:namedview
     inkscape:object-paths="false"
     inkscape:object-nodes="false"
     id="base"
     pagecolor="#ffffff"
     bordercolor="#666666"
     borderopacity="1.0"
     inkscape:pageopacity="0.0"
     inkscape:pageshadow="2"
     inkscape:zoom="0.175"
     inkscape:cx="713.73446"
     inkscape:cy="2080.5709"
     inkscape:document-units="mm"
     inkscape:current-layer="layer1"
     inkscape:document-rotation="0"
     showgrid="false"
     fit-margin-top="0"
     fit-margin-left="0"
     fit-margin-right="0"
     fit-margin-bottom="0"
     inkscape:window-width="960"
     inkscape:window-height="1001"
     inkscape:window-x="942"
     inkscape:window-y="0"
     inkscape:window-maximized="0" />
  <metadata
     id="metadata6655">
    <rdf:RDF>
      <cc:Work
         rdf:about="">
        <dc:format>image/svg+xml</dc:format>
        <dc:type
           rdf:resource="http://purl.org/dc/dcmitype/StillImage" />
        <dc:title />
      </cc:Work>
    </rdf:RDF>
  </metadata>
  <g
     inkscape:label="Layer 1"
     inkscape:groupmode="layer"
     id="layer1"
     transform="translate(-44.8293,218.92188)">
    <g
       transform="translate(5741.9157,-1101.3121)"
       id="g4769">
      <path
         d="m -5616.1591,1645.5648 -39.9617,-22.4835 h -13.8138 c -0.6918,0 -1.2498,-0.5438 -1.2498,-1.218 v -9.1087 h -10.5243 c -0.6918,0 -1.2498,-0.5416 -1.2498,-1.2157 v -25.747 h -12.8804 c -0.6919,0 -1.2475,-0.5436 -1.2475,-1.2179 v -328.0035 c 0,-0.6743 0.5556,-1.2179 1.2475,-1.2179 h 159.396 c 0.6919,0 1.2498,0.5436 1.2498,1.2179 v 328.0035 c 0,0.6743 -0.5579,1.2179 -1.2498,1.2179 h -14.647 v 25.747 c 0,0.6741 -0.5557,1.2157 -1.2475,1.2157 h -9.3473 v 9.1087 c 0,0.6742 -0.558,1.218 -1.2498,1.218 h -13.2651 z"
         style="fill:#f2f0f9;fill-opacity:1;stroke:none;stroke-width:0.264999;stroke-linecap:butt;stroke-linejoin:round;stroke-miterlimit:4;stroke-dasharray:none;stroke-dashoffset:0;stroke-opacity:1"
         id="rect3102-4" />
      <path
         id="rect3102"
         style="fill:#c6c6c6;fill-opacity:1;stroke:none;stroke-width:0.265;stroke-linecap:butt;stroke-linejoin:round;stroke-miterlimit:4;stroke-dasharray:none;stroke-dashoffset:0;stroke-opacity:1"
         d="m -5615.5051,882.39022 -39.9617,23.0723 h -13.8138 c -0.6918,0 -1.2498,0.558 -1.2498,1.2498 v 9.3473 h -10.5243 c -0.6918,0 -1.2498,0.5557 -1.2498,1.2475 v 26.4211 h -12.8804 c -0.6919,0 -1.2475,0.5579 -1.2475,1.2498 v 336.59208 c 0,0.6919 0.5556,1.2498 1.2475,1.2498 h 159.396 c 0.6919,0 1.2498,-0.5579 1.2498,-1.2498 V 944.97802 c 0,-0.6919 -0.5579,-1.2498 -1.2498,-1.2498 h -14.647 v -26.4211 c 0,-0.6918 -0.5557,-1.2475 -1.2475,-1.2475 h -9.3473 v -9.3473 c 0,-0.6918 -0.558,-1.2498 -1.2498,-1.2498 h -13.2651 z" />
    </g>
  </g>
</svg>
