<?xml version="1.0" encoding="UTF-8" standalone="no"?>
<svg
   xmlns:dc="http://purl.org/dc/elements/1.1/"
   xmlns:cc="http://creativecommons.org/ns#"
   xmlns:rdf="http://www.w3.org/1999/02/22-rdf-syntax-ns#"
   xmlns:svg="http://www.w3.org/2000/svg"
   xmlns="http://www.w3.org/2000/svg"
   xmlns:sodipodi="http://sodipodi.sourceforge.net/DTD/sodipodi-0.dtd"
   xmlns:inkscape="http://www.inkscape.org/namespaces/inkscape"
   sodipodi:docname="2_Frost Bank Tower.svg"
   inkscape:version="1.0 (4035a4fb49, 2020-05-01)"
   id="svg6658"
   version="1.1"
   viewBox="0 0 260.51309 990.59673"
   height="990.59674mm"
   width="260.51309mm">
  <defs
     id="defs6652">
    <marker
       inkscape:stockid="Arrow1Lstart"
       orient="auto"
       refY="0"
       refX="0"
       id="Arrow1Lstart"
       style="overflow:visible"
       inkscape:isstock="true">
      <path
         id="path2781"
         d="M 0,0 5,-5 -12.5,0 5,5 Z"
         style="fill:#000000;fill-opacity:1;fill-rule:evenodd;stroke:#000000;stroke-width:1pt;stroke-opacity:1"
         transform="matrix(0.8,0,0,0.8,10,0)" />
    </marker>
  </defs>
  <sodipodi:namedview
     inkscape:window-maximized="0"
     inkscape:window-y="0"
     inkscape:window-x="942"
     inkscape:window-height="1001"
     inkscape:window-width="960"
     fit-margin-bottom="0"
     fit-margin-right="0"
     fit-margin-left="0"
     fit-margin-top="0"
     showgrid="false"
     inkscape:document-rotation="0"
     inkscape:current-layer="layer1"
     inkscape:document-units="mm"
     inkscape:cy="3206.6477"
     inkscape:cx="463.2945"
     inkscape:zoom="0.12374369"
     inkscape:pageshadow="2"
     inkscape:pageopacity="0.0"
     borderopacity="1.0"
     bordercolor="#666666"
     pagecolor="#ffffff"
     id="base"
     inkscape:object-nodes="false"
     inkscape:object-paths="false" />
  <metadata
     id="metadata6655">
    <rdf:RDF>
      <cc:Work
         rdf:about="">
        <dc:format>image/svg+xml</dc:format>
        <dc:type
           rdf:resource="http://purl.org/dc/dcmitype/StillImage" />
        <dc:title />
      </cc:Work>
    </rdf:RDF>
  </metadata>
  <g
     transform="translate(-6.0986,353.09757)"
     id="layer1"
     inkscape:groupmode="layer"
     inkscape:label="Layer 1">
    <g
       transform="translate(1299.6306,-1051.9345)"
       id="g4890">
      <path
         d="m -1147.6549,1689.4337 -12.3173,-40.9825 -6.9154,2.8166 -7.4188,-33.5771 -12.1308,3.5828 -6.7673,-25.225 h -9.1987 l -7.6499,-28.5149 v -71.9176 h -8.4228 v -233.3534 h -64.335 v -47.4352 h -10.7211 v -33.6659 l 260.4499,-0.7633 v 79.5684 h -6.8916 v 237.9423 h -10.5494 v 78.2371 l -7.9251,23.4913 h -10.031 l -7.641,21.3462 -10.5937,-3.8017 -10.8631,34.5091 -6.9094,-2.6658 -11.6037,39.9707 -11.2482,-15.5622 v -25.8581 l -4.6408,3.7544 -4.7653,-3.858 v 26.1925 z m 15.6758,-40.0476 4.6408,-3.7604 v -3.8905 h -9.4061 v 3.79 z m -4.7653,-9.1598 h 9.4061 v -2.3077 l -4.7178,-2.7248 -4.6883,2.707 z m 9.4061,-4.0651 v -3.6924 l -3.1985,1.8463 z m -9.4061,-0.017 3.1719,-1.8255 -3.1719,-1.8314 z m 4.6913,-2.7012 4.7148,-2.716 v -8.6421 l -4.8985,3.9646 -4.5076,-3.6509 v 8.3373 z m -0.1835,-9.3404 4.8985,-3.9674 v -6.858 l -4.8985,3.9704 -4.5075,-3.651 v 6.8553 z m 0,-8.8106 4.8985,-3.9704 v -5.6421 l -4.8985,3.9646 -4.5075,-3.651 v 5.6568 z m 0,-7.6036 4.8985,-3.9704 v -2.9024 h -9.406 v 3.2278 z m 1.2942,-11.2131 5.6804,-3.4349 1.6793,1.4999 3.93,-5.3431 2.1235,0.7426 1.5874,-6.435 2.2478,-0.1271 -1.001,-6.5562 2.0287,-0.9734 -3.4354,-5.6746 1.4985,-1.6745 -5.3456,-3.9261 0.7434,-2.1243 -6.4475,-1.5829 -0.1244,-2.2455 -6.5599,1 -0.9774,-2.0266 -5.6773,3.432 -1.6793,-1.5001 -3.933,5.3433 -2.1235,-0.7427 -1.5845,6.438 -2.2508,0.1242 1.0041,6.5533 -2.0318,0.9793 3.4384,5.6716 -1.5014,1.6745 5.3486,3.9291 -0.7434,2.1242 6.4445,1.5799 0.1271,2.2486 6.5601,-1.0031 z m -2.3633,-8.8373 -0.2579,-1.4912 -3.6517,0.1746 0.3319,-1.4763 -3.4444,-1.2396 0.8737,-1.2338 -2.704,-2.4586 1.2794,-0.8076 -1.5577,-3.3078 1.4896,-0.2576 -0.1719,-3.6509 1.4779,0.3344 1.2379,-3.4379 1.235,0.8728 2.4641,-2.7042 0.8085,1.2781 3.3081,-1.5563 0.2578,1.4912 3.6547,-0.1717 -0.3319,1.4734 3.4444,1.2366 -0.8737,1.2368 2.704,2.4586 -1.2794,0.8076 1.5579,3.3078 -1.4898,0.2576 0.1719,3.6509 -1.4778,-0.3373 -1.2379,3.4409 -1.238,-0.8727 -2.4611,2.7071 -0.8085,-1.2811 z"
         style="fill:#cdc8e0;fill-opacity:1;stroke:none;stroke-width:0.264999;stroke-linecap:butt;stroke-linejoin:miter;stroke-miterlimit:4;stroke-dasharray:none;stroke-opacity:1"
         id="path2574-4" />
      <path
         id="path2574"
         style="fill:#000314;fill-opacity:1;stroke:none;stroke-width:0.264999;stroke-linecap:butt;stroke-linejoin:miter;stroke-miterlimit:4;stroke-dasharray:none;stroke-opacity:1"
         d="m -1147.5917,698.83693 -12.3173,41.02422 -6.9154,-2.81945 -7.4188,33.61132 -12.1308,-3.58656 -6.7673,25.25073 h -9.1987 l -7.6499,28.54397 v 71.99082 h -8.4228 V 1126.443 h -64.335 v 47.4835 h -10.7211 v 33.7002 l 260.4499,0.7641 v -79.6495 h -6.8916 V 890.55674 h -10.5494 v -78.31682 l -7.9251,-23.51519 h -10.031 l -7.641,-21.36799 -10.5937,3.80565 -10.8631,-34.54422 -6.9094,2.66845 -11.6037,-40.01137 -11.2482,15.57807 v 25.88445 l -4.6408,-3.75825 -4.7653,3.86193 v -26.21916 z m 15.6758,40.08834 4.6408,3.76422 v 3.89449 h -9.4061 v -3.7938 z m -4.7653,9.16913 h 9.4061 v 2.31009 l -4.7178,2.72763 -4.6883,-2.70987 z m 9.4061,4.06929 v 3.69608 l -3.1985,-1.84804 z m -9.4061,0.0172 3.1719,1.8273 -3.1719,1.83325 z m 4.6913,2.70392 4.7148,2.71876 v 8.65087 l -4.8985,-3.96853 -4.5076,3.65458 v -8.3458 z m -0.1835,9.34983 4.8985,3.97152 v 6.86501 l -4.8985,-3.9745 -4.5075,3.65465 v -6.86209 z m 0,8.81965 4.8985,3.97449 v 5.6478 l -4.8985,-3.96859 -4.5075,3.65465 v -5.66258 z m 0,7.61137 4.8985,3.97444 v 2.90536 h -9.406 v -3.23112 z m 1.2942,11.22446 5.6804,3.43847 1.6793,-1.50154 3.93,5.34864 2.1235,-0.74338 1.5874,6.44154 2.2478,0.12722 -1.001,6.56294 2.0287,0.97434 -3.4354,5.6804 1.4985,1.67622 -5.3456,3.93008 0.7434,2.12645 -6.4475,1.58447 -0.1244,2.24783 -6.5599,-1.00104 -0.9774,2.02874 -5.6773,-3.43549 -1.6793,1.50155 -3.933,-5.34869 -2.1235,0.74337 -1.5845,-6.44447 -2.2508,-0.12436 1.0041,-6.55994 -2.0318,-0.9803 3.4384,-5.67743 -1.5014,-1.67621 5.3486,-3.93306 -0.7434,-2.1264 6.4445,-1.58155 0.1271,-2.25082 6.5601,1.00403 z m -2.3633,8.84636 -0.2579,1.49265 -3.6517,-0.17479 0.3319,1.47781 -3.4444,1.24095 0.8737,1.23498 -2.704,2.4611 1.2794,0.80848 -1.5577,3.31112 1.4896,0.2579 -0.1719,3.65458 1.4779,-0.33469 1.2379,3.44139 1.235,-0.87364 2.4641,2.7069 0.8085,-1.27941 3.3081,1.55782 0.2578,-1.49266 3.6547,0.17193 -0.3319,-1.47489 3.4444,-1.23797 -0.8737,-1.23796 2.704,-2.46109 -1.2794,-0.80848 1.5579,-3.31112 -1.4898,-0.2579 0.1719,-3.65459 -1.4778,0.33756 -1.2379,-3.44437 -1.238,0.87364 -2.4611,-2.70981 -0.8085,1.28232 z" />
    </g>
  </g>
</svg>
