<?xml version="1.0" encoding="UTF-8" standalone="no"?>
<svg
   xmlns:dc="http://purl.org/dc/elements/1.1/"
   xmlns:cc="http://creativecommons.org/ns#"
   xmlns:rdf="http://www.w3.org/1999/02/22-rdf-syntax-ns#"
   xmlns:svg="http://www.w3.org/2000/svg"
   xmlns="http://www.w3.org/2000/svg"
   xmlns:sodipodi="http://sodipodi.sourceforge.net/DTD/sodipodi-0.dtd"
   xmlns:inkscape="http://www.inkscape.org/namespaces/inkscape"
   width="45.44529mm"
   height="88.910851mm"
   viewBox="0 0 45.44529 88.91085"
   version="1.1"
   id="svg6658"
   inkscape:version="1.0 (4035a4fb49, 2020-05-01)"
   sodipodi:docname="301 Congress.svg">
  <defs
     id="defs6652">
    <marker
       inkscape:isstock="true"
       style="overflow:visible"
       id="Arrow1Lstart"
       refX="0"
       refY="0"
       orient="auto"
       inkscape:stockid="Arrow1Lstart">
      <path
         transform="matrix(0.8,0,0,0.8,10,0)"
         style="fill:#000000;fill-opacity:1;fill-rule:evenodd;stroke:#000000;stroke-width:1pt;stroke-opacity:1"
         d="M 0,0 5,-5 -12.5,0 5,5 Z"
         id="path2781" />
    </marker>
  </defs>
  <sodipodi:namedview
     inkscape:object-paths="false"
     inkscape:object-nodes="false"
     id="base"
     pagecolor="#ffffff"
     bordercolor="#666666"
     borderopacity="1.0"
     inkscape:pageopacity="0.0"
     inkscape:pageshadow="2"
     inkscape:zoom="1.979899"
     inkscape:cx="101.15763"
     inkscape:cy="158.15869"
     inkscape:document-units="mm"
     inkscape:current-layer="layer1"
     inkscape:document-rotation="0"
     showgrid="false"
     fit-margin-top="0"
     fit-margin-left="0"
     fit-margin-right="0"
     fit-margin-bottom="0"
     inkscape:window-width="960"
     inkscape:window-height="1001"
     inkscape:window-x="951"
     inkscape:window-y="-9"
     inkscape:window-maximized="0" />
  <metadata
     id="metadata6655">
    <rdf:RDF>
      <cc:Work
         rdf:about="">
        <dc:format>image/svg+xml</dc:format>
        <dc:type
           rdf:resource="http://purl.org/dc/dcmitype/StillImage" />
        <dc:title></dc:title>
      </cc:Work>
    </rdf:RDF>
  </metadata>
  <g
     inkscape:label="Layer 1"
     inkscape:groupmode="layer"
     id="layer1"
     transform="translate(-99.338312,-120.8193)">
    <path
       transform="matrix(0.26458333,0,0,0.26458333,99.338312,120.8193)"
       d="M 83.337891 -5.625 C 83.064008 -5.6250048 82.789938 -5.5184532 82.580078 -5.3085938 L 65.150391 12.121094 L 53.09375 12.121094 C 52.500175 12.121094 52.023438 12.599785 52.023438 13.193359 L 52.023438 50.507812 L 42.992188 50.507812 C 42.398613 50.507812 41.921875 50.98455 41.921875 51.578125 L 41.921875 115.1582 L 30.365234 115.1582 C 29.77166 115.1582 29.294922 115.63494 29.294922 116.22852 L 29.294922 334.29883 C 29.294922 334.8924 29.77166 335.37109 30.365234 335.37109 L 142.875 335.37109 C 143.46857 335.37109 143.94727 334.8924 143.94727 334.29883 L 143.94727 116.22852 C 143.94727 115.63494 143.46857 115.1582 142.875 115.1582 L 126.26953 115.1582 L 126.26953 51.578125 C 126.26953 50.98455 125.7908 50.507812 125.19727 50.507812 L 114.65234 50.507812 L 114.65234 13.193359 C 114.65234 12.599785 114.17365 12.121094 113.58008 12.121094 L 101.52539 12.121094 L 84.095703 -5.3085938 C 83.885843 -5.5184541 83.611773 -5.6249952 83.337891 -5.625 z "
       style="fill:#000314;fill-opacity:1;stroke:none;stroke-width:1.00157;stroke-linecap:butt;stroke-linejoin:round;stroke-miterlimit:4;stroke-dasharray:none;stroke-dashoffset:0;stroke-opacity:1"
       id="rect3114" />
  </g>
</svg>
