<?xml version="1.0" encoding="UTF-8" standalone="no"?>
<svg
   xmlns:dc="http://purl.org/dc/elements/1.1/"
   xmlns:cc="http://creativecommons.org/ns#"
   xmlns:rdf="http://www.w3.org/1999/02/22-rdf-syntax-ns#"
   xmlns:svg="http://www.w3.org/2000/svg"
   xmlns="http://www.w3.org/2000/svg"
   xmlns:sodipodi="http://sodipodi.sourceforge.net/DTD/sodipodi-0.dtd"
   xmlns:inkscape="http://www.inkscape.org/namespaces/inkscape"
   sodipodi:docname="34_301 Congress.svg"
   inkscape:version="1.0 (4035a4fb49, 2020-05-01)"
   id="svg6658"
   version="1.1"
   viewBox="0 0 260.3562 1751.8556"
   height="1751.8556mm"
   width="260.3562mm">
  <defs
     id="defs6652">
    <marker
       inkscape:stockid="Arrow1Lstart"
       orient="auto"
       refY="0"
       refX="0"
       id="Arrow1Lstart"
       style="overflow:visible"
       inkscape:isstock="true">
      <path
         id="path2781"
         d="M 0,0 5,-5 -12.5,0 5,5 Z"
         style="fill:#000000;fill-opacity:1;fill-rule:evenodd;stroke:#000000;stroke-width:1pt;stroke-opacity:1"
         transform="matrix(0.8,0,0,0.8,10,0)" />
    </marker>
  </defs>
  <sodipodi:namedview
     inkscape:window-maximized="0"
     inkscape:window-y="0"
     inkscape:window-x="942"
     inkscape:window-height="1001"
     inkscape:window-width="960"
     fit-margin-bottom="0"
     fit-margin-right="0"
     fit-margin-left="0"
     fit-margin-top="0"
     showgrid="false"
     inkscape:document-rotation="0"
     inkscape:current-layer="layer1"
     inkscape:document-units="mm"
     inkscape:cy="5255.1081"
     inkscape:cx="242.00838"
     inkscape:zoom="0.087500001"
     inkscape:pageshadow="2"
     inkscape:pageopacity="0.0"
     borderopacity="1.0"
     bordercolor="#666666"
     pagecolor="#ffffff"
     id="base"
     inkscape:object-nodes="false"
     inkscape:object-paths="false" />
  <metadata
     id="metadata6655">
    <rdf:RDF>
      <cc:Work
         rdf:about="">
        <dc:format>image/svg+xml</dc:format>
        <dc:type
           rdf:resource="http://purl.org/dc/dcmitype/StillImage" />
        <dc:title />
      </cc:Work>
    </rdf:RDF>
  </metadata>
  <g
     transform="translate(-10.587,735.06328)"
     id="layer1"
     inkscape:groupmode="layer"
     inkscape:label="Layer 1">
    <g
       transform="translate(5488.0314,-1116.7247)"
       id="g4773">
      <path
         id="rect3114-0"
         style="fill:#f2f0f9;fill-opacity:1;stroke:none;stroke-width:0.264999;stroke-linecap:butt;stroke-linejoin:round;stroke-miterlimit:4;stroke-dasharray:none;stroke-dashoffset:0;stroke-opacity:1"
         d="m -5354.7807,2133.517 c -0.6219,0 -1.2437,-0.2745 -1.7201,-0.8147 l -39.5608,-44.8865 h -27.3656 c -1.3472,0 -2.4293,-1.2327 -2.4293,-2.7614 v -96.0957 h -20.4985 c -1.3473,0 -2.4294,-1.2276 -2.4294,-2.7563 v -163.7373 h -26.2306 c -1.3473,0 -2.4294,-1.2277 -2.4294,-2.7564 v -561.5948 c 0,-1.5286 1.0821,-2.7613 2.4294,-2.7613 h 255.3683 c 1.3471,0 2.4337,1.2327 2.4337,2.7613 v 561.5948 c 0,1.5287 -1.0866,2.7564 -2.4337,2.7564 h -37.6902 v 163.7373 c 0,1.5287 -1.0866,2.7563 -2.4338,2.7563 h -23.9343 v 96.0957 c 0,1.5287 -1.0864,2.7614 -2.4337,2.7614 h -27.361 l -39.561,44.8865 c -0.4761,0.5402 -1.0984,0.8147 -1.72,0.8147 z" />
      <path
         d="m -5354.6559,381.66142 c -0.6219,0 -1.2437,0.2817 -1.7201,0.836 l -39.5608,46.0618 h -27.3656 c -1.3472,0 -2.4293,1.265 -2.4293,2.8337 v 98.6119 h -20.4985 c -1.3473,0 -2.4294,1.2598 -2.4294,2.8285 v 168.0246 h -26.2306 c -1.3473,0 -2.4294,1.2599 -2.4294,2.8286 v 576.29968 c 0,1.5687 1.0821,2.8337 2.4294,2.8337 h 255.3683 c 1.3471,0 2.4337,-1.265 2.4337,-2.8337 V 703.68652 c 0,-1.5687 -1.0866,-2.8286 -2.4337,-2.8286 h -37.6902 v -168.0246 c 0,-1.5687 -1.0866,-2.8285 -2.4338,-2.8285 h -23.9343 v -98.6119 c 0,-1.5687 -1.0864,-2.8337 -2.4337,-2.8337 h -27.361 l -39.561,-46.0618 c -0.4761,-0.5543 -1.0984,-0.836 -1.72,-0.836 z"
         style="fill:#c6c6c6;fill-opacity:1;stroke:none;stroke-width:0.264999;stroke-linecap:butt;stroke-linejoin:round;stroke-miterlimit:4;stroke-dasharray:none;stroke-dashoffset:0;stroke-opacity:1"
         id="rect3114" />
    </g>
  </g>
</svg>
