<?xml version="1.0" encoding="UTF-8" standalone="no"?>
<svg
   xmlns:dc="http://purl.org/dc/elements/1.1/"
   xmlns:cc="http://creativecommons.org/ns#"
   xmlns:rdf="http://www.w3.org/1999/02/22-rdf-syntax-ns#"
   xmlns:svg="http://www.w3.org/2000/svg"
   xmlns="http://www.w3.org/2000/svg"
   xmlns:sodipodi="http://sodipodi.sourceforge.net/DTD/sodipodi-0.dtd"
   xmlns:inkscape="http://www.inkscape.org/namespaces/inkscape"
   width="217.2164mm"
   height="965.1106mm"
   viewBox="0 0 217.2164 965.1106"
   version="1.1"
   id="svg6658"
   inkscape:version="1.0 (4035a4fb49, 2020-05-01)"
   sodipodi:docname="40_The Shore.svg">
  <defs
     id="defs6652">
    <marker
       inkscape:isstock="true"
       style="overflow:visible"
       id="Arrow1Lstart"
       refX="0"
       refY="0"
       orient="auto"
       inkscape:stockid="Arrow1Lstart">
      <path
         transform="matrix(0.8,0,0,0.8,10,0)"
         style="fill:#000000;fill-opacity:1;fill-rule:evenodd;stroke:#000000;stroke-width:1pt;stroke-opacity:1"
         d="M 0,0 5,-5 -12.5,0 5,5 Z"
         id="path2781" />
    </marker>
  </defs>
  <sodipodi:namedview
     inkscape:object-paths="false"
     inkscape:object-nodes="false"
     id="base"
     pagecolor="#ffffff"
     bordercolor="#666666"
     borderopacity="1.0"
     inkscape:pageopacity="0.0"
     inkscape:pageshadow="2"
     inkscape:zoom="0.12374369"
     inkscape:cx="-152.64857"
     inkscape:cy="2604.1959"
     inkscape:document-units="mm"
     inkscape:current-layer="layer1"
     inkscape:document-rotation="0"
     showgrid="false"
     fit-margin-top="0"
     fit-margin-left="0"
     fit-margin-right="0"
     fit-margin-bottom="0"
     inkscape:window-width="1206"
     inkscape:window-height="1001"
     inkscape:window-x="696"
     inkscape:window-y="0"
     inkscape:window-maximized="0" />
  <metadata
     id="metadata6655">
    <rdf:RDF>
      <cc:Work
         rdf:about="">
        <dc:format>image/svg+xml</dc:format>
        <dc:type
           rdf:resource="http://purl.org/dc/dcmitype/StillImage" />
        <dc:title />
      </cc:Work>
    </rdf:RDF>
  </metadata>
  <g
     inkscape:label="Layer 1"
     inkscape:groupmode="layer"
     id="layer1"
     transform="translate(-13.2707,365.43478)">
    <g
       transform="translate(5002.1336,-1145.5522)"
       id="g4777">
      <path
         id="rect4902-8"
         style="fill:#f2f0f9;fill-opacity:1;stroke-width:0.264999;stroke-linejoin:round"
         d="m -4899.629,1745.228 v -21.947 h -63.3489 c -1.0586,0 -1.9123,-1.0049 -1.9123,-2.2509 v -4.0179 h -5.4132 c -1.0586,0 -1.9124,-1.0048 -1.9124,-2.2509 v -40.8602 h -14.7347 c -1.0587,0 -1.9124,-1.0007 -1.9124,-2.2468 v -414.055 c 0,-1.246 0.8537,-2.2467 1.9124,-2.2467 h 213.2703 c 1.0586,0 1.9089,1.0007 1.9089,2.2467 v 442.2709 c 0,1.2461 -0.8503,2.2468 -1.9089,2.2468 h -2.7553 v 37.6253 c -20.955,-2.3515 -17.8736,-7.2834 -30.417,-17.3059 -12.5433,-10.0225 -18.8556,-6.9946 -18.8556,-6.9946 v -13.3248 h -5.9949 v 12.6443 c 0,1.2461 -0.8538,2.2509 -1.9124,2.2509 h -10.7393 v 4.0179 c 0,1.246 -0.8537,2.2509 -1.9123,2.2509 h -6.082 v 14.108 c -14.6504,7.8381 -47.28,7.839 -47.28,7.839 z"
         sodipodi:nodetypes="ccsscsscsssccsssccscccsscssccc" />
      <path
         sodipodi:nodetypes="ccsscsscsssccsssccscccsscssccc"
         d="m -4899.5042,780.11742 v 22.5217 h -63.3489 c -1.0586,0 -1.9123,1.0312 -1.9123,2.3098 v 4.1232 h -5.4132 c -1.0586,0 -1.9124,1.0311 -1.9124,2.3098 v 41.9301 h -14.7347 c -1.0587,0 -1.9124,1.0269 -1.9124,2.3056 v 424.89668 c 0,1.2786 0.8537,2.3056 1.9124,2.3056 h 213.2703 c 1.0586,0 1.9089,-1.027 1.9089,-2.3056 V 826.66292 c 0,-1.2787 -0.8503,-2.3056 -1.9089,-2.3056 h -2.7553 v -38.6105 c -20.955,2.413 -17.8736,7.4741 -30.417,17.759 -12.5433,10.2849 -18.8556,7.1777 -18.8556,7.1777 v 13.6738 h -5.9949 v -12.9754 c 0,-1.2787 -0.8538,-2.3098 -1.9124,-2.3098 h -10.7393 v -4.1232 c 0,-1.2786 -0.8537,-2.3098 -1.9123,-2.3098 h -6.082 v -14.4774 c -14.6504,-8.0433 -47.28,-8.0443 -47.28,-8.0443 z"
         style="fill:#c6c6c6;stroke-width:0.264999;stroke-linejoin:round"
         id="rect4902" />
    </g>
  </g>
</svg>
