<?xml version="1.0" encoding="UTF-8" standalone="no"?>
<svg
   xmlns:dc="http://purl.org/dc/elements/1.1/"
   xmlns:cc="http://creativecommons.org/ns#"
   xmlns:rdf="http://www.w3.org/1999/02/22-rdf-syntax-ns#"
   xmlns:svg="http://www.w3.org/2000/svg"
   xmlns="http://www.w3.org/2000/svg"
   xmlns:sodipodi="http://sodipodi.sourceforge.net/DTD/sodipodi-0.dtd"
   xmlns:inkscape="http://www.inkscape.org/namespaces/inkscape"
   width="150.6272mm"
   height="671.08044mm"
   viewBox="0 0 150.6272 671.08045"
   version="1.1"
   id="svg6658"
   inkscape:version="1.0 (4035a4fb49, 2020-05-01)"
   sodipodi:docname="4_360 Condominiums.svg">
  <defs
     id="defs6652">
    <marker
       inkscape:isstock="true"
       style="overflow:visible"
       id="Arrow1Lstart"
       refX="0"
       refY="0"
       orient="auto"
       inkscape:stockid="Arrow1Lstart">
      <path
         transform="matrix(0.8,0,0,0.8,10,0)"
         style="fill:#000000;fill-opacity:1;fill-rule:evenodd;stroke:#000000;stroke-width:1pt;stroke-opacity:1"
         d="M 0,0 5,-5 -12.5,0 5,5 Z"
         id="path2781" />
    </marker>
  </defs>
  <sodipodi:namedview
     inkscape:object-paths="false"
     inkscape:object-nodes="false"
     id="base"
     pagecolor="#ffffff"
     bordercolor="#666666"
     borderopacity="1.0"
     inkscape:pageopacity="0.0"
     inkscape:pageshadow="2"
     inkscape:zoom="0.24748737"
     inkscape:cx="57.793465"
     inkscape:cy="2223.8029"
     inkscape:document-units="mm"
     inkscape:current-layer="layer1"
     inkscape:document-rotation="0"
     showgrid="false"
     fit-margin-top="0"
     fit-margin-left="0"
     fit-margin-right="0"
     fit-margin-bottom="0"
     inkscape:window-width="1206"
     inkscape:window-height="1001"
     inkscape:window-x="696"
     inkscape:window-y="0"
     inkscape:window-maximized="0" />
  <metadata
     id="metadata6655">
    <rdf:RDF>
      <cc:Work
         rdf:about="">
        <dc:format>image/svg+xml</dc:format>
        <dc:type
           rdf:resource="http://purl.org/dc/dcmitype/StillImage" />
        <dc:title />
      </cc:Work>
    </rdf:RDF>
  </metadata>
  <g
     inkscape:label="Layer 1"
     inkscape:groupmode="layer"
     id="layer1"
     transform="translate(-476.13534,-145.76032)">
    <g
       transform="translate(870.46619,-712.91602)"
       id="g4898">
      <path
         sodipodi:nodetypes="sscsscsssccssscsscsscsss"
         d="m -384.62035,1529.7568 c -0.055,0 -0.1,-0.045 -0.1,-0.1001 v -18.5679 h -4.1714 c -0.055,0 -0.1,-0.045 -0.1,-0.1001 v -16.4343 h -5.2391 c -0.055,0 -0.1,-0.045 -0.1,-0.1001 v -313.4228 c 0,-0.056 0.045,-0.1 0.1,-0.1 l 150.3637,-0.5333 c 0.055,0 0.1003,0.044 0.1003,0.1001 v 194.4806 c 0,0.055 -0.045,0.1001 -0.1003,0.1001 h -59.1642 v 119.3753 c 0,0.055 -0.045,0.1001 -0.1003,0.1001 h -71.9783 v 16.4343 c 0,0.056 -0.045,0.1001 -0.1,0.1001 h -4.1713 v 18.5679 c 0,0.055 -0.045,0.1001 -0.1002,0.1001 z"
         style="fill:#cdc8e0;fill-opacity:1;stroke:none;stroke-width:0.264999;stroke-linejoin:round"
         id="rect4919-1" />
      <path
         id="rect4919"
         style="fill:#000314;fill-opacity:1;stroke:none;stroke-width:0.264999;stroke-linejoin:round"
         d="m -384.55715,858.67634 c -0.055,0 -0.1,0.0448 -0.1,0.10019 v 18.58684 h -4.1714 c -0.055,0 -0.1,0.0448 -0.1,0.10018 v 16.45116 h -5.2391 c -0.055,0 -0.1,0.0448 -0.1,0.10019 v 313.7419 c 0,0.056 0.045,0.1001 0.1,0.1001 l 150.3639,0.5339 c 0.055,0 0.1001,-0.044 0.1001,-0.1002 v -194.6787 c 0,-0.055 -0.045,-0.1002 -0.1001,-0.1002 h -59.1645 V 894.0149 c 0,-0.0555 -0.045,-0.10019 -0.1002,-0.10019 h -71.9784 v -16.45116 c 0,-0.0555 -0.045,-0.10018 -0.1,-0.10018 h -4.1712 v -18.58684 c 0,-0.0555 -0.045,-0.10019 -0.1002,-0.10019 z"
         sodipodi:nodetypes="sscsscsssccssscsscsscsss" />
    </g>
  </g>
</svg>
