<?xml version="1.0" encoding="UTF-8" standalone="no"?>
<svg
   xmlns:dc="http://purl.org/dc/elements/1.1/"
   xmlns:cc="http://creativecommons.org/ns#"
   xmlns:rdf="http://www.w3.org/1999/02/22-rdf-syntax-ns#"
   xmlns:svg="http://www.w3.org/2000/svg"
   xmlns="http://www.w3.org/2000/svg"
   xmlns:sodipodi="http://sodipodi.sourceforge.net/DTD/sodipodi-0.dtd"
   xmlns:inkscape="http://www.inkscape.org/namespaces/inkscape"
   width="173.60539mm"
   height="491.09406mm"
   viewBox="0 0 173.60539 491.09406"
   version="1.1"
   id="svg6658"
   inkscape:version="1.0 (4035a4fb49, 2020-05-01)"
   sodipodi:docname="9_The Northshore.svg">
  <defs
     id="defs6652">
    <marker
       inkscape:isstock="true"
       style="overflow:visible"
       id="Arrow1Lstart"
       refX="0"
       refY="0"
       orient="auto"
       inkscape:stockid="Arrow1Lstart">
      <path
         transform="matrix(0.8,0,0,0.8,10,0)"
         style="fill:#000000;fill-opacity:1;fill-rule:evenodd;stroke:#000000;stroke-width:1pt;stroke-opacity:1"
         d="M 0,0 5,-5 -12.5,0 5,5 Z"
         id="path2781" />
    </marker>
  </defs>
  <sodipodi:namedview
     inkscape:object-paths="false"
     inkscape:object-nodes="false"
     id="base"
     pagecolor="#ffffff"
     bordercolor="#666666"
     borderopacity="1.0"
     inkscape:pageopacity="0.0"
     inkscape:pageshadow="2"
     inkscape:zoom="0.175"
     inkscape:cx="385.8428"
     inkscape:cy="1099.6227"
     inkscape:document-units="mm"
     inkscape:current-layer="layer1"
     inkscape:document-rotation="0"
     showgrid="false"
     fit-margin-top="0"
     fit-margin-left="0"
     fit-margin-right="0"
     fit-margin-bottom="0"
     inkscape:window-width="1206"
     inkscape:window-height="1001"
     inkscape:window-x="696"
     inkscape:window-y="0"
     inkscape:window-maximized="0" />
  <metadata
     id="metadata6655">
    <rdf:RDF>
      <cc:Work
         rdf:about="">
        <dc:format>image/svg+xml</dc:format>
        <dc:type
           rdf:resource="http://purl.org/dc/dcmitype/StillImage" />
        <dc:title />
      </cc:Work>
    </rdf:RDF>
  </metadata>
  <g
     inkscape:label="Layer 1"
     inkscape:groupmode="layer"
     id="layer1"
     transform="translate(-305.8961,-394.50338)">
    <g
       transform="translate(4418.3505,-598.95758)"
       id="g4833">
      <path
         id="rect4941-0-2"
         style="fill:#dad7e9;fill-opacity:1;stroke:none;stroke-width:0.264999;stroke-linejoin:round"
         d="m -4033.82,1484.5549 c -0.049,0 -0.088,-0.039 -0.088,-0.088 v -52.8484 h -15.4331 c -0.049,0 -0.088,-0.039 -0.088,-0.088 v -104.8477 h -43.6536 c -0.049,0 -0.088,-0.039 -0.088,-0.088 v -65.9653 h -19.1957 c -0.049,0 -0.088,-0.039 -0.088,-0.088 v -34.4905 c 0,-0.049 0.039,-0.088 0.088,-0.088 h 173.3796 c 0.049,0 0.088,0.039 0.088,0.088 v 34.4905 c 0,0.049 -0.039,0.088 -0.088,0.088 h -6.0263 v 65.9653 c 0,0.049 -0.039,0.088 -0.088,0.088 h -0.8525 v 104.8478 c 0,0.049 -0.039,0.088 -0.088,0.088 h -8.3779 v 52.8484 c 0,0.049 -0.039,0.088 -0.088,0.088 z" />
      <path
         d="m -4033.7702,993.46106 c -0.049,0 -0.088,0.039 -0.088,0.088 v 53.06044 h -15.4331 c -0.049,0 -0.088,0.039 -0.088,0.088 v 105.2684 h -43.6536 c -0.049,0 -0.088,0.039 -0.088,0.088 v 66.23 h -19.1957 c -0.049,0 -0.088,0.039 -0.088,0.088 v 34.6289 c 0,0.049 0.039,0.088 0.088,0.088 h 173.3796 c 0.049,0 0.088,-0.039 0.088,-0.088 v -34.6289 c 0,-0.049 -0.039,-0.088 -0.088,-0.088 h -6.0263 v -66.23 c 0,-0.049 -0.039,-0.088 -0.088,-0.088 h -0.8525 v -105.2685 c 0,-0.049 -0.039,-0.088 -0.088,-0.088 h -8.3779 v -53.06044 c 0,-0.049 -0.039,-0.088 -0.088,-0.088 z"
         style="fill:#8f8fa4;fill-opacity:1;stroke:none;stroke-width:0.264999;stroke-linejoin:round"
         id="rect4941-0" />
    </g>
  </g>
</svg>
