<?xml version="1.0" encoding="UTF-8" standalone="no"?>
<svg
   xmlns:dc="http://purl.org/dc/elements/1.1/"
   xmlns:cc="http://creativecommons.org/ns#"
   xmlns:rdf="http://www.w3.org/1999/02/22-rdf-syntax-ns#"
   xmlns:svg="http://www.w3.org/2000/svg"
   xmlns="http://www.w3.org/2000/svg"
   xmlns:sodipodi="http://sodipodi.sourceforge.net/DTD/sodipodi-0.dtd"
   xmlns:inkscape="http://www.inkscape.org/namespaces/inkscape"
   sodipodi:docname="The Northshore.svg"
   inkscape:version="1.0 (4035a4fb49, 2020-05-01)"
   id="svg6658"
   version="1.1"
   viewBox="0 0 557.89306 834.57178"
   height="834.57178mm"
   width="557.89307mm">
  <defs
     id="defs6652">
    <marker
       inkscape:stockid="Arrow1Lstart"
       orient="auto"
       refY="0"
       refX="0"
       id="Arrow1Lstart"
       style="overflow:visible"
       inkscape:isstock="true">
      <path
         id="path2781"
         d="M 0,0 5,-5 -12.5,0 5,5 Z"
         style="fill:#000000;fill-opacity:1;fill-rule:evenodd;stroke:#000000;stroke-width:1pt;stroke-opacity:1"
         transform="matrix(0.8,0,0,0.8,10,0)" />
    </marker>
  </defs>
  <sodipodi:namedview
     inkscape:window-maximized="0"
     inkscape:window-y="0"
     inkscape:window-x="696"
     inkscape:window-height="1001"
     inkscape:window-width="1206"
     fit-margin-bottom="0"
     fit-margin-right="0"
     fit-margin-left="0"
     fit-margin-top="0"
     showgrid="false"
     inkscape:document-rotation="0"
     inkscape:current-layer="layer1"
     inkscape:document-units="mm"
     inkscape:cy="1457.2853"
     inkscape:cx="1000.6265"
     inkscape:zoom="0.175"
     inkscape:pageshadow="2"
     inkscape:pageopacity="0.0"
     borderopacity="1.0"
     bordercolor="#666666"
     pagecolor="#ffffff"
     id="base"
     inkscape:object-nodes="false"
     inkscape:object-paths="false" />
  <metadata
     id="metadata6655">
    <rdf:RDF>
      <cc:Work
         rdf:about="">
        <dc:format>image/svg+xml</dc:format>
        <dc:type
           rdf:resource="http://purl.org/dc/dcmitype/StillImage" />
        <dc:title></dc:title>
      </cc:Work>
    </rdf:RDF>
  </metadata>
  <g
     transform="translate(-143.23458,-299.87183)"
     id="layer1"
     inkscape:groupmode="layer"
     inkscape:label="Layer 1">
    <path
       d="m 396.00623,299.87183 c -0.15705,0 -0.2837,0.12666 -0.2837,0.28371 v 170.56168 h -49.60938 c -0.15705,0 -0.28318,0.12665 -0.28318,0.28371 V 809.38388 H 205.50623 c -0.15705,0 -0.2837,0.12666 -0.2837,0.28371 v 212.89501 h -61.70424 c -0.15705,0 -0.28371,0.1261 -0.28371,0.2832 v 111.3141 c 0,0.157 0.12666,0.2837 0.28371,0.2837 h 557.32567 c 0.15705,0 0.28368,-0.1267 0.28368,-0.2837 v -111.3141 c 0,-0.1571 -0.12663,-0.2832 -0.28368,-0.2832 H 681.47251 V 809.66759 c 0,-0.15705 -0.12612,-0.28371 -0.28318,-0.28371 h -2.74039 V 471.00093 c 0,-0.15706 -0.12666,-0.28371 -0.28372,-0.28371 H 651.23458 V 300.15554 c 0,-0.15705 -0.12615,-0.28371 -0.28318,-0.28371 z"
       style="fill:#000314;fill-opacity:1;stroke:none;stroke-width:0.264999;stroke-linejoin:round"
       id="rect4941" />
  </g>
</svg>
