<?xml version="1.0" encoding="UTF-8" standalone="no"?>
<svg
   xmlns:dc="http://purl.org/dc/elements/1.1/"
   xmlns:cc="http://creativecommons.org/ns#"
   xmlns:rdf="http://www.w3.org/1999/02/22-rdf-syntax-ns#"
   xmlns:svg="http://www.w3.org/2000/svg"
   xmlns="http://www.w3.org/2000/svg"
   xmlns:sodipodi="http://sodipodi.sourceforge.net/DTD/sodipodi-0.dtd"
   xmlns:inkscape="http://www.inkscape.org/namespaces/inkscape"
   sodipodi:docname="__State Capitol.svg"
   inkscape:version="1.0 (4035a4fb49, 2020-05-01)"
   id="svg6658"
   version="1.1"
   viewBox="0 0 153.74256 85.183723"
   height="85.183723mm"
   width="153.74255mm">
  <defs
     id="defs6652" />
  <sodipodi:namedview
     inkscape:window-maximized="0"
     inkscape:window-y="12"
     inkscape:window-x="678"
     inkscape:window-height="1001"
     inkscape:window-width="1158"
     fit-margin-bottom="0"
     fit-margin-right="0"
     fit-margin-left="0"
     fit-margin-top="0"
     showgrid="false"
     inkscape:document-rotation="0"
     inkscape:current-layer="layer1"
     inkscape:document-units="mm"
     inkscape:cy="225.75882"
     inkscape:cx="316.06965"
     inkscape:zoom="1.4"
     inkscape:pageshadow="2"
     inkscape:pageopacity="0.0"
     borderopacity="1.0"
     bordercolor="#666666"
     pagecolor="#ffffff"
     id="base"
     inkscape:object-nodes="false" />
  <metadata
     id="metadata6655">
    <rdf:RDF>
      <cc:Work
         rdf:about="">
        <dc:format>image/svg+xml</dc:format>
        <dc:type
           rdf:resource="http://purl.org/dc/dcmitype/StillImage" />
        <dc:title />
      </cc:Work>
    </rdf:RDF>
  </metadata>
  <g
     transform="translate(-30.751286,-124.73394)"
     id="layer1"
     inkscape:groupmode="layer"
     inkscape:label="Layer 1">
    <path
       sodipodi:nodetypes="cccccccccccccccccccccccccccccccccccccccccccccccccccccccccsccsccssssccscssccccccccccccccsccccccccccccccccccccccccccccccccccccccccccccccccsscccccccccccccccccccccc"
       d="m 110.70248,124.73394 -0.24805,0.43666 -0.51521,0.0625 -0.0563,-0.43718 h -0.28732 l -0.0584,0.44803 -0.16692,0.10025 -0.2527,0.65681 -0.37103,0.45786 -0.13333,-0.0501 0.031,0.17467 0.6506,0.63923 0.0253,0.46716 -0.13384,0.0165 0.001,0.15038 0.12351,-0.0165 0.008,1.31154 -2.00607,1.69292 0.002,0.73536 0.47749,0.008 -0.0661,7.50755 c -5.08134,1.7337 -6.10689,6.54312 -5.85236,12.8695 l -2.014861,0.045 v 1.53427 h 0.922941 l 0.0315,6.48384 h -2.554881 v 1.90893 h 0.96376 v 13.87254 h -1.65416 v 2.92695 h -2.736267 v 1.39992 H 83.059204 v 4.07262 H 54.677991 v -1.52704 H 49.71447 l -3.945496,-1.39992 v -1.52755 h -1.654162 v -2.92695 l -0.49196,0.28422 v 2.67994 h -1.671733 v 1.61747 l -3.563607,1.27279 h -4.789888 v 1.14515 h -1.573547 v 2.6727 h -1.272791 v 1.65468 h 1.527556 v 21.76302 h 66.538157 v -8.71213 c 0,-0.15705 0.15595,-0.19184 0.2837,-0.28319 1.481311,-1.05918 3.045901,-1.32826 4.778521,0 0.12464,0.0956 0.28319,0.12614 0.28319,0.28319 v 8.71213 h 3.94239 v -8.71213 c 0,-0.15705 0.15476,-0.19354 0.28371,-0.28319 1.40654,-0.97788 2.8743,-1.63217 4.778,0 0.11923,0.10222 0.2837,0.12614 0.2837,0.28319 v 8.71213 h 3.9424 v -8.71213 c 0,-0.15705 0.16217,-0.1831 0.28318,-0.28319 1.33075,-1.10065 2.82138,-1.53017 4.77852,0 0.12372,0.0967 0.28371,0.12614 0.28371,0.28319 v 8.71213 h 60.22878 v -21.12688 h 1.52704 v -1.52704 h -1.39992 v -2.54558 h -1.39991 v -1.14515 h -4.58163 c -1.51604,-0.99747 -1.74827,-1.04335 -2.79983,-1.65468 v -1.27279 h -1.01854 v -2.67219 c 0,0 -0.63614,-0.63635 -0.63614,0 v 2.70423 h -1.39992 v 1.24075 c -1.18067,0.48098 -2.30836,1.0651 -3.43648,1.65468 h -4.70876 v 1.14515 h -27.99932 v -3.94498 H 124.9321 v -1.39991 h -2.54558 v -3.05459 h -1.27279 V 162.1916 h 0.83044 v -1.65468 h -2.67581 l 0.0636,-7.27863 1.17667,-0.007 v -1.52755 l -2.2164,-0.045 c 0.25851,-5.68319 -1.44915,-11.0416 -6.51795,-12.52585 0.01,-2.45384 -0.0767,-5.14104 -0.0687,-7.59488 l 0.5581,-0.0419 0.015,-0.68627 -2.16369,-1.65467 -0.0155,-1.31827 0.14677,-0.009 0.0202,-0.17467 -0.15038,-0.0114 0.0264,-1.11569 -0.093,-0.47904 -0.031,-0.57051 0.57981,-0.23874 0.23616,-0.49455 z m 12.03554,85.18343 h -5.34541 z m -9.28781,0 h -5.34541 z m -9.2878,0 h -5.345411 z m 5.34014,-84.2791 -0.0284,0.52297 -0.19844,0.85834 c 0,0 -0.43976,-0.44529 -0.43976,-0.48989 0,-0.0224 0.25458,-0.15029 0.39222,-0.40566 0.13715,-0.25444 0.2744,-0.48576 0.2744,-0.48576 z m -1.33118,5.92729 h 0.30075 v 7.54993 h -0.30075 z m 2.77295,0 h 0.33435 v 7.61711 h -0.33435 z m -10.79055,30.40176 h 0.601 v 13.69736 h -0.601 z m 19.41122,0.16175 h 0.60151 v 14.12265 h -0.60151 z"
       style="fill:#000314;fill-opacity:1;stroke:none;stroke-width:0.0649999;stroke-linecap:butt;stroke-linejoin:miter;stroke-miterlimit:4;stroke-dasharray:none;stroke-opacity:1"
       id="path6632" />
  </g>
</svg>
