<?xml version="1.0" encoding="UTF-8" standalone="no"?>
<svg
   xmlns:dc="http://purl.org/dc/elements/1.1/"
   xmlns:cc="http://creativecommons.org/ns#"
   xmlns:rdf="http://www.w3.org/1999/02/22-rdf-syntax-ns#"
   xmlns:svg="http://www.w3.org/2000/svg"
   xmlns="http://www.w3.org/2000/svg"
   xmlns:sodipodi="http://sodipodi.sourceforge.net/DTD/sodipodi-0.dtd"
   xmlns:inkscape="http://www.inkscape.org/namespaces/inkscape"
   sodipodi:docname="Background Buildings.svg"
   inkscape:version="1.0 (4035a4fb49, 2020-05-01)"
   id="svg7864"
   version="1.1"
   viewBox="0 0 2383.541 468.996"
   height="468.996mm"
   width="2383.541mm">
  <defs
     id="defs7858" />
  <sodipodi:namedview
     inkscape:window-maximized="1"
     inkscape:window-y="-9"
     inkscape:window-x="-9"
     inkscape:window-height="1001"
     inkscape:window-width="1920"
     showgrid="false"
     inkscape:document-rotation="0"
     inkscape:current-layer="layer1"
     inkscape:document-units="mm"
     inkscape:cy="1698.7901"
     inkscape:cx="3016.541"
     inkscape:zoom="0.175"
     inkscape:pageshadow="2"
     inkscape:pageopacity="0.0"
     borderopacity="1.0"
     bordercolor="#666666"
     pagecolor="#ffffff"
     id="base" />
  <metadata
     id="metadata7861">
    <rdf:RDF>
      <cc:Work
         rdf:about="">
        <dc:format>image/svg+xml</dc:format>
        <dc:type
           rdf:resource="http://purl.org/dc/dcmitype/StillImage" />
        <dc:title></dc:title>
      </cc:Work>
    </rdf:RDF>
  </metadata>
  <g
     transform="translate(753.2707,33.4146)"
     id="layer1"
     inkscape:groupmode="layer"
     inkscape:label="Layer 1">
    <g
       transform="translate(7748.2577,-1044.602)"
       id="g4729">
      <path
         id="rect1225-9"
         style="opacity:1;fill:#f2f0f9;fill-opacity:1;stroke:none;stroke-width:4.99999;stroke-linejoin:round"
         d="m -7831.0198,1480.1834 -4.3692,-6.6476 c 0,0 0.061,-0.043 0.064,-0.045 -0.077,-0.044 -0.1307,-0.1171 -0.1307,-0.2043 v -19.3717 c -0.8104,-0.627 -1.8595,-0.9401 -3.1601,-1.1402 v 11.8671 h -0.9999 v -11.9947 c -0.4019,-0.044 -0.8244,-0.085 -1.2676,-0.1235 v 6.4742 h -1 v -6.5604 c -1.3416,-0.1126 -2.842,-0.2441 -4.5305,-0.4998 v 0 c -0.1509,-0.01 -0.2713,-0.1124 -0.2713,-0.2465 v -30.2702 l -10.9579,-7.9821 0.2868,-0.1625 c -0.011,-0.027 -0.02,-0.056 -0.02,-0.087 v -46.7038 h -3.2887 v 15.323 h -1.5121 v -15.3232 h -2.3993 c -0.1571,0 -0.2832,-0.1108 -0.2832,-0.2488 v -33.5571 h -36.3487 v 37.3133 c 0,0.1379 -0.1266,0.2491 -0.2837,0.2491 h -5.919 v 11.8981 h -1.0004 v -11.8981 h -5.6261 v 13.8368 c 0,0.1379 -0.1266,0.2487 -0.2837,0.2487 h -51.8175 c -0.157,0 -0.2837,-0.1108 -0.2837,-0.2487 v -13.8368 h -10.4071 c -0.157,0 -0.2837,-0.1112 -0.2837,-0.2491 v -26.0448 h -38.203 c -0.1571,0 -0.2832,-0.1108 -0.2832,-0.2488 v -11.0197 h -5.8803 v 31.6788 c 0,0.1379 -0.1261,0.2492 -0.2832,0.2492 h -19.4944 v 12.8976 c 0,0.1379 -0.1266,0.2491 -0.2837,0.2491 h -10.4071 v 6.3245 c 0,0.1379 -0.1267,0.2487 -0.2837,0.2487 h -1.8573 l 2.1684,7.1092 -52.9777,-7.1092 h -0.2201 c -0.063,0 -0.1179,-0.021 -0.1649,-0.052 l -1.066,-0.143 0.9565,-0.014 c 0,-0.014 -0.01,-0.026 -0.01,-0.04 v -6.3244 h -24.305 c -0.1571,0 -0.2837,-0.1112 -0.2837,-0.2491 v -12.8976 h -21.916 v 28.8618 c 0,0.1379 -0.1266,0.2487 -0.2837,0.2487 h -7.46 c -10.9427,8.6512 -29.1674,10.79 -44.0014,10.8708 -13.3973,0.073 -24.0275,-1.5319 -24.0275,-1.5319 l -12.0954,-9.2958 0.054,-0.043 h -0.6356 c -0.1571,0 -0.2837,-0.1108 -0.2837,-0.2488 v -28.8617 h -28.5827 c -0.1571,0 -0.2832,-0.1113 -0.2832,-0.2492 v -31.6788 h -42.229 v 7.2636 c 0,0.138 -0.1261,0.2487 -0.2832,0.2487 h -49.5944 l -2.3854,11.1586 c 0,0 -6.5157,1.3301 -15.1427,1.5102 l -2.7642,12.9307 c 0,0 -32.4391,6.6488 -48.4709,-7.7393 -5.9533,1.2634 -20.0782,2.7258 -27.4955,-9.4087 h -2.1818 c -0.157,0 -0.2837,-0.1108 -0.2837,-0.2488 v -15.715 h -40.8445 c -0.157,0 -0.2832,-0.1112 -0.2832,-0.2492 v -84.017 c 0,-0.138 0.1262,-0.2488 0.2832,-0.2488 h 2383.1946 v 84.515 h -0.5343 v 61.2591 c 0,0.1379 -0.1266,0.2492 -0.2837,0.2492 h -11.4763 v 23.6967 c 0,0.1379 -0.1262,0.2491 -0.2832,0.2491 h -2.1058 c -0.1571,0 -0.2837,-0.1112 -0.2837,-0.2491 v -23.6967 h -10.4071 c -0.157,0 -0.2837,-0.1113 -0.2837,-0.2492 v -52.8076 h -12.2944 v 3.5069 c 0,0.138 -0.1262,0.2492 -0.2832,0.2492 h -7.3608 l -9.7952,8.6035 c -0.1111,0.098 -0.2895,0.098 -0.4005,0 l -9.7953,-8.6035 h -7.8956 c -0.157,0 -0.2832,-0.1112 -0.2832,-0.2492 v -3.5069 h -22.1671 c -0.1571,0 -0.2832,-0.1112 -0.2832,-0.2492 v -8.2023 h -1561.9239 v 33.5571 c 0,0.1379 -0.1261,0.2487 -0.2831,0.2487 h -6.1309 v 11.0197 c 0,0.138 -0.1267,0.2492 -0.2837,0.2492 h -22.1672 v 35.4349 c 0,0.138 -0.1266,0.2492 -0.2837,0.2492 h -0.8924 l -12.7217,7.9821 v 30.2703 c 0,0.138 -0.1266,0.2488 -0.2837,0.2488 h -3.9926 c -3.258,0.3992 -4.9826,0.55 -5.8802,1.3799 v 19.9695 c 0,0.1011 -0.069,0.187 -0.1669,0.2261 0,0 0.033,0.023 0.033,0.023 z" />
      <path
         d="m -7831.083,1011.1874 -4.3692,7.5681 c 0,0 0.061,0.049 0.064,0.051 -0.077,0.051 -0.1308,0.1333 -0.1308,0.2326 v 22.0539 c -0.8103,0.7138 -1.8594,1.0703 -3.16,1.2981 v -13.5103 h -0.9999 v 13.6555 c -0.402,0.05 -0.8244,0.097 -1.2677,0.1406 v -7.3706 h -0.9999 v 7.4688 c -1.3416,0.1281 -2.842,0.2778 -4.5305,0.5689 v 0 c -0.151,0.01 -0.2713,0.128 -0.2713,0.2806 v 34.4615 l -10.958,9.0873 0.2868,0.185 c -0.011,0.031 -0.02,0.064 -0.02,0.099 v 53.1704 h -3.2887 v -17.4449 h -1.512 v 17.4449 h -2.3994 c -0.157,0 -0.2832,0.1261 -0.2832,0.2832 v 38.2033 h -36.3486 v -42.4796 c 0,-0.157 -0.1267,-0.2837 -0.2837,-0.2837 h -5.9191 v -13.5454 h -1.0004 v 13.5454 h -5.626 v -15.7525 c 0,-0.157 -0.1267,-0.2832 -0.2837,-0.2832 h -51.8176 c -0.157,0 -0.2836,0.1262 -0.2836,0.2832 v 15.7525 h -10.4072 c -0.157,0 -0.2837,0.1267 -0.2837,0.2837 v 29.651 h -38.2033 c -0.1571,0 -0.2832,0.126 -0.2832,0.2831 v 12.5455 h -5.8803 v -36.065 c 0,-0.157 -0.1261,-0.2837 -0.2832,-0.2837 h -19.4944 v -14.6833 c 0,-0.157 -0.1266,-0.2837 -0.2837,-0.2837 h -10.4071 v -7.2001 c 0,-0.157 -0.1266,-0.2832 -0.2837,-0.2832 h -1.8573 l 2.1684,-8.0935 -52.9776,8.0935 h -0.2202 c -0.063,0 -0.1179,0.024 -0.1648,0.059 l -1.0661,0.1628 0.9565,0.016 c 0,0.015 -0.01,0.029 -0.01,0.045 v 7.2001 h -24.305 c -0.157,0 -0.2836,0.1267 -0.2836,0.2837 v 14.6834 h -21.916 v -32.858 c 0,-0.157 -0.1267,-0.2832 -0.2837,-0.2832 h -7.46 c -10.9427,-9.849 -29.1675,-12.284 -44.0015,-12.376 -13.3972,-0.083 -24.0274,1.7441 -24.0274,1.7441 l -12.0954,10.5829 0.054,0.049 h -0.6356 c -0.1571,0 -0.2837,0.1262 -0.2837,0.2832 v 32.858 h -28.5824 c -0.1571,0 -0.2832,0.1266 -0.2832,0.2837 v 36.065 h -42.229 v -8.2693 c 0,-0.1571 -0.1261,-0.2832 -0.2831,-0.2832 h -49.5944 l -2.3854,-12.7036 c 0,0 -6.5158,-1.5142 -15.1428,-1.7193 l -2.7641,-14.7211 c 0,0 -32.4391,-7.5693 -48.471,8.8109 -5.9532,-1.4383 -20.0782,-3.1032 -27.4955,10.7115 h -2.1817 c -0.1571,0 -0.2837,0.126 -0.2837,0.2831 v 17.891 h -40.8446 c -0.157,0 -0.2832,0.1266 -0.2832,0.2836 v 95.65 c 0,0.1571 0.1262,0.2832 0.2832,0.2832 h 2383.1946 v -96.2168 h -0.5343 v -69.741 c 0,-0.1571 -0.1266,-0.2837 -0.2838,-0.2837 h -11.4763 v -26.9777 c 0,-0.157 -0.1261,-0.2837 -0.2831,-0.2837 h -2.1059 c -0.1571,0 -0.2837,0.1267 -0.2837,0.2837 v 26.9777 h -10.4071 c -0.157,0 -0.2837,0.1266 -0.2837,0.2837 v 60.1193 h -12.2943 v -3.9925 c 0,-0.1571 -0.1262,-0.2837 -0.2832,-0.2837 h -7.3608 l -9.7953,-9.7948 c -0.1111,-0.111 -0.2894,-0.111 -0.4005,0 l -9.7952,9.7948 h -7.8957 c -0.157,0 -0.2832,0.1266 -0.2832,0.2837 v 3.9925 h -22.1671 c -0.1571,0 -0.2832,0.1266 -0.2832,0.2837 v 9.338 h -1561.9237 v -38.2034 c 0,-0.1571 -0.1262,-0.2832 -0.2832,-0.2832 h -6.1309 v -12.5455 c 0,-0.157 -0.1267,-0.2837 -0.2837,-0.2837 h -22.1671 v -40.3412 c 0,-0.157 -0.1267,-0.2837 -0.2837,-0.2837 h -0.8925 l -12.7217,-9.0873 v -34.4615 c 0,-0.157 -0.1266,-0.2831 -0.2837,-0.2831 h -3.9925 c -3.258,-0.4546 -4.9827,-0.6262 -5.8803,-1.571 v -22.7345 c 0,-0.1151 -0.069,-0.2129 -0.1669,-0.2574 0,0 0.033,-0.026 0.033,-0.026 z"
         style="fill:#d9d9d9;fill-opacity:1;stroke-width:4.99999;stroke-linejoin:round"
         id="rect1225" />
    </g>
  </g>
</svg>
