<?xml version="1.0" encoding="UTF-8" standalone="no"?>
<svg
   xmlns:dc="http://purl.org/dc/elements/1.1/"
   xmlns:cc="http://creativecommons.org/ns#"
   xmlns:rdf="http://www.w3.org/1999/02/22-rdf-syntax-ns#"
   xmlns:svg="http://www.w3.org/2000/svg"
   xmlns="http://www.w3.org/2000/svg"
   xmlns:sodipodi="http://sodipodi.sourceforge.net/DTD/sodipodi-0.dtd"
   xmlns:inkscape="http://www.inkscape.org/namespaces/inkscape"
   width="45.44529mm"
   height="88.910851mm"
   viewBox="0 0 45.44529 88.91085"
   version="1.1"
   id="svg6658"
   inkscape:version="1.0 (4035a4fb49, 2020-05-01)"
   sodipodi:docname="Frost Bank Tower.svg">
  <defs
     id="defs6652">
    <marker
       inkscape:isstock="true"
       style="overflow:visible"
       id="Arrow1Lstart"
       refX="0"
       refY="0"
       orient="auto"
       inkscape:stockid="Arrow1Lstart">
      <path
         transform="matrix(0.8,0,0,0.8,10,0)"
         style="fill:#000000;fill-opacity:1;fill-rule:evenodd;stroke:#000000;stroke-width:1pt;stroke-opacity:1"
         d="M 0,0 5,-5 -12.5,0 5,5 Z"
         id="path2781" />
    </marker>
  </defs>
  <sodipodi:namedview
     inkscape:object-paths="false"
     inkscape:object-nodes="false"
     id="base"
     pagecolor="#ffffff"
     bordercolor="#666666"
     borderopacity="1.0"
     inkscape:pageopacity="0.0"
     inkscape:pageshadow="2"
     inkscape:zoom="1.979899"
     inkscape:cx="173.75805"
     inkscape:cy="170.08504"
     inkscape:document-units="mm"
     inkscape:current-layer="layer1"
     inkscape:document-rotation="0"
     showgrid="false"
     fit-margin-top="0"
     fit-margin-left="0"
     fit-margin-right="0"
     fit-margin-bottom="0"
     inkscape:window-width="960"
     inkscape:window-height="1001"
     inkscape:window-x="951"
     inkscape:window-y="-9"
     inkscape:window-maximized="0" />
  <metadata
     id="metadata6655">
    <rdf:RDF>
      <cc:Work
         rdf:about="">
        <dc:format>image/svg+xml</dc:format>
        <dc:type
           rdf:resource="http://purl.org/dc/dcmitype/StillImage" />
        <dc:title></dc:title>
      </cc:Work>
    </rdf:RDF>
  </metadata>
  <g
     inkscape:label="Layer 1"
     inkscape:groupmode="layer"
     id="layer1"
     transform="translate(-99.338312,-120.8193)">
    <path
       transform="matrix(0.26458333,0,0,0.26458333,31.986353,124.47127)"
       d="m 350.76172,-13.802734 -8.12305,27.054687 -4.56055,-1.859375 -4.89257,22.166016 -8,-2.365235 -4.46289,16.652344 h -6.06641 l -5.04492,18.824219 v 47.476558 h -5.55469 v 154.04883 h -42.42773 v 31.31446 h -7.07032 v 22.22461 l 171.76172,0.5039 v -52.52734 h -4.54492 V 112.63281 h -6.95703 V 60.984375 L 409.5918,45.476562 h -6.61524 l -5.03906,-14.091796 -6.98633,2.509765 -7.16406,-22.78125 -4.55664,1.759766 -7.65235,-26.386719 -7.41796,10.2734376 V 13.830078 l -3.06055,-2.478516 -3.14258,2.546876 V -3.3925781 Z m 10.33789,26.4375 3.06055,2.482422 v 2.568359 h -6.20313 v -2.501953 z m -3.14258,6.046875 h 6.20313 v 1.523437 l -3.11133,1.798828 -3.0918,-1.787109 z m 6.20313,2.683593 v 2.4375 l -2.10938,-1.21875 z m -6.20313,0.01172 2.0918,1.205078 -2.0918,1.208985 z m 3.09375,1.783203 3.10938,1.792969 v 5.705078 l -3.23047,-2.617187 -2.97266,2.410156 v -5.503906 z m -0.12109,6.166016 3.23047,2.61914 v 4.527344 l -3.23047,-2.621094 -2.97266,2.410157 v -4.525391 z m 0,5.816406 3.23047,2.621094 v 3.724609 l -3.23047,-2.617187 -2.97266,2.410156 v -3.734375 z m 0,5.019531 3.23047,2.621094 v 1.916016 h -6.20313 v -2.13086 z m 0.85351,7.402344 3.7461,2.267578 1.10742,-0.990234 2.5918,3.527344 1.40039,-0.490235 1.04687,4.248047 1.48242,0.08398 -0.66015,4.328124 1.33789,0.642579 -2.26563,3.746093 0.98828,1.105469 -3.52539,2.591797 0.49024,1.402344 -4.25196,1.044922 -0.082,1.482422 -4.32617,-0.660157 -0.64453,1.337891 -3.74414,-2.265625 -1.10742,0.990234 -2.59375,-3.527343 -1.40039,0.490234 -1.04493,-4.25 -1.48437,-0.08203 0.66211,-4.326172 -1.33984,-0.646485 2.26757,-3.74414 -0.99023,-1.105469 3.52734,-2.59375 -0.49023,-1.402344 4.25,-1.042969 0.084,-1.484374 4.32617,0.662109 z m -1.55859,5.833985 -0.16992,0.984374 -2.40821,-0.115234 0.21875,0.97461 -2.27148,0.818359 0.57617,0.814453 -1.7832,1.623047 0.84375,0.533203 -1.02735,2.183594 0.98243,0.169922 -0.11328,2.410156 0.97461,-0.220703 0.8164,2.269531 0.81445,-0.576172 1.625,1.785156 0.53321,-0.84375 2.18164,1.027344 0.16992,-0.984375 2.41016,0.113281 -0.21875,-0.972656 2.27148,-0.816406 -0.57617,-0.816406 1.7832,-1.623047 -0.84375,-0.533203 1.02735,-2.183594 -0.98243,-0.169922 0.11329,-2.410156 -0.97461,0.222656 -0.81641,-2.271484 -0.81641,0.576172 -1.62304,-1.78711 -0.53321,0.845703 z"
       style="fill:#000314;fill-opacity:1;stroke:none;stroke-width:1.00157;stroke-linecap:butt;stroke-linejoin:miter;stroke-miterlimit:4;stroke-dasharray:none;stroke-opacity:1"
       id="path2574" />
  </g>
</svg>
