<?xml version="1.0" encoding="UTF-8" standalone="no"?>
<svg
   xmlns:dc="http://purl.org/dc/elements/1.1/"
   xmlns:cc="http://creativecommons.org/ns#"
   xmlns:rdf="http://www.w3.org/1999/02/22-rdf-syntax-ns#"
   xmlns:svg="http://www.w3.org/2000/svg"
   xmlns="http://www.w3.org/2000/svg"
   xmlns:sodipodi="http://sodipodi.sourceforge.net/DTD/sodipodi-0.dtd"
   xmlns:inkscape="http://www.inkscape.org/namespaces/inkscape"
   sodipodi:docname="The Shore.svg"
   inkscape:version="1.0 (4035a4fb49, 2020-05-01)"
   id="svg6658"
   version="1.1"
   viewBox="0 0 32.20578 61.744549"
   height="61.744549mm"
   width="32.20578mm">
  <defs
     id="defs6652">
    <marker
       inkscape:stockid="Arrow1Lstart"
       orient="auto"
       refY="0"
       refX="0"
       id="Arrow1Lstart"
       style="overflow:visible"
       inkscape:isstock="true">
      <path
         id="path2781"
         d="M 0,0 5,-5 -12.5,0 5,5 Z"
         style="fill:#000000;fill-opacity:1;fill-rule:evenodd;stroke:#000000;stroke-width:1pt;stroke-opacity:1"
         transform="matrix(0.8,0,0,0.8,10,0)" />
    </marker>
  </defs>
  <sodipodi:namedview
     inkscape:window-maximized="0"
     inkscape:window-y="0"
     inkscape:window-x="696"
     inkscape:window-height="1001"
     inkscape:window-width="1206"
     fit-margin-bottom="0"
     fit-margin-right="0"
     fit-margin-left="0"
     fit-margin-top="0"
     showgrid="false"
     inkscape:document-rotation="0"
     inkscape:current-layer="layer1"
     inkscape:document-units="mm"
     inkscape:cy="-36.122441"
     inkscape:cx="1.7033496"
     inkscape:zoom="1.4"
     inkscape:pageshadow="2"
     inkscape:pageopacity="0.0"
     borderopacity="1.0"
     bordercolor="#666666"
     pagecolor="#ffffff"
     id="base"
     inkscape:object-nodes="false"
     inkscape:object-paths="false" />
  <metadata
     id="metadata6655">
    <rdf:RDF>
      <cc:Work
         rdf:about="">
        <dc:format>image/svg+xml</dc:format>
        <dc:type
           rdf:resource="http://purl.org/dc/dcmitype/StillImage" />
        <dc:title></dc:title>
      </cc:Work>
    </rdf:RDF>
  </metadata>
  <g
     transform="translate(-106.9488,-148.68151)"
     id="layer1"
     inkscape:groupmode="layer"
     inkscape:label="Layer 1">
    <path
       sodipodi:nodetypes="ccsscsscsssccsssccscccsscssccc"
       d="m 120.18675,148.68151 v 2.76624 h -9.39788 c -0.15705,0 -0.2837,0.12665 -0.2837,0.2837 v 0.50643 h -0.80305 c -0.15705,0 -0.28371,0.12665 -0.28371,0.2837 v 5.15008 h -2.18591 c -0.15705,0 -0.2837,0.12613 -0.2837,0.28318 v 52.18803 c 0,0.15705 0.12665,0.28319 0.2837,0.28319 h 31.6389 c 0.15704,0 0.28318,-0.12614 0.28318,-0.28319 v -55.7444 c 0,-0.15705 -0.12614,-0.28318 -0.28318,-0.28318 h -0.40876 v -4.74235 c -3.10869,0.29638 -2.65157,0.91801 -4.51239,2.18126 -1.86082,1.26325 -2.79725,0.8816 -2.79725,0.8816 v 1.67949 h -0.88935 v -1.59371 c 0,-0.15705 -0.12666,-0.2837 -0.2837,-0.2837 h -1.59319 v -0.50643 c 0,-0.15705 -0.12665,-0.2837 -0.2837,-0.2837 h -0.90227 v -1.77819 c -2.17341,-0.98792 -7.01404,-0.98805 -7.01404,-0.98805 z"
       style="fill:#000314;stroke-width:0.264999;stroke-linejoin:round"
       id="rect4902" />
  </g>
</svg>
