<?xml version="1.0" encoding="UTF-8" standalone="no"?>
<svg
   xmlns:dc="http://purl.org/dc/elements/1.1/"
   xmlns:cc="http://creativecommons.org/ns#"
   xmlns:rdf="http://www.w3.org/1999/02/22-rdf-syntax-ns#"
   xmlns:svg="http://www.w3.org/2000/svg"
   xmlns="http://www.w3.org/2000/svg"
   xmlns:sodipodi="http://sodipodi.sourceforge.net/DTD/sodipodi-0.dtd"
   xmlns:inkscape="http://www.inkscape.org/namespaces/inkscape"
   sodipodi:docname="Bench.svg"
   inkscape:version="1.0 (4035a4fb49, 2020-05-01)"
   id="svg3881"
   version="1.1"
   viewBox="0 0 29.837838 54.181388"
   height="54.181389mm"
   width="29.837839mm">
  <defs
     id="defs3875" />
  <sodipodi:namedview
     showguides="false"
     inkscape:window-maximized="1"
     inkscape:window-y="-9"
     inkscape:window-x="-9"
     inkscape:window-height="1001"
     inkscape:window-width="1920"
     inkscape:snap-global="false"
     showgrid="false"
     inkscape:document-rotation="0"
     inkscape:current-layer="layer1"
     inkscape:document-units="mm"
     inkscape:cy="124.50064"
     inkscape:cx="23.420388"
     inkscape:zoom="3.959798"
     inkscape:pageshadow="2"
     inkscape:pageopacity="0.0"
     borderopacity="1.0"
     bordercolor="#666666"
     pagecolor="#ffffff"
     id="base" />
  <metadata
     id="metadata3878">
    <rdf:RDF>
      <cc:Work
         rdf:about="">
        <dc:format>image/svg+xml</dc:format>
        <dc:type
           rdf:resource="http://purl.org/dc/dcmitype/StillImage" />
        <dc:title></dc:title>
      </cc:Work>
    </rdf:RDF>
  </metadata>
  <g
     transform="translate(-54.64785,-157.43525)"
     id="layer1"
     inkscape:groupmode="layer"
     inkscape:label="Layer 1">
    <path
       id="rect10328"
       style="fill:#f6f3f8;fill-opacity:1;stroke:none;stroke-width:1;stroke-linejoin:round;stroke-miterlimit:4;stroke-dasharray:none;stroke-opacity:1"
       d="m 68.77212,157.43525 0.848071,0.0136 14.865499,53.96529 -29.83784,0.2025 z"
       sodipodi:nodetypes="ccccc" />
    <path
       id="path2857-9-1-5"
       style="fill:#535353;fill-opacity:1;stroke:none;stroke-width:0.264583px;stroke-linecap:butt;stroke-linejoin:miter;stroke-opacity:1"
       d="m 67.327049,155.67219 c -0.07491,-0.003 -0.152408,0.0305 -0.266099,0.0966 l -0.202314,53.43652 h -0.154223 c -0.112342,0 -0.202839,0.0895 -0.202839,0.20051 0,0.11105 0.0905,0.2005 0.202839,0.2005 h 1.351915 c 0.112345,0 0.202842,-0.0895 0.202842,-0.2005 0,-0.11105 -0.0905,-0.20051 -0.202842,-0.20051 H 67.812713 L 67.580597,156.5429 c 0.07027,-0.0581 0.171852,-0.13012 0.32308,-0.18294 0.162676,-0.0568 0.348759,-0.0849 0.572971,0.004 -0.01432,0.0346 -0.02299,0.0723 -0.02299,0.11214 v 0.68471 c 0,0.1636 0.133536,0.29559 0.299033,0.29559 h 0.908071 c 0.165497,0 0.29851,-0.13199 0.29851,-0.29559 v -0.68471 c 0,-0.16359 -0.133013,-0.29559 -0.29851,-0.29559 h -0.534286 c -0.237563,-0.19007 -0.480073,-0.29725 -0.707325,-0.33949 -0.0639,-0.0119 -0.126587,-0.0193 -0.187679,-0.0222 -0.183275,-0.009 -0.352287,0.0206 -0.496119,0.0708 -0.05618,0.0196 -0.107831,0.0422 -0.157357,0.0661 l -5.36e-4,-0.15451 c -0.103243,-0.0843 -0.175505,-0.12526 -0.250411,-0.12867 z" />
    <path
       d="m 77.592611,204.18259 c -0.02428,0 -0.04451,0.0252 -0.04451,0.0565 v 0.17585 h -6.955674 v -0.14443 c 0,-0.0383 -0.03136,-0.0691 -0.0698,-0.0691 h -0.152455 c -0.03945,0 -0.0698,0.0308 -0.0698,0.0691 v 0.14443 h -0.698643 c -0.0779,0 -0.13981,0.0336 -0.13981,0.0753 v 0.35164 c 0,0.0417 0.06272,0.0754 0.13981,0.0754 h 0.698643 v 0.36416 h -0.724035 c -0.06272,0 -0.114418,0.0504 -0.114418,0.11301 v 0.27632 c 0,0.0626 0.05058,0.11299 0.114418,0.11299 h 0.724035 v 0.36417 h -0.736883 c -0.05665,0 -0.10157,0.0448 -0.10157,0.10048 v 0.30142 c 0,0.0557 0.04552,0.10042 0.10157,0.10042 h 0.736883 v 0.33906 h -1.291468 c 0,0 -0.08498,0.0347 -0.107538,0.0778 -0.08093,0.15467 -0.04957,0.55016 -0.04957,0.55016 h 1.311093 l -0.474159,1.94878 h 0.588576 l 0.378558,-1.55612 h 6.840346 l 0.418114,1.55612 h 0.650185 l -0.52373,-1.94878 h 1.46365 c 0,0 0.02327,-0.41061 -0.06677,-0.5724 -0.02023,-0.0371 -0.09914,-0.0556 -0.09914,-0.0556 h -1.498147 v -0.33905 h 0.921104 c 0.05665,0 0.101468,-0.0448 0.101468,-0.10043 v -0.30142 c 0,-0.0556 -0.04552,-0.10048 -0.101468,-0.10048 h -0.921104 v -0.36416 h 0.908256 c 0.06272,0 0.114316,-0.0504 0.114316,-0.113 v -0.27632 c 0,-0.0626 -0.05058,-0.113 -0.114316,-0.113 h -0.908256 v -0.36417 h 0.882864 c 0.0779,0 0.139708,-0.0336 0.139708,-0.0754 v -0.35164 c 0,-0.0417 -0.06272,-0.0753 -0.139708,-0.0753 h -0.882864 v -0.17585 c 0,-0.0313 -0.01922,-0.0565 -0.04451,-0.0565 z m -0.13121,0.42692 a 0.04042478,0.03995941 0 0 1 0.04047,0.0399 0.04042478,0.03995941 0 0 1 -0.04047,0.0399 0.04042478,0.03995941 0 0 1 -0.04047,-0.0399 0.04042478,0.03995941 0 0 1 0.04047,-0.0399 z m 0.508756,0 a 0.04042478,0.03995941 0 0 1 0.04047,0.0399 0.04042478,0.03995941 0 0 1 -0.04047,0.0399 0.04042478,0.03995941 0 0 1 -0.04046,-0.0399 0.04042478,0.03995941 0 0 1 0.04046,-0.0399 z m -7.785122,0.009 a 0.04042478,0.03995941 0 0 1 0.04047,0.0399 0.04042478,0.03995941 0 0 1 -0.04047,0.04 0.04042478,0.03995941 0 0 1 -0.04047,-0.04 0.04042478,0.03995941 0 0 1 0.04047,-0.0399 z m 0.508656,0 a 0.04042478,0.03995941 0 0 1 0.04046,0.0399 0.04042478,0.03995941 0 0 1 -0.04046,0.04 0.04042478,0.03995941 0 0 1 -0.04047,-0.04 0.04042478,0.03995941 0 0 1 0.04047,-0.0399 z m -0.101165,0.29886 H 77.5482 v 0.36416 h -6.955674 z m 6.856533,0.59959 a 0.04042478,0.03995941 0 0 1 0.04047,0.04 0.04042478,0.03995941 0 0 1 -0.04047,0.0399 0.04042478,0.03995941 0 0 1 -0.04047,-0.0399 0.04042478,0.03995941 0 0 1 0.04047,-0.04 z m 0.508655,0 a 0.04042478,0.03995941 0 0 1 0.04047,0.04 0.04042478,0.03995941 0 0 1 -0.04047,0.0399 0.04042478,0.03995941 0 0 1 -0.04047,-0.0399 0.04042478,0.03995941 0 0 1 0.04047,-0.04 z m -7.785223,0.009 a 0.04042478,0.03995941 0 0 1 0.04046,0.04 0.04042478,0.03995941 0 0 1 -0.04046,0.0399 0.04042478,0.03995941 0 0 1 -0.04047,-0.0399 0.04042478,0.03995941 0 0 1 0.04047,-0.04 z m 0.508756,0 a 0.04042478,0.03995941 0 0 1 0.04047,0.04 0.04042478,0.03995941 0 0 1 -0.04047,0.0399 0.04042478,0.03995941 0 0 1 -0.04046,-0.0399 0.04042478,0.03995941 0 0 1 0.04046,-0.04 z m -0.08902,0.25801 H 77.5479 v 0.36417 h -6.955673 z m 6.869178,0.5839 a 0.04042478,0.03995941 0 0 1 0.04047,0.0399 0.04042478,0.03995941 0 0 1 -0.04047,0.0399 0.04042478,0.03995941 0 0 1 -0.04047,-0.0399 0.04042478,0.03995941 0 0 1 0.04047,-0.0399 z m 0.508756,0 a 0.04042478,0.03995941 0 0 1 0.04047,0.0399 0.04042478,0.03995941 0 0 1 -0.04047,0.0399 0.04042478,0.03995941 0 0 1 -0.04046,-0.0399 0.04042478,0.03995941 0 0 1 0.04046,-0.0399 z m -7.785223,0.009 a 0.04042478,0.03995941 0 0 1 0.04047,0.04 0.04042478,0.03995941 0 0 1 -0.04047,0.0399 0.04042478,0.03995941 0 0 1 -0.04047,-0.0399 0.04042478,0.03995941 0 0 1 0.04047,-0.04 z m 0.508757,0 a 0.04042478,0.03995941 0 0 1 0.04046,0.04 0.04042478,0.03995941 0 0 1 -0.04046,0.0399 0.04042478,0.03995941 0 0 1 -0.04047,-0.0399 0.04042478,0.03995941 0 0 1 0.04047,-0.04 z m -0.101468,0.2737 H 77.5479 v 0.33906 h -6.955673 z m -1.53224,0.63105 a 0.04042478,0.03995941 0 0 1 0.04047,0.04 0.04042478,0.03995941 0 0 1 -0.04047,0.0399 0.04042478,0.03995941 0 0 1 -0.04047,-0.0399 0.04042478,0.03995941 0 0 1 0.04047,-0.04 z m 10.238972,0.001 a 0.04042478,0.03995941 0 0 1 0.04047,0.0399 0.04042478,0.03995941 0 0 1 -0.04047,0.04 0.04042478,0.03995941 0 0 1 -0.04047,-0.04 0.04042478,0.03995941 0 0 1 0.04047,-0.0399 z m -8.547601,0.33458 h 6.639231 l 0.0698,0.25947 h -6.77206 z"
       style="fill:#000314;stroke:none;stroke-width:1;stroke-linecap:butt;stroke-linejoin:round;stroke-miterlimit:4;stroke-dasharray:none;stroke-opacity:1"
       id="rect4463" />
    <rect
       style="fill:#ffd65c;fill-opacity:1;stroke:none;stroke-width:0.499999;stroke-linejoin:round;stroke-miterlimit:4;stroke-dasharray:none;stroke-opacity:1"
       id="rect2874-3-6-0"
       width="1.1949317"
       height="0.37797618"
       x="68.613365"
       y="156.98381"
       rx="0.20045203"
       ry="0.20045204" />
  </g>
</svg>
