<?xml version="1.0" encoding="UTF-8" standalone="no"?>
<svg
   xmlns:dc="http://purl.org/dc/elements/1.1/"
   xmlns:cc="http://creativecommons.org/ns#"
   xmlns:rdf="http://www.w3.org/1999/02/22-rdf-syntax-ns#"
   xmlns:svg="http://www.w3.org/2000/svg"
   xmlns="http://www.w3.org/2000/svg"
   xmlns:sodipodi="http://sodipodi.sourceforge.net/DTD/sodipodi-0.dtd"
   xmlns:inkscape="http://www.inkscape.org/namespaces/inkscape"
   sodipodi:docname="Car 3.svg"
   inkscape:version="1.0 (4035a4fb49, 2020-05-01)"
   id="svg9603"
   version="1.1"
   viewBox="0 0 64.343384 25.532291"
   height="25.532291mm"
   width="64.343384mm">
  <defs
     id="defs9597" />
  <sodipodi:namedview
     inkscape:window-maximized="1"
     inkscape:window-y="-9"
     inkscape:window-x="-9"
     inkscape:window-height="1001"
     inkscape:window-width="1920"
     showgrid="false"
     inkscape:document-rotation="0"
     inkscape:current-layer="layer1"
     inkscape:document-units="mm"
     inkscape:cy="121.1109"
     inkscape:cx="199.25989"
     inkscape:zoom="1.979899"
     inkscape:pageshadow="2"
     inkscape:pageopacity="0.0"
     borderopacity="1.0"
     bordercolor="#666666"
     pagecolor="#ffffff"
     id="base" />
  <metadata
     id="metadata9600">
    <rdf:RDF>
      <cc:Work
         rdf:about="">
        <dc:format>image/svg+xml</dc:format>
        <dc:type
           rdf:resource="http://purl.org/dc/dcmitype/StillImage" />
        <dc:title></dc:title>
      </cc:Work>
    </rdf:RDF>
  </metadata>
  <g
     transform="translate(-57.786642,-156.56719)"
     id="layer1"
     inkscape:groupmode="layer"
     inkscape:label="Layer 1">
    <g
       transform="matrix(0.26458333,0,0,0.26458333,-32.887036,145.8774)"
       id="g9562">
      <path
         id="path8583"
         d="m 544.58203,94.832029 c -9.83645,0.257927 -19.05368,7.390281 -19.89062,18.960941 -0.23469,3.24456 0.0847,7.44636 0.70898,9.33789 1.45354,4.40426 6.48311,9.56983 11.58984,11.90234 7.72573,3.52874 16.67345,1.73672 23.01954,-4.60937 7.97677,-7.97676 8.51505,-19.85745 1.27148,-28.10742 -4.67098,-5.31997 -10.79735,-7.639137 -16.69922,-7.484381 z"
         style="fill:#000314" />
      <path
         id="path8581"
         d="m 375.71875,94.814449 c -2.66317,0.01664 -5.37174,0.540195 -7.99609,1.636719 -16.23584,6.783762 -16.91213,29.952322 -1.10352,37.830082 2.89492,1.4426 6.90803,2.62109 8.91797,2.62109 13.94119,0 24.16345,-12.61626 20.97851,-25.89257 -2.36295,-9.84993 -11.28554,-16.254737 -20.79687,-16.195321 z"
         style="fill:#000314" />
      <path
         style="fill:#000314"
         d="m 432.44976,40.402343 c -47.75117,0 -51.23888,0.12004 -54.75,1.86524 -3.59543,1.78712 -4.95039,3.63476 -2.66406,3.63476 0.59758,0 -0.34298,1.9125 -2.09179,4.25 -1.74884,2.3375 -4.97969,7.0625 -7.17774,10.5 -2.52019,3.9413 -4.67377,6.25 -5.83008,6.25 -3.08796,0 -7.87101,4.85977 -9.0332,9.17578 -1.42169,5.27975 -0.62535,6.01182 0.92187,0.84766 1.32824,-4.43326 4.74611,-7.17305 5.73438,-4.59766 0.31872,0.83057 -0.52447,4.78733 -1.87305,8.79297 -1.77595,5.27507 -2.90418,7.24318 -4.09375,7.14258 -0.9033,-0.0764 -1.64258,0.24624 -1.64258,0.7168 0,0.47055 -1.63024,2.48571 -3.62304,4.47851 l -3.62305,3.625 0.48242,7.660157 c 0.57735,9.15483 2.18993,13.1582 5.29688,13.1582 1.8252,0 2.32952,-0.73475 2.88476,-4.20703 2.20113,-13.765107 11.35456,-22.777957 23.08203,-22.726557 13.96024,0.0612 22.96238,8.91395 25.77735,25.347657 l 1.1289,6.58593 17.04688,0.14258 c 9.37579,0.0774 30.32187,0.44067 46.54687,0.8086 16.225,0.36793 34.91188,0.75465 41.52539,0.85937 l 12.02344,0.18945 1.20117,-7.55078 c 1.50542,-9.46165 3.93168,-14.91449 8.74415,-19.660157 9.75319,-9.61786 27.07322,-8.77841 35.0664,1.70118 3.49223,4.578557 6.43945,13.498247 6.43945,19.486327 0,3.28963 0.43168,5.06633 1.25,5.14453 2.13368,0.20381 13.23246,-0.30141 13.56446,-0.61719 0.17297,-0.16451 0.0208,-1.86334 -0.33789,-3.77539 -0.44913,-2.39408 -1.16972,-3.43716 -2.31446,-3.35156 -3.10135,0.23185 -2.76734,-9.54717 0.36719,-10.75 1.00634,-0.38617 1.86101,0.18783 2.44531,1.64062 0.71125,1.76845 0.91269,1.16603 0.96289,-2.89453 0.0501,-4.05239 -0.35822,-5.415797 -1.9414,-6.499997 -1.23696,-0.84709 -2.3405,-3.21808 -2.88477,-6.19727 -1.09977,-6.01976 -4.3991,-9.60416 -12.50586,-13.58398 -9.4008,-4.61509 -43.21787,-9.60937 -49.36914,-7.29102 -1.50476,0.56713 -4.31133,1.31988 -6.23633,1.67188 -3.43604,0.6283 -3.73174,0.39648 -16.17382,-12.66602 l -12.67383,-13.30664 4.17383,-0.89258 4.17382,-0.89453 -4.5,-2.10547 c -4.39111,-2.05517 -5.73413,-2.10742 -55.5,-2.10742 z"
         id="path8516" />
      <path
         id="path8573"
         d="m 435.0625,75.95898 c 1.57645,-0.08101 3.66231,0.554754 5.26953,1.791016 l 2.34375,1.802734 -2.55859,1.673828 c -3.16947,2.07672 -5.99525,2.141872 -7.62696,0.175782 -0.68469,-0.825 -2.09039,-1.5 -3.12304,-1.5 -1.03266,0 -1.87696,-0.45 -1.87696,-1 0,-0.55 1.09887,-1 2.44141,-1 1.34254,0 2.71867,-0.45 3.05859,-1 0.36381,-0.588649 1.1264,-0.894752 2.07227,-0.94336 z"
         style="fill:#f6f3f8" />
      <path
         id="path8563"
         d="m 430.49023,45.902344 h 23.96875 23.97071 l 8.9707,10.289062 c 4.93384,5.65898 9.92872,11.50898 11.10156,13 l 2.13282,2.710938 h -2.86524 c -2.36765,0 -3.03178,-0.562112 -3.82226,-3.238282 -1.80557,-6.11272 -11.45704,-6.242586 -11.45704,-0.154296 v 2.648437 l -23.25,-0.673828 c -12.7875,-0.37037 -24.4875,-0.913721 -26,-1.207031 l -2.75,-0.533203 V 57.324219 Z"
         style="fill:#f6f3f8" />
      <path
         id="path8561"
         d="m 428.49023,45.865234 v 3.869141 c 0,2.12734 0.29078,7.309598 0.64649,11.517578 l 0.64648,7.650391 -10.39648,-0.150391 c -13.06638,-0.19082 -47.05009,-1.66501 -47.42188,-2.056641 -0.15289,-0.161039 2.32945,-4.792968 5.51563,-10.292968 l 5.79297,-10 22.60742,-0.267578 z"
         style="fill:#f6f3f8" />
    </g>
  </g>
</svg>
