<?xml version="1.0" encoding="UTF-8" standalone="no"?>
<svg
   xmlns:dc="http://purl.org/dc/elements/1.1/"
   xmlns:cc="http://creativecommons.org/ns#"
   xmlns:rdf="http://www.w3.org/1999/02/22-rdf-syntax-ns#"
   xmlns:svg="http://www.w3.org/2000/svg"
   xmlns="http://www.w3.org/2000/svg"
   xmlns:sodipodi="http://sodipodi.sourceforge.net/DTD/sodipodi-0.dtd"
   xmlns:inkscape="http://www.inkscape.org/namespaces/inkscape"
   sodipodi:docname="Car 2.svg"
   inkscape:version="1.0 (4035a4fb49, 2020-05-01)"
   id="svg8730"
   version="1.1"
   viewBox="0 0 63.758217 19.184389"
   height="19.184389mm"
   width="63.758217mm">
  <defs
     id="defs8724" />
  <sodipodi:namedview
     inkscape:window-maximized="1"
     inkscape:window-y="-9"
     inkscape:window-x="-9"
     inkscape:window-height="1001"
     inkscape:window-width="1920"
     showgrid="false"
     inkscape:document-rotation="0"
     inkscape:current-layer="layer1"
     inkscape:document-units="mm"
     inkscape:cy="-16.791693"
     inkscape:cx="125.30728"
     inkscape:zoom="2.8"
     inkscape:pageshadow="2"
     inkscape:pageopacity="0.0"
     borderopacity="1.0"
     bordercolor="#666666"
     pagecolor="#ffffff"
     id="base" />
  <metadata
     id="metadata8727">
    <rdf:RDF>
      <cc:Work
         rdf:about="">
        <dc:format>image/svg+xml</dc:format>
        <dc:type
           rdf:resource="http://purl.org/dc/dcmitype/StillImage" />
        <dc:title></dc:title>
      </cc:Work>
    </rdf:RDF>
  </metadata>
  <g
     transform="translate(-71.686368,-146.134)"
     id="layer1"
     inkscape:groupmode="layer"
     inkscape:label="Layer 1">
    <g
       transform="matrix(0.26458333,0,0,0.26458333,-19.100706,83.59806)"
       id="g8686">
      <path
         d="m 449.55337,236.35872 c -7.96899,0.0365 -16.63678,0.48867 -23.32617,1.43946 -12.56334,1.78568 -32.14398,6.77097 -41.42579,10.54687 -9.93699,4.04243 -15.87758,4.65737 -19.56836,2.0293 -2.28672,-1.62829 -4.4392,-2.08985 -9.75195,-2.08985 -6.53712,0 -6.72299,0.0664 -4.53125,1.60157 2.02412,1.41774 2.11925,1.79001 0.83789,3.25 -0.79591,0.90687 -2.94107,5.02343 -4.76758,9.14843 -4.27116,9.64599 -5.05822,19.71297 -2.1875,28 l 1.90625,5.5 6.4336,1.16602 c 3.53914,0.64053 8.38546,1.45992 10.76758,1.82226 l 4.33007,0.66016 -0.67187,-5.3789 c -0.96322,-7.70939 0.84428,-13.36577 5.87891,-18.4004 4.96417,-4.96418 10.72634,-6.83566 18.57617,-6.03125 11.36525,1.16465 18.11742,9.63701 18.69531,23.45899 0.17714,4.2368 0.32954,7.81562 0.33984,7.95312 0.0103,0.1375 24.09453,0.25 53.51953,0.25 h 53.5 l 0.006,-6.75 c 0.008,-9.72544 1.50111,-14.07311 6.48243,-18.87109 5.53569,-5.33192 11.89959,-7.06201 19.88476,-5.4043 11.83546,2.45704 17.01026,9.57144 16.83399,23.14649 l -0.10352,7.91797 8.19922,-0.57032 c 13.59417,-0.94646 14.69726,-1.23899 14.69726,-3.89062 0,-1.28273 -0.66538,-2.88379 -1.47851,-3.55859 -1.16098,-0.96355 -1.35452,-2.76179 -0.89844,-8.37305 0.52151,-6.41629 0.33819,-7.50056 -1.79883,-10.62695 -1.38365,-2.02428 -4.66987,-4.63552 -7.85156,-6.23829 -12.66669,-6.3808 -47.78005,-12.61626 -63.61914,-11.29687 l -8.2793,0.68945 -15.11523,-8.72851 c -9.63266,-5.56337 -14.66444,-9.00821 -13.875,-9.4961 2.98599,-1.84545 -8.35702,-2.93589 -21.63867,-2.875 z"
         style="fill:#000314"
         id="path8603" />
      <path
         id="path8625"
         d="m 390.01758,272.12903 c -0.31977,-0.007 -0.64016,-0.004 -0.95899,0.006 -8.50197,0.2673 -16.54139,6.40756 -17.36132,16.29492 -0.24546,2.95992 -0.16145,6.51789 0.1875,7.9082 0.86185,3.43389 6.39487,9.56359 10.08593,11.17188 1.66022,0.72341 5.17419,1.33201 7.8086,1.35351 15.93353,0.1302 24.21244,-18.34754 13.62304,-30.4082 -3.72646,-4.24422 -8.58823,-6.22713 -13.38476,-6.32617 z"
         style="fill:#000314" />
      <path
         id="path8623"
         d="m 539.67383,272.12303 c -0.83468,0.008 -1.68161,0.0777 -2.53711,0.21289 -14.65459,2.31506 -20.90527,20.171 -10.83203,30.93945 1.47751,1.57948 4.03554,3.47445 5.68554,4.21094 4.37778,1.95406 11.96179,1.73199 16.28907,-0.47656 4.58273,-2.33893 6.68707,-4.61103 8.67187,-9.36133 5.01817,-12.01016 -4.75721,-25.64911 -17.27734,-25.52539 z"
         style="fill:#000314" />
      <path
         id="path8617"
         d="m 505.6582,265.9785 c 4.76682,-0.0989 6.83655,0.74667 6.81055,2.78125 -0.0116,0.90365 -3.04907,6.14257 -6.75,11.64257 v 0.002 l -6.72852,10 -27.5,0.0977 -27.5,0.0977 25.5,-0.89063 c 14.025,-0.48997 25.98235,-1.05098 26.57227,-1.24804 1.64968,-0.55108 13.71951,-18.59746 12.95703,-19.37305 -0.36966,-0.37603 -2.10353,-1.21371 -3.85156,-1.85937 l -3.17774,-1.17383 z"
         style="fill:#f6f3f8" />
      <path
         id="path8615"
         d="m 552.43945,263.92381 c 6.33654,-0.0388 19.87218,4.78528 23.875,8.50781 3.0278,2.81578 3.32338,3.4055 1.67578,3.3457 -3.02826,-0.10996 -5.53002,-1.09272 -10.75585,-4.22265 -2.61618,-1.56692 -7.7912,-3.91954 -11.5,-5.22852 -5.92418,-2.09086 -6.32444,-2.38384 -3.29493,-2.40234 z"
         style="fill:#f6f3f8" />
      <path
         id="path8611"
         d="m 353.26367,256.15623 c 0.96086,0.0563 0.72098,2.15861 -0.73828,5.41797 -1.97531,4.41193 -3.54206,5.93521 -4.50391,4.3789 -0.64752,-1.0477 2.80195,-8.51981 4.38477,-9.49804 0.34926,-0.21586 0.63569,-0.31183 0.85742,-0.29883 z"
         style="fill:#f6f3f8" />
      <path
         id="path8607"
         d="m 460.37695,239.24021 c 3.50134,0.0206 5.50906,1.02356 13.23438,4.95508 11.16792,5.68351 20.8789,11.70298 20.8789,12.94141 0,0.80224 -3.30497,0.85093 -6.18945,0.0898 -0.92867,-0.24502 -1.82867,-1.42647 -2,-2.625 -0.39495,-2.76304 -5.48877,-5.38808 -7.73242,-3.98437 -0.8682,0.54318 -1.71912,2.15897 -1.89063,3.58984 l -0.31054,2.60156 -17.18946,-0.58398 c -9.45349,-0.32058 -18.9875,-0.87281 -21.1875,-1.22852 -3.88419,-0.62804 -4.05168,-0.81925 -5.75,-6.61914 -1.31247,-4.48219 -1.60731,-4.97634 -1.18164,-1.97461 0.31198,2.2 0.82902,5.08557 1.14844,6.41211 l 0.58203,2.41211 -12.71679,-0.64453 c -6.99403,-0.35447 -13.17745,-0.92952 -13.74024,-1.27734 -0.5849,-0.36149 0.58446,-2.27694 2.72852,-4.47266 5.39921,-5.5293 9.90358,-6.42583 47.05078,-9.35742 1.76644,-0.13941 3.09851,-0.24125 4.26562,-0.23438 z"
         style="fill:#f6f3f8" />
    </g>
  </g>
</svg>
