<?xml version="1.0" encoding="UTF-8" standalone="no"?>
<svg
   xmlns:dc="http://purl.org/dc/elements/1.1/"
   xmlns:cc="http://creativecommons.org/ns#"
   xmlns:rdf="http://www.w3.org/1999/02/22-rdf-syntax-ns#"
   xmlns:svg="http://www.w3.org/2000/svg"
   xmlns="http://www.w3.org/2000/svg"
   xmlns:sodipodi="http://sodipodi.sourceforge.net/DTD/sodipodi-0.dtd"
   xmlns:inkscape="http://www.inkscape.org/namespaces/inkscape"
   inkscape:version="1.0 (4035a4fb49, 2020-05-01)"
   sodipodi:docname="more cars.svg"
   viewBox="0 0 626 626"
   height="626"
   width="626"
   id="svg8504"
   version="1.1">
  <metadata
     id="metadata8510">
    <rdf:RDF>
      <cc:Work
         rdf:about="">
        <dc:format>image/svg+xml</dc:format>
        <dc:type
           rdf:resource="http://purl.org/dc/dcmitype/StillImage" />
        <dc:title></dc:title>
      </cc:Work>
    </rdf:RDF>
  </metadata>
  <defs
     id="defs8508" />
  <sodipodi:namedview
     inkscape:current-layer="g8512"
     inkscape:window-maximized="0"
     inkscape:window-y="0"
     inkscape:window-x="192"
     inkscape:cy="348.93904"
     inkscape:cx="334.99111"
     inkscape:zoom="1.8502251"
     showgrid="false"
     id="namedview8506"
     inkscape:window-height="1030"
     inkscape:window-width="1541"
     inkscape:pageshadow="2"
     inkscape:pageopacity="0"
     guidetolerance="10"
     gridtolerance="10"
     objecttolerance="10"
     borderopacity="1"
     bordercolor="#666666"
     pagecolor="#ffffff" />
  <g
     id="g8512"
     inkscape:label="Image"
     inkscape:groupmode="layer">
    <path
       d="m 432.99023,40.402344 c -47.75117,0 -51.23888,0.120034 -54.75,1.865234 -3.59543,1.78712 -4.95039,3.634766 -2.66406,3.634766 0.59758,0 -0.34297,1.9125 -2.09179,4.25 -1.74884,2.3375 -4.97969,7.0625 -7.17774,10.5 -2.52019,3.9413 -4.67377,6.25 -5.83008,6.25 -3.08796,0 -7.87101,4.859771 -9.0332,9.175781 -1.42169,5.27975 -0.62535,6.011816 0.92187,0.847656 1.32824,-4.43326 4.74611,-7.173046 5.73438,-4.597656 0.31872,0.83057 -0.52447,4.787329 -1.87305,8.792969 -1.77595,5.27507 -2.90418,7.243178 -4.09375,7.142578 -0.9033,-0.07639 -1.64258,0.246237 -1.64258,0.716797 0,0.47055 -1.63024,2.485715 -3.62304,4.478515 l -3.62305,3.625 0.48242,7.660156 c 0.57735,9.15483 2.18993,13.1582 5.29688,13.1582 1.8252,0 2.32952,-0.73475 2.88476,-4.20703 2.20113,-13.765105 11.35456,-22.77796 23.08203,-22.72656 13.96024,0.06124 22.96238,8.913961 25.77735,25.34766 l 1.1289,6.58593 17.04688,0.14258 c 9.37579,0.0774 30.32187,0.44067 46.54687,0.8086 16.225,0.36793 34.91188,0.75465 41.52539,0.85937 l 12.02344,0.18945 1.20117,-7.55078 c 1.50542,-9.46165 3.93168,-14.91449 8.74415,-19.660154 9.75319,-9.61786 27.07322,-8.778418 35.0664,1.701172 3.49223,4.578562 6.43945,13.498252 6.43945,19.486332 0,3.28963 0.43168,5.06633 1.25,5.14453 2.13368,0.20381 13.23246,-0.30141 13.56446,-0.61719 0.17297,-0.16451 0.0208,-1.86334 -0.33789,-3.77539 -0.44913,-2.39408 -1.16972,-3.43716 -2.31446,-3.35156 -3.10135,0.23185 -2.76734,-9.54717 0.36719,-10.75 1.00634,-0.38617 1.86101,0.18783 2.44531,1.64062 0.71125,1.76845 0.91269,1.16603 0.96289,-2.89453 0.0501,-4.05239 -0.35822,-5.415799 -1.9414,-6.499999 -1.23696,-0.84709 -2.3405,-3.218076 -2.88477,-6.197266 -1.09977,-6.01976 -4.3991,-9.604164 -12.50586,-13.583984 -9.4008,-4.61509 -43.21787,-9.609366 -49.36914,-7.291016 -1.50476,0.56713 -4.31133,1.319875 -6.23633,1.671875 -3.43604,0.6283 -3.73174,0.396484 -16.17382,-12.666016 l -12.67383,-13.30664 4.17383,-0.892578 4.17382,-0.894532 -4.5,-2.105468 c -4.39111,-2.05517 -5.73413,-2.107422 -55.5,-2.107422 z m -4.5,5.46289 v 3.869141 c 0,2.12734 0.29078,7.309598 0.64649,11.517578 l 0.64648,7.650391 -10.39648,-0.150391 c -13.06638,-0.19082 -47.05009,-1.66501 -47.42188,-2.056641 -0.15289,-0.161039 2.32945,-4.792968 5.51563,-10.292968 l 5.79297,-10 22.60742,-0.267578 z m 2,0.03711 h 23.96875 23.97071 l 8.9707,10.289062 c 4.93384,5.65898 9.92872,11.50898 11.10156,13 l 2.13282,2.710938 h -2.86524 c -2.36765,0 -3.03178,-0.562112 -3.82226,-3.238282 -1.80557,-6.11272 -11.45704,-6.242586 -11.45704,-0.154296 v 2.648437 l -23.25,-0.673828 c -12.7875,-0.37037 -24.4875,-0.913721 -26,-1.207031 l -2.75,-0.533203 V 57.324219 Z m -255.14453,7.15039 c -4.64574,0.01443 -9.07407,0.113769 -12.94726,0.308594 l -14.58985,0.734375 -1.69531,2.869141 c -0.93251,1.57862 -2.52919,6.148237 -3.54687,10.154297 l -1.84961,7.283203 h -38.34571 c -35.723289,0 -38.370119,0.11968 -38.687496,1.75 -0.291636,1.49809 0.461379,1.75 5.232422,1.75 5.17613,0 5.574218,0.167242 5.574218,2.339844 0,1.400189 -1.40509,3.61907 -3.5,5.52539 -2.717796,2.47314 -3.5,3.961196 -3.5,6.660156 0,3.0408 -0.312846,3.47461 -2.5,3.47461 -2.104518,0 -2.5,0.469033 -2.5,2.964844 0,1.958442 -0.690794,3.335202 -2.035156,4.054692 -1.705111,0.91254 -1.924702,1.68859 -1.355469,4.78515 0.373683,2.0328 1.127163,3.98812 1.675782,4.34375 1.148311,0.74438 20.438199,3.85256 23.90039,3.85156 2.053476,-7.2e-4 2.345235,-0.53456 2.595703,-4.75 0.542041,-9.12273 3.962412,-14.702923 10.533204,-17.185543 4.029312,-1.52238 18.130212,-1.32236 22.042972,0.3125 6.33158,2.6455 11.64257,11.799323 11.64257,20.066403 0,1.40645 0.3375,2.61997 0.75,2.69727 0.4125,0.0773 19.65,0.4403 42.75,0.80664 23.1,0.36634 49.28939,0.755 58.19922,0.86133 l 16.19922,0.1914 1.18164,-6 c 2.38034,-12.09904 9.10414,-18.004837 20.48633,-17.994137 7.92156,0.0074 12.77716,1.479988 16.9375,5.132817 3.74077,3.28444 5.48122,7.91777 5.49024,14.61132 0.003,2.3375 0.24443,4.25 0.5371,4.25 1.99044,0 7.49675,-3.18302 8.38868,-4.84961 0.59427,-1.1104 1.08007,-4.51968 1.08007,-7.57617 0,-4.47427 -0.38976,-5.79907 -2,-6.804685 -1.23939,-0.77402 -2.02922,-2.394816 -2.07812,-4.259766 -0.0434,-1.6552 -0.30657,-2.447265 -0.58399,-1.759765 -0.2774,0.6875 -0.91538,1.25 -1.41796,1.25 -1.22747,0 -8.91993,-6.998305 -8.91993,-8.115235 0,-0.486 2.08071,-0.884765 4.62305,-0.884765 4.07166,0 4.46692,-0.184481 3.32813,-1.556641 -3.08198,-3.71355 -16.97915,-7.161435 -32.6875,-8.109375 l -10.76368,-0.65039 -8.83007,-6.326172 C 232.13612,60.644456 222.62595,56.137633 213.94141,54.939453 205.18022,53.730686 189.28292,53.00944 175.3457,53.052734 Z m 16.85157,2.722657 0.63671,5.314453 c 0.351,2.92272 0.64344,7.675 0.64844,10.5625 h -0.002 l 0.01,5.25 -4.25,-0.150391 c -2.3375,-0.08373 -10.48712,-0.488327 -18.11132,-0.898437 -17.26042,-0.92847 -17.53149,-1.108969 -15.91016,-10.574219 0.62581,-3.65344 1.63909,-7.145466 2.25195,-7.759766 0.70533,-0.70701 7.28196,-1.230907 17.91992,-1.429687 z m 4.00585,0.02148 4.89258,0.521484 c 2.69146,0.28727 7.71637,0.784629 11.16602,1.105469 8.04804,0.74852 12.90546,2.496513 19.99805,7.195313 4.817,3.19124 5.36067,3.834025 3.4707,4.103515 -1.9361,0.27607 -2.24024,0.92244 -2.24024,4.75 v 4.429688 l -12.25,-0.183594 c -6.7375,-0.10174 -14.55944,-0.349108 -17.38085,-0.548828 -5.80327,-0.41077 -5.48021,0.264107 -6.97266,-14.570313 z m 44.6211,16.621094 c 0.31977,-0.11732 0.94512,0.278165 2.16601,1.078125 1.375,0.90093 2.5,2.484744 2.5,3.521484 0,1.59099 -0.74085,1.875766 -4.75,1.822266 -3.85922,-0.0515 -4.32805,-0.232017 -2.5,-0.966797 1.51036,-0.60709 2.25,-1.745658 2.25,-3.460938 0,-1.24789 0.0142,-1.87682 0.33399,-1.99414 z m 194.23828,3.541015 c 1.57645,-0.08101 3.66231,0.554754 5.26953,1.791016 l 2.34375,1.802734 -2.55859,1.673828 c -3.16947,2.07672 -5.99525,2.141872 -7.62696,0.175782 -0.68469,-0.825 -2.09039,-1.5 -3.12304,-1.5 -1.03266,0 -1.87696,-0.45 -1.87696,-1 0,-0.55 1.09887,-1 2.44141,-1 1.34254,0 2.71867,-0.45 3.05859,-1 0.36381,-0.588649 1.1264,-0.894752 2.07227,-0.94336 z m 130.38281,3.080078 c 0.7414,0.0035 2.01169,0.715827 4.12305,2.138672 3.87832,2.6136 7.92187,8.162877 7.92187,10.873047 0,2.38112 -1.68925,2.339242 -5.75976,-0.142578 -3.74197,-2.28151 -7.23133,-7.468139 -7.23633,-10.755859 -0.002,-1.412955 0.20978,-2.116758 0.95117,-2.113282 z m -404.92969,3.103516 c 1.17572,-0.04193 1.9073,0.266672 2.60352,0.962891 1.25864,1.25864 1.1516,1.570987 -0.8418,2.435547 -1.67242,0.72534 -3.09324,0.586231 -5.28711,-0.517578 l -3,-1.509766 3.84375,-0.925781 c 1.11175,-0.268013 1.97622,-0.420157 2.68164,-0.445313 z m 44.56836,0.19336 c 1.37253,0.0035 2.73942,0.209699 3.59571,0.667968 1.75532,0.93942 1.94836,1.345902 0.80859,1.701172 -0.82354,0.25669 -1.94805,0.779258 -2.49805,1.16211 -1.11793,0.778188 -6.5,-0.942504 -6.5,-2.078126 0,-0.900667 2.30622,-1.45888 4.59375,-1.453124 z m 170.63477,12.478515 c -2.66317,0.01664 -5.37174,0.540195 -7.99609,1.636719 -16.23584,6.783758 -16.91213,29.952318 -1.10352,37.830078 2.89492,1.4426 6.90803,2.62109 8.91797,2.62109 13.94119,0 24.16345,-12.61626 20.97851,-25.89257 -2.36295,-9.84993 -11.28554,-16.254733 -20.79687,-16.195317 z m 168.86328,0.01758 c -9.83645,0.257927 -19.05368,7.390279 -19.89062,18.960939 -0.23469,3.24456 0.0847,7.44636 0.70898,9.33789 1.45354,4.40426 6.48311,9.56983 11.58984,11.90234 7.72573,3.52874 16.67345,1.73672 23.01954,-4.60937 7.97677,-7.97676 8.51505,-19.85745 1.27148,-28.10742 -4.67098,-5.319964 -10.79735,-7.639135 -16.69922,-7.484379 z m -168.5918,5.070313 c 8.15116,0 14.9035,5.551326 16.15821,13.283206 0.84833,5.22763 -1.96542,12.08655 -6.32032,15.4082 -7.18702,5.48181 -18.55973,3.53959 -23.19531,-3.96094 -3.32458,-5.37927 -3.63366,-10.49299 -0.94922,-15.7207 3.1551,-6.14429 7.70339,-9.009766 14.30664,-9.009766 z m 169.10157,0.0039 c 15.61055,-0.01144 22.1254,19.23908 9.71484,28.70508 -4.67535,3.56606 -11.47589,4.1009 -16.81641,1.32422 -4.81015,-2.50093 -7.16043,-5.53189 -8.28711,-10.68555 -2.31768,-10.60185 4.63027,-19.33575 15.38868,-19.34375 z m -273.6836,1.76563 c -18.75878,-2e-5 -24.51642,25.60568 -7.49609,33.33593 5.34836,2.4291 9.96501,2.37181 15.25586,-0.18945 16.63744,-8.05404 10.76315,-33.14649 -7.75977,-33.14648 z m -161.86132,0.13476 c -2.92323,-0.0172 -5.83092,0.45097 -7.67188,1.41211 -13.433711,7.01354 -13.412006,25.68077 0.0371,31.78906 5.36784,2.43795 9.96693,2.36875 15.32812,-0.22656 4.71805,-2.28397 8.65023,-7.35994 9.71875,-12.54492 1.37618,-6.67789 -3.1572,-15.56801 -9.65039,-18.92578 -1.9011,-0.98312 -4.83851,-1.48675 -7.76171,-1.50391 z m 190.15234,2.52344 c 0.4698,-0.0263 0.79101,0.92789 0.79101,2.45508 0,1.65 -0.45,3.27726 -1,3.61718 -0.58179,0.35956 -1,-0.6355 -1,-2.38086 0,-1.65 0.45,-3.27922 1,-3.61914 0.0727,-0.0449 0.14187,-0.0685 0.20899,-0.0723 z m -190.36914,4.01953 c 9.5875,-0.27441 15.24905,12.09411 7.04883,18.99414 -4.24832,3.57472 -9.80746,3.49735 -13.93555,-0.19141 -6.372026,-5.69389 -4.257515,-15.87981 3.79687,-18.29296 1.06485,-0.31905 2.09804,-0.48138 3.08985,-0.50977 z m 162,0 c 9.58751,-0.27441 15.24905,12.09411 7.04883,18.99414 -4.60368,3.87374 -10.093,3.55544 -14.48829,-0.83984 -2.51641,-2.51643 -3.39948,-4.27058 -3.39648,-6.75 0.006,-5.02296 3.21418,-9.53676 7.74609,-10.89453 1.06485,-0.31905 2.09804,-0.48138 3.08985,-0.50977 z M 584.85352,111.25 c -0.15157,-0.0229 -0.25516,0.34222 -0.28516,1.07031 -0.0434,1.05416 0.1931,1.64479 0.52539,1.3125 0.33225,-0.3323 0.36893,-1.1961 0.0801,-1.91797 -0.11971,-0.29915 -0.22937,-0.45107 -0.32031,-0.46484 z M 165.34766,235.90234 c -12.30853,0 -26.93121,1.66589 -26.56836,3.02539 0.28163,1.05521 -11.98861,11.72674 -15.78907,13.73243 -2.22873,1.17621 -7.62762,1.77098 -21,2.31054 -16.809954,0.67826 -18.409997,0.58586 -24.191402,-1.39648 -3.40488,-1.16747 -6.478511,-1.83595 -6.830078,-1.48438 -0.351567,0.35157 0.160827,1.85826 1.136719,3.34766 1.708297,2.60719 1.704056,2.76045 -0.111328,4.08789 -1.037066,0.75833 -2.250434,1.37695 -2.695313,1.37695 -0.444878,0 -0.808594,2.16593 -0.808594,4.8125 0,4.18705 -0.38959,5.10129 -3,7.03125 -3.690663,2.72862 -4.078675,7.83236 -0.93164,12.25196 1.726855,2.42514 1.809356,2.90429 0.5,2.90429 -1.105333,0 -1.56836,0.96781 -1.56836,3.2793 v 3.2793 l 7.757813,1.2207 c 4.26708,0.67143 10.956215,1.2207 14.865234,1.2207 h 7.107422 l 0.486328,-6.7832 c 0.609166,-8.51389 3.005188,-13.64131 8.105469,-17.33594 11.25976,-8.15653 27.77935,-5.63076 34.80664,5.32032 2.90753,4.531 3.29108,5.97301 3.51758,13.19336 0.13987,4.45864 0.27749,8.10546 0.30469,8.10546 h 52.79882 52.75 l 0.625,-7.69922 c 0.4687,-5.76711 1.29982,-8.84712 3.30665,-12.27148 4.64273,-7.92223 13.87788,-12.16406 22.75,-10.44922 2.37526,0.4591 4.63984,0.85294 5.0332,0.87696 1.45637,0.0887 7.93472,6.43291 9.33594,9.14257 0.957,1.85064 1.44921,5.92335 1.44921,11.9961 v 9.19531 l 6.64258,-0.62109 c 3.65329,-0.34115 6.87937,-0.85789 7.16992,-1.14844 0.29055,-0.29055 -0.42416,-1.54434 -1.58984,-2.78516 -1.8684,-1.98881 -1.99658,-2.72866 -1.07812,-6.24609 2.00004,-7.65951 2.11568,-10.44235 0.53711,-12.85156 -1.97591,-3.01559 -11.38468,-9.26478 -16.90235,-11.22657 -10.80091,-3.84022 -31.98417,-6.43987 -52.83594,-6.48437 l -11.83398,-0.0254 -12.80469,-8.37891 c -7.04239,-4.60783 -13.80954,-9.2863 -15.03711,-10.39648 -3.05927,-2.76672 -11.43228,-4.12696 -25.41015,-4.12696 z m 284.58789,0.0742 c -7.96899,0.0365 -16.63678,0.48867 -23.32617,1.43946 -12.56334,1.78568 -32.14398,6.77097 -41.42579,10.54687 -9.93699,4.04243 -15.87758,4.65737 -19.56836,2.0293 -2.28672,-1.62829 -4.4392,-2.08985 -9.75195,-2.08985 -6.53712,0 -6.72299,0.0664 -4.53125,1.60157 2.02412,1.41774 2.11925,1.79001 0.83789,3.25 -0.79591,0.90687 -2.94107,5.02343 -4.76758,9.14843 -4.27116,9.64599 -5.05822,19.71297 -2.1875,28 l 1.90625,5.5 6.4336,1.16602 c 3.53914,0.64053 8.38546,1.45991 10.76758,1.82226 l 4.33007,0.66016 -0.67187,-5.3789 c -0.96322,-7.70939 0.84428,-13.36577 5.87891,-18.4004 4.96417,-4.96418 10.72634,-6.83566 18.57617,-6.03125 11.36525,1.16465 18.11742,9.63701 18.69531,23.45899 0.17714,4.2368 0.32954,7.81562 0.33984,7.95312 0.0103,0.1375 24.09453,0.25 53.51953,0.25 h 53.5 l 0.006,-6.75 c 0.008,-9.72544 1.50111,-14.07311 6.48243,-18.87109 5.53569,-5.33192 11.89959,-7.06201 19.88476,-5.4043 11.83546,2.45704 17.01026,9.57144 16.83399,23.14649 l -0.10352,7.91797 8.19922,-0.57032 c 13.59417,-0.94646 14.69726,-1.23899 14.69726,-3.89062 0,-1.28273 -0.66538,-2.88378 -1.47851,-3.55859 -1.16098,-0.96355 -1.35452,-2.76179 -0.89844,-8.37305 0.52151,-6.41629 0.33819,-7.50055 -1.79883,-10.62695 -1.38365,-2.02428 -4.66987,-4.63552 -7.85156,-6.23829 -12.66669,-6.3808 -47.78005,-12.61626 -63.61914,-11.29687 l -8.2793,0.68945 -15.11523,-8.72851 c -9.63266,-5.56337 -14.66444,-9.00821 -13.875,-9.4961 2.98599,-1.84545 -8.35702,-2.93589 -21.63867,-2.875 z m -295.56641,2.67188 14.31055,0.42968 14.31054,0.43165 8.5,4.32421 c 4.675,2.37826 9.30764,4.88579 10.29493,5.57227 1.63693,1.13821 1.65021,1.30427 0.14257,1.88281 -1.22257,0.46912 -1.54736,1.54445 -1.24609,4.125 l 0.40625,3.48828 -4.54883,-0.16406 c -49.22851,-1.79123 -52.04883,-2.19087 -52.04883,-7.37305 0,-1.5994 1.73869,-4.27301 4.93946,-7.59375 z m 306.00781,0.59179 c 3.50134,0.0206 5.50906,1.02356 13.23438,4.95508 11.16792,5.68351 20.8789,11.70298 20.8789,12.94141 0,0.80224 -3.30497,0.85089 -6.18945,0.0898 -0.92867,-0.24502 -1.82867,-1.42647 -2,-2.625 -0.39495,-2.76304 -5.48877,-5.38808 -7.73242,-3.98437 -0.8682,0.54318 -1.71912,2.15897 -1.89063,3.58984 l -0.31054,2.60156 -17.18946,-0.58398 c -9.45349,-0.32058 -18.9875,-0.87281 -21.1875,-1.22852 -3.88419,-0.62804 -4.05168,-0.81925 -5.75,-6.61914 -1.31247,-4.48219 -1.60731,-4.97634 -1.18164,-1.97461 0.31198,2.2 0.82902,5.08557 1.14844,6.41211 l 0.58203,2.41211 -12.71679,-0.64453 c -6.99403,-0.35447 -13.17745,-0.92952 -13.74024,-1.27734 -0.5849,-0.36149 0.58446,-2.27694 2.72852,-4.47266 5.39921,-5.5293 9.90358,-6.42583 47.05078,-9.35742 1.76644,-0.13941 3.09851,-0.24125 4.26562,-0.23438 z m -249.13086,16.66211 c 0.55,0 1.55945,0.675 2.24414,1.5 0.69443,0.83674 0.80197,1.5 0.24415,1.5 -0.55001,0 -1.55946,-0.675 -2.24415,-1.5 -0.69443,-0.83674 -0.80197,-1.5 -0.24414,-1.5 z m 142.01758,0.25391 c 0.96086,0.0563 0.72098,2.15861 -0.73828,5.41797 -1.97531,4.41193 -3.54206,5.93521 -4.50391,4.3789 -0.64752,-1.0477 2.80195,-8.51981 4.38477,-9.49804 0.34926,-0.21586 0.63569,-0.31183 0.85742,-0.29883 z m -204.07812,5.00391 c 1.31338,0.0166 2.26835,0.29784 2.93554,0.85156 1.4022,1.16373 1.37442,1.37114 -0.2832,2.02344 -2.61396,1.02864 -4.49577,0.86551 -7.20312,-0.625 -2.29339,-1.26261 -2.24635,-1.31303 1.78515,-1.99414 1.06059,-0.17919 1.97759,-0.26585 2.76563,-0.25586 z m 403.2539,2.76367 c 6.33654,-0.0388 19.87218,4.78528 23.875,8.50781 3.0278,2.81578 3.32338,3.4055 1.67578,3.3457 -3.02826,-0.10996 -5.53002,-1.09272 -10.75585,-4.22265 -2.61618,-1.56692 -7.7912,-3.91954 -11.5,-5.22852 -5.92418,-2.09086 -6.32444,-2.38384 -3.29493,-2.40234 z m -46.78125,2.05469 c 4.76682,-0.0989 6.83655,0.74667 6.81055,2.78125 -0.0116,0.90365 -3.04907,6.14257 -6.75,11.64257 v 0.002 l -6.72852,10 -27.5,0.0977 -27.5,0.0977 25.5,-0.89063 c 14.025,-0.48997 25.98235,-1.05098 26.57227,-1.24804 1.64968,-0.55108 13.71951,-18.59746 12.95703,-19.37305 -0.36966,-0.37603 -2.10353,-1.21371 -3.85156,-1.85937 l -3.17774,-1.17383 z m -389.09961,4.80078 c -2.62831,0.0745 -5.35001,0.7374 -8.05078,2.11523 -13.830798,7.05595 -13.618339,27.52746 0.35742,34.42188 7.71625,3.80652 19.58653,0.6258 24.3125,-6.51563 9.05957,-13.68992 -2.42623,-30.42353 -16.61914,-30.02148 z m 151.46289,0.18164 c -5.83361,-0.0565 -11.67034,2.54325 -15.22656,7.82031 -5.82411,8.6424 -3.37277,19.76249 5.71875,25.93555 2.97358,2.01899 4.43137,2.30711 10.08594,1.99804 7.48256,-0.40898 12.53802,-3.36401 15.58984,-9.11328 2.75609,-5.19217 2.31986,-13.56087 -0.96679,-18.52734 -3.53764,-5.34574 -9.36756,-8.05681 -15.20118,-8.11328 z m 271.65235,1.16211 c -0.83468,0.008 -1.68161,0.0777 -2.53711,0.21289 -14.65459,2.31506 -20.90527,20.171 -10.83203,30.93945 1.47751,1.57948 4.03554,3.47445 5.68554,4.21094 4.37778,1.95406 11.96179,1.73199 16.28907,-0.47656 4.58273,-2.33893 6.68707,-4.61103 8.67187,-9.36133 5.01817,-12.01016 -4.75721,-25.64911 -17.27734,-25.52539 z m -149.65625,0.006 c -0.31977,-0.007 -0.64016,-0.004 -0.95899,0.006 -8.50197,0.2673 -16.54139,6.40756 -17.36132,16.29492 -0.24546,2.95992 -0.16145,6.51789 0.1875,7.9082 0.86185,3.43389 6.39487,9.56359 10.08593,11.17188 1.66022,0.72341 5.17419,1.33201 7.8086,1.35351 15.93353,0.1302 24.21244,-18.34754 13.62304,-30.4082 -3.72646,-4.24422 -8.58823,-6.22713 -13.38476,-6.32617 z m -121.42383,3.29297 c 3.39514,0.11198 6.77922,1.55404 9.33203,4.58789 3.11793,3.70545 3.99523,6.85507 3.22656,11.59179 -0.68532,4.22318 -3.88735,8.01503 -8.38086,9.92969 -4.31696,1.83943 -6.04482,1.73557 -10.89257,-0.66406 -5.48035,-2.71277 -7.85317,-7.15557 -7.15039,-13.39063 0.86088,-7.6378 7.3836,-12.26847 13.86523,-12.05468 z m -152.01953,0.63085 c 0.67974,-0.006 1.3833,0.0256 2.11328,0.0957 13.19006,1.26739 17.50811,18.82867 6.32812,25.73828 -6.44074,3.98061 -15.98398,1.82687 -20.16406,-4.55274 -2.55538,-3.90001 -2.30025,-11.30323 0.52539,-15.27148 2.87613,-4.03915 6.43907,-5.96669 11.19727,-6.00977 z m 423.3125,0.0254 c 2.03936,0.0612 4.20049,0.5992 6.41797,1.73047 10.20539,5.2064 10.69368,19.15542 0.88086,25.13868 -4.15217,2.53173 -11.26111,2.55965 -15.05469,0.0586 -12.84766,-8.47031 -5.47242,-26.47612 6.88867,-26.92578 0.28614,-0.0104 0.57585,-0.0107 0.86719,-0.002 z m -151.0918,0.11524 c 3.50755,-0.15844 7.07432,1.10262 10.15625,3.80859 7.63433,6.70303 6.78523,17.73154 -1.76562,22.94532 -6.76537,4.12511 -16.77368,1.57351 -20.25782,-5.16407 -2.5548,-4.94045 -1.5586,-13.10132 2.06055,-16.8789 2.84917,-2.97389 6.2991,-4.5525 9.80664,-4.71094 z M 175.00781,393.17969 c -14.21977,-0.0328 -28.65743,1.71556 -38.01758,4.82031 -13.96503,4.6322 -29.16757,14.70081 -44.667964,29.58203 -6.960305,6.68227 -9.263803,8.32031 -11.691407,8.32031 -1.662733,0 -3.300706,0.45 -3.640625,1 -0.339919,0.55 0.282813,1 1.382813,1 1.1,0 2.230538,0.37587 2.513672,0.83399 0.283134,0.45812 -0.92823,4.22769 -2.691407,8.37695 l -3.205078,7.54492 -4.720703,0.57227 c -7.199531,0.8729 -8.779297,2.07029 -8.779297,6.66211 0,3.6877 0.206995,3.9584 3.5,4.57617 2.83993,0.53277 3.5,1.1067 3.5,3.04492 0,2.18439 0.406288,2.38791 4.75,2.37891 7.353767,-0.0151 14.3209,-3.72824 17.648438,-9.40625 6.327451,-10.79698 14.561938,-16.55482 23.703128,-16.57422 12.40237,-0.0263 21.20273,7.5416 24.30664,20.90039 0.81903,3.52501 2.07515,6.7803 2.79101,7.23438 0.71586,0.45406 24.33031,0.83379 52.47852,0.84179 44.78356,0.0134 51.37189,-0.17853 52.7207,-1.52734 0.84778,-0.84778 2.46543,-4.64616 3.59571,-8.44141 3.59788,-12.08101 12.99539,-21.02642 22.07226,-21.01172 9.1098,0.0148 15.29446,4.14035 23.54688,15.70508 2.55153,3.57565 4.92694,6.03495 5.27929,5.46484 0.35235,-0.5701 2.65708,-1.18006 5.12305,-1.35546 4.22628,-0.30061 4.48437,-0.4884 4.48437,-3.26954 0,-2.67484 -0.46703,-3.09016 -5,-4.44335 -6.0546,-1.80743 -5.47336,-1.44642 -5.99218,-3.72071 -1.59218,-6.97947 -3.37701,-10.64492 -6.05469,-12.43164 -1.62374,-1.08346 -5.17031,-3.73578 -7.88086,-5.89453 -8.37667,-6.67142 -23.59733,-10.78778 -47.46484,-12.83789 l -8.39258,-0.72266 -6.32813,-10 c -3.48034,-5.5 -6.45391,-10.32746 -6.60742,-10.72851 -0.57192,-1.49412 -16.10033,-4.70355 -28.31055,-5.85156 -4.49525,-0.42265 -9.21124,-0.63164 -13.95117,-0.64258 z m 5.83594,8.74609 c 0.48996,-0.009 1.01289,-0.005 1.57031,0.01 2.97287,0.0781 6.93744,0.4748 12.22071,1.00195 11.61474,1.15889 20.4727,3.35488 23.13671,5.73828 3.25982,2.91646 7.8682,12.07056 7.53516,14.9668 l -0.31641,2.75976 -24.5332,0.26758 c -18.24196,0.19853 -24.84509,-0.0443 -25.75,-0.94922 -0.78921,-0.78921 -1.2168,-4.6365 -1.2168,-10.94531 0,-9.80197 0.004,-12.71674 7.35352,-12.84961 z m -16.50977,0.20508 c 5.18588,-0.0155 5.15625,2.40448 5.15625,12.19531 0,6.58255 -0.42309,10.60085 -1.19921,11.37695 -0.85391,0.85393 -7.0107,1.19922 -21.34571,1.19922 -18.24617,0 -20.30179,-0.17175 -21.80078,-1.82812 -2.0796,-2.29793 -2.13017,-7.04571 -0.10742,-9.9336 3.76002,-5.36817 17.44769,-10.62802 32.17773,-12.36523 3.08195,-0.36347 5.39052,-0.63937 7.11914,-0.64453 z m 256.65625,3.27539 c -32.52104,-0.002 -45.89142,0.34722 -51.25,1.33789 -6.71649,1.24172 -8.89326,2.44508 -6.10351,3.375 0.67258,0.22419 -0.42535,2.43042 -2.65625,5.33398 -2.09222,2.72308 -5.07428,7.72986 -6.625,11.12696 -1.55071,3.39711 -3.27896,6.46074 -3.8418,6.80859 -0.56284,0.34786 -0.99584,1.39418 -0.96094,2.32422 0.0459,1.22518 0.31349,1.06966 0.96875,-0.56055 0.7546,-1.87733 1.66778,-2.25 5.51563,-2.25 h 4.61133 l -0.75391,3.25 c -0.41538,1.7875 -1.01426,4.98218 -1.33008,7.09766 -0.50408,3.37652 -1.06279,4.02935 -4.57422,5.34766 -2.2,0.82596 -4.7875,1.55328 -5.75,1.61718 -0.9625,0.0639 -1.75,0.86979 -1.75,1.78907 0,0.91927 -0.67253,2.95978 -1.49414,4.53515 -0.82161,1.57537 -1.497,5.39642 -1.5,8.49219 -0.006,5.21941 0.1941,5.70733 2.74414,6.68945 2.83073,1.09022 17.47098,3.18164 22.26563,3.18164 2.56311,0 2.73194,-0.30071 3.33008,-6.02343 1.20778,-11.55543 6.60321,-17.12259 17.2539,-17.80079 3.49758,-0.22269 7.92941,-0.11022 9.84961,0.25 6.73343,1.2632 12.53122,8.39329 14,17.2168 l 0.68946,4.14063 6.18164,0.58007 c 3.39929,0.31944 28.45468,0.88114 55.67968,1.24805 27.225,0.36691 49.725,0.7182 50,0.7793 0.275,0.0611 0.77855,-2.17255 1.11915,-4.96289 1.30722,-10.70968 6.41674,-16.59799 16.09179,-18.54102 4.52198,-0.90814 6.51241,-0.8182 11.04688,0.5 9.12796,2.65357 13.72331,9.65994 13.73633,20.93946 l 0.006,4.82421 9.25,-0.68945 c 5.0875,-0.37985 9.63871,-1.04976 10.11329,-1.48828 1.27322,-1.17648 -0.1898,-2.97266 -2.42188,-2.97266 -1.06754,0 -1.94141,-0.47829 -1.94141,-1.06445 0,-1.67103 2.15345,-5.35257 3.64649,-6.23437 3.32156,-1.96173 -0.42083,-15.80824 -5.61914,-20.79102 -3.26744,-3.13197 -21.14454,-8.35951 -34.5918,-10.11523 -8.59099,-1.12166 -9.32298,-1.4254 -18.97461,-7.86133 -13.11792,-8.74734 -25.61376,-15.40967 -32.46094,-17.30664 -11.396,-3.15719 -28.55539,-4.12005 -73.5,-4.12305 z m -5.2832,1.23047 12.64258,0.61719 c 6.95271,0.33899 18.60312,0.62381 25.89062,0.63281 l 13.25,0.0156 v 14 c 0,7.7 -0.3375,13.93909 -0.75,13.86328 -0.4125,-0.0758 -12.66452,-0.77852 -27.22656,-1.56054 -14.56203,-0.78203 -26.65787,-1.60124 -26.8789,-1.82227 -0.41074,-0.41074 1.47773,-17.65525 2.5039,-22.86328 z m -2.02734,0.43945 -0.54102,3.16406 c -0.29808,1.74009 -1.0716,7.54961 -1.71875,12.91211 -1.08564,8.99605 -1.34065,9.73842 -3.30273,9.58789 -1.16959,-0.0897 -11.3157,-0.65224 -22.54688,-1.25 -14.1914,-0.75532 -20.54225,-1.4531 -20.81836,-2.28906 -0.63659,-1.92738 3.15804,-9.56803 6.82813,-13.74805 4.63026,-5.27357 8.66142,-6.69241 20.38281,-7.17773 5.51473,-0.22834 12.65823,-0.59301 15.87305,-0.80859 z m 55.6289,1.82617 4.8418,0.0352 c 9.04869,0.0652 20.1087,2.65485 26.61133,6.23047 9.81058,5.39458 20.72851,12.6255 20.72851,13.72851 0,0.55361 -0.92722,0.0786 -2.06054,-1.05468 -1.30299,-1.30299 -3.04936,-1.94639 -4.75,-1.75 -2.41923,0.27938 -2.68946,0.7124 -2.68946,4.31054 0,3.97648 0.0279,4.00577 4.75,4.91797 2.6125,0.50468 4.75,1.29218 4.75,1.75 0,0.45782 -3.2625,0.76369 -7.25,0.67969 -8.40282,-0.17696 -43.17671,-1.92137 -43.37304,-2.17578 -0.0728,-0.0944 -0.45348,-6.13438 -0.84571,-13.42188 z m -11.42187,29.35157 c 3.60083,-0.0892 9.127,1.55509 7.94531,2.63671 -1.53055,1.40099 -7.80293,1.89273 -10.0918,0.79102 -3.05855,-1.47219 -2.82666,-2.49263 0.7461,-3.27734 0.41064,-0.0902 0.88598,-0.13766 1.40039,-0.15039 z m 20.45898,1.05273 c 1.68271,-0.0317 3.27736,0.13227 4.07032,0.55664 2.3757,1.27144 2.75733,3.03906 0.65625,3.03906 -0.78002,0 -2.01752,0.16038 -2.75,0.35547 -1.65236,0.44009 -7.83204,-1.51068 -7.83204,-2.47265 0,-0.82995 3.05097,-1.42572 5.85547,-1.47852 z m -392.798825,0.8125 c 0.769286,-0.0393 1.581158,0.0916 2.40625,0.4082 1.884201,0.72303 2.026645,0.27531 -2.447266,7.64063 -1.915998,3.15427 -3.772248,5.73437 -4.125,5.73437 -1.259669,0 -1.777167,-5.82799 -0.824218,-9.27929 0.75651,-2.73986 2.682376,-4.38607 4.990234,-4.50391 z m 487.720705,3.7832 c 4.63505,0 7.68078,2.00933 9.06445,5.97852 0.89389,2.56422 0.77186,3.15829 -0.83008,4.01562 -1.03404,0.5534 -2.02165,0.96562 -2.19531,0.91602 -6.47844,-1.8505 -7.04691,-2.21722 -8.38672,-5.42383 -2.06997,-4.95413 -1.84306,-5.48633 2.34766,-5.48633 z m -299.41797,8.71485 c -6.62584,0 -11.99011,2.7344 -15.71875,8.01172 -6.8916,9.75399 -3.16703,23.30902 7.81836,28.45117 8.69746,4.0712 20.24864,0.23678 24.52148,-8.13867 2.2312,-4.37352 2.67585,-12.16827 0.95508,-16.72266 -2.59192,-6.86008 -9.77425,-11.60156 -17.57617,-11.60156 z m -158.29492,0.0684 c -6.98192,-0.0324 -13.92561,3.49607 -17.152346,10.60156 -4.663335,10.26898 -0.729384,20.84505 9.587886,25.78125 8.68331,4.15444 20.26271,0.0887 24.46485,-8.5918 2.43712,-5.03441 2.65,-12.47382 0.48828,-17.02929 -3.38632,-7.13615 -10.40675,-10.72936 -17.38867,-10.76172 z m 430.77539,2.32812 c -2.54592,0.0208 -5.08431,0.73182 -7.86914,2.13867 -9.75257,4.92685 -12.79348,16.69917 -6.6875,25.88868 1.22855,1.84896 4.2379,4.37382 6.6875,5.61132 5.38396,2.71989 10.15921,2.82992 15.60742,0.35547 13.49207,-6.1278 13.59617,-25.48383 0.17187,-31.98242 -2.81177,-1.36116 -5.36423,-2.03251 -7.91015,-2.01172 z m -153.4707,0.0625 c -2.72594,-0.0466 -5.5667,0.57122 -8.36133,2.01172 -13.16161,6.78418 -13.18254,24.92359 -0.0371,31.56445 5.21476,2.63441 9.66133,2.84968 14.77539,0.71289 4.95886,-2.07194 7.18825,-4.20507 9.37305,-8.96289 5.70884,-12.43212 -3.9376,-25.12399 -15.75,-25.32617 z m -276.64063,4.82617 c 10.04095,0 14.96004,12.00685 8.02148,19.57813 -4.38213,4.78173 -9.77511,5.59641 -14.73632,2.22851 -5.87547,-3.98856 -7.55774,-9.91733 -4.4961,-15.83789 1.89386,-3.66231 6.22429,-5.96875 11.21094,-5.96875 z m 158.32227,0 c 3.38589,0 4.77461,0.62618 7.54882,3.40039 2.77421,2.77421 3.40039,4.1649 3.40039,7.55079 0,5.5343 -2.16852,9.42629 -6.35742,11.41406 -1.89485,0.89916 -4.50109,1.63481 -5.79297,1.63281 -5.36707,-0.009 -11.84961,-6.59929 -11.84961,-12.04687 0,-3.59625 3.10776,-8.95407 6.08594,-10.49414 1.54852,-0.80078 4.68254,-1.45704 6.96485,-1.45704 z m 116.97851,2 c 7.84447,0 11.9707,4.0939 11.9707,11.875 0,3.10289 -0.67296,4.64561 -3.07617,7.04883 -1.69231,1.6923 -3.68221,3.07617 -4.41992,3.07617 -0.7377,0 -1.93939,0.18535 -2.67187,0.41016 -0.73249,0.22481 -2.76664,-0.007 -4.51954,-0.51367 -7.69542,-2.22388 -10.10926,-12.94541 -4.23632,-18.81836 2.37745,-2.37745 3.95823,-3.07813 6.95312,-3.07813 z m 154,0 c 7.84447,0 11.9707,4.0939 11.9707,11.875 0,3.10289 -0.67296,4.64561 -3.07617,7.04883 -1.69231,1.6923 -3.68221,3.07617 -4.41992,3.07617 -0.7377,0 -1.93939,0.18535 -2.67187,0.41016 -2.13767,0.65607 -7.3443,-1.21238 -9.25196,-3.32031 -1.96729,-2.17383 -3.32294,-7.42934 -2.79297,-10.83008 0.19212,-1.23283 1.70277,-3.59533 3.35743,-5.25 2.30974,-2.30974 3.90897,-3.00977 6.88476,-3.00977 z m -430.04101,1.63868 c -6.71005,0.0774 -10.95743,8.48398 -5.53321,13.9082 1.54723,1.54724 3.59655,2.45312 5.54492,2.45312 8.73962,0 11.19213,-12.99304 2.99219,-15.85156 -1.03809,-0.36188 -2.04533,-0.52081 -3.0039,-0.50976 z m 158.08007,0.0293 c -6.70299,0.0841 -11.00541,8.48678 -5.61328,13.87891 3.00215,3.00216 7.33532,3.19328 10.78907,0.47656 4.90312,-3.8568 3.65102,-11.81769 -2.17774,-13.84961 -1.03423,-0.36053 -2.04048,-0.51787 -2.99805,-0.50586 z m 15.93164,99.33203 c -0.18739,0 -0.36138,0.10279 -0.51171,0.27149 0.18777,0.0122 0.66287,0.0433 0.83789,0.0547 -0.10274,-0.19744 -0.21159,-0.32618 -0.32618,-0.32618 z m 16.35157,14.70704 c -0.29832,0.004 -0.80583,0.0145 -1.08203,0.0176 -0.37339,0.004 -0.74935,0.007 -1.12305,0.0117 0.35645,0.38138 1.31585,0.32795 2.20508,-0.0293 z"
       style="fill:#000000"
       id="path8516" />
  </g>
</svg>
