<?xml version="1.0" encoding="UTF-8" standalone="no"?>
<svg
   xmlns:dc="http://purl.org/dc/elements/1.1/"
   xmlns:cc="http://creativecommons.org/ns#"
   xmlns:rdf="http://www.w3.org/1999/02/22-rdf-syntax-ns#"
   xmlns:svg="http://www.w3.org/2000/svg"
   xmlns="http://www.w3.org/2000/svg"
   xmlns:sodipodi="http://sodipodi.sourceforge.net/DTD/sodipodi-0.dtd"
   xmlns:inkscape="http://www.inkscape.org/namespaces/inkscape"
   width="31.495163mm"
   height="153.08865mm"
   viewBox="0 0 31.495164 153.08866"
   version="1.1"
   id="svg6658"
   inkscape:version="1.0 (4035a4fb49, 2020-05-01)"
   sodipodi:docname="360 Condominiums.svg">
  <defs
     id="defs6652">
    <marker
       inkscape:isstock="true"
       style="overflow:visible"
       id="Arrow1Lstart"
       refX="0"
       refY="0"
       orient="auto"
       inkscape:stockid="Arrow1Lstart">
      <path
         transform="matrix(0.8,0,0,0.8,10,0)"
         style="fill:#000000;fill-opacity:1;fill-rule:evenodd;stroke:#000000;stroke-width:1pt;stroke-opacity:1"
         d="M 0,0 5,-5 -12.5,0 5,5 Z"
         id="path2781" />
    </marker>
  </defs>
  <sodipodi:namedview
     inkscape:object-paths="false"
     inkscape:object-nodes="false"
     id="base"
     pagecolor="#ffffff"
     bordercolor="#666666"
     borderopacity="1.0"
     inkscape:pageopacity="0.0"
     inkscape:pageshadow="2"
     inkscape:zoom="2.8000001"
     inkscape:cx="94.968449"
     inkscape:cy="375.02867"
     inkscape:document-units="mm"
     inkscape:current-layer="layer1"
     inkscape:document-rotation="0"
     showgrid="false"
     fit-margin-top="0"
     fit-margin-left="0"
     fit-margin-right="0"
     fit-margin-bottom="0"
     inkscape:window-width="1920"
     inkscape:window-height="1001"
     inkscape:window-x="-9"
     inkscape:window-y="-9"
     inkscape:window-maximized="1" />
  <metadata
     id="metadata6655">
    <rdf:RDF>
      <cc:Work
         rdf:about="">
        <dc:format>image/svg+xml</dc:format>
        <dc:type
           rdf:resource="http://purl.org/dc/dcmitype/StillImage" />
        <dc:title />
      </cc:Work>
    </rdf:RDF>
  </metadata>
  <g
     inkscape:label="Layer 1"
     inkscape:groupmode="layer"
     id="layer1"
     transform="translate(-534.94277,-690.99007)">
    <path
       sodipodi:nodetypes="sscsscsssccscccsscsscsss"
       d="m 537.07926,690.99013 c -0.0121,0 -0.0219,0.01 -0.0219,0.022 v 4.07518 h -0.91458 c -0.0121,0 -0.0219,0.01 -0.0219,0.022 v 3.60693 h -1.14868 c -0.0121,0 -0.0219,0.01 -0.0219,0.022 v 68.78821 c 0,0.0123 -0.002,0.0928 0.0101,0.0928 l 31.45553,0.0462 c 0.0121,0 0.022,-0.01 0.022,-0.022 v -42.81712 l -0.022,-0.022 H 554.9677 v -26.06615 c 0,-0.0122 -0.01,-0.022 -0.022,-0.022 h -15.7813 v -3.60693 c 0,-0.0122 -0.01,-0.022 -0.0219,-0.022 h -0.91454 v -4.07518 c 0,-0.0122 -0.01,-0.022 -0.022,-0.022 z"
       style="fill:#000314;fill-opacity:1;stroke:none;stroke-width:0.265;stroke-linejoin:round"
       id="rect4919" />
    <path
       id="path16292"
       style="fill:#cdc8e0;fill-opacity:1;stroke:none;stroke-width:0.264999;stroke-linejoin:round"
       d="m 537.07185,844.0786 c -0.0121,0 -0.0219,-0.01 -0.0219,-0.022 v -4.06584 h -0.91458 c -0.0121,0 -0.0219,-0.01 -0.0219,-0.022 v -3.59865 h -1.14868 c -0.0121,0 -0.0219,-0.0101 -0.0219,-0.022 v -68.63027 c 0,-0.0129 -0.002,-0.0927 0.0101,-0.0927 l 31.45553,-0.0461 c 0.0121,0 0.022,0.01 0.022,0.022 v 42.71887 l -0.022,0.022 h -11.44823 v 26.00633 c 0,0.0115 -0.01,0.022 -0.022,0.022 h -15.7813 v 3.59865 c 0,0.0115 -0.01,0.022 -0.0219,0.022 h -0.91454 v 4.06584 c 0,0.0115 -0.01,0.022 -0.022,0.022 z"
       sodipodi:nodetypes="sscsscsssccscccsscsscsss" />
  </g>
</svg>
