<?xml version="1.0" encoding="UTF-8" standalone="no"?>
<svg
   xmlns:dc="http://purl.org/dc/elements/1.1/"
   xmlns:cc="http://creativecommons.org/ns#"
   xmlns:rdf="http://www.w3.org/1999/02/22-rdf-syntax-ns#"
   xmlns:svg="http://www.w3.org/2000/svg"
   xmlns="http://www.w3.org/2000/svg"
   xmlns:sodipodi="http://sodipodi.sourceforge.net/DTD/sodipodi-0.dtd"
   xmlns:inkscape="http://www.inkscape.org/namespaces/inkscape"
   sodipodi:docname="Background Buildings.svg"
   inkscape:version="1.0 (4035a4fb49, 2020-05-01)"
   id="svg7864"
   version="1.1"
   viewBox="0 0 265.83185 58.979381"
   height="58.979382mm"
   width="265.83185mm">
  <defs
     id="defs7858" />
  <sodipodi:namedview
     inkscape:snap-global="false"
     inkscape:window-maximized="1"
     inkscape:window-y="-9"
     inkscape:window-x="-9"
     inkscape:window-height="1001"
     inkscape:window-width="1920"
     showgrid="false"
     inkscape:document-rotation="0"
     inkscape:current-layer="layer1"
     inkscape:document-units="mm"
     inkscape:cy="92.044204"
     inkscape:cx="158.3895"
     inkscape:zoom="1"
     inkscape:pageshadow="2"
     inkscape:pageopacity="0.0"
     borderopacity="1.0"
     bordercolor="#666666"
     pagecolor="#ffffff"
     id="base" />
  <metadata
     id="metadata7861">
    <rdf:RDF>
      <cc:Work
         rdf:about="">
        <dc:format>image/svg+xml</dc:format>
        <dc:type
           rdf:resource="http://purl.org/dc/dcmitype/StillImage" />
        <dc:title />
      </cc:Work>
    </rdf:RDF>
  </metadata>
  <g
     transform="translate(-305.60201,-437.08833)"
     id="layer1"
     inkscape:groupmode="layer"
     inkscape:label="Layer 1">
    <path
       transform="matrix(0.26458333,0,0,0.26458333,305.60149,437.08833)"
       d="m 282.61523,0 -1.84179,3.1894531 c 0,0 0.0273,0.019658 0.0273,0.023437 -0.034,0.022677 -0.0547,0.056081 -0.0547,0.097656 v 9.2968749 c -0.34167,0.30085 -0.78377,0.450837 -1.33203,0.546875 V 7.4589844 h -0.42187 v 5.7558596 c -0.16933,0.02268 -0.34811,0.04203 -0.53516,0.06055 v -3.107422 h -0.42187 v 3.148437 c -0.56553,0.05405 -1.19645,0.117778 -1.90821,0.240235 -0.0635,0.0038 -0.11523,0.05293 -0.11523,0.117187 v 14.527344 l -4.61914,3.830078 0.12109,0.07813 c -0.004,0.01134 -0.008,0.02747 -0.008,0.04297 v 22.412109 h -1.38672 v -7.353515 h -0.63672 v 7.353515 h -1.01172 c -0.0661,0 -0.11914,0.053 -0.11914,0.119141 V 70.787109 H 253.0293 v -17.90625 c 0,-0.06614 -0.053,-0.11914 -0.11914,-0.11914 h -2.4961 v -5.708985 h -0.42187 v 5.708985 h -2.3711 v -6.640625 c 0,-0.06614 -0.0526,-0.119141 -0.11914,-0.119141 H 225.6582 c -0.0661,0 -0.11914,0.053 -0.11914,0.119141 v 6.640625 h -4.38672 c -0.0661,0 -0.11914,0.053 -0.11914,0.11914 v 12.5 h -16.10351 c -0.0661,0 -0.1211,0.053 -0.1211,0.119141 v 5.287109 h -2.47851 V 55.585938 c 0,-0.06614 -0.053,-0.121094 -0.11914,-0.121094 h -8.2168 v -6.189453 c 0,-0.06614 -0.053,-0.119141 -0.11914,-0.119141 h -4.38867 v -3.035156 c 0,-0.06614 -0.053,-0.119141 -0.11914,-0.119141 h -0.78321 l 0.91407,-3.412109 -22.33008,3.412109 h -0.0937 c -0.0265,0 -0.0503,0.01223 -0.0703,0.02734 l -0.44922,0.06836 0.40429,0.0078 c 0,0.0076 -0.004,0.01002 -0.004,0.01758 v 3.035156 h -10.2461 c -0.0661,0 -0.11914,0.05495 -0.11914,0.121094 v 6.189453 h -9.23828 V 41.617188 c 0,-0.06614 -0.053,-0.119141 -0.11914,-0.119141 h -3.14453 c -4.61272,-4.151698 -12.29579,-5.178019 -18.54883,-5.216797 -5.64741,-0.03402 -10.1289,0.734375 -10.1289,0.734375 l -5.09766,4.460937 0.0215,0.01953 h -0.26757 c -0.0662,0 -0.11914,0.053 -0.11914,0.11914 V 55.466797 H 97.898438 c -0.06614,0 -0.119141,0.053 -0.119141,0.119141 V 70.789062 H 79.978516 v -3.486328 c 0,-0.06614 -0.053,-0.11914 -0.119141,-0.11914 h -20.90625 l -1.005859,-5.355469 c 0,0 -2.746227,-0.638172 -6.382813,-0.724609 l -1.164062,-6.205078 c 0,0 -13.67561,-3.191929 -20.433594,3.71289 -2.509493,-0.606312 -8.463192,-1.30772 -11.589844,4.515625 h -0.919922 c -0.06614,0 -0.11914,0.053 -0.11914,0.119141 v 7.542968 H 0.12109375 c -0.06614173,0 -0.11914062,0.053 -0.11914062,0.119141 v 40.318357 c 0,0.0661 0.05299889,0.1211 0.11914062,0.1211 H 1004.7188 V 70.789062 h -0.2247 V 41.390625 c 0,-0.06614 -0.053,-0.119141 -0.1191,-0.119141 h -4.83789 V 29.898438 c 0,-0.06614 -0.053,-0.119141 -0.11914,-0.119141 h -0.88867 c -0.0661,0 -0.11914,0.053 -0.11914,0.119141 v 11.373046 h -4.38672 c -0.0661,0 -0.11914,0.053 -0.11914,0.119141 v 25.341797 h -5.1836 v -1.683594 c 0,-0.06614 -0.053,-0.119142 -0.11914,-0.11914 h -3.10351 l -4.12891,-4.128907 c -0.0469,-0.04687 -0.1211,-0.04687 -0.16797,0 l -4.1289,4.128907 h -3.32813 c -0.0661,0 -0.12109,0.053 -0.12109,0.11914 v 1.683594 h -9.34375 c -0.0661,0 -0.11914,0.053 -0.11914,0.11914 v 3.9375 H 958.5 V 80.375 h -2.18164 c -0.20939,0 -0.37695,0.16952 -0.37695,0.378906 v 1.585938 h -0.19336 c -0.20939,0 -0.37696,0.167567 -0.37696,0.376953 v 0.898437 h -0.80859 v -1.74414 c 0,-0.209386 -0.16952,-0.376953 -0.37891,-0.376953 h -3.07421 c -0.15546,0 -0.28753,0.093 -0.34571,0.226562 h -1.87695 c -0.20939,0 -0.37695,0.169521 -0.37695,0.378906 v 1.515625 h -5.24805 v -0.279296 c 0,-0.209386 -0.16757,-0.376954 -0.37695,-0.376954 h -0.1211 v -2.324218 c 0,-0.209386 -0.16952,-0.378907 -0.3789,-0.378907 h -5.67969 c -0.20939,0 -0.37695,0.169521 -0.37696,0.378907 v 1.761718 h -1.15429 c -0.20939,0 -0.37695,0.167568 -0.37695,0.376954 v 1.585937 c -0.13224,0.05873 -0.22461,0.18925 -0.22461,0.34375 v 0.246094 c -0.02,0.03651 -0.032,0.07647 -0.0391,0.11914 h -0.16015 c -0.20939,0 -0.37696,0.16757 -0.37696,0.376953 v 1.03711 h -0.83398 v -0.978516 c 0,-0.209386 -0.16757,-0.378906 -0.37695,-0.378906 h -0.61719 v -0.9375 c 0,-0.209386 -0.16952,-0.376953 -0.37891,-0.376953 h -0.77344 v -0.171875 c 0,-0.209386 -0.16756,-0.376953 -0.37695,-0.376953 h -0.46289 c -0.20938,0 -0.3789,0.167567 -0.3789,0.376953 v 0.171875 h -4.30079 c -0.20938,0 -0.37695,0.167567 -0.37695,0.376953 v 0.9375 h -0.3418 c -0.20938,0 -0.3789,0.16952 -0.3789,0.378906 v 0.232422 h -3.19922 v -0.505859 c 0,-0.209386 -0.16952,-0.376953 -0.37891,-0.376953 h -2.00195 c -0.20939,0 -0.37891,0.167567 -0.37891,0.376953 v 0.505859 h -3.0625 v -7.576172 c 0,-0.209386 -0.16756,-0.378906 -0.37695,-0.378906 h -2.0293 c -0.20938,0 -0.37695,0.16952 -0.37695,0.378906 v 7.576172 h -2.78516 v -0.152344 c 0,-0.209385 -0.16756,-0.376953 -0.37695,-0.376953 h -0.28516 v -5.810547 c 0,-0.209385 -0.16756,-0.376953 -0.37695,-0.376953 h -0.90234 c -0.20939,0 -0.37696,0.167568 -0.37696,0.376953 v 6.339844 h -6.66406 v -1.388672 c 0,-0.209386 -0.16952,-0.378906 -0.3789,-0.378906 h -17.50196 c -0.20938,0 -0.37695,0.16952 -0.37695,0.378906 v 2.103516 c -0.0134,-0.0014 -0.0253,-0.0078 -0.0391,-0.0078 h -4.83985 V 85.8125 c 0,-0.209386 -0.16952,-0.378906 -0.3789,-0.378906 h -5.07422 c -0.20939,0 -0.37697,0.16952 -0.37695,0.378906 v 0.630859 h -3.08399 c -0.20939,0 -0.37695,0.169521 -0.37695,0.378907 v 0.480468 h -3.85352 v -0.492187 c 0,-0.419717 -0.33809,-0.757813 -0.75781,-0.757813 h -3.27734 l -0.79102,-1.529296 c -0.0126,-0.09095 -0.0539,-0.170198 -0.11914,-0.228516 l -1.08203,-2.09375 c -0.0498,-0.09635 -0.12986,-0.09635 -0.17969,0 l -1.03125,1.99414 h -0.69531 l -3.0429,-5.882812 c -0.0498,-0.09635 -0.12986,-0.09635 -0.17969,0 l -1.7832,3.445312 -0.86719,-1.677734 c -0.0498,-0.09635 -0.12986,-0.09635 -0.17969,0 l -3.26757,6.320313 v -8.417969 c 0,-0.209386 -0.16952,-0.376953 -0.37891,-0.376953 h -40.22656 c -0.20939,0 -0.37891,0.167567 -0.37891,0.376953 v 9.320312 h -5.29687 v -0.492187 c 0,-0.419717 -0.3381,-0.757813 -0.75782,-0.757813 h -2.57617 V 74.416016 c 0,-0.419717 -0.33806,-0.757813 -0.75781,-0.757813 H 782.8418 c -0.41972,0 -0.75782,0.338096 -0.75782,0.757813 v 9.591796 h -2.31445 v -0.492187 c 0,-0.156614 -0.0579,-0.293539 -0.13867,-0.414063 v -9.347656 c 0,-0.419716 -0.3381,-0.757812 -0.75781,-0.757812 h -2.75196 V 58.666016 c 0,-0.419717 -0.33809,-0.757813 -0.75781,-0.757813 h -6 v -7.353515 c 0,-0.419717 -0.33809,-0.757813 -0.75781,-0.757813 H 754.6875 V 34.804688 c 0,-0.419717 -0.3381,-0.75586 -0.75781,-0.75586 h -10.28711 c -0.41972,0 -0.75781,0.336143 -0.75781,0.75586 V 62.8125 H 740.9707 V 51.757812 C 740.9707,51.338097 740.89609,51 740.80273,51 c -0.0933,0 -0.16796,0.338097 -0.16796,0.757812 V 62.8125 h -0.62891 v -4.808594 c 0,-0.419716 -0.33806,-0.757812 -0.75781,-0.757812 h -1.65039 c -0.41976,0 -0.75782,0.338096 -0.75782,0.757812 v 3.578125 c -0.0343,-0.01684 -0.0704,-0.02555 -0.10742,-0.03711 -0.0913,-0.31585 -0.36882,-0.550781 -0.71484,-0.550781 h -0.84375 c -0.33003,0 -0.60072,0.212516 -0.70508,0.505859 h -1.66602 c -0.41975,0 -0.75781,0.338097 -0.75781,0.757812 v 5.148438 h -3.37304 v -5.251953 c 0,-0.419717 -0.33806,-0.757813 -0.75782,-0.757813 h -4.02929 V 46.404297 c 0,-0.419717 -0.33806,-0.757813 -0.75782,-0.757813 h -3.29492 v -0.234375 c 0,-0.419716 -0.33809,-0.757812 -0.75781,-0.757812 h -2.51563 c -0.41971,0 -0.75781,0.338096 -0.75781,0.757812 v 0.234375 h -0.082 c -0.41972,0 -0.75781,0.338096 -0.75781,0.757813 v 9.189453 h -0.17774 c -0.41975,0 -0.75781,0.338097 -0.75781,0.757812 V 70.6875 h -2.18945 v -2.523438 c 0,-0.419715 -0.3381,-0.757812 -0.75782,-0.757812 h -0.84179 c -0.41972,0 -0.75781,0.338097 -0.75781,0.757812 V 70.6875 h -1.08594 v -2.185547 c 0,-0.419716 -0.3381,-0.757812 -0.75781,-0.757812 h -5.38868 c -0.41971,0 -0.75781,0.338096 -0.75781,0.757812 v 9.064453 h -3.36719 v -0.992187 c 0,-0.419717 -0.33809,-0.75586 -0.75781,-0.75586 h -2.27344 v -3.74414 c 0,-0.419717 -0.0746,-0.757813 -0.16796,-0.757813 -0.0934,0 -0.16797,0.338096 -0.16797,0.757813 v 3.74414 h -1.09571 c -0.41971,0 -0.75781,0.336143 -0.75781,0.75586 v 0.992187 h -1.51562 v -1.492187 c 0,-0.419054 -0.33703,-0.756748 -0.75586,-0.757813 h -0.002 C 690.49412,75.201196 690.32716,75.125 690.13672,75.125 h -0.84375 c -0.19103,0 -0.3592,0.07556 -0.49219,0.191406 h -1.8789 c -0.41972,0 -0.75782,0.338096 -0.75782,0.757813 v 1.492187 h -3.61133 v -0.863281 c 0,-0.419717 -0.0766,-0.757813 -0.16992,-0.757813 -0.0933,0 -0.16797,0.338096 -0.16797,0.757813 v 0.945313 c -0.25239,0.122649 -0.42968,0.375309 -0.42968,0.675781 v 0.492187 h -3.19922 v -0.492187 c 0,-0.419717 -0.3381,-0.757813 -0.75782,-0.757813 h -0.33789 c -0.41971,0 -0.75585,0.338096 -0.75585,0.757813 v 0.492187 h -1.68555 v -4.992187 c 0,-0.419717 -0.3381,-0.75586 -0.75781,-0.75586 h -5.38868 c -0.41971,0 -0.75781,0.336143 -0.75781,0.75586 v 4.992187 h -2.18945 v -0.492187 c 0,-0.419717 -0.3381,-0.757813 -0.75781,-0.757813 h -0.8418 c -0.41976,0 -0.75781,0.338096 -0.75781,0.757813 v 0.492187 h -1.08594 v -0.363281 c 0,-0.419717 -0.3381,-0.757813 -0.75781,-0.757813 h -5.39063 c -0.41972,0 -0.75781,0.338096 -0.75781,0.757813 v 3.615234 h -1.00586 v -1.935547 c 0,-0.419715 -0.3381,-0.757812 -0.75781,-0.757812 -0.0759,-0.06614 -0.1635,-0.114729 -0.26172,-0.146484 -0.0218,-0.188313 -0.17487,-0.335938 -0.36914,-0.335938 h -8.28321 l -3.04687,-3.046875 c -0.29679,-0.296784 -0.77353,-0.296784 -1.07031,0 l -2.54688,2.546875 v -0.509766 c 0,-0.419753 -0.33809,-0.757812 -0.75781,-0.757812 h -5.39063 c -0.41975,0 -0.75781,0.338097 -0.75781,0.757812 v 0.955079 C 631.22119,78.638695 631.00275,78.5 630.74219,78.5 H 624.25 V 77.507812 C 624.25,77.088097 623.9119,76.75 623.49219,76.75 H 619.75 v -3.742188 c 0,-0.419715 -0.11167,-0.757812 -0.25,-0.757812 -0.13833,0 -0.25,0.338097 -0.25,0.757812 V 76.75 h -1.99219 C 616.8381,76.75 616.5,77.088097 616.5,77.507812 V 78.5 h -2.25 V 77.007812 C 614.25,76.588097 613.9119,76.25 613.49219,76.25 h -6.23438 C 606.8381,76.25 606.5,76.588097 606.5,77.007812 V 78.5 h -5.74219 C 600.3381,78.5 600,78.838097 600,79.257812 V 79.75 h -4.75 V 79.257812 C 595.25,78.838059 594.9119,78.5 594.49219,78.5 h -1.23438 c -0.27675,0 -0.50843,0.154578 -0.64062,0.375 -0.0646,-0.353226 -0.35801,-0.625 -0.73047,-0.625 H 590 V 74.757812 C 590,74.338097 589.6619,74 589.24219,74 h -8.73438 C 580.0881,74 579.75,74.338097 579.75,74.757812 V 78.25 h -9.09961 V 77.757812 C 570.65039,77.338097 570.31425,77 569.89453,77 h -5.22265 v -1.855469 c 0,-0.419754 -0.0746,-0.757812 -0.16797,-0.757812 -0.0934,0 -0.16797,0.338096 -0.16797,0.757812 V 77 h -4.33008 c -0.41972,0 -0.75781,0.338097 -0.75781,0.757812 v 0.308594 h -0.39649 l -5.51562,-1.541015 c -0.30723,-0.08583 -0.80215,-0.08583 -1.10938,0 l -3.56836,0.996093 V 73.257812 C 548.6582,72.838097 548.32011,72.5 547.90039,72.5 h -21.0918 v -3.494141 c 0,-0.419716 -0.11167,-0.757812 -0.25,-0.757812 -0.13833,0 -0.25,0.338096 -0.25,0.757812 V 72.5 h -1.33789 v -0.242188 c 0,-0.419753 -0.0746,-0.757812 -0.16797,-0.757812 -0.0933,0 -0.16796,0.338059 -0.16796,0.757812 V 72.5 h -3.52539 c -0.13844,-0.153031 -0.33504,-0.251953 -0.5586,-0.251953 h -6.23437 c -0.41972,0 -0.75782,0.338096 -0.75782,0.757812 v 1.492188 h -5.74218 c -0.41972,0 -0.75782,0.338096 -0.75782,0.757812 v 1.734375 c 0,0.197181 0.0786,0.373302 0.20118,0.507813 h -0.19532 C 506.95813,77.208476 506.6867,77 506.35938,77 h -1.42969 v -2.992188 c 0,-0.419715 -0.33615,-0.757812 -0.75586,-0.757812 h -5.39063 c -0.0375,0 -0.0694,0.01627 -0.10547,0.02148 v -1.388672 c 0,-0.419715 -0.33805,-0.757812 -0.75781,-0.757812 h -24.13281 v -1.742188 c 0,-0.419715 -0.3381,-0.757812 -0.75781,-0.757812 h -7.72071 l -3.20898,-3.208984 c -0.29679,-0.296785 -0.77548,-0.296787 -1.07227,0 L 457.81836,68.625 h -9.22461 v -1.804688 c 0,-0.419715 -0.3381,-0.757812 -0.75781,-0.757812 h -0.11328 c -0.41972,0 -0.75782,0.338097 -0.75782,0.757812 v 1.882813 c -0.0281,-0.0031 -0.0531,-0.01563 -0.082,-0.01563 H 438.4707 V 67.757812 C 438.4707,67.338097 438.39609,67 438.30273,67 c -0.0933,0 -0.16796,0.338097 -0.16796,0.757812 V 68.6875 h -1.20118 v -1.742188 c 0,-0.419753 -0.33809,-0.757812 -0.75781,-0.757812 h -9.91797 c -0.41971,0 -0.75781,0.338097 -0.75781,0.757812 v 1.550782 h -2.46094 c -0.19103,0 -0.36115,0.07556 -0.49414,0.191406 h -1.77734 c -0.41972,0 -0.75781,0.338097 -0.75781,0.757812 V 70.6875 h -1.28125 c -0.10649,0 -0.20706,0.02123 -0.29883,0.06055 v -1.240235 c 0,-0.419715 -0.33615,-0.757812 -0.75586,-0.757812 h -5.39063 c -0.41975,0 -0.75781,0.338097 -0.75781,0.757812 v 3.746094 h -2.92773 c -0.007,-1.82e-4 -0.0126,-0.0039 -0.0195,-0.0039 h -0.27734 v -1.617188 c 0,-0.419715 -0.33809,-0.757812 -0.75781,-0.757812 H 397.625 c -0.41972,0 -0.75781,0.338097 -0.75781,0.757812 v 1.548829 h -2.46094 c -0.19103,0 -0.36115,0.07751 -0.49414,0.193359 h -1.77734 c -0.41972,0 -0.75782,0.338097 -0.75782,0.757812 V 75.375 h -1.28125 c -0.41971,0 -0.75781,0.338097 -0.75781,0.757812 V 77 h -1.79883 v -0.738281 c 0,-0.419717 -0.33809,-0.757813 -0.75781,-0.757813 h -8.7168 c -0.0959,-0.04368 -0.20187,-0.07227 -0.31445,-0.07227 h -3.16602 c -0.19102,0 -0.36115,0.07751 -0.49414,0.193359 h -0.48437 c -0.41972,0 -0.75586,0.338097 -0.75586,0.757812 v 1.609376 c -0.14792,0.0475 -0.26893,0.137499 -0.36133,0.257812 h -33.22461 c -0.41971,0 -0.75781,0.338097 -0.75781,0.757812 v 3.546876 h -3.78516 c -0.20938,0 -0.37695,0.16952 -0.37695,0.378906 v 1.28125 h -4.46289 l -13.60352,-3.800782 c -0.30722,-0.08583 -0.80214,-0.08583 -1.10937,0 l -1.4082,0.392579 -3.76368,-1.050782 v -4.601562 c 0,-0.209386 -0.16952,-0.376953 -0.3789,-0.376953 h -1.85742 v -3.988282 h -2.00586 V 54.683594 c 0,-0.06614 -0.053,-0.119141 -0.11914,-0.119141 h -2.58399 v -5.289062 c 0,-0.06614 -0.053,-0.119141 -0.11914,-0.119141 h -9.34375 V 32.152344 c 0,-0.06614 -0.053,-0.121094 -0.11914,-0.121094 h -0.37695 l -5.36328,-3.830078 V 13.675781 c 0,-0.06614 -0.053,-0.121094 -0.11914,-0.121093 h -1.68165 c -1.37336,-0.191623 -2.1021,-0.26371 -2.48046,-0.66211 V 3.3105469 c 0,-0.048378 -0.0303,-0.090855 -0.0703,-0.109375 l 0.0156,-0.011719 z M 425.25,73.4375 h 0.1875 c -0.0346,0.02956 -0.063,0.06237 -0.0918,0.09766 -0.0296,-0.03595 -0.06,-0.06774 -0.0957,-0.09766 z"
       style="fill:#d9d9d9;fill-opacity:1;stroke-width:18.8976;stroke-linejoin:round"
       id="rect1225" />
    <path
       id="path4437"
       style="fill:#eae8f3;fill-opacity:1;stroke-width:4.99999;stroke-linejoin:round"
       d="m 380.37677,496.06771 -0.48731,-0.84619 c 0,0 0.007,-0.005 0.007,-0.006 -0.009,-0.006 -0.0145,-0.0149 -0.0145,-0.0259 v -2.46653 c -0.0904,-0.0798 -0.20737,-0.11961 -0.35243,-0.14509 v 1.51101 h -0.11162 v -1.52707 c -0.0448,-0.006 -0.0921,-0.0112 -0.14159,-0.0161 v 0.82442 h -0.11162 v -0.8353 c -0.14963,-0.0143 -0.31657,-0.0312 -0.50489,-0.0637 -0.0168,-10e-4 -0.0305,-0.014 -0.0305,-0.0311 v -3.85421 l -1.22215,-1.01615 0.032,-0.0207 c -0.001,-0.003 -0.002,-0.007 -0.002,-0.0114 v -5.9461 h -0.3669 v 1.95094 h -0.16847 v -1.95094 h -0.26768 c -0.0175,0 -0.0315,-0.0141 -0.0315,-0.0316 v -4.27238 h -4.05396 v 4.75066 c 0,0.0176 -0.014,0.0316 -0.0315,0.0316 h -0.66042 v 1.51464 h -0.11162 v -1.51464 h -0.62736 v 1.76181 c 0,0.0175 -0.0139,0.0316 -0.0315,0.0316 h -5.77949 c -0.0175,0 -0.0315,-0.0141 -0.0315,-0.0316 v -1.76181 h -1.16066 c -0.0175,0 -0.0315,-0.0141 -0.0315,-0.0316 v -3.31634 h -4.26072 c -0.0175,0 -0.032,-0.0141 -0.032,-0.0316 v -1.40271 h -0.65577 v 4.03298 c 0,0.0175 -0.014,0.0321 -0.0315,0.0321 h -2.17402 v 1.64211 c 0,0.0175 -0.014,0.0316 -0.0315,0.0316 h -1.16117 v 0.80525 c 0,0.0175 -0.014,0.0316 -0.0315,0.0316 h -0.20722 l 0.24185,0.90525 -5.90817,-0.90525 h -0.0248 c -0.007,0 -0.0133,-0.003 -0.0186,-0.007 l -0.11886,-0.0181 0.10697,-0.002 c 0,-0.002 -0.001,-0.003 -0.001,-0.005 v -0.80525 h -2.71095 c -0.0175,0 -0.0315,-0.0146 -0.0315,-0.0321 v -1.64211 h -2.44429 v 3.67492 c 0,0.0175 -0.014,0.0316 -0.0315,0.0316 h -0.83199 c -1.22045,1.10148 -3.25326,1.37377 -4.90771,1.38406 -1.49421,0.009 -2.67994,-0.19484 -2.67994,-0.19484 l -1.34875,-1.18352 0.006,-0.005 h -0.0708 c -0.0175,0 -0.0315,-0.0141 -0.0315,-0.0316 v -3.67492 h -3.18792 c -0.0175,0 -0.0315,-0.0141 -0.0315,-0.0316 v -4.0335 h -4.70979 v 0.92495 c 0,0.0176 -0.014,0.0316 -0.0315,0.0316 H 321.2 l -0.26613,1.42085 c 0,0 -0.72661,0.16931 -1.68879,0.19224 l -0.30799,1.64625 c 0,0 -3.61834,0.84684 -5.40639,-0.98505 -0.66397,0.16085 -2.23921,0.34694 -3.06647,-1.19803 h -0.2434 c -0.0175,0 -0.0315,-0.0141 -0.0315,-0.0316 v -2.00121 h -4.55528 c -0.0175,0 -0.0315,-0.0141 -0.0315,-0.0316 v -10.69675 c 0,-0.0175 0.014,-0.0321 0.0315,-0.0321 h 265.79981 v 10.76049 h -0.0595 v 7.79962 c 0,0.0175 -0.014,0.0316 -0.0315,0.0316 h -1.28002 v 3.01736 c 0,0.0175 -0.014,0.0316 -0.0315,0.0316 h -0.23512 c -0.0175,0 -0.0315,-0.0141 -0.0315,-0.0316 v -3.01736 h -1.16065 c -0.0175,0 -0.0315,-0.0141 -0.0315,-0.0316 v -6.72336 h -1.37149 v 0.44667 c 0,0.0176 -0.014,0.0316 -0.0315,0.0316 h -0.82113 l -1.09244,1.09543 c -0.0124,0.0124 -0.0321,0.0124 -0.0444,0 l -1.09244,-1.09543 h -0.88056 c -0.0175,0 -0.032,-0.0141 -0.032,-0.0316 v -0.44667 h -2.4722 c -0.0175,0 -0.0315,-0.0141 -0.0315,-0.0316 v -1.04465 h -1.49759 v -2.54322 h -0.57722 c -0.0554,0 -0.0997,-0.045 -0.0997,-0.10052 v -0.42076 h -0.0512 c -0.0554,0 -0.0997,-0.0445 -0.0997,-0.10001 v -0.23836 h -0.21394 v 0.46273 c 0,0.0555 -0.0448,0.10001 -0.10025,0.10001 h -0.81338 c -0.0411,0 -0.0761,-0.0247 -0.0915,-0.0601 h -0.49661 c -0.0554,0 -0.0997,-0.045 -0.0997,-0.10053 v -0.4021 h -1.38854 v 0.0741 c 0,0.0555 -0.0443,0.1 -0.0997,0.1 h -0.032 v 0.61664 c 0,0.0556 -0.0448,0.10052 -0.10025,0.10052 h -1.50275 c -0.0554,0 -0.0997,-0.045 -0.0997,-0.10052 v -0.4674 h -0.3054 c -0.0554,0 -0.0997,-0.0445 -0.0997,-0.10001 v -0.42076 c -0.035,-0.0156 -0.0594,-0.0502 -0.0594,-0.0912 v -0.0653 c -0.005,-0.01 -0.008,-0.0203 -0.0103,-0.0316 h -0.0424 c -0.0554,0 -0.0997,-0.0445 -0.0997,-0.10001 v -0.27515 h -0.22066 v 0.25961 c 0,0.0555 -0.0443,0.10052 -0.0997,0.10052 h -0.1633 v 0.24873 c 0,0.0556 -0.0448,0.10001 -0.10026,0.10001 h -0.20463 v 0.0456 c 0,0.0555 -0.0443,0.10001 -0.0997,0.10001 h -0.12247 c -0.0554,0 -0.10025,-0.0445 -0.10025,-0.10001 v -0.0456 h -1.13792 c -0.0554,0 -0.0997,-0.0445 -0.0997,-0.10001 v -0.24873 h -0.0904 c -0.0554,0 -0.10025,-0.045 -0.10025,-0.10052 v -0.0617 h -0.84646 v 0.13421 c 0,0.0555 -0.0448,0.10001 -0.10025,0.10001 h -0.52969 c -0.0554,0 -0.10025,-0.0445 -0.10025,-0.10001 v -0.13421 h -0.81029 v 2.01002 c 0,0.0555 -0.0443,0.10053 -0.0997,0.10053 h -0.53692 c -0.0554,0 -0.0997,-0.045 -0.0997,-0.10053 v -2.01002 h -0.73691 v 0.0404 c 0,0.0555 -0.0443,0.10001 -0.0997,0.10001 h -0.0754 v 1.54158 c 0,0.0555 -0.0443,0.10001 -0.0997,0.10001 h -0.23874 c -0.0554,0 -0.0997,-0.0445 -0.0997,-0.10001 v -1.68201 h -1.7632 v 0.36843 c 0,0.0555 -0.0448,0.10053 -0.10025,0.10053 h -4.63073 c -0.0554,0 -0.0997,-0.045 -0.0997,-0.10053 v -0.55808 c -0.004,3.7e-4 -0.007,0.002 -0.0104,0.002 h -1.28054 v 0.16738 c 0,0.0555 -0.0448,0.10052 -0.10025,0.10052 H 536.382 c -0.0554,0 -0.0997,-0.045 -0.0997,-0.10052 v -0.16738 h -0.81597 c -0.0554,0 -0.0997,-0.045 -0.0997,-0.10052 v -0.12747 h -1.01957 v 0.13058 c 0,0.11135 -0.0895,0.20105 -0.20051,0.20105 h -0.86713 l -0.20929,0.40573 c -0.003,0.0241 -0.0143,0.0452 -0.0315,0.0606 l -0.28629,0.55549 c -0.0132,0.0256 -0.0344,0.0256 -0.0475,0 l -0.27285,-0.52906 h -0.18397 l -0.8051,1.56075 c -0.0132,0.0256 -0.0344,0.0256 -0.0475,0 l -0.47181,-0.91407 -0.22944,0.44512 c -0.0132,0.0256 -0.0344,0.0256 -0.0476,0 l -0.86454,-1.67683 v 2.23335 c 0,0.0555 -0.0448,0.10001 -0.10025,0.10001 H 519.0385 c -0.0554,0 -0.10025,-0.0445 -0.10025,-0.10001 v -2.47274 h -1.40147 v 0.13058 c 0,0.11135 -0.0894,0.20105 -0.2005,0.20105 h -0.68162 v 3.08731 c 0,0.11135 -0.0894,0.20105 -0.2005,0.20105 h -3.72432 c -0.11105,0 -0.20051,-0.0897 -0.20051,-0.20105 v -2.54478 h -0.61236 v 0.13058 c 0,0.0416 -0.0153,0.0779 -0.0367,0.10986 v 2.48 c 0,0.11135 -0.0895,0.20105 -0.2005,0.20105 h -0.72813 v 3.80188 c 0,0.11135 -0.0894,0.20105 -0.2005,0.20105 h -1.5875 v 1.95094 c 0,0.11136 -0.0894,0.20105 -0.20051,0.20105 h -3.68246 v 3.97754 c 0,0.11136 -0.0894,0.20054 -0.2005,0.20054 h -2.7218 c -0.11105,0 -0.2005,-0.0892 -0.2005,-0.20054 v -7.43068 h -0.50643 v 2.93289 c 0,0.11136 -0.0197,0.20106 -0.0444,0.20106 -0.0247,0 -0.0444,-0.0897 -0.0444,-0.20106 v -2.93289 h -0.1664 v 1.27576 c 0,0.11135 -0.0894,0.20105 -0.2005,0.20105 h -0.43666 c -0.11107,0 -0.20051,-0.0897 -0.20051,-0.20105 v -0.9493 c -0.009,0.004 -0.0186,0.007 -0.0284,0.01 -0.0242,0.0838 -0.0976,0.14613 -0.18914,0.14613 h -0.22324 c -0.0873,0 -0.15894,-0.0564 -0.18655,-0.13421 h -0.4408 c -0.11106,0 -0.20051,-0.0897 -0.20051,-0.20105 v -1.36645 h -0.89245 v 1.39338 c 0,0.11135 -0.0894,0.20105 -0.2005,0.20105 h -1.06609 v 3.97754 c 0,0.11135 -0.0894,0.20105 -0.2005,0.20105 h -0.87178 v 0.0622 c 0,0.11135 -0.0895,0.20105 -0.20051,0.20105 h -0.66559 c -0.11105,0 -0.20051,-0.0897 -0.20051,-0.20105 v -0.0622 h -0.0217 c -0.11105,0 -0.20051,-0.0897 -0.20051,-0.20105 v -2.43803 h -0.047 c -0.11106,0 -0.20051,-0.0897 -0.20051,-0.20105 v -3.80343 h -0.57929 v 0.66949 c 0,0.11135 -0.0894,0.20105 -0.20051,0.20105 h -0.22272 c -0.11105,0 -0.2005,-0.0897 -0.2005,-0.20105 v -0.66949 h -0.28732 v 0.57984 c 0,0.11135 -0.0895,0.20105 -0.20051,0.20105 h -1.42575 c -0.11105,0 -0.20051,-0.0897 -0.20051,-0.20105 v -2.40487 h -0.8909 v 0.26324 c 0,0.11135 -0.0894,0.20053 -0.2005,0.20053 h -0.60152 v 0.99335 c 0,0.11136 -0.0197,0.20106 -0.0444,0.20106 -0.0247,0 -0.0444,-0.0897 -0.0444,-0.20106 v -0.99335 h -0.28991 c -0.11104,0 -0.2005,-0.0892 -0.2005,-0.20053 v -0.26324 h -0.40101 v 0.39589 c 0,0.11118 -0.0892,0.20077 -0.19999,0.20106 h -5.2e-4 c -0.0352,0.0306 -0.0793,0.0508 -0.12971,0.0508 h -0.22324 c -0.0505,0 -0.095,-0.0201 -0.13023,-0.0508 h -0.49712 c -0.11105,0 -0.20051,-0.0897 -0.20051,-0.20106 v -0.39589 h -0.9555 v 0.22904 c 0,0.11135 -0.0203,0.20105 -0.0449,0.20105 -0.0247,0 -0.0445,-0.0897 -0.0445,-0.20105 v -0.2508 c -0.0668,-0.0325 -0.11368,-0.0996 -0.11368,-0.17929 v -0.13058 h -0.84646 v 0.13058 c 0,0.11136 -0.0895,0.20105 -0.20051,0.20105 h -0.0894 c -0.11105,0 -0.19998,-0.0897 -0.19998,-0.20105 v -0.13058 h -0.44597 v 1.32446 c 0,0.11136 -0.0895,0.20054 -0.20051,0.20054 h -1.42575 c -0.11105,0 -0.20051,-0.0892 -0.20051,-0.20054 v -1.32446 h -0.57929 v 0.13058 c 0,0.11136 -0.0894,0.20105 -0.2005,0.20105 h -0.22273 c -0.11106,0 -0.2005,-0.0897 -0.2005,-0.20105 v -0.13058 h -0.28732 v 0.0964 c 0,0.11136 -0.0895,0.20105 -0.20051,0.20105 h -1.42627 c -0.11105,0 -0.2005,-0.0897 -0.2005,-0.20105 v -0.95915 h -0.26614 v 0.51352 c 0,0.11135 -0.0894,0.20105 -0.2005,0.20105 -0.0201,0.0176 -0.0433,0.0304 -0.0693,0.0389 -0.006,0.05 -0.0463,0.0891 -0.0977,0.0891 h -2.1916 l -0.80615,0.80836 c -0.0785,0.0787 -0.20467,0.0787 -0.28319,0 l -0.67386,-0.6757 v 0.13524 c 0,0.11136 -0.0895,0.20105 -0.20051,0.20105 h -1.42627 c -0.11106,0 -0.2005,-0.0897 -0.2005,-0.20105 v -0.25339 c -0.036,0.0529 -0.0938,0.0897 -0.16278,0.0897 h -1.71773 v 0.26323 c 0,0.11135 -0.0894,0.20105 -0.2005,0.20105 h -0.99012 v 0.99283 c 0,0.11136 -0.0295,0.20106 -0.0661,0.20106 -0.0366,0 -0.0661,-0.0897 -0.0661,-0.20106 v -0.99283 h -0.5271 c -0.11105,0 -0.20051,-0.0897 -0.20051,-0.20105 v -0.26323 h -0.59531 v 0.39588 c 0,0.11136 -0.0895,0.20106 -0.2005,0.20106 h -1.64952 c -0.11104,0 -0.2005,-0.0897 -0.2005,-0.20106 v -0.39588 h -1.51929 c -0.11105,0 -0.2005,-0.0897 -0.2005,-0.20106 v -0.13058 h -1.25677 v 0.13058 c 0,0.11137 -0.0895,0.20106 -0.20051,0.20106 h -0.32659 c -0.0732,0 -0.13453,-0.041 -0.1695,-0.0995 -0.0171,0.0937 -0.0947,0.16581 -0.19327,0.16581 h -0.4992 v 0.92651 c 0,0.11135 -0.0894,0.20105 -0.2005,0.20105 h -2.31097 c -0.11105,0 -0.2005,-0.0897 -0.2005,-0.20105 v -0.92651 h -2.40761 v 0.13058 c 0,0.11136 -0.0889,0.20106 -0.19999,0.20106 h -1.38182 v 0.49227 c 0,0.11136 -0.0197,0.20105 -0.0444,0.20105 -0.0247,0 -0.0444,-0.0897 -0.0444,-0.20105 v -0.49227 h -1.14566 c -0.11106,0 -0.20051,-0.0897 -0.20051,-0.20106 v -0.0819 h -0.1049 l -1.45934,0.40884 c -0.0813,0.0228 -0.21224,0.0228 -0.29353,0 l -0.94413,-0.26427 v 1.13119 c 0,0.11135 -0.0894,0.20105 -0.2005,0.20105 H 444.988 v 0.92702 c 0,0.11135 -0.0296,0.20105 -0.0661,0.20105 -0.0366,0 -0.0661,-0.0897 -0.0661,-0.20105 v -0.92702 h -0.35398 v 0.0643 c 0,0.11137 -0.0197,0.20106 -0.0445,0.20106 -0.0247,0 -0.0444,-0.0897 -0.0444,-0.20106 v -0.0643 h -0.93275 c -0.0366,0.0406 -0.0886,0.0668 -0.1478,0.0668 h -1.64951 c -0.11105,0 -0.20051,-0.0897 -0.20051,-0.20105 v -0.39589 h -1.51928 c -0.11105,0 -0.20051,-0.0897 -0.20051,-0.20105 v -0.46014 c 0,-0.0523 0.0208,-0.099 0.0532,-0.13473 h -0.0517 c -0.0281,0.0768 -0.1,0.13214 -0.18655,0.13214 h -0.37827 v 0.79385 c 0,0.11135 -0.0889,0.20105 -0.19999,0.20105 h -1.42627 c -0.01,0 -0.0184,-0.004 -0.0279,-0.006 v 0.36842 c 0,0.11136 -0.0894,0.20106 -0.2005,0.20106 h -6.38514 v 0.46221 c 0,0.11136 -0.0894,0.20106 -0.2005,0.20106 h -2.04277 l -0.84905,0.85136 c -0.0785,0.0787 -0.20518,0.0787 -0.2837,0 l -0.84904,-0.85136 h -2.44068 v 0.47879 c 0,0.11136 -0.0895,0.20106 -0.20051,0.20106 h -0.03 c -0.11105,0 -0.2005,-0.0897 -0.2005,-0.20106 v -0.49952 c -0.007,8.2e-4 -0.0141,0.004 -0.0217,0.004 h -2.22571 v 0.24666 c 0,0.11135 -0.0197,0.20105 -0.0444,0.20105 -0.0247,0 -0.0444,-0.0897 -0.0444,-0.20105 v -0.24666 h -0.31782 v 0.46222 c 0,0.11136 -0.0894,0.20105 -0.2005,0.20105 h -2.62413 c -0.11105,0 -0.2005,-0.0897 -0.2005,-0.20105 v -0.41144 h -0.65113 c -0.0505,0 -0.0956,-0.02 -0.13074,-0.0508 h -0.47025 c -0.11105,0 -0.20051,-0.0897 -0.20051,-0.20105 v -0.32956 h -0.33899 c -0.0282,0 -0.0548,-0.006 -0.0791,-0.0161 v 0.32905 c 0,0.11135 -0.0889,0.20105 -0.19999,0.20105 h -1.42627 c -0.11106,0 -0.2005,-0.0897 -0.2005,-0.20105 v -0.99387 h -0.77463 c -0.002,5e-5 -0.003,10e-4 -0.005,10e-4 h -0.0734 v 0.42905 c 0,0.11135 -0.0894,0.20105 -0.2005,0.20105 h -2.62414 c -0.11105,0 -0.20051,-0.0897 -0.20051,-0.20105 v -0.41092 h -0.65112 c -0.0505,0 -0.0956,-0.0206 -0.13074,-0.0513 h -0.47026 c -0.11105,0 -0.2005,-0.0897 -0.2005,-0.20105 v -0.32956 h -0.339 c -0.11105,0 -0.2005,-0.0897 -0.2005,-0.20105 v -0.23007 h -0.47595 v 0.19587 c 0,0.11135 -0.0894,0.20105 -0.2005,0.20105 h -2.30632 c -0.0254,0.0116 -0.0534,0.0192 -0.0832,0.0192 h -0.83767 c -0.0505,0 -0.0956,-0.0206 -0.13074,-0.0513 h -0.12816 c -0.11105,0 -0.19999,-0.0897 -0.19999,-0.20106 v -0.42698 c -0.0391,-0.0126 -0.0711,-0.0365 -0.0956,-0.0684 H 395.365 c -0.11105,0 -0.2005,-0.0897 -0.2005,-0.20105 v -0.94101 h -1.00149 c -0.0554,0 -0.0997,-0.045 -0.0997,-0.10053 v -0.33992 h -1.1808 l -3.59927,1.00837 c -0.0813,0.0228 -0.21223,0.0228 -0.29352,0 l -0.37259,-0.10415 -0.9958,0.27878 v 1.22083 c 0,0.0555 -0.0448,0.1 -0.10025,0.1 h -0.49145 v 1.05813 h -0.53071 v 4.27289 c 0,0.0175 -0.014,0.0316 -0.0315,0.0316 h -0.68369 v 1.40323 c 0,0.0175 -0.014,0.0316 -0.0315,0.0316 h -2.4722 v 4.51126 c 0,0.0175 -0.014,0.0321 -0.0315,0.0321 h -0.0997 l -1.41903,1.01615 v 3.8537 c 0,0.0175 -0.014,0.0321 -0.0315,0.0321 h -0.44494 c -0.36337,0.0508 -0.55618,0.07 -0.65629,0.17566 v 2.54219 c 0,0.0128 -0.008,0.0241 -0.0186,0.029 l 0.004,0.003 z m 37.73878,-19.48351 h 0.0496 c -0.009,-0.008 -0.0167,-0.0165 -0.0243,-0.0259 -0.008,0.01 -0.0159,0.018 -0.0253,0.0259 z" />
  </g>
</svg>
