<?xml version="1.0" encoding="UTF-8" standalone="no"?>
<svg
   xmlns:dc="http://purl.org/dc/elements/1.1/"
   xmlns:cc="http://creativecommons.org/ns#"
   xmlns:rdf="http://www.w3.org/1999/02/22-rdf-syntax-ns#"
   xmlns:svg="http://www.w3.org/2000/svg"
   xmlns="http://www.w3.org/2000/svg"
   xmlns:sodipodi="http://sodipodi.sourceforge.net/DTD/sodipodi-0.dtd"
   xmlns:inkscape="http://www.inkscape.org/namespaces/inkscape"
   width="36.919064mm"
   height="28.470919mm"
   viewBox="0 0 36.919064 28.470919"
   version="1.1"
   id="svg3709"
   inkscape:version="1.0 (4035a4fb49, 2020-05-01)"
   sodipodi:docname="Car2.svg">
  <defs
     id="defs3703" />
  <sodipodi:namedview
     id="base"
     pagecolor="#ffffff"
     bordercolor="#666666"
     borderopacity="1.0"
     inkscape:pageopacity="0.0"
     inkscape:pageshadow="2"
     inkscape:zoom="5.6568542"
     inkscape:cx="52.610699"
     inkscape:cy="35.8233"
     inkscape:document-units="mm"
     inkscape:current-layer="layer1"
     inkscape:document-rotation="0"
     showgrid="false"
     inkscape:window-width="1920"
     inkscape:window-height="1001"
     inkscape:window-x="-9"
     inkscape:window-y="-9"
     inkscape:window-maximized="1" />
  <metadata
     id="metadata3706">
    <rdf:RDF>
      <cc:Work
         rdf:about="">
        <dc:format>image/svg+xml</dc:format>
        <dc:type
           rdf:resource="http://purl.org/dc/dcmitype/StillImage" />
        <dc:title></dc:title>
      </cc:Work>
    </rdf:RDF>
  </metadata>
  <g
     inkscape:label="Layer 1"
     inkscape:groupmode="layer"
     id="layer1"
     transform="translate(107.41446,-11.752847)">
    <path
       style="fill:#f6f3f8;stroke-width:1;stroke-linejoin:round;stroke-dasharray:1, 1"
       d="m -91.40335,33.037481 c -0.105179,0.03005 -0.163779,0.07513 -0.277974,0.181809 -0.169789,0.163779 -0.297506,0.225384 -0.503357,0.244917 -0.120204,0.01187 -0.229891,0.0601 -0.253932,0.105179 -0.01502,0.04508 -0.01502,0.04508 0.03005,0.09015 0.0601,0.0601 0.135231,0.07513 0.348594,0.09015 0.253932,0.01503 0.386157,0.07513 0.45828,0.171292 0.01503,0.03005 0.07513,0.0601 0.105179,0.07513 0.0601,0.03005 0.105179,0.03005 0.229891,0.03005 0.296004,-0.0012 0.525896,-0.09015 0.872986,-0.369629 l 0.220877,-0.172795 -0.237405,-0.156266 c -0.286988,-0.189322 -0.437244,-0.265952 -0.595013,-0.308024 -0.13523,-0.03005 -0.309526,-0.04508 -0.402685,-0.0093 z"
       id="path30691" />
    <path
       style="fill:#000314;stroke:none;stroke-width:0.264582;stroke-opacity:1"
       d="m -76.930112,19.633913 c -1.486029,0.04508 -2.879802,1.116401 -3.006318,2.865678 -0.03005,0.489834 0.01187,1.125416 0.10518,1.410902 0.219373,0.665633 0.979667,1.446964 1.751682,1.799013 1.167487,0.533408 2.519939,0.262948 3.479172,-0.697187 1.205052,-1.205051 1.28619,-3.001209 0.192328,-4.248182 -0.706202,-0.803868 -1.631928,-1.153964 -2.523997,-1.131426 z"
       id="path8583-57" />
    <path
       style="fill:#000314;stroke:none;stroke-width:0.264582;stroke-opacity:1"
       d="m -102.45226,19.617084 c -0.40269,0.0026 -0.81138,0.07513 -1.20806,0.247922 -2.45397,1.024745 -2.55615,4.527057 -0.16678,5.717684 0.43724,0.217871 1.04428,0.396675 1.34779,0.396675 2.10719,0 3.652122,-1.906896 3.170702,-3.913412 -0.357609,-1.489035 -1.705702,-2.456832 -3.143202,-2.447817 z"
       id="path8581-92" />
    <path
       transform="matrix(0.26458333,0,0,0.26458333,-107.41446,11.752847)"
       d="M 51.826172 0 C 24.548996 0 22.556577 0.057524717 20.550781 1.0683594 C 18.494983 2.0905742 17.723168 3.1464844 19.029297 3.1464844 C 19.37021 3.1464844 18.858034 4.2359401 17.835938 5.5761719 C 16.836441 6.9107306 14.991358 9.608165 13.736328 11.574219 C 12.293871 13.823087 11.066975 15.146484 10.408203 15.146484 C 8.6420678 15.146484 5.9104968 17.924004 5.2460938 20.388672 C 4.4339867 23.404198 4.9038405 23.825053 5.7558594 20.900391 C 6.5168295 18.367574 8.4653291 16.804542 9.0332031 18.275391 C 9.2036598 18.729709 8.7504052 21.014113 7.9609375 23.302734 C 6.9443958 26.318261 6.3025803 27.441374 5.6210938 27.378906 C 5.1099882 27.335177 4.6835937 27.493392 4.6835938 27.777344 C 4.6835938 28.0613 3.7529733 29.19642 2.6171875 30.337891 L 0.54882812 32.410156 L 0.83398438 36.783203 C 1.1745198 42.013521 2.0818632 44.300781 3.859375 44.300781 C 4.904301 44.300781 5.1878499 43.903109 5.5058594 41.898438 C 6.7609271 34.035353 11.991929 28.886486 18.691406 28.916016 C 26.665794 28.950787 31.809685 34.010867 33.417969 43.396484 L 34.058594 47.154297 L 43.796875 47.212891 C 49.152133 47.25662 61.118089 47.438851 70.386719 47.666016 C 79.654782 47.893165 90.32921 48.120943 94.107422 48.177734 L 100.97656 48.291016 L 101.66211 43.974609 C 102.51963 38.568241 103.90586 35.455275 106.66016 32.744141 C 112.23121 27.252589 122.12553 27.729221 126.69141 33.714844 C 128.68472 36.332843 130.37109 41.427222 130.37109 44.847656 C 130.37109 46.727393 130.59949 47.74345 131.08789 47.783203 C 132.30887 47.896778 138.64626 47.61175 138.83594 47.441406 C 138.94951 47.327831 138.84849 46.379243 138.66602 45.283203 C 138.38206 43.914576 137.99488 43.319983 137.3418 43.371094 C 135.56996 43.484669 135.76246 37.919329 137.56836 37.230469 C 138.14194 37.003319 138.63174 37.342562 138.9668 38.166016 C 139.36432 39.176873 139.47642 38.830689 139.5332 36.513672 C 139.56344 34.196655 139.30798 33.419788 138.42773 32.800781 C 137.72354 32.289676 137.09164 30.959724 136.7793 29.261719 C 136.14893 25.82027 134.27018 23.775808 129.63672 21.501953 C 124.26443 18.866916 104.94912 16.010966 101.43555 17.339844 C 100.57802 17.680568 98.969087 18.094207 97.873047 18.292969 C 95.908127 18.633693 95.744824 18.520734 88.634766 11.058594 L 81.394531 3.4570312 L 83.779297 2.9453125 L 86.164062 2.4355469 L 83.591797 1.2304688 C 81.081699 0.054926038 80.315837 0.02734375 51.888672 0.02734375 L 51.826172 0 z M 47.568359 3.0820312 L 47.568359 5.2910156 C 47.568359 6.5063114 47.737698 9.4654847 47.964844 11.871094 L 48.363281 16.244141 L 42.423828 16.130859 C 34.959976 16.017285 15.546394 15.176555 15.333984 14.955078 C 15.220221 14.841503 16.663386 12.218343 18.486328 9.0761719 L 21.796875 3.3632812 L 34.712891 3.1933594 L 47.568359 3.0820312 z M 51.410156 3.7382812 L 65.101562 3.7382812 L 78.794922 3.7382812 L 83.917969 9.6152344 C 86.734733 12.846564 89.591352 16.189174 90.259766 17.041016 L 91.474609 18.591797 L 89.839844 18.591797 C 88.488251 18.591797 88.106662 18.250851 87.652344 16.740234 C 86.618775 13.247675 81.109375 13.174139 81.109375 16.626953 L 81.109375 18.136719 L 67.828125 17.740234 C 60.523281 17.513085 53.83895 17.228602 52.974609 17.046875 L 51.402344 16.763672 L 51.402344 10.240234 L 51.410156 3.7382812 z "
       style="fill:#000314;stroke:none;stroke-width:0.999995;stroke-opacity:1"
       id="path8516-7" />
    <path
       id="path7676-4"
       d="m -91.10344,18.434121 c -0.105179,-0.03005 -0.163779,-0.07513 -0.277973,-0.178805 -0.169789,-0.160774 -0.297507,-0.220876 -0.503357,-0.240409 -0.120205,-0.01157 -0.229891,-0.0601 -0.253932,-0.105179 -0.01503,-0.04508 -0.01503,-0.04508 0.03005,-0.09015 0.0601,-0.0601 0.13523,-0.07513 0.348593,-0.09015 0.253933,-0.01503 0.386158,-0.07513 0.458281,-0.168287 0.01502,-0.03005 0.07513,-0.0601 0.105179,-0.07513 0.0601,-0.03005 0.105179,-0.03005 0.229891,-0.03005 0.296004,0.0012 0.525895,0.09015 0.872986,0.362117 l 0.220876,0.169789 -0.237404,0.153261 c -0.286989,0.184814 -0.437244,0.261445 -0.595013,0.302014 -0.13523,0.03005 -0.309527,0.04508 -0.402686,0.0092 z"
       style="fill:#f6f3f8;stroke-width:1;stroke-linejoin:round;stroke-dasharray:1, 1" />
    <path
       id="path29911"
       d="m -77.086077,32.456742 c -1.48603,-0.04508 -2.879803,-1.1164 -3.006318,-2.865528 -0.03005,-0.489834 0.01187,-1.125416 0.105179,-1.410902 0.219373,-0.665633 0.979668,-1.446963 1.751682,-1.799012 1.167487,-0.533409 2.51994,-0.262948 3.479173,0.697186 1.205051,1.205052 1.286189,3.00121 0.192327,4.248032 -0.706202,0.803869 -1.631928,1.153965 -2.523997,1.131426 z"
       style="fill:#c7c2d8;fill-opacity:1;stroke:none;stroke-width:0.264582;stroke-opacity:1" />
    <path
       id="path29913"
       d="m -102.60823,32.411515 c -0.40268,-0.0026 -0.81138,-0.07513 -1.20805,-0.247922 -2.45398,-1.024744 -2.55615,-4.526906 -0.16679,-5.717533 0.43725,-0.217871 1.04428,-0.396676 1.3478,-0.396676 2.10719,0 3.652116,1.906897 3.170696,3.913413 -0.357608,1.489034 -1.705706,2.456682 -3.143196,2.447666 z"
       style="fill:#c7c2d8;fill-opacity:1;stroke:none;stroke-width:0.264582;stroke-opacity:1" />
    <path
       transform="matrix(0.26458333,0,0,0.26458333,-107.41446,11.752847)"
       d="M 100.42578 59.316406 L 93.558594 59.429688 C 89.780381 59.486478 79.10595 59.712304 69.837891 59.939453 C 60.569261 60.166618 48.603305 60.350802 43.248047 60.394531 L 33.509766 60.451172 L 32.867188 64.210938 C 31.258908 73.595983 26.117003 78.654681 18.142578 78.689453 C 11.443139 78.718983 6.2120612 73.572068 4.9570312 65.708984 C 4.6389841 63.704312 4.3554729 63.306641 3.3105469 63.306641 C 1.5330351 63.306641 0.62411651 65.591948 0.28320312 70.822266 L 0 75.195312 L 2.0664062 77.267578 C 3.2022299 78.409048 4.1347656 79.546122 4.1347656 79.830078 C 4.1347656 80.11403 4.5611601 80.270292 5.0722656 80.226562 C 5.7537144 80.164095 6.3936146 81.289161 7.4101562 84.304688 C 8.199624 86.593308 8.6548317 88.87576 8.484375 89.330078 C 7.916501 90.800927 5.9680013 89.239848 5.2070312 86.707031 C 4.3550125 83.782369 3.8851585 84.203224 4.6972656 87.21875 C 5.3617066 89.683418 8.0932396 92.458984 9.859375 92.458984 C 10.518147 92.458984 11.745043 93.782382 13.1875 96.03125 C 14.442568 97.997304 16.287613 100.69474 17.287109 102.0293 C 18.309245 103.36953 18.819429 104.46094 18.478516 104.46094 C 17.172349 104.46094 17.946192 105.51685 20.001953 106.53906 C 22.007786 107.5499 24.000157 107.60742 51.277344 107.60742 L 51.339844 107.57812 C 79.767007 107.57813 80.532867 107.55054 83.042969 106.375 L 85.615234 105.16992 L 83.230469 104.66016 L 80.845703 104.14844 L 88.085938 96.546875 C 95.195991 89.085301 95.359299 88.971776 97.324219 89.3125 C 98.420255 89.511262 100.02724 89.926854 100.88477 90.267578 C 104.39834 91.596456 123.71559 88.738553 129.08789 86.103516 C 133.72135 83.829661 135.6001 81.785199 136.23047 78.34375 C 136.54281 76.645744 137.17276 75.317746 137.87695 74.806641 C 138.7572 74.187633 139.0146 73.408814 138.98438 71.091797 C 138.92759 68.77478 138.8155 68.428596 138.41797 69.439453 C 138.08291 70.262906 137.5931 70.604103 137.01953 70.376953 C 135.21363 69.688093 135.02113 64.122753 136.79297 64.236328 C 137.44605 64.287439 137.83128 63.690893 138.11523 62.322266 C 138.29771 61.226225 138.40068 60.277637 138.28711 60.164062 C 138.09743 59.99372 131.76004 59.710644 130.53906 59.824219 C 130.05066 59.863972 129.82227 60.880029 129.82227 62.759766 C 129.82227 66.1802 128.13589 71.272626 126.14258 73.890625 C 121.57669 79.876248 111.68239 80.35288 106.11133 74.861328 C 103.35704 72.150194 101.97081 69.037228 101.11328 63.630859 L 100.42578 59.316406 z M 88.824219 87.828125 L 90.458984 87.828125 L 89.244141 89.40625 C 88.575727 90.275129 85.719108 93.686671 82.902344 96.980469 L 77.779297 102.97266 L 64.085938 102.97266 L 50.394531 102.97266 L 50.384766 96.332031 L 50.384766 89.679688 L 51.958984 89.394531 C 52.823321 89.201447 59.505703 88.918556 66.810547 88.691406 L 80.091797 88.292969 L 80.091797 89.832031 C 80.091797 93.35299 85.603146 93.279458 86.636719 89.71875 C 87.091033 88.168384 87.472629 87.828125 88.824219 87.828125 z M 47.230469 89.632812 L 46.832031 94.089844 C 46.604885 96.545996 46.435547 99.562767 46.435547 100.80078 L 46.435547 103.05469 L 33.578125 102.93555 L 20.664062 102.76562 L 17.353516 96.939453 C 15.530574 93.737657 14.087408 91.056934 14.201172 90.943359 C 14.413581 90.716202 33.827159 89.859669 41.291016 89.746094 L 47.230469 89.632812 z "
       style="fill:#c7c2d8;fill-opacity:1;stroke:none;stroke-width:0.999995;stroke-opacity:1"
       id="path29915" />
    <path
       transform="matrix(0.26458333,0,0,0.26458333,-107.41446,11.752847)"
       id="path6732"
       d="m 39.882777,15.995046 c -9.219228,-0.280319 -22.82429,-0.874432 -23.82066,-1.040213 -0.315988,-0.05258 -0.574524,-0.145111 -0.574524,-0.205634 0,-0.193612 1.569682,-3.028147 4.001278,-7.2255168 l 2.364303,-4.0812105 8.51352,-0.1172361 c 4.682435,-0.06448 10.436895,-0.1172361 12.787687,-0.1172361 h 4.274165 l 0.113206,3.1377864 c 0.06226,1.7257824 0.232936,4.4105781 0.379273,5.9662131 0.146338,1.555635 0.267011,3.047189 0.268162,3.314563 l 0.0021,0.486136 -3.402951,-0.03598 c -1.871623,-0.01979 -4.079122,-0.05654 -4.905553,-0.08167 z"
       style="fill:#f2e2ff;fill-opacity:0.1659919;stroke-width:0.377952;stroke-linecap:round;stroke-linejoin:round" />
    <path
       transform="matrix(0.26458333,0,0,0.26458333,-107.41446,11.752847)"
       id="path6734"
       d="m 89.203475,18.458992 c -0.671649,-0.122238 -1.02509,-0.533059 -1.441765,-1.675831 -0.820341,-2.24986 -3.20279,-3.36392 -5.227903,-2.444625 -1.040814,0.472474 -1.460568,1.223244 -1.461399,2.613852 -5.31e-4,0.934659 -0.04832,1.104644 -0.310021,1.103493 -1.078238,-0.0047 -17.704839,-0.554605 -21.345786,-0.705928 -4.212058,-0.17506 -7.396882,-0.437512 -7.71808,-0.636023 -0.08167,-0.05047 -0.148482,-2.99063 -0.148482,-6.533684 V 3.7383296 h 13.573719 13.57372 l 2.645541,3.0454686 c 5.215116,6.0034838 8.449278,9.7876788 9.219373,10.7873078 l 0.783066,1.016466 -0.85002,-0.02407 c -0.467512,-0.01324 -1.048895,-0.06027 -1.291963,-0.104506 z"
       style="fill:#f2e2ff;fill-opacity:0.165992;stroke-width:0.377952;stroke-linecap:round;stroke-linejoin:round" />
    <path
       transform="matrix(0.26458333,0,0,0.26458333,-107.41446,11.752847)"
       id="path6742"
       d="M 25.033472,102.77771 20.702381,102.7273 18.36972,98.620229 C 15.753634,94.014142 14.18004,91.077208 14.276517,90.98073 14.464806,90.792442 33.431272,89.987354 43.19734,89.753101 l 3.933281,-0.09435 -0.0054,0.394271 c -0.0029,0.216849 -0.122401,1.587514 -0.265457,3.045922 -0.143055,1.458408 -0.312013,4.262528 -0.37546,6.231379 l -0.115359,3.579737 -8.502215,-0.041 c -4.676217,-0.0225 -10.451204,-0.0636 -12.833304,-0.0914 z"
       style="fill:#f2e2ff;fill-opacity:0.165992;stroke-width:0.377952;stroke-linecap:round;stroke-linejoin:round" />
    <path
       transform="matrix(0.26458333,0,0,0.26458333,-107.41446,11.752847)"
       id="path6744"
       d="m 50.489378,96.305183 v -6.604872 l 1.281631,-0.197678 c 1.836547,-0.283267 10.405849,-0.649445 23.839314,-1.018685 l 4.349682,-0.119558 0.08903,1.244368 c 0.106766,1.492195 0.51413,2.169993 1.554335,2.586201 1.467653,0.587239 3.093927,0.183771 4.230852,-1.049646 0.394678,-0.428177 0.717598,-0.864971 0.717598,-0.970653 0,-0.105682 0.164452,-0.574426 0.365447,-1.041653 0.437724,-1.017519 0.864085,-1.24897 2.300742,-1.24897 0.965033,0 1.043497,0.02815 0.888068,0.318569 -0.189017,0.353181 -5.324097,6.520136 -9.564664,11.486647 l -2.740039,3.209107 -13.656,0.006 -13.656,0.006 z"
       style="fill:#f2e2ff;fill-opacity:0.165992;stroke-width:0.377952;stroke-linecap:round;stroke-linejoin:round" />
  </g>
</svg>
