<?xml version="1.0" encoding="UTF-8" standalone="no"?>
<svg
   xmlns:dc="http://purl.org/dc/elements/1.1/"
   xmlns:cc="http://creativecommons.org/ns#"
   xmlns:rdf="http://www.w3.org/1999/02/22-rdf-syntax-ns#"
   xmlns:svg="http://www.w3.org/2000/svg"
   xmlns="http://www.w3.org/2000/svg"
   xmlns:sodipodi="http://sodipodi.sourceforge.net/DTD/sodipodi-0.dtd"
   xmlns:inkscape="http://www.inkscape.org/namespaces/inkscape"
   width="36.919064mm"
   height="28.470919mm"
   viewBox="0 0 36.919064 28.470919"
   version="1.1"
   id="svg3709"
   inkscape:version="1.0 (4035a4fb49, 2020-05-01)"
   sodipodi:docname="Car3.svg">
  <defs
     id="defs3703" />
  <sodipodi:namedview
     inkscape:snap-global="false"
     id="base"
     pagecolor="#ffffff"
     bordercolor="#666666"
     borderopacity="1.0"
     inkscape:pageopacity="0.0"
     inkscape:pageshadow="2"
     inkscape:zoom="4"
     inkscape:cx="60.751085"
     inkscape:cy="82.116928"
     inkscape:document-units="mm"
     inkscape:current-layer="layer1"
     inkscape:document-rotation="0"
     showgrid="false"
     inkscape:window-width="1378"
     inkscape:window-height="1001"
     inkscape:window-x="533"
     inkscape:window-y="0"
     inkscape:window-maximized="0" />
  <metadata
     id="metadata3706">
    <rdf:RDF>
      <cc:Work
         rdf:about="">
        <dc:format>image/svg+xml</dc:format>
        <dc:type
           rdf:resource="http://purl.org/dc/dcmitype/StillImage" />
        <dc:title></dc:title>
      </cc:Work>
    </rdf:RDF>
  </metadata>
  <g
     inkscape:label="Layer 1"
     inkscape:groupmode="layer"
     id="layer1"
     transform="translate(107.41446,-11.752847)">
    <path
       style="fill:#000314;fill-opacity:1;stroke-width:0.264583"
       d="m -78.400226,20.300906 c 1.03406,-0.0049 2.062454,0.525038 2.54035,1.592136 0.690665,1.542188 0.108025,3.130496 -1.420014,3.871811 -1.286045,0.623911 -3.001018,0.01332 -3.623378,-1.29031 -0.360952,-0.756066 -0.39248,-1.873311 -0.07232,-2.557449 0.501535,-1.071701 1.541297,-1.611328 2.575362,-1.616188 z"
       id="path2766" />
    <path
       style="fill:#000314;fill-opacity:1;stroke-width:0.264583"
       d="m -102.06671,20.140455 c 0.98131,0 1.77579,0.41065 2.328017,1.203195 1.02069,1.464848 0.469057,3.500534 -1.157937,4.272778 -1.28814,0.611411 -2.99893,0.03556 -3.63176,-1.22226 -0.33046,-0.656812 -0.3963,-1.827422 -0.14145,-2.511399 0.38388,-1.030242 1.44763,-1.742314 2.60313,-1.742314 z"
       id="path2764" />
    <path
       d="m -87.353642,11.88997 c 2.106025,-0.005 4.244326,0.257643 5.630615,0.723912 2.068293,0.695662 4.319871,2.207758 6.615565,4.44261 1.030858,1.003539 1.372019,1.249539 1.731558,1.249539 0.246259,0 0.488852,0.06759 0.539198,0.15018 0.05032,0.0826 -0.04187,0.150179 -0.204803,0.150179 -0.162915,0 -0.330353,0.05645 -0.372292,0.125247 -0.04192,0.0688 0.13748,0.634913 0.398612,1.258046 l 0.474689,1.133092 0.699162,0.08594 c 1.066291,0.131092 1.300263,0.310915 1.300263,1.000512 0,0.553816 -0.03068,0.59447 -0.518367,0.687246 -0.420611,0.08001 -0.518369,0.166204 -0.518369,0.457285 0,0.328049 -0.06018,0.358614 -0.703501,0.357262 -1.089139,-0.0023 -2.121005,-0.559905 -2.61383,-1.412625 -0.937125,-1.621483 -2.156697,-2.486192 -3.51056,-2.489105 -1.836858,-0.004 -3.140237,1.132593 -3.599941,3.138807 -0.121307,0.529384 -0.307339,1.01826 -0.413369,1.086454 -0.106019,0.06819 -3.603449,0.125219 -7.77235,0.126421 -6.632685,0.002 -7.608455,-0.02682 -7.808221,-0.229376 -0.125559,-0.127319 -0.365143,-0.697757 -0.532538,-1.267725 -0.532868,-1.814318 -1.924679,-3.157734 -3.269019,-3.155526 -1.3492,0.0022 -2.2652,0.621794 -3.48742,2.358578 -0.37789,0.536989 -0.72971,0.906326 -0.78189,0.820707 -0.0521,-0.08562 -0.39353,-0.177222 -0.75875,-0.203564 -0.62595,-0.04514 -0.66416,-0.07335 -0.66416,-0.491016 0,-0.401705 0.0691,-0.46408 0.74053,-0.6673 0.89671,-0.271439 0.81062,-0.217222 0.88747,-0.558773 0.2358,-1.048172 0.50016,-1.598647 0.89673,-1.866976 0.24049,-0.162714 0.76576,-0.561038 1.1672,-0.885237 1.24062,-1.00191 3.49489,-1.620102 7.029799,-1.927986 l 1.242977,-0.108528 0.937232,-1.501795 c 0.515459,-0.825985 0.955855,-1.550972 0.978592,-1.611201 0.0847,-0.224386 2.384548,-0.706376 4.192945,-0.878784 0.665772,-0.06347 1.364235,-0.09486 2.066243,-0.0965 z m -0.52589,0.712766 c -0.07258,-0.0014 -0.15002,-7.38e-4 -0.23257,0.0014 -0.440295,0.01173 -1.027466,0.0713 -1.809949,0.150474 -1.72021,0.174041 -3.032113,0.503834 -3.426673,0.86177 -0.482796,0.437992 -1.165328,1.812749 -1.115998,2.247704 l 0.04686,0.41446 3.633501,0.04019 c 2.701728,0.02982 3.679686,-0.0067 3.813707,-0.142553 0.116886,-0.118523 0.180211,-0.696307 0.180211,-1.64376 0,-1.472053 -4.85e-4,-1.909791 -1.089092,-1.929746 z m 2.445182,0.0308 c -0.768056,-0.0024 -0.763666,0.361104 -0.763666,1.831485 0,0.988562 0.06267,1.592029 0.177612,1.708583 0.126471,0.128243 1.038317,0.180098 3.161417,0.180098 2.702353,0 3.006805,-0.0258 3.228816,-0.274546 0.308,-0.345102 0.315501,-1.05812 0.01589,-1.491821 -0.556876,-0.806189 -2.584095,-1.59611 -4.765698,-1.857003 -0.456451,-0.05458 -0.798361,-0.09602 -1.054385,-0.0968 z"
       style="fill:#000314;fill-opacity:1;stroke-width:0.264583"
       id="path2742" />
    <path
       inkscape:transform-center-y="0.075086949"
       inkscape:transform-center-x="-0.96268648"
       style="fill:#c5c5c5;fill-opacity:1;stroke-width:0.264583"
       d="m -72.403049,18.858582 c -0.110095,-0.03033 -0.231709,-0.03702 -0.361085,-0.0169 -0.295444,0.04597 -0.301965,-0.02429 0.113679,1.199362 0.178006,0.524036 0.365434,0.961908 0.416484,0.973165 0.182305,0.0402 0.440634,-0.798529 0.411357,-1.335416 -0.02323,-0.426216 -0.250148,-0.729263 -0.580435,-0.820215 z"
       id="path2760" />
    <path
       id="path4017"
       d="m -80.172745,16.264099 c 0.04075,-0.01536 0.165087,-0.04826 0.27635,-0.07312 0.396374,-0.08856 0.584887,-0.94262 0.321892,-1.458315 -0.465754,-0.913282 -3.059885,-1.877441 -5.416476,-2.013138 l -0.819381,-0.04718 -0.167263,0.215617 c -0.162602,0.209614 -0.166595,0.25584 -0.143295,1.660187 0.02101,1.266191 0.04031,1.461109 0.156112,1.578505 0.121567,0.123199 0.356042,0.135194 2.925084,0.149651 1.536107,0.0087 2.826249,0.0032 2.866977,-0.01221 z"
       style="fill:#d9d9d9;fill-opacity:0.202429;stroke-width:0.0999998;stroke-linecap:round;stroke-linejoin:round" />
    <path
       id="path4019"
       d="m -87.33872,16.227553 c 0.172344,-0.02848 0.33655,-0.07531 0.36491,-0.104062 0.100235,-0.101642 0.19398,-1.674129 0.139248,-2.335746 -0.04892,-0.591363 -0.07942,-0.694956 -0.25784,-0.875872 -0.2736,-0.277433 -0.679636,-0.32799 -1.795668,-0.223585 -1.996725,0.186794 -3.307177,0.422718 -4.072289,0.73314 -0.559505,0.227004 -1.386142,1.582229 -1.451331,2.37938 l -0.03251,0.398037 1.174506,0.0494 c 1.48004,0.06224 5.514341,0.04817 5.931019,-0.02069 z"
       style="fill:#d9d9d9;fill-opacity:0.202429;stroke-width:0.0999998;stroke-linecap:round;stroke-linejoin:round" />
    <path
       id="path4021"
       d="m -78.400226,31.799939 c 1.03406,0.005 2.062454,-0.532307 2.54035,-1.614176 0.690665,-1.563537 0.108025,-3.173832 -1.420014,-3.925409 -1.286045,-0.632548 -3.001018,-0.0135 -3.623378,1.308172 -0.360952,0.766532 -0.39248,1.899243 -0.07232,2.592852 0.501535,1.086536 1.541297,1.633633 2.575362,1.638561 z"
       style="fill:#c7c2d8;fill-opacity:1;stroke-width:0.264583" />
    <path
       id="path4023"
       d="m -102.06671,31.962611 c 0.98131,0 1.77579,-0.416335 2.328017,-1.219851 1.02069,-1.485126 0.469057,-3.548992 -1.157937,-4.331926 -1.28814,-0.619875 -2.99893,-0.03605 -3.63176,1.23918 -0.33046,0.665904 -0.3963,1.852719 -0.14145,2.546164 0.38388,1.044503 1.44763,1.766433 2.60313,1.766433 z"
       style="fill:#c7c2d8;fill-opacity:1;stroke-width:0.264583" />
    <path
       id="path4025"
       style="fill:#c7c2d8;fill-opacity:1;stroke-width:0.264583"
       d="m -87.353642,40.327307 c 2.106025,0.0051 4.244326,-0.261209 5.630615,-0.733933 2.068293,-0.705292 4.319871,-2.23832 6.615565,-4.504109 1.030858,-1.017431 1.372019,-1.266836 1.731558,-1.266836 0.246259,0 0.488852,-0.06853 0.539198,-0.152259 0.05032,-0.08374 -0.04187,-0.152258 -0.204803,-0.152258 -0.162915,0 -0.330353,-0.05723 -0.372292,-0.126981 -0.04192,-0.06975 0.13748,-0.643702 0.398612,-1.275461 l 0.474689,-1.148778 0.699162,-0.08713 c 1.066291,-0.132907 1.300263,-0.315219 1.300263,-1.014362 0,-0.561483 -0.03068,-0.6027 -0.518367,-0.69676 -0.420611,-0.08112 -0.518369,-0.168505 -0.518369,-0.463615 0,-0.33259 -0.06018,-0.363578 -0.703501,-0.362208 -1.089139,0.0023 -2.121005,0.567656 -2.61383,1.43218 -0.937125,1.64393 -2.156697,2.520609 -3.51056,2.523562 -1.836858,0.0041 -3.140237,-1.148271 -3.599941,-3.182258 -0.121307,-0.536712 -0.307339,-1.032355 -0.413369,-1.101493 -0.106019,-0.06913 -3.603449,-0.126953 -7.77235,-0.128171 -6.632685,-0.002 -7.608455,0.02719 -7.808221,0.232551 -0.125559,0.129081 -0.365143,0.707416 -0.532538,1.285274 -0.532868,1.839434 -1.924679,3.201447 -3.269019,3.199208 -1.3492,-0.0022 -2.2652,-0.630402 -3.48742,-2.391228 -0.37789,-0.544422 -0.72971,-0.918872 -0.78189,-0.832068 -0.0521,0.0868 -0.39353,0.179675 -0.75875,0.206382 -0.62595,0.04576 -0.66416,0.07437 -0.66416,0.497813 0,0.407266 0.0691,0.470504 0.74053,0.676538 0.89671,0.275196 0.81062,0.220229 0.88747,0.566508 0.2358,1.062682 0.50016,1.620777 0.89673,1.89282 0.24049,0.164967 0.76576,0.568805 1.1672,0.897492 1.24062,1.015779 3.49489,1.642529 7.029799,1.954675 l 1.242977,0.11003 0.937232,1.522584 c 0.515459,0.83742 0.955855,1.572443 0.978592,1.633505 0.0847,0.227492 2.384548,0.716155 4.192945,0.890949 0.665772,0.06435 1.364235,0.09617 2.066243,0.09784 z m -0.52589,-0.722633 c -0.07258,0.0014 -0.15002,7.49e-4 -0.23257,-0.0014 -0.440295,-0.01189 -1.027466,-0.07229 -1.809949,-0.152557 -1.72021,-0.17645 -3.032113,-0.510809 -3.426673,-0.8737 -0.482796,-0.444055 -1.165328,-1.837842 -1.115998,-2.278819 l 0.04686,-0.420197 3.633501,-0.04075 c 2.701728,-0.03023 3.679686,0.0068 3.813707,0.144526 0.116886,0.120164 0.180211,0.705946 0.180211,1.666515 0,1.49243 -4.85e-4,1.936228 -1.089092,1.956459 z m 2.445182,-0.03123 c -0.768056,0.0024 -0.763666,-0.366103 -0.763666,-1.856838 0,-1.002247 0.06267,-1.614068 0.177612,-1.732235 0.126471,-0.130018 1.038317,-0.182591 3.161417,-0.182591 2.702353,0 3.006805,0.02616 3.228816,0.278346 0.308,0.349879 0.315501,1.072768 0.01589,1.512473 -0.556876,0.817349 -2.584095,1.618204 -4.765698,1.882709 -0.456451,0.05534 -0.798361,0.09735 -1.054385,0.09814 z" />
    <path
       id="path4027"
       d="m -72.403049,33.262229 c -0.110095,0.03075 -0.231709,0.03753 -0.361085,0.01713 -0.295444,-0.04661 -0.301965,0.02463 0.113679,-1.215965 0.178006,-0.53129 0.365434,-0.975224 0.416484,-0.986637 0.182305,-0.04076 0.440634,0.809583 0.411357,1.353902 -0.02323,0.432117 -0.250148,0.739359 -0.580435,0.83157 z"
       style="fill:#e1e1e1;fill-opacity:1;stroke-width:0.264583"
       inkscape:transform-center-x="-0.96268648"
       inkscape:transform-center-y="-0.076128892" />
    <path
       style="fill:#d9d9d9;fill-opacity:0.202429;stroke-width:0.0999998;stroke-linecap:round;stroke-linejoin:round"
       d="m -80.172745,35.892627 c 0.04075,0.01557 0.165087,0.04893 0.27635,0.07413 0.396374,0.08979 0.584887,0.955669 0.321892,1.478503 -0.465754,0.925924 -3.059885,1.90343 -5.416476,2.041006 l -0.819381,0.04783 -0.167263,-0.218602 c -0.162602,-0.212516 -0.166595,-0.259382 -0.143295,-1.683169 0.02101,-1.283719 0.04031,-1.481335 0.156112,-1.600356 0.121567,-0.124905 0.356042,-0.137066 2.925084,-0.151723 1.536107,-0.0088 2.826249,-0.0032 2.866977,0.01238 z"
       id="path4029" />
    <path
       style="fill:#d9d9d9;fill-opacity:0.202429;stroke-width:0.0999998;stroke-linecap:round;stroke-linejoin:round"
       d="m -87.33872,35.929679 c 0.172344,0.02887 0.33655,0.07635 0.36491,0.105503 0.100235,0.103049 0.19398,1.697303 0.139248,2.368079 -0.04892,0.599549 -0.07942,0.704577 -0.25784,0.887997 -0.2736,0.281273 -0.679636,0.33253 -1.795668,0.22668 -1.996725,-0.18938 -3.307177,-0.42857 -4.072289,-0.743289 -0.559505,-0.230146 -1.386142,-1.604132 -1.451331,-2.412318 l -0.03251,-0.403547 1.174506,-0.05008 c 1.48004,-0.0631 5.514341,-0.04884 5.931019,0.02098 z"
       id="path4031" />
  </g>
</svg>
