<?xml version="1.0" encoding="UTF-8" standalone="no"?>
<svg
   xmlns:dc="http://purl.org/dc/elements/1.1/"
   xmlns:cc="http://creativecommons.org/ns#"
   xmlns:rdf="http://www.w3.org/1999/02/22-rdf-syntax-ns#"
   xmlns:svg="http://www.w3.org/2000/svg"
   xmlns="http://www.w3.org/2000/svg"
   xmlns:sodipodi="http://sodipodi.sourceforge.net/DTD/sodipodi-0.dtd"
   xmlns:inkscape="http://www.inkscape.org/namespaces/inkscape"
   sodipodi:docname="LinkedIn Icon.svg"
   inkscape:version="1.0 (4035a4fb49, 2020-05-01)"
   id="svg4822"
   version="1.1"
   viewBox="0 0 11.49292 11.209466"
   height="11.209466mm"
   width="11.49292mm">
  <defs
     id="defs4816" />
  <sodipodi:namedview
     inkscape:window-maximized="1"
     inkscape:window-y="-9"
     inkscape:window-x="-9"
     inkscape:window-height="1001"
     inkscape:window-width="1920"
     showgrid="false"
     inkscape:document-rotation="0"
     inkscape:current-layer="layer1"
     inkscape:document-units="mm"
     inkscape:cy="30.323634"
     inkscape:cx="1.3061514"
     inkscape:zoom="8"
     inkscape:pageshadow="2"
     inkscape:pageopacity="0.0"
     borderopacity="1.0"
     bordercolor="#666666"
     pagecolor="#ffffff"
     id="base" />
  <metadata
     id="metadata4819">
    <rdf:RDF>
      <cc:Work
         rdf:about="">
        <dc:format>image/svg+xml</dc:format>
        <dc:type
           rdf:resource="http://purl.org/dc/dcmitype/StillImage" />
        <dc:title></dc:title>
      </cc:Work>
    </rdf:RDF>
  </metadata>
  <g
     transform="translate(111.57991,-4.9786001)"
     id="layer1"
     inkscape:groupmode="layer"
     inkscape:label="Layer 1">
    <path
       id="path5777"
       d="m -109.48795,16.089791 c -0.34373,-0.03916 -0.65759,-0.208163 -0.87827,-0.472915 -0.17244,-0.20682 -0.27437,-0.447782 -0.30383,-0.717946 -0.0108,-0.09847 -0.0108,-7.3543929 -3e-4,-7.4562963 0.0107,-0.093553 0.032,-0.1975807 0.0604,-0.2836879 0.032,-0.097421 0.11899,-0.2684905 0.17997,-0.354321 0.0658,-0.092425 0.22051,-0.247137 0.31278,-0.3127421 0.148,-0.1051561 0.34638,-0.1896571 0.5344,-0.2275831 l 0.0835,-0.016922 3.69546,-0.00229 c 2.65965,-0.00165 3.71884,6.18e-5 3.77885,0.00618 0.42379,0.0426 0.79516,0.2807682 1.01866,0.653268 0.09,0.1500657 0.15149,0.3332576 0.17485,0.521483 0.0108,0.090034 0.0108,7.3998414 0,7.4898654 -0.0363,0.292984 -0.15981,0.554147 -0.36338,0.768542 -0.21542,0.226911 -0.50943,0.37103 -0.82793,0.405776 -0.0905,0.0099 -7.37847,0.0094 -7.46514,-4.16e-4 z m 7.48569,-0.767441 c 0.1993,-0.06076 0.33848,-0.197231 0.39916,-0.391503 l 0.0188,-0.05686 V 11.170953 7.4679114 l -0.0188,-0.056862 c -0.061,-0.1956199 -0.20951,-0.3399779 -0.40298,-0.3922471 -0.0467,-0.012624 -0.24496,-0.01343 -3.74471,-0.01343 -3.56464,0 -3.69722,4.916e-4 -3.74474,0.013967 -0.20091,0.056808 -0.3459,0.2005353 -0.40684,0.402983 -0.0134,0.04354 -0.0134,0.202684 -0.0161,3.7219917 -0.002,3.34246 -0.001,3.682022 0.0107,3.737154 0.0373,0.186864 0.16036,0.338477 0.33484,0.412749 0.11361,0.04838 -0.20333,0.0448 3.84159,0.04327 3.54531,-0.0013 3.68581,-0.0019 3.72959,-0.01531 z m -7.15972,-3.014333 V 10.03389 h 0.75803 0.75804 v 2.274127 2.274131 h -0.75804 -0.75803 z m 2.27411,0 V 10.03389 h 0.75806 0.75804 v 0.33417 c 0,0.249932 0.002,0.333433 0.008,0.331241 0.005,-0.0016 0.0279,-0.0343 0.0513,-0.07266 0.0655,-0.107976 0.10448,-0.158365 0.18291,-0.23642 0.2259,-0.225515 0.53449,-0.338431 0.96631,-0.353639 0.38085,-0.01343 0.75143,0.05756 1.00443,0.192343 0.43316,0.23078 0.68076,0.65824 0.77272,1.333979 0.0422,0.309688 0.0457,0.452902 0.0459,1.804479 l 9e-5,1.214764 h -0.75777 -0.75777 l -0.003,-1.252666 c -0.003,-1.353307 -0.001,-1.304793 -0.043,-1.4799 -0.0653,-0.274666 -0.21918,-0.429652 -0.47566,-0.478424 -0.0908,-0.01719 -0.27626,-0.01692 -0.37738,5.69e-4 -0.24174,0.04198 -0.39428,0.150066 -0.49272,0.348807 -0.0575,0.1159 -0.0819,0.208889 -0.1112,0.420713 -0.005,0.04628 -0.0107,0.399352 -0.0107,1.252669 l -0.003,1.188232 h -0.75769 -0.75771 z m -1.64482,-3.0438027 c -0.29623,-0.053585 -0.53563,-0.2775961 -0.60781,-0.5687268 -0.0242,-0.09597 -0.0242,-0.259976 -8.6e-4,-0.3520352 0.0717,-0.2827263 0.2809,-0.4919802 0.56307,-0.5629546 0.087,-0.022025 0.24926,-0.023368 0.33733,-0.00295 0.28734,0.066559 0.5113,0.2905586 0.57708,0.5772252 0.0161,0.073354 0.0188,0.2419799 0.003,0.3107974 -0.0406,0.184124 -0.14102,0.3444286 -0.28281,0.4512447 -0.17298,0.1304312 -0.38729,0.1839627 -0.58965,0.1473528 z"
       style="fill:#000314;stroke-width:1" />
  </g>
</svg>
