<?xml version="1.0" encoding="UTF-8" standalone="no"?>
<svg
   xmlns:dc="http://purl.org/dc/elements/1.1/"
   xmlns:cc="http://creativecommons.org/ns#"
   xmlns:rdf="http://www.w3.org/1999/02/22-rdf-syntax-ns#"
   xmlns:svg="http://www.w3.org/2000/svg"
   xmlns="http://www.w3.org/2000/svg"
   xmlns:sodipodi="http://sodipodi.sourceforge.net/DTD/sodipodi-0.dtd"
   xmlns:inkscape="http://www.inkscape.org/namespaces/inkscape"
   sodipodi:docname="Plug.svg"
   inkscape:version="1.0 (4035a4fb49, 2020-05-01)"
   id="svg8"
   version="1.1"
   viewBox="0 0 10.205061 17.411329"
   height="17.411329mm"
   width="10.205061mm">
  <defs
     id="defs2" />
  <sodipodi:namedview
     inkscape:window-maximized="0"
     inkscape:window-y="-9"
     inkscape:window-x="951"
     inkscape:window-height="1001"
     inkscape:window-width="960"
     showgrid="false"
     inkscape:document-rotation="0"
     inkscape:current-layer="layer1"
     inkscape:document-units="mm"
     inkscape:cy="-232.81779"
     inkscape:cx="4.3038511"
     inkscape:zoom="1"
     inkscape:pageshadow="2"
     inkscape:pageopacity="0.0"
     borderopacity="1.0"
     bordercolor="#666666"
     pagecolor="#ffffff"
     id="base" />
  <metadata
     id="metadata5">
    <rdf:RDF>
      <cc:Work
         rdf:about="">
        <dc:format>image/svg+xml</dc:format>
        <dc:type
           rdf:resource="http://purl.org/dc/dcmitype/StillImage" />
        <dc:title></dc:title>
      </cc:Work>
    </rdf:RDF>
  </metadata>
  <g
     transform="translate(-63.122245,-163.79724)"
     id="layer1"
     inkscape:groupmode="layer"
     inkscape:label="Layer 1">
    <path
       d="m 65.737703,163.79725 a 0.9080485,0.9080485 0 0 0 -0.908024,0.90809 v 3.80785 h -1.707434 v 5.94911 c 0,1.59802 0.780185,3.48623 3.002868,3.75717 0.01691,0.46248 0.348708,0.86416 0.781203,0.99098 l 0.459362,1.99812 h 1.704993 l 0.325721,-1.97415 c 0.492135,-0.0925 0.882059,-0.53878 0.882059,-1.05193 v -0.0206 c 2.239623,-0.34585 3.048855,-2.32976 3.048855,-4.06568 v -5.58304 h -1.827749 v -3.80785 a 0.9080485,0.9080485 0 0 0 -0.908025,-0.90808 0.9080485,0.9080485 0 0 0 -0.908086,0.90808 v 3.80785 H 66.64579 v -3.80785 a 0.9080485,0.9080485 0 0 0 -0.908087,-0.90808 z"
       style="fill:#000314;fill-opacity:1;stroke:none;stroke-width:0.264583px;stroke-linecap:butt;stroke-linejoin:miter;stroke-opacity:1"
       id="path833" />
  </g>
</svg>
