<?xml version="1.0" encoding="UTF-8" standalone="no"?>
<svg
   xmlns:dc="http://purl.org/dc/elements/1.1/"
   xmlns:cc="http://creativecommons.org/ns#"
   xmlns:rdf="http://www.w3.org/1999/02/22-rdf-syntax-ns#"
   xmlns:svg="http://www.w3.org/2000/svg"
   xmlns="http://www.w3.org/2000/svg"
   xmlns:sodipodi="http://sodipodi.sourceforge.net/DTD/sodipodi-0.dtd"
   xmlns:inkscape="http://www.inkscape.org/namespaces/inkscape"
   sodipodi:docname="restart.svg"
   inkscape:version="1.0 (4035a4fb49, 2020-05-01)"
   id="svg1152"
   version="1.1"
   viewBox="0 0 20.076924 23.306831"
   height="23.306831mm"
   width="20.076923mm">
  <defs
     id="defs1146" />
  <sodipodi:namedview
     inkscape:window-maximized="1"
     inkscape:window-y="-9"
     inkscape:window-x="-9"
     inkscape:window-height="1001"
     inkscape:window-width="1920"
     showgrid="false"
     inkscape:document-rotation="0"
     inkscape:current-layer="layer1"
     inkscape:document-units="mm"
     inkscape:cy="-302.80342"
     inkscape:cx="-177.88176"
     inkscape:zoom="1"
     inkscape:pageshadow="2"
     inkscape:pageopacity="0.0"
     borderopacity="1.0"
     bordercolor="#666666"
     pagecolor="#ffffff"
     id="base" />
  <metadata
     id="metadata1149">
    <rdf:RDF>
      <cc:Work
         rdf:about="">
        <dc:format>image/svg+xml</dc:format>
        <dc:type
           rdf:resource="http://purl.org/dc/dcmitype/StillImage" />
        <dc:title></dc:title>
      </cc:Work>
    </rdf:RDF>
  </metadata>
  <g
     transform="translate(-208.94655,-253.26856)"
     id="layer1"
     inkscape:groupmode="layer"
     inkscape:label="Layer 1">
    <path
       sodipodi:nodetypes="ssssssssscszsssssssscsscssssscsscssscsssss"
       id="path1733"
       d="m 220.14984,276.51608 c 1.8813,-0.22661 3.74582,-1.01102 5.12872,-2.15765 0.38779,-0.32155 1.19197,-1.12517 1.53074,-1.52969 1.37956,-1.6473 2.21369,-4.01224 2.21417,-6.27766 0.001,-4.81465 -3.33524,-8.90619 -8.05381,-9.87707 -0.48053,-0.0989 -1.19373,-0.15318 -2.05312,-0.15632 -0.92394,-0.003 -1.26479,0.028 -2.04548,0.18814 -0.30607,0.0628 -0.56325,0.1074 -0.57152,0.0991 -0.008,-0.008 0.26245,-0.5629 0.6016,-1.2325 0.33916,-0.66961 0.62098,-1.22947 0.62627,-1.24414 0.0161,-0.0448 -2.10025,-1.09497 -2.13378,-1.05882 -0.0599,0.0645 -3.21612,6.23991 -3.26052,6.3579 -0.0444,0.11798 0.37823,0.2509 2.0815,1.11738 3.58877,1.82566 4.32009,2.19035 4.34352,2.16597 0.034,-0.0354 0.59322,-1.10453 0.8411,-1.60812 0.11951,-0.24281 0.21018,-0.46002 0.20148,-0.48269 -0.009,-0.0227 -0.54183,-0.30797 -1.18473,-0.63401 -0.6429,-0.32603 -1.20952,-0.62566 -1.25915,-0.66584 -0.0828,-0.067 -0.0863,-0.0771 -0.0423,-0.12193 0.0649,-0.0662 0.72732,-0.186 1.2672,-0.22909 0.71531,-0.0571 1.59032,0.003 2.23439,0.15331 1.75851,0.41056 3.25862,1.38836 4.29218,2.79772 0.68418,0.93294 1.18659,2.09979 1.36801,3.17717 0.0801,0.47572 0.0799,1.9845 -4.2e-4,2.46292 -0.19828,1.18174 -0.65349,2.23577 -1.39188,3.22281 -1.71506,2.29263 -4.67462,3.38161 -7.50155,2.76022 -1.04839,-0.23045 -2.14845,-0.75864 -3.00805,-1.44432 -0.34569,-0.27576 -0.89798,-0.83282 -1.19216,-1.20247 -0.66671,-0.83774 -1.10694,-1.72983 -1.3792,-2.79479 -0.14835,-0.58026 -0.1778,-0.86646 -0.17797,-1.72963 -2.2e-4,-1.11962 0.0802,-1.63117 0.40159,-2.55322 0.0958,-0.27497 0.18341,-0.54207 0.19462,-0.59356 l 0.0204,-0.0936 -0.41509,-0.15813 c -0.86155,-0.32822 -1.91782,-0.69478 -1.97747,-0.68625 -0.2085,0.0298 -0.69062,1.64129 -0.8486,2.83643 -0.0719,0.54412 -0.072,1.83109 -1.7e-4,2.37636 0.17038,1.29294 0.49375,2.34513 1.05391,3.42917 0.52508,1.01616 1.10571,1.79667 1.94778,2.6183 1.66878,1.62828 3.81683,2.59814 6.22269,2.80958 0.4227,0.0371 1.4597,0.0151 1.92514,-0.041 z"
       style="fill:#000314;stroke-width:0.999997" />
  </g>
</svg>
