<?xml version="1.0" encoding="UTF-8" standalone="no"?>
<svg
   xmlns:dc="http://purl.org/dc/elements/1.1/"
   xmlns:cc="http://creativecommons.org/ns#"
   xmlns:rdf="http://www.w3.org/1999/02/22-rdf-syntax-ns#"
   xmlns:svg="http://www.w3.org/2000/svg"
   xmlns="http://www.w3.org/2000/svg"
   xmlns:sodipodi="http://sodipodi.sourceforge.net/DTD/sodipodi-0.dtd"
   xmlns:inkscape="http://www.inkscape.org/namespaces/inkscape"
   width="43.331982mm"
   height="28.33366mm"
   viewBox="0 0 43.331982 28.33366"
   version="1.1"
   id="svg3709"
   inkscape:version="1.0 (4035a4fb49, 2020-05-01)"
   sodipodi:docname="Car1.svg">
  <defs
     id="defs3703" />
  <sodipodi:namedview
     id="base"
     pagecolor="#ffffff"
     bordercolor="#666666"
     borderopacity="1.0"
     inkscape:pageopacity="0.0"
     inkscape:pageshadow="2"
     inkscape:zoom="2.8284271"
     inkscape:cx="176.41925"
     inkscape:cy="45.089615"
     inkscape:document-units="mm"
     inkscape:current-layer="layer1"
     inkscape:document-rotation="0"
     showgrid="false"
     inkscape:window-width="1920"
     inkscape:window-height="1001"
     inkscape:window-x="-9"
     inkscape:window-y="-9"
     inkscape:window-maximized="1" />
  <metadata
     id="metadata3706">
    <rdf:RDF>
      <cc:Work
         rdf:about="">
        <dc:format>image/svg+xml</dc:format>
        <dc:type
           rdf:resource="http://purl.org/dc/dcmitype/StillImage" />
        <dc:title />
      </cc:Work>
    </rdf:RDF>
  </metadata>
  <g
     inkscape:label="Layer 1"
     inkscape:groupmode="layer"
     id="layer1"
     transform="translate(56.510714,-14.251702)">
    <g
       id="g32271"
       transform="matrix(-16.342714,0,0,16.337555,13647.772,-13619.396)"
       style="stroke-width:0.061199">
      <path
         style="fill:#b5afc9;fill-opacity:1;stroke:none;stroke-width:0.0161922;stroke-opacity:1"
         d="m 836.42197,835.38457 c -0.0434,0.0201 -0.079,0.0549 -0.0954,0.0929 l -0.0114,0.0266 -0.15291,0.0205 c -0.0841,0.0113 -0.16577,0.0257 -0.1815,0.0319 -0.0384,0.0154 -0.0778,0.0548 -0.0662,0.0663 0.005,0.005 0.007,0.0326 0.004,0.0647 -0.003,0.0427 -10e-4,0.061 0.01,0.0777 0.009,0.014 0.0144,0.0404 0.0144,0.0734 0,0.0653 0.0145,0.14204 0.0296,0.15705 0.006,0.006 0.055,0.0175 0.10796,0.0248 0.0882,0.0121 0.10789,0.0186 0.23312,0.0771 0.1675,0.0782 0.22517,0.0981 0.33436,0.11526 0.17803,0.028 0.60437,0.0243 0.75453,-0.007 0.0536,-0.011 0.23544,-0.0958 0.37188,-0.17335 l 0.0971,-0.0552 0.14563,-0.0167 c 0.17361,-0.0198 0.3461,-0.053 0.41398,-0.0798 0.0477,-0.0187 0.0503,-0.0215 0.0873,-0.0936 l 0.0381,-0.0743 -0.006,-0.0759 -0.006,-0.0759 -0.0453,-0.0174 c -0.0249,-0.01 -0.0929,-0.0236 -0.15116,-0.031 -0.0777,-0.01 -0.10826,-0.0173 -0.11474,-0.0278 -0.0436,-0.0703 -0.0906,-0.095 -0.18094,-0.095 -0.0774,0 -0.12007,0.018 -0.16852,0.0711 l -0.0305,0.0334 -0.5227,0.003 c -0.40245,0.003 -0.52569,8.4e-4 -0.53568,-0.007 -0.008,-0.007 -0.0254,-0.009 -0.0464,-0.005 -0.0318,0.005 -0.0343,0.004 -0.0533,-0.0294 -0.0305,-0.0534 -0.0861,-0.0815 -0.16881,-0.0855 -0.0535,-0.003 -0.0749,3.6e-4 -0.10477,0.0143 z m 0.16991,0.0609 c 0.0145,0.008 0.0358,0.0286 0.0471,0.0453 0.0176,0.0257 0.0241,0.0368 0.0211,0.0842 -0.003,0.0521 -0.01,0.0596 -0.0434,0.0908 -0.0737,0.0682 -0.18267,0.0509 -0.22807,-0.0361 -0.0257,-0.0493 -0.0104,-0.13268 0.0312,-0.16997 0.0438,-0.0392 0.11749,-0.0453 0.17204,-0.0142 z m 1.53143,0.0144 c 0.10079,0.0509 0.0993,0.19887 -0.002,0.25034 -0.12262,0.062 -0.25351,-0.0647 -0.19268,-0.18649 0.038,-0.0762 0.1186,-0.10256 0.19515,-0.0638 z m 0.37951,0.29836 c 0,0.0108 -0.0368,0.0644 -0.0488,0.071 -0.007,0.004 -0.0305,0.005 -0.053,0.004 -0.0347,-0.003 -0.0434,-0.007 -0.0578,-0.0307 -0.029,-0.0471 -0.0257,-0.0494 0.0713,-0.0494 0.0485,0 0.0883,0.003 0.0883,0.006 z m -2.45655,0.11607 c -4e-5,0.0298 5.3e-4,0.0586 -0.006,0.0793 -0.006,0.0177 -0.003,0.0229 -0.0194,0.0242 -0.0187,9.9e-4 -0.0195,4.9e-4 -0.0344,-0.0168 -0.012,-0.014 -0.013,-0.0567 -0.013,-0.0883 v -0.0576 l 0.0419,0.003 0.0313,0.002 z m 1.25396,0.0118 c 7.9e-4,0.0109 -0.0218,0.0109 -0.0552,0.0109 -0.0333,0 -0.0553,0.004 -0.0552,-0.0109 7e-5,-0.009 0.012,-0.0109 0.0552,-0.0109 0.0431,0 0.0562,1.5e-4 0.0552,0.0109 z m -0.59227,0.007 c 2.6e-4,0.0131 -0.0198,0.0171 -0.0624,0.0171 -0.054,0 -0.0495,-1.2e-4 -0.0504,-0.0219 -5.3e-4,-0.0116 0.11239,-0.013 0.1128,0.005 z m 0.86114,0.0898 c -0.004,0.0305 0.007,0.0453 0.0379,0.0515 0.0136,0.003 0.002,0.0137 -0.0502,0.048 -0.1098,0.0718 -0.23315,0.10714 -0.37541,0.10759 l -0.0549,1.7e-4 0.0355,-0.0984 c 0.0195,-0.0541 0.0414,-0.1043 0.0486,-0.11152 0.0128,-0.0128 0.10053,-0.0201 0.29538,-0.0247 l 0.0666,-0.002 z m -0.48843,-0.004 c 0.0102,0.006 0.01,0.0204 -0.002,0.0895 -0.008,0.0451 -0.0165,0.0908 -0.0189,0.10158 -0.004,0.019 -0.008,0.0197 -0.10505,0.0197 -0.0798,0 -0.23339,-0.0131 -0.24008,-0.0204 -8e-4,-7.8e-4 0.003,-0.0427 0.009,-0.0932 l 0.0101,-0.0919 0.11916,-0.005 c 0.20619,-0.008 0.21597,-0.008 0.22838,-4.7e-4 z m -0.36375,0.0293 c -0.003,0.0108 -0.008,0.0501 -0.011,0.0875 -0.003,0.0373 -0.009,0.0678 -0.0132,0.0678 -0.0232,0 -0.13394,-0.0489 -0.16117,-0.0711 -0.0371,-0.0303 -0.0409,-0.0543 -0.0131,-0.0836 0.0177,-0.0186 0.0264,-0.0202 0.11129,-0.0202 0.0911,0 0.092,2.1e-4 0.0872,0.0197 z"
         id="path30632"
         sodipodi:nodetypes="sscsssssscccssscssscccssssscccssssssssssssssssssssssssssssscccscsssccsssccsccsssccccsscscsccccsssscc" />
      <circle
         style="fill:#b5afc9;fill-opacity:1;stroke:none;stroke-width:0.061199;stroke-linejoin:round;stroke-opacity:1"
         id="path6539-7-4"
         cx="836.51581"
         cy="835.56177"
         r="0.11430769" />
      <circle
         r="0.11430769"
         cy="835.58032"
         cx="838.05371"
         id="path6539-7-4-8"
         style="fill:#b5afc9;fill-opacity:1;stroke:none;stroke-width:0.061199;stroke-linejoin:round;stroke-opacity:1" />
      <path
         sodipodi:nodetypes="sscsssssscccssscssscccssssscccssssssssssssssssssssssssssssscccscsssccsssccsccsssccccsscscsccccsssscc"
         id="path6536-65"
         d="m 836.4137,835.35236 c -0.0434,-0.0203 -0.079,-0.0554 -0.0954,-0.0938 l -0.0114,-0.0268 -0.15291,-0.0207 c -0.0841,-0.0114 -0.16577,-0.0259 -0.1815,-0.0322 -0.0384,-0.0155 -0.0778,-0.0553 -0.0662,-0.0669 0.005,-0.005 0.007,-0.0329 0.004,-0.0653 -0.003,-0.0431 -10e-4,-0.0616 0.01,-0.0784 0.009,-0.0141 0.0144,-0.0408 0.0144,-0.0741 0,-0.0659 0.0145,-0.14335 0.0296,-0.1585 0.006,-0.006 0.055,-0.0177 0.10796,-0.025 0.0882,-0.0122 0.10789,-0.0188 0.23312,-0.0778 0.1675,-0.0789 0.22517,-0.099 0.33436,-0.11632 0.17803,-0.0283 0.60437,-0.0245 0.75453,0.007 0.0536,0.0111 0.23544,0.0967 0.37188,0.17495 l 0.0971,0.0557 0.14563,0.0168 c 0.17361,0.02 0.3461,0.0535 0.41398,0.0805 0.0477,0.0189 0.0503,0.0217 0.0873,0.0945 l 0.0381,0.075 -0.006,0.0766 -0.006,0.0766 -0.0453,0.0176 c -0.0249,0.01 -0.0929,0.0238 -0.15116,0.0313 -0.0777,0.01 -0.10826,0.0175 -0.11474,0.028 -0.0436,0.071 -0.0906,0.0959 -0.18094,0.0959 -0.0774,0 -0.12007,-0.0182 -0.16852,-0.0718 l -0.0305,-0.0337 -0.5227,-0.003 c -0.40245,-0.003 -0.52569,-8.5e-4 -0.53568,0.007 -0.008,0.007 -0.0254,0.009 -0.0464,0.005 -0.0318,-0.005 -0.0343,-0.004 -0.0533,0.0297 -0.0305,0.0539 -0.0861,0.0823 -0.16881,0.0863 -0.0535,0.003 -0.0749,-3.7e-4 -0.10477,-0.0144 z m 0.16991,-0.0615 c 0.0145,-0.008 0.0358,-0.0289 0.0471,-0.0457 0.0176,-0.0259 0.0241,-0.0371 0.0211,-0.085 -0.003,-0.0526 -0.01,-0.0601 -0.0434,-0.0916 -0.0737,-0.0688 -0.18267,-0.0514 -0.22807,0.0364 -0.0257,0.0497 -0.0104,0.1339 0.0312,0.17154 0.0438,0.0396 0.11749,0.0457 0.17204,0.0143 z m 1.53143,-0.0145 c 0.10079,-0.0514 0.0993,-0.2007 -0.002,-0.25264 -0.12262,-0.0626 -0.25351,0.0653 -0.19268,0.18821 0.038,0.0769 0.1186,0.1035 0.19515,0.0644 z m 0.37951,-0.3011 c 0,-0.0109 -0.0368,-0.065 -0.0488,-0.0717 -0.007,-0.004 -0.0305,-0.005 -0.053,-0.004 -0.0347,0.003 -0.0434,0.007 -0.0578,0.031 -0.029,0.0475 -0.0257,0.0498 0.0713,0.0498 0.0485,0 0.0883,-0.003 0.0883,-0.006 z m -2.45655,-0.11714 c -4e-5,-0.0301 5.3e-4,-0.0591 -0.006,-0.08 -0.006,-0.0179 -0.003,-0.0231 -0.0194,-0.0244 -0.0187,-0.001 -0.0195,-5e-4 -0.0344,0.0169 -0.012,0.0141 -0.013,0.0572 -0.013,0.0891 v 0.0581 l 0.0419,-0.003 0.0313,-0.002 z m 1.25396,-0.0119 c 7.9e-4,-0.011 -0.0218,-0.011 -0.0552,-0.011 -0.0333,0 -0.0553,-0.004 -0.0552,0.011 7e-5,0.009 0.012,0.011 0.0552,0.011 0.0431,0 0.0562,-1.5e-4 0.0552,-0.011 z m -0.59227,-0.007 c 2.6e-4,-0.0132 -0.0198,-0.0173 -0.0624,-0.0173 -0.054,0 -0.0495,1.2e-4 -0.0504,0.0221 -5.3e-4,0.0117 0.11239,0.0131 0.1128,-0.005 z m 0.86114,-0.0906 c -0.004,-0.0308 0.007,-0.0457 0.0379,-0.052 0.0136,-0.003 0.002,-0.0138 -0.0502,-0.0484 -0.1098,-0.0725 -0.23315,-0.10812 -0.37541,-0.10858 l -0.0549,-1.7e-4 0.0355,0.0993 c 0.0195,0.0546 0.0414,0.10526 0.0486,0.11254 0.0128,0.0129 0.10053,0.0203 0.29538,0.0249 l 0.0666,0.002 z m -0.48843,0.004 c 0.0102,-0.006 0.01,-0.0206 -0.002,-0.0903 -0.008,-0.0455 -0.0165,-0.0916 -0.0189,-0.10251 -0.004,-0.0192 -0.008,-0.0199 -0.10505,-0.0199 -0.0798,0 -0.23339,0.0132 -0.24008,0.0206 -8e-4,7.9e-4 0.003,0.0431 0.009,0.0941 l 0.0101,0.0927 0.11916,0.005 c 0.20619,0.008 0.21597,0.008 0.22838,4.8e-4 z m -0.36375,-0.0296 c -0.003,-0.0109 -0.008,-0.0506 -0.011,-0.0883 -0.003,-0.0376 -0.009,-0.0684 -0.0132,-0.0684 -0.0232,0 -0.13394,0.0493 -0.16117,0.0717 -0.0371,0.0306 -0.0409,0.0548 -0.0131,0.0844 0.0177,0.0188 0.0264,0.0204 0.11129,0.0204 0.0911,0 0.092,-2.2e-4 0.0872,-0.0199 z"
         style="fill:#000314;stroke:none;stroke-width:0.0161922;stroke-opacity:1" />
      <circle
         r="0.11430769"
         cy="835.16016"
         cx="836.50586"
         id="path6539-7"
         style="fill:#000314;stroke:none;stroke-width:0.061199;stroke-linejoin:round;stroke-opacity:1" />
      <circle
         style="fill:#000314;stroke:none;stroke-width:0.061199;stroke-linejoin:round;stroke-opacity:1"
         id="path6539-6-1"
         cx="838.05255"
         cy="835.15808"
         r="0.11430769" />
      <path
         id="path7670-7"
         d="m 836.37621,835.22133 c -0.002,-0.004 -0.007,-0.022 -0.009,-0.0332 -0.003,-0.0167 -0.002,-0.0526 10e-4,-0.0658 0.0122,-0.0438 0.0497,-0.0812 0.0955,-0.0953 0.0118,-0.004 0.0149,-0.004 0.0377,-0.004 0.0228,0 0.0259,3.2e-4 0.0377,0.004 0.0153,0.005 0.0305,0.0118 0.0431,0.0201 0.0133,0.009 0.0382,0.0317 0.0469,0.0433 0.0129,0.0171 0.0177,0.0396 0.0177,0.0828 0,0.0219 -0.002,0.0326 -0.007,0.0434 l -0.003,0.006 h -0.0155 c -0.0118,0 -0.0153,-4.2e-4 -0.0147,-0.002 0.008,-0.0182 0.01,-0.0242 0.012,-0.0347 0.003,-0.0144 0.002,-0.0363 -0.002,-0.0505 -0.003,-0.012 -0.0139,-0.0333 -0.0219,-0.0435 -0.0135,-0.0171 -0.0373,-0.0327 -0.0585,-0.0385 -0.0118,-0.003 -0.0387,-0.004 -0.0513,-0.002 -0.0366,0.006 -0.0695,0.0323 -0.0847,0.0667 -0.013,0.0294 -0.0123,0.0682 0.002,0.096 0.002,0.004 0.003,0.007 0.003,0.008 0,10e-4 -0.029,9e-4 -0.0297,-3.2e-4 z"
         style="fill:#f6f3f8;stroke-width:0.061199;stroke-linejoin:round;stroke-dasharray:0.061199, 0.061199" />
      <path
         id="path7672-5"
         d="m 837.92771,835.21811 c -0.004,-0.008 -0.009,-0.0209 -0.0114,-0.0281 -0.003,-0.0118 -0.004,-0.0155 -0.004,-0.0358 -2e-5,-0.0187 5.3e-4,-0.0246 0.003,-0.0339 0.0137,-0.0495 0.0529,-0.0887 0.10238,-0.10238 0.009,-0.003 0.0153,-0.003 0.0354,-0.003 0.0221,-1e-5 0.0252,3.2e-4 0.0373,0.004 0.0643,0.0196 0.10451,0.073 0.10451,0.13911 0,0.0226 -0.006,0.0471 -0.0164,0.0668 l -0.004,0.008 h -0.0175 -0.0175 l 0.002,-0.003 c 0.0194,-0.0265 0.0268,-0.0496 0.0253,-0.0785 -10e-4,-0.0193 -0.004,-0.0293 -0.0122,-0.0468 -0.006,-0.0119 -0.009,-0.0158 -0.0208,-0.0278 -0.0155,-0.0154 -0.0254,-0.0219 -0.0424,-0.0279 -0.0551,-0.0195 -0.11553,0.005 -0.14118,0.0564 -0.008,0.0168 -0.0109,0.0269 -0.012,0.0461 -10e-4,0.0262 0.005,0.0481 0.0194,0.0701 l 0.008,0.0117 h -0.0151 -0.0151 z"
         style="fill:#f6f3f8;stroke-width:0.061199;stroke-linejoin:round;stroke-dasharray:0.061199, 0.061199" />
      <path
         style="fill:#e4e3e6;fill-opacity:0.263158;stroke:none;stroke-width:0.00458994;stroke-linecap:round;stroke-linejoin:round"
         d="m 836.95252,834.75549 c -0.0876,-0.003 -0.22533,-0.009 -0.22572,-0.009 -5.3e-4,-4e-4 -0.0168,-0.14823 -0.0184,-0.16803 -0.002,-0.0205 -0.003,-0.0193 0.0344,-0.0241 0.0704,-0.009 0.17553,-0.0147 0.24182,-0.0132 0.0508,10e-4 0.0603,0.003 0.064,0.0127 0.002,0.006 0.0211,0.10741 0.026,0.13982 0.002,0.0119 0.003,0.0285 0.003,0.0368 2.2e-4,0.0176 -0.003,0.0222 -0.0161,0.0253 -0.009,0.002 -0.0486,0.002 -0.10934,-2.2e-4 z"
         id="path30673" />
      <path
         style="fill:#e4e3e6;fill-opacity:0.263158;stroke:none;stroke-width:0.00458994;stroke-linecap:round;stroke-linejoin:round"
         d="m 837.41141,834.77284 c -0.12578,-0.005 -0.19136,-0.0114 -0.20493,-0.0203 -0.006,-0.004 -0.0196,-0.0308 -0.0344,-0.0682 -0.0133,-0.0337 -0.0511,-0.13874 -0.0511,-0.14201 0,-0.003 0.10623,-6.8e-4 0.14056,0.003 0.0154,0.002 0.0416,0.006 0.0583,0.01 0.0319,0.006 0.0834,0.0209 0.0868,0.0243 10e-4,0.001 0.003,0.014 0.005,0.0286 0.002,0.0146 0.006,0.0438 0.01,0.0648 0.006,0.0342 0.0106,0.0619 0.0145,0.0915 10e-4,0.01 10e-4,0.01 -0.005,0.009 -0.003,-2.2e-4 -0.0123,-6.6e-4 -0.0203,-9.8e-4 z"
         id="path30675" />
      <path
         style="fill:#e4e3e6;fill-opacity:0.311741;stroke:none;stroke-width:0.00458994;stroke-linecap:round;stroke-linejoin:round"
         d="m 836.54634,834.73974 c -0.0155,-0.003 -0.0219,-0.006 -0.0314,-0.0147 -0.0293,-0.0274 -0.0289,-0.0503 10e-4,-0.0785 0.009,-0.008 0.0228,-0.0183 0.0347,-0.0249 0.0423,-0.0234 0.12437,-0.0566 0.13239,-0.0535 0.005,0.002 0.009,0.0247 0.0139,0.0729 0.005,0.0496 0.007,0.0682 0.0106,0.0823 0.004,0.0175 0.007,0.0168 -0.0804,0.0171 -0.0417,1.6e-4 -0.0782,-1.4e-4 -0.0811,-6.6e-4 z"
         id="path30677" />
      <path
         style="fill:#e4e3e6;fill-opacity:1;stroke:none;stroke-width:0.00458994;stroke-linecap:round;stroke-linejoin:round"
         d="m 836.47475,835.30663 c -0.0284,-0.006 -0.0538,-0.0206 -0.0702,-0.0391 -0.0107,-0.0121 -0.0276,-0.0454 -0.0332,-0.0654 -0.003,-0.0104 -0.004,-0.0206 -0.004,-0.0455 6e-5,-0.0314 1.9e-4,-0.0323 0.007,-0.0475 0.0134,-0.0313 0.0382,-0.0571 0.0697,-0.0723 0.0234,-0.0113 0.0317,-0.013 0.0624,-0.012 0.024,7.7e-4 0.0281,0.001 0.0437,0.008 0.0229,0.009 0.0442,0.0237 0.0667,0.0457 0.0284,0.0278 0.0335,0.0424 0.0337,0.0961 1.4e-4,0.0269 -5.3e-4,0.0324 -0.004,0.0416 -0.0104,0.0254 -0.0436,0.0636 -0.0659,0.0755 -0.0216,0.0116 -0.0414,0.0167 -0.0682,0.0175 -0.0163,4.8e-4 -0.0292,-2.6e-4 -0.0375,-0.002 z m 0.0614,-0.0355 c 0.0505,-0.0149 0.0845,-0.0593 0.0846,-0.11039 2e-5,-0.0513 -0.0435,-0.10244 -0.0933,-0.10964 -0.0298,-0.004 -0.0497,-0.002 -0.0738,0.01 -0.0282,0.0134 -0.0532,0.0445 -0.0603,0.0748 -0.004,0.0171 -0.002,0.0478 0.005,0.0649 0.0127,0.0331 0.0387,0.058 0.072,0.0688 0.0188,0.006 0.0487,0.007 0.066,0.002 z"
         id="path30679" />
      <path
         style="fill:#e4e3e6;fill-opacity:1;stroke:none;stroke-width:0.00458994;stroke-linecap:round;stroke-linejoin:round"
         d="m 838.01233,835.28901 c -0.0399,-0.0108 -0.0707,-0.0372 -0.0913,-0.0784 -0.0198,-0.0396 -0.0193,-0.0878 10e-4,-0.12711 0.005,-0.01 0.0135,-0.0205 0.0254,-0.0326 0.0149,-0.0151 0.0207,-0.0193 0.0372,-0.0273 0.044,-0.0213 0.0846,-0.0206 0.12869,0.002 0.0513,0.0265 0.0836,0.0841 0.0793,0.14176 -0.002,0.0271 -0.0148,0.0635 -0.0223,0.0635 -0.002,0 -0.0115,0.008 -0.0209,0.0173 -0.019,0.0192 -0.0348,0.029 -0.0605,0.0376 -0.0228,0.008 -0.0553,0.009 -0.0771,0.003 z m 0.0772,-0.0225 c 0.0448,-0.0156 0.0742,-0.0543 0.0769,-0.10116 0.002,-0.0351 -0.009,-0.0643 -0.0334,-0.0883 -0.0173,-0.017 -0.0301,-0.0244 -0.0521,-0.03 -0.0397,-0.0101 -0.0804,10e-4 -0.10965,0.0303 -0.0447,0.0446 -0.0443,0.11718 7.9e-4,0.16179 0.0236,0.0234 0.0471,0.033 0.0811,0.0331 0.0163,9e-5 0.0224,-8.5e-4 0.0363,-0.006 z"
         id="path30681" />
      <path
         style="fill:#e4e3e6;fill-opacity:1;stroke:none;stroke-width:0.00458994;stroke-linecap:round;stroke-linejoin:round"
         d="m 838.33651,834.9766 c -0.005,-10e-4 -0.011,-0.004 -0.0133,-0.006 -0.004,-0.004 -0.004,-0.005 -0.002,-0.0119 0.004,-0.0118 0.0223,-0.0411 0.0302,-0.0471 0.0104,-0.008 0.0325,-0.0118 0.0622,-0.0109 0.0167,5e-4 0.0266,0.002 0.0304,0.004 0.012,0.007 0.0528,0.0653 0.0484,0.0697 -0.004,0.004 -0.13656,0.006 -0.15616,0.002 z"
         id="path30683" />
      <path
         style="fill:#e4e3e6;fill-opacity:1;stroke:none;stroke-width:0.00458994;stroke-linecap:round;stroke-linejoin:round"
         d="m 835.96553,834.88042 c 4e-5,-0.0437 0.003,-0.0805 0.007,-0.0948 0.006,-0.0211 0.0222,-0.0335 0.0397,-0.0309 0.0114,0.002 0.0138,0.005 0.0195,0.0269 0.004,0.0138 0.004,0.0253 0.005,0.0734 l 10e-4,0.057 -0.0246,10e-4 c -0.0136,7.7e-4 -0.0299,0.002 -0.0365,0.003 l -0.0119,10e-4 z"
         id="path30685" />
    </g>
  </g>
</svg>
