<?xml version="1.0" encoding="UTF-8" standalone="no"?>
<svg
   xmlns:dc="http://purl.org/dc/elements/1.1/"
   xmlns:cc="http://creativecommons.org/ns#"
   xmlns:rdf="http://www.w3.org/1999/02/22-rdf-syntax-ns#"
   xmlns:svg="http://www.w3.org/2000/svg"
   xmlns="http://www.w3.org/2000/svg"
   xmlns:sodipodi="http://sodipodi.sourceforge.net/DTD/sodipodi-0.dtd"
   xmlns:inkscape="http://www.inkscape.org/namespaces/inkscape"
   sodipodi:docname="Car2.svg"
   inkscape:version="1.0 (4035a4fb49, 2020-05-01)"
   id="svg3709"
   version="1.1"
   viewBox="0 0 37.156395 28.442707"
   height="28.442707mm"
   width="37.156395mm">
  <defs
     id="defs3703" />
  <sodipodi:namedview
     inkscape:snap-global="false"
     inkscape:window-maximized="1"
     inkscape:window-y="-9"
     inkscape:window-x="-9"
     inkscape:window-height="1001"
     inkscape:window-width="1920"
     showgrid="false"
     inkscape:document-rotation="0"
     inkscape:current-layer="layer1"
     inkscape:document-units="mm"
     inkscape:cy="69.761924"
     inkscape:cx="51.656068"
     inkscape:zoom="5.6568542"
     inkscape:pageshadow="2"
     inkscape:pageopacity="0.0"
     borderopacity="1.0"
     bordercolor="#666666"
     pagecolor="#ffffff"
     id="base" />
  <metadata
     id="metadata3706">
    <rdf:RDF>
      <cc:Work
         rdf:about="">
        <dc:format>image/svg+xml</dc:format>
        <dc:type
           rdf:resource="http://purl.org/dc/dcmitype/StillImage" />
        <dc:title />
      </cc:Work>
    </rdf:RDF>
  </metadata>
  <g
     transform="translate(107.71583,-11.744966)"
     id="layer1"
     inkscape:groupmode="layer"
     inkscape:label="Layer 1">
    <path
       id="path8581-92"
       style="fill:#000314;stroke:none;stroke-width:0.264582;stroke-opacity:1"
       d="m -75.393173,19.617084 c 2.252805,-0.103731 3.852936,2.556462 2.816161,4.518989 -0.858045,1.893654 -3.674692,2.493078 -5.12033,0.899658 -1.716193,-1.530289 -0.930469,-4.634352 1.251414,-5.248322 0.338364,-0.114277 0.696814,-0.170678 1.052755,-0.170325 z" />
    <path
       id="path8516-7"
       style="fill:#000314;stroke:none;stroke-width:0.264582;stroke-opacity:1"
       d="m -84.185261,11.752847 c 2.696793,0.07617 5.424365,-0.160243 8.101683,0.193737 0.998004,0.444799 0.896512,1.752765 1.892844,2.66555 0.531182,1.191795 2.869867,1.830294 2.400445,3.088106 0.0799,-0.833205 -1.405486,-1.945332 -0.927699,-0.437154 0.151916,1.365452 1.172133,1.979748 2.012389,2.912876 0.34999,0.538564 -0.04574,1.371513 0.0094,2.006542 0.216301,1.234458 -1.402043,1.826107 -1.249465,0.274463 -0.318614,-1.914065 -2.230637,-3.465289 -4.189978,-2.98801 -2.128764,0.298475 -3.081883,2.506805 -3.266253,4.411148 -0.01112,0.680669 -0.994462,0.215408 -1.462618,0.357382 -5.46366,0.0222 -10.924538,0.21708 -16.387424,0.292352 -0.232674,-1.742423 -0.547239,-3.787627 -2.279641,-4.679333 -1.876052,-1.08054 -4.613662,-0.153917 -5.174662,2.016139 -0.59275,0.992922 0.20533,3.177761 -1.68358,2.51179 -1.53514,0.303078 -0.74806,-1.111784 -0.21533,-1.603127 0.31824,-1.139016 -0.72082,-1.139482 -0.88206,-0.997005 0.16162,-1.488 0.78471,-3.286978 2.18758,-4.112796 2.16548,-1.040016 4.64087,-1.250343 7.009354,-1.413508 1.486051,0.382496 2.963578,0.520364 3.834631,-1.067713 0.804122,-0.838063 1.606404,-1.67789 2.409676,-2.516767 -0.358578,-0.147648 -1.779091,-0.173623 -0.844171,-0.467874 1.533422,-0.693914 3.294063,-0.319926 4.92779,-0.436176 1.25866,-0.0079 2.520981,0.0057 3.777134,-0.01062 z m 1.131947,0.815454 c 0.02326,1.164797 -0.107214,2.324137 -0.211331,3.482475 2.928557,-0.05413 5.859758,-0.126197 8.780898,-0.341062 -0.492746,-1.062389 -1.145524,-2.045247 -1.718171,-3.066996 -2.283724,-0.03277 -4.567497,-0.05765 -6.851396,-0.07442 z m -1.021349,0.173633 c -2.426763,0 -4.853526,0 -7.280289,0 -1.129363,1.304931 -2.298911,2.576832 -3.370918,3.929993 1.185561,0.348849 1.484174,-2.185388 2.692144,-0.818768 -0.209213,0.973217 0.650023,0.644026 1.278751,0.662257 2.227023,-0.0994 4.471522,-0.03525 6.682389,-0.327178 3.97e-4,-1.148769 -2.9e-4,-2.297536 -0.0021,-3.446304 z" />
    <path
       id="path7676-4"
       style="fill:#f6f3f8;stroke-width:1;stroke-linejoin:round;stroke-dasharray:1, 1"
       d="m -86.796403,18.434121 c 0.767691,-0.411269 1.502907,-0.639349 0.199293,-0.87298 -1.39615,-0.361132 -1.968577,0.939011 -0.199293,0.87298 z" />
    <path
       id="path6732"
       style="fill:#f2e2ff;fill-opacity:0.165992;stroke-width:0.0999997;stroke-linecap:round;stroke-linejoin:round"
       d="m -81.010088,15.98487 c 2.159562,-0.104898 4.344405,-0.08077 6.485504,-0.329633 -0.515291,-1.02331 -1.123835,-1.997044 -1.692301,-2.991571 -2.266312,-0.03041 -4.532666,-0.06855 -6.799259,-0.06204 -0.02239,1.140655 -0.126506,2.277269 -0.202779,3.414368 0.7363,-0.0084 1.472711,-0.01268 2.208835,-0.03112 z" />
    <path
       id="path6734"
       style="fill:#f2e2ff;fill-opacity:0.165992;stroke-width:0.0999997;stroke-linecap:round;stroke-linejoin:round"
       d="m -94.122085,16.636789 c 0.321318,-1.111022 2.267371,-1.769339 2.244079,-0.106657 2.574478,-0.114997 5.165519,-0.06794 7.726682,-0.355058 0.06914,-1.142352 0.02867,-2.28892 0.03947,-3.433127 -2.405732,0 -4.811464,0 -7.217196,0 -1.126274,1.304798 -2.289591,2.579432 -3.362488,3.928862 0.190101,-0.0063 0.380587,-0.0057 0.569453,-0.03402 z" />
    <path
       id="path8583-57"
       style="fill:#000314;stroke:none;stroke-width:0.264582;stroke-opacity:1"
       d="m -101.03768,19.633913 c 1.871247,-0.02108 3.328194,1.834979 3.014366,3.647759 -0.158273,2.261583 -3.242706,3.532819 -4.976436,2.058146 -1.74916,-1.144761 -1.7754,-3.962985 -0.002,-5.094768 0.56334,-0.412125 1.27357,-0.634352 1.96457,-0.611137 z" />
    <path
       d="m -101.13453,24.982191 c 1.641256,0.07168 2.8071,-1.76655 2.05174,-3.12272 -0.625154,-1.308574 -2.67725,-1.722795 -3.73049,-0.621681 -1.25033,1.057465 -0.67794,3.202513 0.91175,3.626717 0.24652,0.07896 0.50766,0.117928 0.767,0.117684 z"
       style="fill:#f6f3f8;fill-opacity:1;stroke:none;stroke-width:0.264583;stroke-opacity:1"
       id="path29913-3" />
    <path
       id="path29913-3-8"
       style="fill:#f6f3f8;fill-opacity:1;stroke:none;stroke-width:0.264583;stroke-opacity:1"
       d="m -75.386303,24.979162 c 1.64126,0.07168 2.8071,-1.76655 2.05174,-3.12272 -0.62515,-1.308574 -2.677248,-1.722795 -3.730488,-0.621681 -1.25033,1.057465 -0.67794,3.202513 0.91175,3.626717 0.24652,0.07896 0.50766,0.117928 0.766998,0.117684 z" />
    <path
       id="path4099"
       d="m -107.49631,21.937486 c 0,0 0.79513,-0.245554 0.76005,0.760048 0,0 -0.77174,0.53788 -0.6782,1.216077 0,0 -0.61973,-1.239464 -0.0818,-1.976125 z"
       style="fill:#f6f3f8;fill-opacity:1;stroke:none;stroke-width:0.264583px;stroke-linecap:butt;stroke-linejoin:miter;stroke-opacity:1" />
    <path
       d="m -75.393173,32.323062 c 2.252805,0.103632 3.852936,-2.554025 2.816161,-4.51468 -0.858045,-1.891849 -3.674692,-2.490701 -5.12033,-0.8988 -1.716193,1.528829 -0.930469,4.629933 1.251414,5.243317 0.338364,0.114168 0.696814,0.170516 1.052755,0.170163 z"
       style="fill:#c7c2d8;fill-opacity:1;stroke:none;stroke-width:0.264582;stroke-opacity:1"
       id="path4118" />
    <path
       d="m -84.185261,40.1798 c 2.696793,-0.0761 5.424365,0.160091 8.101683,-0.193552 0.998004,-0.444375 0.896512,-1.751094 1.892844,-2.663008 0.531182,-1.190659 2.869867,-1.828549 2.400445,-3.085162 0.0799,0.832411 -1.405486,1.943477 -0.927699,0.436737 0.151916,-1.36415 1.172133,-1.97786 2.012389,-2.910098 0.34999,-0.538051 -0.04574,-1.370205 0.0094,-2.004629 0.216301,-1.233281 -1.402043,-1.824366 -1.249465,-0.274201 -0.318614,1.91224 -2.230637,3.461985 -4.189978,2.985161 -2.128764,-0.298191 -3.081883,-2.504415 -3.266253,-4.406942 -0.01112,-0.68002 -0.994462,-0.215203 -1.462618,-0.357042 -5.46366,-0.02218 -10.924538,-0.216873 -16.387424,-0.292073 -0.232674,1.740762 -0.547239,3.784016 -2.279641,4.674871 -1.876052,1.07951 -4.613662,0.153771 -5.174662,-2.014216 -0.59275,-0.991975 0.20533,-3.174731 -1.68358,-2.509395 -1.53514,-0.302789 -0.74806,1.110724 -0.21533,1.601598 0.31824,1.13793 -0.72082,1.138396 -0.88206,0.996055 0.16162,1.486581 0.78471,3.283843 2.18758,4.108874 2.16548,1.039024 4.64087,1.249151 7.009354,1.41216 1.486051,-0.382131 2.963578,-0.519868 3.834631,1.066695 0.804122,0.837264 1.606404,1.67629 2.409676,2.514367 -0.358578,0.147508 -1.779091,0.173458 -0.844171,0.467428 1.533422,0.693253 3.294063,0.319621 4.92779,0.43576 1.25866,0.0079 2.520981,-0.0057 3.777134,0.01061 z m 1.131947,-0.814676 c 0.02326,-1.163686 -0.107214,-2.321921 -0.211331,-3.479155 2.928557,0.05408 5.859758,0.126077 8.780898,0.340737 -0.492746,1.061376 -1.145524,2.043297 -1.718171,3.064072 -2.283724,0.03274 -4.567497,0.05759 -6.851396,0.07435 z m -1.021349,-0.173468 c -2.426763,0 -4.853526,0 -7.280289,0 -1.129363,-1.303686 -2.298911,-2.574375 -3.370918,-3.926245 1.185561,-0.348517 1.484174,2.183304 2.692144,0.817987 -0.209213,-0.972289 0.650023,-0.643412 1.278751,-0.661626 2.227023,0.09931 4.471522,0.03522 6.682389,0.326866 3.97e-4,1.147674 -2.9e-4,2.295346 -0.0021,3.443018 z"
       style="fill:#c7c2d8;fill-opacity:1;stroke:none;stroke-width:0.264582;stroke-opacity:1"
       id="path4120" />
    <path
       d="m -86.796403,33.504897 c 0.767691,0.410877 1.502907,0.638739 0.199293,0.872148 -1.39615,0.360787 -1.968577,-0.938116 -0.199293,-0.872148 z"
       style="fill:#f6f3f8;stroke-width:1;stroke-linejoin:round;stroke-dasharray:1, 1"
       id="path4122" />
    <path
       d="m -81.010088,35.951813 c 2.159562,0.104798 4.344405,0.08069 6.485504,0.329318 -0.515291,1.022335 -1.123835,1.99514 -1.692301,2.988719 -2.266312,0.03038 -4.532666,0.06848 -6.799259,0.06198 -0.02239,-1.139568 -0.126506,-2.275098 -0.202779,-3.411113 0.7363,0.0084 1.472711,0.01267 2.208835,0.03109 z"
       style="fill:#f2e2ff;fill-opacity:0.165992;stroke-width:0.0999993;stroke-linecap:round;stroke-linejoin:round"
       id="path4124" />
    <path
       d="m -94.122085,35.300515 c 0.321318,1.109963 2.267371,1.767652 2.244079,0.106555 2.574478,0.114888 5.165519,0.06788 7.726682,0.35472 0.06914,1.141263 0.02867,2.286737 0.03947,3.429853 -2.405732,0 -4.811464,0 -7.217196,0 -1.126274,-1.303553 -2.289591,-2.576972 -3.362488,-3.925115 0.190101,0.0063 0.380587,0.0057 0.569453,0.03399 z"
       style="fill:#f2e2ff;fill-opacity:0.165992;stroke-width:0.0999993;stroke-linecap:round;stroke-linejoin:round"
       id="path4126" />
    <path
       d="m -101.03768,32.306249 c 1.871247,0.02106 3.328194,-1.833229 3.014366,-3.644281 -0.158273,-2.259427 -3.242706,-3.52945 -4.976436,-2.056183 -1.74916,1.143669 -1.7754,3.959206 -0.002,5.08991 0.56334,0.411732 1.27357,0.633747 1.96457,0.610554 z"
       style="fill:#c7c2d8;fill-opacity:1;stroke:none;stroke-width:0.264582;stroke-opacity:1"
       id="path4128" />
    <path
       id="path4130"
       style="fill:#f6f3f8;fill-opacity:1;stroke:none;stroke-width:0.264583;stroke-opacity:1"
       d="m -101.13453,26.963115 c 1.641256,-0.07161 2.8071,1.764866 2.05174,3.119743 -0.625154,1.307326 -2.67725,1.721152 -3.73049,0.621088 -1.25033,-1.056457 -0.67794,-3.19946 0.91175,-3.623259 0.24652,-0.07888 0.50766,-0.117816 0.767,-0.117572 z" />
    <path
       d="m -75.386303,26.966052 c 1.64126,-0.07161 2.8071,1.764866 2.05174,3.119743 -0.62515,1.307326 -2.677248,1.721152 -3.730488,0.621088 -1.25033,-1.056457 -0.67794,-3.19946 0.91175,-3.623259 0.24652,-0.07888 0.50766,-0.117816 0.766998,-0.117572 z"
       style="fill:#f6f3f8;fill-opacity:1;stroke:none;stroke-width:0.264583;stroke-opacity:1"
       id="path4132" />
    <path
       style="fill:#f6f3f8;fill-opacity:1;stroke:none;stroke-width:0.264583px;stroke-linecap:butt;stroke-linejoin:miter;stroke-opacity:1"
       d="m -107.49631,30.004872 c 0,0 0.79513,0.24532 0.76005,-0.759323 0,0 -0.77174,-0.537367 -0.6782,-1.214917 0,0 -0.61973,1.238282 -0.0818,1.97424 z"
       id="path4134" />
    <path
       id="path29913-3-7"
       style="fill:#616161;fill-opacity:1;stroke:none;stroke-width:0.264583;stroke-opacity:1"
       d="m -101.21456,24.1301 c 1.06293,0.04642 1.817952,-1.144064 1.328761,-2.022355 -0.404861,-0.847466 -1.733861,-1.115727 -2.415971,-0.402617 -0.80974,0.684842 -0.43905,2.074031 0.59048,2.348756 0.15965,0.05114 0.32878,0.07637 0.49673,0.07622 z" />
    <path
       d="m -75.466497,24.200258 c 1.06293,0.04642 1.81796,-1.144064 1.32877,-2.022355 -0.40487,-0.847466 -1.73387,-1.115727 -2.415978,-0.402617 -0.80974,0.684842 -0.43905,2.074031 0.590478,2.348756 0.15965,0.05114 0.32878,0.07637 0.49673,0.07622 z"
       style="fill:#616161;fill-opacity:1;stroke:none;stroke-width:0.264583;stroke-opacity:1"
       id="path29913-3-7-3" />
    <path
       d="m -101.14441,30.561273 c 1.06293,0.04642 1.817958,-1.144064 1.328758,-2.022355 -0.404858,-0.847466 -1.733858,-1.115727 -2.415968,-0.402617 -0.80974,0.684842 -0.43905,2.074031 0.59048,2.348756 0.15965,0.05114 0.32878,0.07637 0.49673,0.07622 z"
       style="fill:#c7c2d8;fill-opacity:1;stroke:none;stroke-width:0.264583;stroke-opacity:1"
       id="path29913-3-7-2" />
    <path
       inkscape:transform-center-y="1.4499372"
       inkscape:transform-center-x="39.849887"
       id="path29913-3-7-2-3"
       style="fill:#c7c2d8;fill-opacity:1;stroke:none;stroke-width:0.264583;stroke-opacity:1"
       d="m -75.372953,30.59337 c 1.062932,0.04642 1.817962,-1.144064 1.328762,-2.022355 -0.40486,-0.847466 -1.733862,-1.115727 -2.415972,-0.402617 -0.80974,0.684842 -0.43905,2.074031 0.59048,2.348756 0.15965,0.05114 0.32878,0.07637 0.49673,0.07622 z" />
  </g>
</svg>
