<?xml version="1.0" encoding="UTF-8" standalone="no"?>
<svg
   xmlns:dc="http://purl.org/dc/elements/1.1/"
   xmlns:cc="http://creativecommons.org/ns#"
   xmlns:rdf="http://www.w3.org/1999/02/22-rdf-syntax-ns#"
   xmlns:svg="http://www.w3.org/2000/svg"
   xmlns="http://www.w3.org/2000/svg"
   xmlns:sodipodi="http://sodipodi.sourceforge.net/DTD/sodipodi-0.dtd"
   xmlns:inkscape="http://www.inkscape.org/namespaces/inkscape"
   sodipodi:docname="Car3.svg"
   inkscape:version="1.0 (4035a4fb49, 2020-05-01)"
   id="svg3709"
   version="1.1"
   viewBox="0 0 36.919064 28.470919"
   height="28.470919mm"
   width="36.919064mm">
  <defs
     id="defs3703" />
  <sodipodi:namedview
     inkscape:window-maximized="0"
     inkscape:window-y="0"
     inkscape:window-x="524"
     inkscape:window-height="1001"
     inkscape:window-width="1378"
     showgrid="false"
     inkscape:document-rotation="0"
     inkscape:current-layer="layer1"
     inkscape:document-units="mm"
     inkscape:cy="50.210983"
     inkscape:cx="68.068807"
     inkscape:zoom="5.6568542"
     inkscape:pageshadow="2"
     inkscape:pageopacity="0.0"
     borderopacity="1.0"
     bordercolor="#666666"
     pagecolor="#ffffff"
     id="base"
     inkscape:snap-global="false" />
  <metadata
     id="metadata3706">
    <rdf:RDF>
      <cc:Work
         rdf:about="">
        <dc:format>image/svg+xml</dc:format>
        <dc:type
           rdf:resource="http://purl.org/dc/dcmitype/StillImage" />
        <dc:title />
      </cc:Work>
    </rdf:RDF>
  </metadata>
  <g
     transform="translate(107.41446,-11.752847)"
     id="layer1"
     inkscape:groupmode="layer"
     inkscape:label="Layer 1">
    <path
       id="path2766"
       d="m -78.400226,20.300906 c 1.03406,-0.0049 2.062454,0.525038 2.54035,1.592136 0.690665,1.542188 0.108025,3.130496 -1.420014,3.871811 -1.286045,0.623911 -3.001018,0.01332 -3.623378,-1.29031 -0.360952,-0.756066 -0.39248,-1.873311 -0.07232,-2.557449 0.501535,-1.071701 1.541297,-1.611328 2.575362,-1.616188 z"
       style="fill:#000314;fill-opacity:1;stroke-width:0.264583" />
    <path
       id="path2764"
       d="m -102.06671,20.140455 c 0.98131,0 1.77579,0.41065 2.328017,1.203195 1.02069,1.464848 0.469057,3.500534 -1.157937,4.272778 -1.28814,0.611411 -2.99893,0.03556 -3.63176,-1.22226 -0.33046,-0.656812 -0.3963,-1.827422 -0.14145,-2.511399 0.38388,-1.030242 1.44763,-1.742314 2.60313,-1.742314 z"
       style="fill:#000314;fill-opacity:1;stroke-width:0.264583" />
    <path
       id="path2742"
       style="fill:#000314;fill-opacity:1;stroke-width:0.264583"
       d="m -87.353642,11.88997 c 2.106025,-0.005 4.244326,0.257643 5.630615,0.723912 2.068293,0.695662 4.319871,2.207758 6.615565,4.44261 1.030858,1.003539 1.372019,1.249539 1.731558,1.249539 0.246259,0 0.488852,0.06759 0.539198,0.15018 0.05032,0.0826 -0.04187,0.150179 -0.204803,0.150179 -0.162915,0 -0.330353,0.05645 -0.372292,0.125247 -0.04192,0.0688 0.13748,0.634913 0.398612,1.258046 l 0.474689,1.133092 0.699162,0.08594 c 1.066291,0.131092 1.300263,0.310915 1.300263,1.000512 0,0.553816 -0.03068,0.59447 -0.518367,0.687246 -0.420611,0.08001 -0.518369,0.166204 -0.518369,0.457285 0,0.328049 -0.06018,0.358614 -0.703501,0.357262 -1.089139,-0.0023 -2.121005,-0.559905 -2.61383,-1.412625 -0.937125,-1.621483 -2.156697,-2.486192 -3.51056,-2.489105 -1.836858,-0.004 -3.140237,1.132593 -3.599941,3.138807 -0.121307,0.529384 -0.307339,1.01826 -0.413369,1.086454 -0.106019,0.06819 -3.603449,0.125219 -7.77235,0.126421 -6.632685,0.002 -7.608455,-0.02682 -7.808221,-0.229376 -0.125559,-0.127319 -0.365143,-0.697757 -0.532538,-1.267725 -0.532868,-1.814318 -1.924679,-3.157734 -3.269019,-3.155526 -1.3492,0.0022 -2.2652,0.621794 -3.48742,2.358578 -0.37789,0.536989 -0.72971,0.906326 -0.78189,0.820707 -0.0521,-0.08562 -0.39353,-0.177222 -0.75875,-0.203564 -0.62595,-0.04514 -0.66416,-0.07335 -0.66416,-0.491016 0,-0.401705 0.0691,-0.46408 0.74053,-0.6673 0.89671,-0.271439 0.81062,-0.217222 0.88747,-0.558773 0.2358,-1.048172 0.50016,-1.598647 0.89673,-1.866976 0.24049,-0.162714 0.76576,-0.561038 1.1672,-0.885237 1.24062,-1.00191 3.49489,-1.620102 7.029799,-1.927986 l 1.242977,-0.108528 0.937232,-1.501795 c 0.515459,-0.825985 0.955855,-1.550972 0.978592,-1.611201 0.0847,-0.224386 2.384548,-0.706376 4.192945,-0.878784 0.665772,-0.06347 1.364235,-0.09486 2.066243,-0.0965 z m -0.52589,0.712766 c -0.07258,-0.0014 -0.15002,-7.38e-4 -0.23257,0.0014 -0.440295,0.01173 -1.027466,0.0713 -1.809949,0.150474 -1.72021,0.174041 -3.032113,0.503834 -3.426673,0.86177 -0.482796,0.437992 -1.165328,1.812749 -1.115998,2.247704 l 0.04686,0.41446 3.633501,0.04019 c 2.701728,0.02982 3.679686,-0.0067 3.813707,-0.142553 0.116886,-0.118523 0.180211,-0.696307 0.180211,-1.64376 0,-1.472053 -4.85e-4,-1.909791 -1.089092,-1.929746 z m 2.445182,0.0308 c -0.768056,-0.0024 -0.763666,0.361104 -0.763666,1.831485 0,0.988562 0.06267,1.592029 0.177612,1.708583 0.126471,0.128243 1.038317,0.180098 3.161417,0.180098 2.702353,0 3.006805,-0.0258 3.228816,-0.274546 0.308,-0.345102 0.315501,-1.05812 0.01589,-1.491821 -0.556876,-0.806189 -2.584095,-1.59611 -4.765698,-1.857003 -0.456451,-0.05458 -0.798361,-0.09602 -1.054385,-0.0968 z" />
    <path
       id="path2760"
       d="m -72.403049,18.858582 c -0.110095,-0.03033 -0.231709,-0.03702 -0.361085,-0.0169 -0.295444,0.04597 -0.301965,-0.02429 0.113679,1.199362 0.178006,0.524036 0.365434,0.961908 0.416484,0.973165 0.182305,0.0402 0.440634,-0.798529 0.411357,-1.335416 -0.02323,-0.426216 -0.250148,-0.729263 -0.580435,-0.820215 z"
       style="fill:#c5c5c5;fill-opacity:1;stroke-width:0.264583"
       inkscape:transform-center-x="-0.96268648"
       inkscape:transform-center-y="0.075086949" />
    <path
       style="fill:#d9d9d9;fill-opacity:0.202429;stroke-width:0.0999998;stroke-linecap:round;stroke-linejoin:round"
       d="m -80.172745,16.264099 c 0.04075,-0.01536 0.165087,-0.04826 0.27635,-0.07312 0.396374,-0.08856 0.584887,-0.94262 0.321892,-1.458315 -0.465754,-0.913282 -3.059885,-1.877441 -5.416476,-2.013138 l -0.819381,-0.04718 -0.167263,0.215617 c -0.162602,0.209614 -0.166595,0.25584 -0.143295,1.660187 0.02101,1.266191 0.04031,1.461109 0.156112,1.578505 0.121567,0.123199 0.356042,0.135194 2.925084,0.149651 1.536107,0.0087 2.826249,0.0032 2.866977,-0.01221 z"
       id="path4017" />
    <path
       style="fill:#d9d9d9;fill-opacity:0.202429;stroke-width:0.0999998;stroke-linecap:round;stroke-linejoin:round"
       d="m -87.33872,16.227553 c 0.172344,-0.02848 0.33655,-0.07531 0.36491,-0.104062 0.100235,-0.101642 0.19398,-1.674129 0.139248,-2.335746 -0.04892,-0.591363 -0.07942,-0.694956 -0.25784,-0.875872 -0.2736,-0.277433 -0.679636,-0.32799 -1.795668,-0.223585 -1.996725,0.186794 -3.307177,0.422718 -4.072289,0.73314 -0.559505,0.227004 -1.386142,1.582229 -1.451331,2.37938 l -0.03251,0.398037 1.174506,0.0494 c 1.48004,0.06224 5.514341,0.04817 5.931019,-0.02069 z"
       id="path4019" />
    <path
       id="path6180"
       d="m -105.61199,20.947118 c 0,0 -0.0165,-0.892969 0.4961,-1.537891 0.51263,-0.644922 0.7276,0.330729 0.7276,0.330729 0,0 -0.76068,0.446485 -1.2237,1.207162 z"
       style="fill:#c7c2d8;stroke:none;stroke-width:0.264583px;stroke-linecap:butt;stroke-linejoin:miter;stroke-opacity:1;fill-opacity:1" />
    <path
       style="fill:#5a5c64;fill-opacity:1;stroke-width:0.264583"
       d="m -78.395577,20.869185 c 0.803374,-0.0038 1.602349,0.407908 1.973632,1.23695 0.536584,1.198146 0.08393,2.432123 -1.103227,3.00806 -0.999145,0.484725 -2.33153,0.01035 -2.815051,-1.002459 -0.280428,-0.587397 -0.304922,-1.455399 -0.05618,-1.986914 0.389649,-0.832619 1.197452,-1.251862 2.000831,-1.255637 z"
       id="path2766-5" />
    <path
       style="fill:#5a5c64;fill-opacity:1;stroke-width:0.264583"
       d="m -102.06765,20.744528 c 0.76239,0 1.37963,0.319039 1.80866,0.934777 0.793013,1.13806 0.364426,2.71961 -0.89961,3.319577 -1.00077,0.475013 -2.32992,0.02763 -2.82157,-0.94959 -0.25674,-0.510285 -0.30789,-1.419748 -0.10989,-1.951138 0.29824,-0.800408 1.12468,-1.353626 2.02241,-1.353626 z"
       id="path2764-3" />
    <path
       id="path2766-5-3"
       d="m -78.404151,21.354275 c 0.613882,-0.0029 1.224403,0.311695 1.508113,0.945191 0.410019,0.91554 0.06413,1.858459 -0.84301,2.29855 -0.763478,0.370393 -1.781594,0.0079 -2.151067,-0.766009 -0.214283,-0.448848 -0.233,-1.112115 -0.04293,-1.518262 0.297743,-0.636229 0.915009,-0.956585 1.528896,-0.95947 z"
       style="fill:#3a3545;fill-opacity:1;stroke-width:0.264583" />
    <path
       id="path2764-3-9"
       d="m -102.04392,21.259021 c 0.58256,0 1.05421,0.243787 1.38205,0.714291 0.60596,0.869627 0.27847,2.078137 -0.68742,2.53659 -0.76472,0.362972 -1.78036,0.02111 -2.15605,-0.725611 -0.19618,-0.389924 -0.23527,-1.084872 -0.084,-1.490923 0.2279,-0.611616 0.8594,-1.034347 1.54539,-1.034347 z"
       style="fill:#3a3545;fill-opacity:1;stroke-width:0.264583" />
    <path
       style="fill:#c7c2d8;fill-opacity:1;stroke-width:0.264583"
       d="m -78.400226,31.781024 c 1.03406,0.005 2.062454,-0.530567 2.54035,-1.608902 0.690665,-1.558429 0.108025,-3.163463 -1.420014,-3.912585 -1.286045,-0.630481 -3.001018,-0.01346 -3.623378,1.303898 -0.360952,0.764028 -0.39248,1.893039 -0.07232,2.584381 0.501535,1.082987 1.541297,1.628297 2.575362,1.633208 z"
       id="path6237" />
    <path
       style="fill:#c7c2d8;fill-opacity:1;stroke-width:0.264583"
       d="m -102.06671,31.943165 c 0.98131,0 1.77579,-0.414975 2.328017,-1.215866 1.02069,-1.480274 0.469057,-3.537397 -1.157937,-4.317773 -1.28814,-0.61785 -2.99893,-0.03593 -3.63176,1.235131 -0.33046,0.663729 -0.3963,1.846666 -0.14145,2.537846 0.38388,1.041091 1.44763,1.760662 2.60313,1.760662 z"
       id="path6239" />
    <path
       d="m -87.353642,40.280534 c 2.106025,0.0051 4.244326,-0.260356 5.630615,-0.731535 2.068293,-0.702988 4.319871,-2.231008 6.615565,-4.489395 1.030858,-1.014107 1.372019,-1.262697 1.731558,-1.262697 0.246259,0 0.488852,-0.0683 0.539198,-0.151762 0.05032,-0.08347 -0.04187,-0.15176 -0.204803,-0.15176 -0.162915,0 -0.330353,-0.05705 -0.372292,-0.126566 -0.04192,-0.06952 0.13748,-0.641599 0.398612,-1.271294 l 0.474689,-1.145025 0.699162,-0.08685 c 1.066291,-0.132472 1.300263,-0.314189 1.300263,-1.011048 0,-0.559648 -0.03068,-0.60073 -0.518367,-0.694483 -0.420611,-0.08085 -0.518369,-0.167954 -0.518369,-0.462101 0,-0.331503 -0.06018,-0.36239 -0.703501,-0.361024 -1.089139,0.0023 -2.121005,0.565801 -2.61383,1.427501 -0.937125,1.638559 -2.156697,2.512374 -3.51056,2.515317 -1.836858,0.004 -3.140237,-1.14452 -3.599941,-3.171861 -0.121307,-0.534959 -0.307339,-1.028983 -0.413369,-1.097895 -0.106019,-0.06891 -3.603449,-0.126538 -7.77235,-0.127752 -6.632685,-0.002 -7.608455,0.0271 -7.808221,0.231791 -0.125559,0.12866 -0.365143,0.705105 -0.532538,1.281075 -0.532868,1.833425 -1.924679,3.190988 -3.269019,3.188757 -1.3492,-0.0022 -2.2652,-0.628342 -3.48742,-2.383416 -0.37789,-0.542644 -0.72971,-0.915871 -0.78189,-0.82935 -0.0521,0.08652 -0.39353,0.179088 -0.75875,0.205708 -0.62595,0.04561 -0.66416,0.07412 -0.66416,0.496187 0,0.405935 0.0691,0.468967 0.74053,0.674327 0.89671,0.274297 0.81062,0.219509 0.88747,0.564657 0.2358,1.05921 0.50016,1.615482 0.89673,1.886637 0.24049,0.164427 0.76576,0.566946 1.1672,0.894559 1.24062,1.012461 3.49489,1.637163 7.029799,1.948289 l 1.242977,0.109671 0.937232,1.51761 c 0.515459,0.834684 0.955855,1.567305 0.978592,1.628169 0.0847,0.226749 2.384548,0.713814 4.192945,0.888038 0.665772,0.06414 1.364235,0.09586 2.066243,0.09752 z m -0.52589,-0.720272 c -0.07258,0.0014 -0.15002,7.46e-4 -0.23257,-0.0014 -0.440295,-0.01185 -1.027466,-0.07205 -1.809949,-0.152058 -1.72021,-0.175874 -3.032113,-0.50914 -3.426673,-0.870845 -0.482796,-0.442605 -1.165328,-1.831839 -1.115998,-2.271374 l 0.04686,-0.418825 3.633501,-0.04061 c 2.701728,-0.03013 3.679686,0.0068 3.813707,0.144054 0.116886,0.119771 0.180211,0.70364 0.180211,1.66107 0,1.487555 -4.85e-4,1.929903 -1.089092,1.950068 z m 2.445182,-0.03112 c -0.768056,0.0024 -0.763666,-0.364907 -0.763666,-1.850772 0,-0.998973 0.06267,-1.608795 0.177612,-1.726576 0.126471,-0.129593 1.038317,-0.181995 3.161417,-0.181995 2.702353,0 3.006805,0.02607 3.228816,0.277438 0.308,0.348736 0.315501,1.069262 0.01589,1.507531 -0.556876,0.814679 -2.584095,1.612918 -4.765698,1.876558 -0.456451,0.05515 -0.798361,0.09703 -1.054385,0.09782 z"
       style="fill:#c7c2d8;fill-opacity:1;stroke-width:0.264583"
       id="path6241" />
    <path
       inkscape:transform-center-y="-0.075876798"
       inkscape:transform-center-x="-0.96268648"
       style="fill:#c5c5c5;fill-opacity:1;stroke-width:0.264583"
       d="m -72.403049,33.238537 c -0.110095,0.03065 -0.231709,0.03741 -0.361085,0.01708 -0.295444,-0.04645 -0.301965,0.02455 0.113679,-1.211992 0.178006,-0.529555 0.365434,-0.972038 0.416484,-0.983413 0.182305,-0.04062 0.440634,0.806938 0.411357,1.349479 -0.02323,0.430704 -0.250148,0.736942 -0.580435,0.828852 z"
       id="path6243" />
    <path
       id="path6245"
       d="m -80.172745,35.860342 c 0.04075,0.01552 0.165087,0.04877 0.27635,0.07389 0.396374,0.08949 0.584887,0.952547 0.321892,1.473672 -0.465754,0.9229 -3.059885,1.897212 -5.416476,2.034338 l -0.819381,0.04768 -0.167263,-0.217888 c -0.162602,-0.211821 -0.166595,-0.258534 -0.143295,-1.67767 0.02101,-1.279525 0.04031,-1.476495 0.156112,-1.595128 0.121567,-0.124496 0.356042,-0.136617 2.925084,-0.151227 1.536107,-0.0088 2.826249,-0.0032 2.866977,0.01234 z"
       style="fill:#d9d9d9;fill-opacity:0.202429;stroke-width:0.0999998;stroke-linecap:round;stroke-linejoin:round" />
    <path
       id="path6247"
       d="m -87.33872,35.897273 c 0.172344,0.02878 0.33655,0.0761 0.36491,0.105158 0.100235,0.102712 0.19398,1.691759 0.139248,2.360343 -0.04892,0.597591 -0.07942,0.702274 -0.25784,0.885096 -0.2736,0.280354 -0.679636,0.331444 -1.795668,0.225939 -1.996725,-0.188761 -3.307177,-0.427169 -4.072289,-0.74086 -0.559505,-0.229395 -1.386142,-1.598892 -1.451331,-2.404437 l -0.03251,-0.402229 1.174506,-0.04992 c 1.48004,-0.06289 5.514341,-0.04868 5.931019,0.02091 z"
       style="fill:#d9d9d9;fill-opacity:0.202429;stroke-width:0.0999998;stroke-linecap:round;stroke-linejoin:round" />
    <path
       style="fill:#c7c2d8;fill-opacity:1;stroke:none;stroke-width:0.264583px;stroke-linecap:butt;stroke-linejoin:miter;stroke-opacity:1"
       d="m -105.61199,31.128007 c 0,0 -0.0165,0.902373 0.4961,1.554086 0.51263,0.651714 0.7276,-0.334212 0.7276,-0.334212 0,0 -0.76068,-0.451186 -1.2237,-1.219874 z"
       id="path6249" />
    <path
       id="path6251"
       d="m -78.395577,31.206761 c 0.803374,0.0038 1.602349,-0.412204 1.973632,-1.249976 0.536584,-1.210764 0.08393,-2.457735 -1.103227,-3.039738 -0.999145,-0.489829 -2.33153,-0.01046 -2.815051,1.013016 -0.280428,0.593583 -0.304922,1.470726 -0.05618,2.007838 0.389649,0.841387 1.197452,1.265045 2.000831,1.26886 z"
       style="fill:#d9d9d9;fill-opacity:1;stroke-width:0.264583" />
    <path
       id="path6253"
       d="m -102.06765,31.332731 c 0.76239,0 1.37963,-0.322399 1.80866,-0.944621 0.793013,-1.150045 0.364426,-2.74825 -0.89961,-3.354535 -1.00077,-0.480015 -2.32992,-0.02792 -2.82157,0.95959 -0.25674,0.515658 -0.30789,1.434699 -0.10989,1.971685 0.29824,0.808837 1.12468,1.367881 2.02241,1.367881 z"
       style="fill:#d9d9d9;fill-opacity:1;stroke-width:0.264583" />
    <path
       style="fill:#bfbec4;fill-opacity:1;stroke-width:0.264583"
       d="m -78.404151,30.716562 c 0.613882,0.0029 1.224403,-0.314977 1.508113,-0.955144 0.410019,-0.925182 0.06413,-1.87803 -0.84301,-2.322756 -0.763478,-0.374293 -1.781594,-0.008 -2.151067,0.774076 -0.214283,0.453575 -0.233,1.123826 -0.04293,1.53425 0.297743,0.642929 0.915009,0.966659 1.528896,0.969574 z"
       id="path6255" />
    <path
       style="fill:#bfbec4;fill-opacity:1;stroke-width:0.264583"
       d="m -102.04392,30.81282 c 0.58256,0 1.05421,-0.246355 1.38205,-0.721814 0.60596,-0.878784 0.27847,-2.100021 -0.68742,-2.563302 -0.76472,-0.366794 -1.78036,-0.02133 -2.15605,0.733252 -0.19618,0.394031 -0.23527,1.096297 -0.084,1.506624 0.2279,0.618057 0.8594,1.04524 1.54539,1.04524 z"
       id="path6257" />
  </g>
</svg>
