<?xml version="1.0" encoding="UTF-8" standalone="no"?>
<svg
   xmlns:dc="http://purl.org/dc/elements/1.1/"
   xmlns:cc="http://creativecommons.org/ns#"
   xmlns:rdf="http://www.w3.org/1999/02/22-rdf-syntax-ns#"
   xmlns:svg="http://www.w3.org/2000/svg"
   xmlns="http://www.w3.org/2000/svg"
   xmlns:sodipodi="http://sodipodi.sourceforge.net/DTD/sodipodi-0.dtd"
   xmlns:inkscape="http://www.inkscape.org/namespaces/inkscape"
   sodipodi:docname="Car4.svg"
   inkscape:version="1.0 (4035a4fb49, 2020-05-01)"
   id="svg3709"
   version="1.1"
   viewBox="0 0 43.331982 28.33366"
   height="28.33366mm"
   width="43.331982mm">
  <defs
     id="defs3703" />
  <sodipodi:namedview
     inkscape:snap-global="false"
     inkscape:window-maximized="1"
     inkscape:window-y="-9"
     inkscape:window-x="-9"
     inkscape:window-height="1001"
     inkscape:window-width="1920"
     showgrid="false"
     inkscape:document-rotation="0"
     inkscape:current-layer="layer1"
     inkscape:document-units="mm"
     inkscape:cy="28.795878"
     inkscape:cx="11.992838"
     inkscape:zoom="4"
     inkscape:pageshadow="2"
     inkscape:pageopacity="0.0"
     borderopacity="1.0"
     bordercolor="#666666"
     pagecolor="#ffffff"
     id="base" />
  <metadata
     id="metadata3706">
    <rdf:RDF>
      <cc:Work
         rdf:about="">
        <dc:format>image/svg+xml</dc:format>
        <dc:type
           rdf:resource="http://purl.org/dc/dcmitype/StillImage" />
        <dc:title></dc:title>
      </cc:Work>
    </rdf:RDF>
  </metadata>
  <g
     transform="translate(56.510714,-14.251702)"
     id="layer1"
     inkscape:groupmode="layer"
     inkscape:label="Layer 1">
    <path
       id="path5335"
       d="m -141.90085,82.100528 c -0.0789,0.001 -0.21321,0.004 -0.28629,0.005 -0.0988,10e-4 -0.19826,0.002 -0.29714,0.003 0.0943,0.10091 0.34815,0.0868 0.58343,-0.008 z"
       style="fill:#000000;stroke-width:0.264583" />
    <path
       id="path5333"
       d="m -146.2272,78.209288 c -0.0496,0 -0.0956,0.0272 -0.13539,0.0718 0.0497,0.003 0.17538,0.0115 0.22169,0.0145 -0.0272,-0.0522 -0.056,-0.0863 -0.0863,-0.0863 z"
       style="fill:#000000;stroke-width:0.264583" />
    <path
       id="path5331"
       d="m -239.60703,51.927688 c -1.7735,0.0223 -2.91185,2.24546 -1.48518,3.67213 0.79432,0.79432 1.9408,0.84489 2.85461,0.12609 1.29728,-1.02044 0.966,-3.12676 -0.57619,-3.66437 -0.27364,-0.0954 -0.53988,-0.13702 -0.79324,-0.13385 z"
       style="fill:#000000;stroke-width:0.264583" />
    <path
       id="path5329"
       d="m -281.43238,51.919688 c -1.77537,0.0205 -2.89915,2.24472 -1.464,3.67988 0.40938,0.40937 0.95159,0.64905 1.4671,0.64905 2.31236,0 2.96125,-3.43774 0.79168,-4.19406 -0.27466,-0.0957 -0.54116,-0.13779 -0.79478,-0.13487 z"
       style="fill:#000000;stroke-width:0.264583" />
    <path
       id="path5327"
       d="m -167.6507,51.486118 c 2.07551,0 3.16724,1.08318 3.16724,3.14193 0,0.82097 -0.17805,1.22915 -0.8139,1.865 -0.44776,0.44776 -0.97425,0.81391 -1.16944,0.81391 -0.19518,0 -0.51313,0.049 -0.70693,0.10852 -0.56559,0.17358 -1.94318,-0.32078 -2.44791,-0.8785 -0.52052,-0.57516 -0.8792,-1.96568 -0.73898,-2.86546 0.0508,-0.32619 0.45053,-0.95126 0.88832,-1.38906 0.61112,-0.61112 1.03425,-0.79634 1.8216,-0.79634 z"
       style="fill:#000000;stroke-width:0.264583" />
    <path
       id="path5325"
       d="m -208.39653,51.486118 c 2.07551,0 3.16724,1.08318 3.16724,3.14193 0,0.82097 -0.17805,1.22915 -0.8139,1.865 -0.44776,0.44776 -0.97425,0.81391 -1.16944,0.81391 -0.19518,0 -0.51313,0.049 -0.70693,0.10852 -0.1938,0.0595 -0.73201,-0.002 -1.19579,-0.13591 -2.03608,-0.5884 -2.67474,-3.42514 -1.12086,-4.97902 0.62903,-0.62904 1.04728,-0.81443 1.83968,-0.81443 z"
       style="fill:#000000;stroke-width:0.264583" />
    <path
       id="path5323"
       d="m -239.34709,50.956958 c 0.89585,0 1.26328,0.16567 1.99729,0.89968 0.73401,0.73401 0.89968,1.10197 0.89968,1.99782 0,1.46428 -0.57375,2.49404 -1.68206,3.01997 -0.50135,0.2379 -1.19092,0.43254 -1.53273,0.43201 -1.42003,-0.002 -3.13521,-1.74606 -3.13521,-3.1874 0,-0.95151 0.82227,-2.3691 1.61024,-2.77657 0.40972,-0.21188 1.23892,-0.38551 1.84279,-0.38551 z"
       style="fill:#000000;stroke-width:0.264583" />
    <path
       id="path5321"
       d="m -281.23653,50.956958 c 2.65667,0 3.95818,3.17681 2.12235,5.18004 -1.15944,1.26517 -2.58633,1.48072 -3.89898,0.58963 -1.55455,-1.05531 -1.99966,-2.62396 -1.1896,-4.19044 0.50109,-0.96899 1.64685,-1.57923 2.96623,-1.57923 z"
       style="fill:#000000;stroke-width:0.264583" />
    <path
       id="path5319"
       d="m -208.04203,49.680028 c -0.72124,-0.0123 -1.47286,0.15114 -2.21227,0.53227 -3.48234,1.79498 -3.48788,6.59437 -0.01,8.35143 1.37974,0.69702 2.55623,0.75398 3.90932,0.18862 1.31203,-0.5482 1.90189,-1.1126 2.47995,-2.37143 1.51047,-3.28934 -1.04182,-6.64739 -4.16718,-6.70089 z"
       style="fill:#000000;stroke-width:0.264583" />
    <path
       id="path5317"
       d="m -167.43625,49.663528 c -0.6736,0.006 -1.34522,0.19362 -2.08204,0.56585 -2.58037,1.30356 -3.38494,4.41832 -1.7694,6.84972 0.32505,0.4892 1.12128,1.15724 1.7694,1.48466 1.42451,0.71964 2.68796,0.74875 4.12946,0.0941 3.56978,-1.62131 3.59732,-6.7426 0.0455,-8.46202 -0.74394,-0.36014 -1.41928,-0.53776 -2.09289,-0.53226 z"
       style="fill:#000000;stroke-width:0.264583" />
    <path
       id="path5315"
       d="m -281.41223,49.047538 c -1.8473,-0.009 -3.68448,0.92501 -4.53822,2.805 -1.23384,2.717 -0.19299,5.51525 2.53679,6.82129 2.29746,1.0992 5.36118,0.0235 6.47299,-2.27325 0.64483,-1.33202 0.70115,-3.30036 0.12919,-4.50566 -0.89596,-1.88811 -2.75345,-2.83881 -4.60075,-2.84738 z"
       style="fill:#000000;stroke-width:0.264583" />
    <path
       id="path5313"
       d="m -239.53003,49.029438 c -1.75309,0 -3.17238,0.72347 -4.15892,2.11976 -1.8234,2.58075 -0.83794,6.16718 2.06861,7.52771 2.3012,1.07717 5.35745,0.0626 6.48797,-2.15336 0.59034,-1.15716 0.70799,-3.21952 0.2527,-4.42453 -0.68578,-1.81507 -2.5861,-3.06958 -4.65036,-3.06958 z"
       style="fill:#000000;stroke-width:0.264583" />
    <path
       id="path5311"
       d="m -160.30903,46.723628 c 1.22635,0 2.0322,0.53164 2.3983,1.58182 0.23651,0.67845 0.20422,0.83563 -0.21963,1.06247 -0.27359,0.14642 -0.53489,0.25548 -0.58084,0.24236 -1.71409,-0.48961 -1.86449,-0.58664 -2.21899,-1.43506 -0.54767,-1.31078 -0.48764,-1.45159 0.62116,-1.45159 z"
       style="fill:#000000;stroke-width:0.264583" />
    <path
       id="path5309"
       d="m -289.3518,45.722658 c 0.20355,-0.0104 0.41835,0.0242 0.63666,0.108 0.49853,0.19131 0.53621,0.0729 -0.64751,2.02159 -0.50694,0.83456 -0.99807,1.51722 -1.0914,1.51722 -0.33329,0 -0.47021,-1.54199 -0.21808,-2.45515 0.20016,-0.72492 0.70971,-1.16048 1.32033,-1.19166 z"
       style="fill:#000000;stroke-width:0.264583" />
    <path
       id="path5307"
       d="m -185.42378,45.507688 c 0.44522,-0.008 0.86713,0.035 1.07694,0.14727 0.62857,0.33641 0.72954,0.80409 0.17363,0.80409 -0.20638,0 -0.5338,0.0424 -0.7276,0.094 -0.43719,0.11644 -2.07223,-0.3997 -2.07223,-0.65422 0,-0.21959 0.80724,-0.37722 1.54926,-0.39119 z"
       style="fill:#000000;stroke-width:0.264583" />
    <path
       id="path5305"
       d="m -190.83688,45.229148 c 0.95272,-0.0236 2.41485,0.41145 2.10219,0.69763 -0.40496,0.37068 -2.06452,0.50079 -2.67012,0.20929 -0.80924,-0.38951 -0.74788,-0.65951 0.19741,-0.86713 0.10865,-0.0239 0.23441,-0.0364 0.37052,-0.0398 z"
       style="fill:#000000;stroke-width:0.264583" />
    <path
       id="path5303"
       d="m -187.81485,37.463218 1.28106,0.009 c 2.39413,0.0173 5.32043,0.70243 7.04091,1.64848 2.59572,1.42731 5.48442,3.34049 5.48442,3.63233 0,0.14648 -0.24532,0.0208 -0.54518,-0.27905 -0.34475,-0.34475 -0.80681,-0.51498 -1.25677,-0.46302 -0.64009,0.0739 -0.71159,0.18849 -0.71159,1.1405 0,1.05211 0.007,1.05986 1.25677,1.30121 0.69123,0.13353 1.25677,0.34189 1.25677,0.46302 0,0.12113 -0.8632,0.20206 -1.91823,0.17984 -2.22324,-0.0468 -11.42383,-0.50837 -11.47578,-0.57568 -0.0193,-0.025 -0.11998,-1.62305 -0.22376,-3.5512 z"
       style="fill:#000000;stroke-width:0.264583" />
    <path
       id="path5301"
       d="m -202.53332,36.980038 -0.14315,0.83716 c -0.0789,0.4604 -0.28353,1.9975 -0.45475,3.41633 -0.28724,2.3802 -0.35472,2.57662 -0.87385,2.53679 -0.30945,-0.0237 -2.99394,-0.17257 -5.96553,-0.33072 -3.75481,-0.19985 -5.43513,-0.38447 -5.50819,-0.60565 -0.16843,-0.50995 0.83557,-2.53154 1.80661,-3.63751 1.22509,-1.3953 2.29167,-1.7707 5.39295,-1.8991 1.45911,-0.0604 3.34916,-0.1569 4.19975,-0.21394 z"
       style="fill:#000000;stroke-width:0.264583" />
    <path
       id="path5299"
       d="m -201.99692,36.863768 3.34501,0.1633 c 1.83957,0.0897 4.92208,0.16505 6.85023,0.16743 l 3.50572,0.004 v 3.70416 c 0,2.0373 -0.0893,3.68806 -0.19843,3.668 -0.10915,-0.0201 -3.35082,-0.20599 -7.20369,-0.4129 -3.85287,-0.20691 -7.05323,-0.42366 -7.11171,-0.48214 -0.10868,-0.10867 0.39098,-4.67128 0.66249,-6.04924 z"
       style="fill:#000000;stroke-width:0.264583" />
    <path
       id="path5297"
       d="m -200.59908,36.538208 c -8.60452,-5.3e-4 -12.1421,0.0919 -13.55989,0.35398 -1.77707,0.32854 -2.35301,0.64693 -1.61489,0.89297 0.17795,0.0593 -0.11254,0.64305 -0.7028,1.41128 -0.55357,0.72048 -1.34257,2.0452 -1.75286,2.94401 -0.4103,0.89882 -0.86756,1.70941 -1.01648,1.80144 -0.14892,0.092 -0.26348,0.36888 -0.25425,0.61495 0.0121,0.32416 0.0829,0.28302 0.25632,-0.14831 0.19965,-0.49671 0.44126,-0.59531 1.45934,-0.59531 h 1.22008 l -0.19947,0.85989 c -0.1099,0.47294 -0.26836,1.3182 -0.35192,1.87792 -0.13337,0.89338 -0.28119,1.0661 -1.21026,1.41491 -0.58208,0.21853 -1.26669,0.41097 -1.52135,0.42788 -0.25467,0.0169 -0.46303,0.23013 -0.46303,0.47335 0,0.24323 -0.17794,0.78311 -0.39532,1.19993 -0.21738,0.41681 -0.39608,1.4278 -0.39688,2.24689 -0.002,1.38097 0.0514,1.51006 0.72606,1.76992 0.74896,0.28845 4.62253,0.84181 5.89111,0.84181 0.67816,0 0.72283,-0.0796 0.88109,-1.5937 0.31956,-3.05738 1.7471,-4.53036 4.56509,-4.7098 0.9254,-0.0589 2.09799,-0.0292 2.60604,0.0662 1.78156,0.33422 3.31556,2.22073 3.70417,4.55528 l 0.18242,1.09554 1.63556,0.15348 c 0.89939,0.0845 7.52863,0.23313 14.73191,0.33021 7.20328,0.0971 13.15641,0.19002 13.22917,0.20619 0.0728,0.0162 0.20599,-0.57482 0.2961,-1.3131 0.34587,-2.8336 1.69777,-4.39155 4.25762,-4.90564 1.19644,-0.24028 1.72308,-0.21648 2.92282,0.13229 2.41511,0.70209 3.63096,2.55586 3.63441,5.54023 l 0.002,1.27641 2.44739,-0.18242 c 1.34607,-0.1005 2.55025,-0.27775 2.67581,-0.39377 0.33688,-0.31128 -0.0502,-0.78652 -0.64079,-0.78652 -0.28245,0 -0.51366,-0.12655 -0.51366,-0.28164 0,-0.44212 0.56977,-1.4162 0.9648,-1.64951 0.87883,-0.51904 -0.11135,-4.18259 -1.48673,-5.50095 -0.86451,-0.82867 -5.59449,-2.21179 -9.15242,-2.67633 -2.27303,-0.29677 -2.4667,-0.37713 -5.02036,-2.07997 -3.47078,-2.3144 -6.77697,-4.07714 -8.58862,-4.57905 -3.0152,-0.83534 -7.55528,-1.0901 -19.44687,-1.09089 z"
       style="fill:#000000;stroke-width:0.264583" />
    <path
       id="path5295"
       d="m -268.50604,35.671598 c 1.3721,-0.004 1.36426,0.63618 1.36426,3.22667 0,1.74163 -0.11195,2.80481 -0.31729,3.01015 -0.22593,0.22594 -1.85492,0.3173 -5.64772,0.3173 -4.82764,0 -5.37152,-0.0455 -5.76813,-0.48369 -0.55022,-0.608 -0.5636,-1.86418 -0.0284,-2.62827 0.99484,-1.42033 4.61637,-2.812 8.5137,-3.27163 0.81543,-0.0962 1.42624,-0.16917 1.8836,-0.17053 z"
       style="fill:#000000;stroke-width:0.264583" />
    <path
       id="path5293"
       d="m -264.13783,35.617298 c 0.12963,-0.002 0.26799,-10e-4 0.41548,0.003 0.78657,0.0207 1.83553,0.12562 3.23339,0.2651 3.07307,0.30662 5.41674,0.88765 6.12159,1.51825 0.8625,0.77165 2.0818,3.19367 1.99368,3.95997 l -0.0837,0.73019 -6.49107,0.0708 c -4.82652,0.0525 -6.5736,-0.0117 -6.81302,-0.25115 -0.20882,-0.20881 -0.32195,-1.22674 -0.32195,-2.89594 0,-2.59344 0.001,-3.36464 1.94562,-3.39979 z"
       style="fill:#000000;stroke-width:0.264583" />
    <path
       id="path5291"
       d="m -265.68192,33.303228 c -3.76232,-0.009 -7.58228,0.45391 -10.05882,1.27538 -3.69492,1.2256 -7.71725,3.88959 -11.8184,7.82691 -1.84158,1.76802 -2.45105,2.20142 -3.09335,2.20142 -0.43993,0 -0.87331,0.11906 -0.96325,0.26458 -0.0899,0.14552 0.0748,0.26458 0.36587,0.26458 0.29104,0 0.59016,0.0994 0.66508,0.22066 0.0749,0.12121 -0.2456,1.11858 -0.71211,2.2164 l -0.84801,1.99626 -1.24902,0.15142 c -1.90487,0.23095 -2.32285,0.54776 -2.32285,1.76268 0,0.9757 0.0548,1.04733 0.92604,1.21078 0.7514,0.14096 0.92604,0.29281 0.92604,0.80563 0,0.57796 0.1075,0.63181 1.25677,0.62942 1.94569,-0.004 3.78907,-0.98643 4.66949,-2.48873 1.67413,-2.8567 3.85284,-4.38013 6.27145,-4.38527 3.28146,-0.007 5.60989,1.99539 6.43113,5.5299 0.2167,0.93266 0.54905,1.79395 0.73845,1.9141 0.18941,0.12013 6.4374,0.2206 13.88495,0.22272 11.84898,0.004 13.59214,-0.0472 13.94901,-0.40411 0.22431,-0.22431 0.65232,-1.2293 0.95137,-2.23346 0.95194,-3.19643 3.43836,-5.56324 5.83995,-5.55935 2.4103,0.004 4.04666,1.09547 6.23011,4.15531 0.6751,0.94605 1.30359,1.59674 1.39682,1.4459 0.0932,-0.15084 0.70302,-0.31222 1.35547,-0.35863 1.1182,-0.0795 1.18649,-0.12922 1.18649,-0.86507 0,-0.70771 -0.12357,-0.8176 -1.32292,-1.17563 -1.60194,-0.47822 -1.44816,-0.3827 -1.58543,-0.98444 -0.42126,-1.84665 -0.8935,-2.81647 -1.60197,-3.28921 -0.42961,-0.28666 -1.36798,-0.98842 -2.08514,-1.55959 -2.21633,-1.76515 -6.24346,-2.85427 -12.55841,-3.39669 l -2.22054,-0.19121 -1.67431,-2.64583 c -0.92084,-1.45521 -1.7076,-2.73247 -1.74822,-2.83858 -0.15132,-0.39532 -4.25988,-1.24448 -7.4905,-1.54823 -1.18936,-0.11183 -2.43714,-0.16712 -3.69124,-0.17002 z"
       style="fill:#000000;stroke-width:0.264583" />
    <path
       id="path5285"
       d="m -281.14248,2.3134458 c 0.17985,-0.0016 0.366,0.0068 0.55914,0.02532 3.48987,0.33533 4.63236,4.981752 1.67432,6.80992 -1.70412,1.0532032 -4.2291,0.483359 -5.33508,-1.204579 -0.67611,-1.031878 -0.60861,-2.990647 0.13901,-4.040579 0.76098,-1.068692 1.70367,-1.578687 2.96261,-1.590085 z"
       style="fill:#000000;stroke-width:0.264583" />
    <path
       id="path5283"
       d="m -240.92064,2.1465338 c 0.89829,0.02963 1.79367,0.411173 2.4691,1.213879 0.82495,0.9804 1.05707,1.813737 0.85369,3.066994 -0.18132,1.117384 -1.02853,2.120644 -2.21744,2.627231 -1.14219,0.486682 -1.59935,0.459203 -2.88199,-0.175699 -1.45001,-0.717754 -2.07782,-1.893245 -1.89187,-3.542938 0.22777,-2.020834 1.95358,-3.246032 3.66851,-3.189467 z"
       style="fill:#000000;stroke-width:0.264583" />
    <path
       id="path5277"
       d="m -241.07206,0.96619381 c -1.54347,-0.01495 -3.08777,0.67290199 -4.02869,2.06912399 -1.54096,2.286635 -0.89238,5.228826 1.51309,6.862114 0.78676,0.5341912 1.17246,0.6104232 2.66857,0.5286482 1.97976,-0.108209 3.31735,-0.8900612 4.12481,-2.4112222 0.72921,-1.373761 0.6138,-3.58798 -0.2558,-4.902025 -0.936,-1.414394 -2.4785,-2.13169799 -4.02198,-2.14663899 z"
       style="fill:#000000;stroke-width:0.264583" />
    <path
       id="path5275"
       d="m -281.14661,0.91813381 c -0.69541,0.01971 -1.41553,0.19510399 -2.1301,0.55965499 -3.6594,1.866887 -3.60319,7.283307 0.0946,9.1074562 2.04159,1.007142 5.18227,0.165576 6.43268,-1.7239272 2.39701,-3.622125 -0.64194,-8.04955899 -4.39715,-7.94318399 z"
       style="fill:#000000;stroke-width:0.264583" />
    <path
       id="path5269"
       d="m -272.51406,-1.6269328 c 0.3475,0.0044 0.60017,0.0788 0.77669,0.225309 0.371,0.307904 0.36365,0.362781 -0.0749,0.53536801 -0.69161,0.272161 -1.1895,0.229 -1.90582,-0.16536401 -0.6068,-0.334066 -0.59435,-0.347406 0.47232,-0.527616 0.28061,-0.04741 0.52324,-0.07034 0.73174,-0.0677 z"
       style="fill:#000000;stroke-width:0.264583" />
    <path
       id="path5265"
       d="m -256.09388,-3.0180638 c 0.14552,0 0.41261,0.178594 0.59376,0.396875 0.18374,0.221387 0.21219,0.396875 0.0646,0.396875 -0.14552,0 -0.41261,-0.178594 -0.59376,-0.396875 -0.18374,-0.221388 -0.21219,-0.396875 -0.0646,-0.396875 z"
       style="fill:#000000;stroke-width:0.264583" />
    <path
       id="path5261"
       d="m -271.14257,-7.5831588 3.78633,0.113687 3.78633,0.114207 2.24896,1.144114 c 1.23693,0.629248 2.46265,1.292699 2.72387,1.47433 0.4331,0.301151 0.43662,0.345088 0.0377,0.49816 -0.32347,0.124121 -0.40941,0.408636 -0.3297,1.091406 l 0.10749,0.922941 -1.20354,-0.04341 c -13.02505,-0.473924 -13.77126,-0.579662 -13.77126,-1.950781 0,-0.423174 0.46003,-1.130567 1.3069,-2.00918 z"
       style="fill:#000000;stroke-width:0.264583" />
    <path
       id="path5257"
       d="m -268.23784,-8.3097228 c -3.25663,0 -7.12555,0.440767 -7.02954,0.800468 0.0745,0.279191 -3.17199,3.1027 -4.17753,3.633372 -0.58968,0.311206 -2.01814,0.468572 -5.55625,0.611331 -4.44763,0.179456 -4.87098,0.155008 -6.40064,-0.369486 -0.90087,-0.308893 -1.71411,-0.485761 -1.80712,-0.392742 -0.093,0.09302 0.0425,0.491665 0.30075,0.885735 0.45199,0.689819 0.45087,0.730369 -0.0294,1.081588 -0.27439,0.200641 -0.59543,0.364318 -0.71313,0.364318 -0.11771,0 -0.21394,0.573069 -0.21394,1.27330661 0,1.107824 -0.10308,1.349716 -0.79375,1.86035199 -0.97649,0.721947 -1.07915,2.072312 -0.2465,3.241664 0.4569,0.641652 0.47873,0.768427 0.13229,0.768427 -0.29245,0 -0.41496,0.256066 -0.41496,0.867648 v 0.867648 l 2.05259,0.322977 c 1.129,0.177649 2.89883,0.322977 3.93309,0.322977 h 1.88051 l 0.12867,-1.794722 c 0.16118,-2.252633 0.79512,-3.609263 2.14457,-4.586801 2.97915,-2.15808159 7.34996,-1.48980499 9.20926,1.407668 0.76928,1.198827 0.87076,1.580359 0.93069,3.490743 0.037,1.179682 0.0734,2.14457 0.0806,2.14457 h 13.96968 13.95677 l 0.16537,-2.037085 c 0.12401,-1.525881 0.34391,-2.340801 0.87488,-3.246829 1.22839,-2.09609 3.67186,-3.21840799 6.01927,-2.76468999 0.62846,0.12147 1.22763,0.225674 1.3317,0.232029 0.38533,0.02347 2.0994,1.70204099 2.47014,2.41897199 0.2532,0.489648 0.38343,1.56722 0.38343,3.173968 v 2.432926 l 1.75752,-0.16433 c 0.9666,-0.09026 1.82017,-0.226984 1.89704,-0.303858 0.0769,-0.07688 -0.11222,-0.408607 -0.42064,-0.736907 -0.49435,-0.526206 -0.52827,-0.721958 -0.28526,-1.652612 0.52918,-2.026578 0.55978,-2.762871 0.14211,-3.400308 -0.52279,-0.797875 -3.01219,-2.45130699 -4.47208,-2.97036259 -2.85774,-1.01605901 -8.46247,-1.70388301 -13.97951,-1.71565701 l -3.13107,-0.0067 -3.38791,-2.21692 c -1.8633,-1.219155 -3.65377,-2.457 -3.97857,-2.750735 -0.80943,-0.732028 -3.02479,-1.091925 -6.7231,-1.091925 z"
       style="fill:#000000;stroke-width:0.264583" />
    <path
       id="path5255"
       d="m -157.24359,-41.290635 c -0.0401,-0.0061 -0.0675,0.09055 -0.0754,0.283186 -0.0115,0.278913 0.0511,0.435184 0.13901,0.347266 0.0879,-0.08792 0.0976,-0.316468 0.0212,-0.507463 -0.0317,-0.07915 -0.0607,-0.119346 -0.0848,-0.122989 z"
       style="fill:#000000;stroke-width:0.264583" />
    <path
       id="path5253"
       d="m -240.19666,-42.058033 c 2.5367,-0.0726 4.03465,3.1999 1.86501,5.025533 -1.21806,1.024927 -2.67044,0.94071 -3.83336,-0.222207 -0.6658,-0.665806 -0.89945,-1.129925 -0.89865,-1.785938 0.002,-1.328991 0.85041,-2.523268 2.04948,-2.882511 0.28174,-0.08441 0.55511,-0.127365 0.81752,-0.134877 z"
       style="fill:#000000;stroke-width:0.264583" />
    <path
       id="path5251"
       d="m -283.05916,-42.058033 c 2.5367,-0.0726 4.03465,3.1999 1.86501,5.025533 -1.12404,0.945812 -2.59489,0.925341 -3.68712,-0.05064 -1.68593,-1.506508 -1.12646,-4.201533 1.00459,-4.840012 0.28174,-0.08441 0.55511,-0.127365 0.81752,-0.134877 z"
       style="fill:#000000;stroke-width:0.264583" />
    <path
       id="path5249"
       d="m -232.69065,-43.121533 c 0.1243,-0.007 0.20928,0.245504 0.20928,0.649573 0,0.436562 -0.11906,0.867108 -0.26458,0.957045 -0.15393,0.09513 -0.26458,-0.168142 -0.26458,-0.629935 0,-0.436563 0.11906,-0.867627 0.26458,-0.957565 0.0192,-0.01188 0.0375,-0.01812 0.0553,-0.01913 z"
       style="fill:#000000;stroke-width:0.264583" />
    <path
       id="path5247"
       d="m -283.00179,-43.789193 c -0.77344,-0.0046 -1.54277,0.119319 -2.02986,0.37362 -3.55433,1.855666 -3.54859,6.794704 0.01,8.410856 1.42025,0.645041 2.63709,0.626732 4.05557,-0.05994 1.24832,-0.604301 2.28871,-1.947318 2.57142,-3.319177 0.36411,-1.766858 -0.83534,-4.119036 -2.55333,-5.007446 -0.503,-0.260117 -1.28019,-0.393369 -2.05362,-0.397909 z"
       style="fill:#000000;stroke-width:0.264583" />
    <path
       id="path5245"
       d="m -240.17599,-43.824853 c -4.96326,-5e-6 -6.48663,6.774836 -1.98334,8.820132 1.41509,0.642699 2.63658,0.627541 4.03645,-0.05013 4.40199,-2.130964 2.84775,-8.770008 -2.05311,-8.770006 z"
       style="fill:#000000;stroke-width:0.264583" />
    <path
       id="path5243"
       d="m -167.76388,-44.292008 c 4.1303,-0.003 5.85402,5.090339 2.57039,7.594885 -1.23702,0.94352 -3.03633,1.08503 -4.44934,0.350366 -1.27269,-0.661704 -1.89453,-1.463646 -2.19263,-2.827218 -0.61322,-2.805073 1.22509,-5.115917 4.07158,-5.118033 z"
       style="fill:#000000;stroke-width:0.264583" />
    <path
       id="path5241"
       d="m -212.50533,-44.293008 c 2.15666,0 3.94322,1.468789 4.2752,3.514515 0.22445,1.383144 -0.52002,3.1979 -1.67226,4.076753 -1.90156,1.450396 -4.91059,0.936517 -6.13709,-1.047999 -0.87963,-1.423265 -0.9614,-2.77627 -0.25115,-4.159435 0.83479,-1.625677 2.03819,-2.383834 3.7853,-2.383834 z"
       style="fill:#000000;stroke-width:0.264583" />
    <path
       id="path5239"
       d="m -167.89875,-45.634529 c -2.60256,0.06824 -5.04129,1.955346 -5.26273,5.016749 -0.0621,0.858457 0.0224,1.970183 0.18759,2.47065 0.38458,1.165294 1.71532,2.532018 3.06647,3.149161 2.0441,0.933646 4.41152,0.459507 6.09059,-1.219562 2.11052,-2.110518 2.25294,-5.253951 0.33641,-7.436755 -1.23586,-1.407575 -2.8568,-2.021189 -4.41833,-1.980243 z"
       style="fill:#000000;stroke-width:0.264583" />
    <path
       id="path5237"
       d="m -212.57716,-45.639229 c -0.70463,0.0044 -1.42127,0.142927 -2.11563,0.433049 -4.29573,1.79487 -4.47467,7.924885 -0.29197,10.009209 0.76595,0.381688 1.82775,0.693496 2.35954,0.693496 3.68861,0 6.39325,-3.338052 5.55057,-6.850742 -0.6252,-2.606127 -2.98597,-4.300733 -5.50251,-4.285012 z"
       style="fill:#000000;stroke-width:0.264583" />
    <path
       id="path5235"
       d="m -257.72427,-48.940836 c 0.36315,9.26e-4 0.72481,0.05548 0.95137,0.176733 0.46442,0.248555 0.5155,0.356103 0.21393,0.450102 -0.21789,0.06792 -0.51542,0.206179 -0.66094,0.307475 -0.29578,0.205895 -1.71979,-0.249371 -1.71979,-0.549838 0,-0.238301 0.61019,-0.385995 1.21543,-0.384472 z"
       style="fill:#000000;stroke-width:0.264583" />
    <path
       id="path5233"
       d="m -269.51631,-48.991996 c 0.31107,-0.01109 0.50464,0.07056 0.68884,0.254765 0.33302,0.333015 0.3047,0.415657 -0.22272,0.644405 -0.4425,0.191913 -0.81842,0.155107 -1.39888,-0.136942 l -0.79375,-0.399459 1.01699,-0.244947 c 0.29415,-0.07091 0.52287,-0.111166 0.70952,-0.117822 z"
       style="fill:#000000;stroke-width:0.264583" />
    <path
       id="path5231"
       d="m -162.37868,-49.813135 c 0.19617,9.26e-4 0.53226,0.189396 1.09089,0.565857 1.02614,0.691515 2.096,2.159762 2.096,2.876827 0,0.630005 -0.44695,0.618925 -1.52394,-0.03772 -0.99006,-0.60365 -1.91329,-1.975945 -1.91461,-2.845821 -5.3e-4,-0.373845 0.0555,-0.560059 0.25166,-0.55914 z"
       style="fill:#000000;stroke-width:0.264583" />
    <path
       id="path5229"
       d="m -196.87579,-50.628072 c 0.4171,-0.02143 0.96899,0.146779 1.39423,0.473873 l 0.62012,0.476973 -0.67696,0.442867 c -0.83859,0.549466 -1.58625,0.566704 -2.01797,0.04651 -0.18116,-0.218281 -0.55308,-0.396875 -0.8263,-0.396875 -0.27323,0 -0.49662,-0.119062 -0.49662,-0.264583 0,-0.145521 0.29075,-0.264583 0.64596,-0.264583 0.35521,0 0.71932,-0.119063 0.80925,-0.264584 0.0963,-0.155746 0.29803,-0.236736 0.54829,-0.249598 z"
       style="fill:#000000;stroke-width:0.264583" />
    <path
       id="path5227"
       d="m -248.268,-51.564965 c 0.0846,-0.03104 0.25007,0.0736 0.57309,0.285253 0.3638,0.238372 0.66146,0.657422 0.66146,0.931726 0,0.42095 -0.19602,0.496297 -1.25677,0.482142 -1.02109,-0.01363 -1.14513,-0.06139 -0.66146,-0.255799 0.39962,-0.160626 0.59531,-0.461872 0.59531,-0.915706 0,-0.330171 0.004,-0.496576 0.0884,-0.527616 z"
       style="fill:#000000;stroke-width:0.264583" />
    <path
       id="path5225"
       d="m -260.074,-55.96263 1.2945,0.137976 c 0.71211,0.07601 2.04162,0.2076 2.95434,0.292489 2.12938,0.198046 3.41457,0.660535 5.29115,1.90376 1.2745,0.844349 1.41835,1.014419 0.91829,1.085721 -0.51226,0.07304 -0.59273,0.244063 -0.59273,1.256771 v 1.172022 l -3.24115,-0.04858 c -1.78263,-0.02692 -3.85218,-0.09237 -4.59868,-0.145211 -1.53545,-0.108683 -1.44997,0.06988 -1.84485,-3.855062 z"
       style="fill:#000000;stroke-width:0.264583" />
    <path
       id="path5223"
       d="m -261.13388,-55.96833 0.16846,1.406116 c 0.0929,0.773303 0.17025,2.030677 0.17157,2.794661 h -5.3e-4 l 0.003,1.389063 -1.12448,-0.03979 c -0.61846,-0.02215 -2.77471,-0.129204 -4.79195,-0.237712 -4.56682,-0.245658 -4.63854,-0.293415 -4.20956,-2.797762 0.16557,-0.966639 0.43367,-1.890571 0.59582,-2.053105 0.18662,-0.187063 1.92669,-0.325677 4.74132,-0.378271 z"
       style="fill:#000000;stroke-width:0.264583" />
    <path
       id="path5221"
       d="m -265.59252,-56.6887 c -1.22919,0.0038 -2.40085,0.0301 -3.42563,0.08165 l -3.86023,0.194303 -0.44855,0.759127 c -0.24673,0.417677 -0.66919,1.626721 -0.93845,2.686658 l -0.48937,1.927014 h -10.14564 c -9.45179,0 -10.15209,0.03167 -10.23606,0.463021 -0.0772,0.39637 0.12207,0.463021 1.38441,0.463021 1.36951,0 1.47484,0.04425 1.47484,0.619084 0,0.370466 -0.37176,0.957545 -0.92604,1.461926 -0.71908,0.654351 -0.92604,1.048066 -0.92604,1.762166 0,0.804545 -0.0828,0.919324 -0.66146,0.919324 -0.55682,0 -0.66146,0.124098 -0.66146,0.784448 0,0.518171 -0.18277,0.882439 -0.53847,1.072804 -0.45114,0.241443 -0.50924,0.446773 -0.35863,1.266071 0.0989,0.537845 0.29823,1.05519 0.44338,1.149284 0.30383,0.19695 5.40761,1.019323 6.32365,1.019058 0.54331,-1.9e-4 0.62051,-0.141435 0.68678,-1.25677 0.14341,-2.413723 1.04839,-3.890149 2.78691,-4.547009 1.06609,-0.402796 4.79695,-0.349874 5.8322,0.08268 1.67523,0.699955 3.08043,3.121904 3.08043,5.309235 0,0.372124 0.0893,0.693201 0.19844,0.713653 0.10914,0.02045 5.19906,0.116496 11.31094,0.213424 6.11187,0.09693 13.04115,0.19976 15.39854,0.227893 l 4.28604,0.05064 0.31265,-1.5875 c 0.62979,-3.201182 2.4088,-4.763757 5.42034,-4.760926 2.09591,0.002 3.38062,0.39158 4.48138,1.358058 0.98974,0.869008 1.45024,2.09491 1.45262,3.865911 8e-4,0.618464 0.0647,1.124479 0.14211,1.124479 0.52664,0 1.98352,-0.842174 2.21951,-1.283126 0.15723,-0.293793 0.28576,-1.195832 0.28576,-2.004528 0,-1.183817 -0.10312,-1.534337 -0.52916,-1.800406 -0.32792,-0.204793 -0.5369,-0.633628 -0.54984,-1.127063 -0.0115,-0.437938 -0.0811,-0.647506 -0.15451,-0.465605 -0.0734,0.181901 -0.2422,0.33073 -0.37517,0.33073 -0.32477,0 -2.36007,-1.851635 -2.36007,-2.147156 0,-0.128588 0.55053,-0.234094 1.22319,-0.234094 1.07729,0 1.18187,-0.04881 0.88056,-0.411862 -0.81544,-0.982543 -4.4924,-1.894796 -8.64856,-2.145605 l -2.84789,-0.172083 -2.33629,-1.673799 c -3.18136,-2.279468 -5.6976,-3.471898 -7.99538,-3.788916 -2.31807,-0.31982 -6.52423,-0.51065 -10.21178,-0.499195 z"
       style="fill:#000000;stroke-width:0.264583" />
    <path
       id="path5219"
       d="m -198.08554,-58.580574 h 6.34174 6.34224 l 2.3735,2.722315 c 1.30541,1.497271 2.62697,3.045084 2.93729,3.439583 l 0.56431,0.717269 h -0.7581 c -0.62644,0 -0.80216,-0.148726 -1.01131,-0.856796 -0.47772,-1.617323 -3.03134,-1.651684 -3.03134,-0.04082 v 0.700733 l -6.15155,-0.178284 c -3.38336,-0.09799 -6.47899,-0.241755 -6.87917,-0.31936 l -0.72761,-0.141077 v -3.021521 z"
       style="fill:#000000;stroke-width:0.264583" />
    <path
       id="path5217"
       d="m -198.6147,-58.590374 v 1.023711 c 0,0.562858 0.0769,1.933998 0.17105,3.047359 l 0.17105,2.024166 -2.75074,-0.03979 c -3.45715,-0.05049 -12.44867,-0.440534 -12.54704,-0.544153 -0.0405,-0.04261 0.61634,-1.268139 1.45935,-2.723348 l 1.53272,-2.645833 5.98155,-0.0708 z"
       style="fill:#000000;stroke-width:0.264583" />
    <path
       id="path8516"
       d="m -197.42408,-60.035763 c -12.63416,0 -13.55695,0.03176 -14.48593,0.49351 -0.9513,0.472842 -1.3098,0.961698 -0.70487,0.961698 0.15811,0 -0.0907,0.506016 -0.55345,1.124479 -0.46272,0.618464 -1.31755,1.86862 -1.89911,2.778125 -0.6668,1.042803 -1.23661,1.653646 -1.54255,1.653646 -0.81702,0 -2.08253,1.285815 -2.39003,2.427759 -0.37616,1.396934 -0.16546,1.590626 0.24391,0.224276 0.35143,-1.172967 1.25574,-1.897869 1.51722,-1.216464 0.0843,0.219755 -0.13876,1.266648 -0.49557,2.326473 -0.46989,1.395696 -0.7684,1.916425 -1.08314,1.889808 -0.239,-0.02021 -0.4346,0.06515 -0.4346,0.189652 0,0.1245 -0.43134,0.657679 -0.9586,1.184941 l -0.9586,0.959114 0.12764,2.02675 c 0.15276,2.422215 0.57942,3.48144 1.40147,3.48144 0.48292,0 0.61635,-0.194402 0.76326,-1.11311 0.58238,-3.642017 3.00423,-6.026668 6.10712,-6.013069 3.69365,0.0162 6.07546,2.358486 6.82026,6.706568 l 0.29868,1.742528 4.51033,0.03772 c 2.48067,0.02048 8.02266,0.116594 12.31552,0.213942 4.29286,0.09735 9.2371,0.199668 10.98692,0.227375 l 3.1812,0.05013 0.31781,-1.99781 c 0.39831,-2.503395 1.04026,-3.946126 2.31356,-5.201749 2.58053,-2.544726 7.16312,-2.322623 9.27799,0.450102 0.92398,1.211411 1.70377,3.571412 1.70377,5.155758 0,0.870382 0.11421,1.340467 0.33073,1.361157 0.56453,0.05392 3.50108,-0.07975 3.58893,-0.163298 0.0458,-0.04353 0.006,-0.493009 -0.0894,-0.998905 -0.11884,-0.633434 -0.30949,-0.909416 -0.61237,-0.886767 -0.82057,0.06134 -0.73219,-2.526022 0.0971,-2.844271 0.26626,-0.102174 0.49239,0.0497 0.64699,0.434081 0.18818,0.467902 0.24148,0.308512 0.25476,-0.765845 0.0133,-1.072195 -0.0948,-1.43293 -0.51366,-1.719791 -0.32728,-0.224126 -0.61926,-0.851449 -0.76326,-1.639693 -0.29098,-1.592729 -1.16393,-2.541102 -3.30885,-3.594096 -2.48729,-1.221076 -11.43472,-2.542478 -13.06225,-1.929082 -0.39813,0.150054 -1.1407,0.349217 -1.65003,0.442351 -0.90912,0.166237 -0.98735,0.104903 -4.27932,-3.351217 l -3.35328,-3.520715 1.10432,-0.236161 1.10432,-0.236679 -1.19062,-0.557071 c -1.16181,-0.543765 -1.51715,-0.55759 -14.68437,-0.55759 z"
       style="fill:#000000;stroke-width:0.264583" />
    <g
       id="g5570">
      <path
         d="m -32.21969,15.379799 c -2.402031,-0.01092 -4.45348,0.184362 -3.913457,0.515214 0.142779,0.08747 -0.767308,0.705338 -2.509407,1.702738 l -2.733683,1.564763 -1.497066,-0.123507 c -2.86456,-0.23654 -9.214941,0.881252 -11.505758,2.0252 -0.57542,0.287343 -1.169819,0.755365 -1.420068,1.118277 -0.386485,0.560501 -0.419882,0.755002 -0.325562,1.90531 0.08248,1.005986 0.0477,1.328456 -0.162264,1.501201 -0.147059,0.120981 -0.267684,0.40772 -0.267684,0.637687 0,0.475384 0.199682,0.527951 2.658236,0.697632 l 1.482597,0.102319 -0.0186,-1.419551 c -0.03188,-2.433732 0.90429,-3.70912 3.044775,-4.149618 1.444148,-0.297194 2.595014,0.01303 3.596163,0.968933 0.900887,0.860181 1.170622,1.639682 1.172022,3.383256 l 0.0016,1.210262 h 9.675895 c 5.321613,0 9.676994,-0.02031 9.678994,-0.04496 0.0019,-0.02465 0.02943,-0.66618 0.06149,-1.425753 0.104516,-2.478001 1.325743,-3.997146 3.38119,-4.205945 1.419667,-0.144214 2.461702,0.191095 3.359486,1.081071 0.910529,0.902608 1.2377,1.916887 1.063501,3.299024 l -0.121957,0.964282 0.783415,-0.118339 c 0.430816,-0.06496 1.3071,-0.211761 1.947167,-0.326595 l 1.163753,-0.20929 0.344681,-0.985986 c 0.519187,-1.485696 0.376608,-3.290519 -0.39584,-5.019849 -0.330335,-0.739529 -0.718016,-1.47711 -0.861963,-1.639693 -0.231735,-0.261747 -0.214656,-0.328739 0.151411,-0.58291 0.39638,-0.27523 0.36268,-0.287321 -0.819587,-0.287321 -0.960826,0 -1.350155,0.08273 -1.763717,0.374654 -0.667491,0.471159 -1.741663,0.360924 -3.538803,-0.363802 -1.678656,-0.676943 -5.219935,-1.570705 -7.492058,-1.890841 -1.209801,-0.170456 -2.777645,-0.251265 -4.218864,-0.257865 z m -1.785938,0.529167 c 0.211078,-0.0012 0.452055,0.01686 0.771529,0.04186 6.718205,0.525575 7.53309,0.686642 8.509559,1.677933 0.387757,0.393648 0.599286,0.736702 0.493508,0.801502 -0.101785,0.06236 -1.220226,0.165376 -2.485117,0.228926 l -2.300118,0.115756 0.105418,-0.432532 c 0.05777,-0.237822 0.151349,-0.754868 0.20774,-1.149284 0.07699,-0.538149 0.02395,-0.449581 -0.213424,0.353984 -0.307149,1.039804 -0.337777,1.073895 -1.040246,1.18649 -0.397882,0.06377 -2.122115,0.162672 -3.831808,0.220142 l -3.108854,0.104903 -0.05581,-0.466638 c -0.03102,-0.256526 -0.185082,-0.545991 -0.342098,-0.643372 -0.405771,-0.251658 -1.326935,0.218812 -1.398365,0.714169 -0.03099,0.214873 -0.193782,0.426842 -0.361735,0.470772 -0.521665,0.136448 -1.119311,0.127805 -1.119311,-0.01602 0,-0.222026 1.756235,-1.301334 3.775997,-2.320272 1.397151,-0.704842 1.759902,-0.884618 2.393135,-0.888319 z"
         style="fill:#000314;fill-opacity:1;stroke-width:0.264583"
         id="path5475" />
      <path
         id="path5477"
         d="m -21.059552,22.533932 c -0.634355,-0.02841 -1.279419,0.197678 -1.836793,0.682804 -1.380698,1.201717 -1.227133,3.178906 0.319317,4.11363 1.223539,0.739549 3.033576,0.282098 3.663699,-0.925813 0.462046,-0.885722 0.281879,-2.348801 -0.37266,-3.026045 -0.51528,-0.533158 -1.139211,-0.81617 -1.773563,-0.844576 z"
         style="fill:#000000;stroke-width:0.264583" />
      <path
         id="path5479"
         d="m -48.385044,22.513272 c -0.368826,0.01097 -0.759674,0.107425 -1.160713,0.310238 -1.845682,0.933403 -1.933991,3.434178 -0.159307,4.506856 0.750934,0.453888 2.036612,0.458894 2.722694,0.01051 2.323547,-1.518555 0.989707,-4.746632 -1.24584,-4.827247 -0.05175,-0.0019 -0.104145,-0.0019 -0.156834,-3.57e-4 z"
         style="fill:#000000;stroke-width:0.264583" />
      <path
         id="path5481"
         d="m -21.280679,21.805271 c 0.05782,-0.0013 0.115779,-7.45e-4 0.173442,0.0011 1.537612,0.04792 2.991565,1.148746 3.139853,2.92135 0.04436,0.530654 0.02918,1.168526 -0.03391,1.41778 -0.155869,0.615627 -1.156532,1.714558 -1.824078,2.002892 -0.300252,0.129692 -0.935767,0.238802 -1.412209,0.242656 -2.881639,0.02334 -4.378908,-3.289342 -2.463776,-5.451574 0.673944,-0.760903 1.55321,-1.116398 2.420678,-1.134154 z"
         style="fill:#000314;fill-opacity:1;stroke-width:0.264583" />
      <path
         id="path5483"
         d="m -48.346543,21.804187 c 0.150956,0.0014 0.304125,0.01393 0.458846,0.03817 2.650335,0.415044 3.780791,3.616252 1.959012,5.546817 -0.267214,0.283168 -0.729842,0.622899 -1.02825,0.754936 -0.791738,0.350324 -2.163334,0.310511 -2.945938,-0.08544 -0.828803,-0.419322 -1.20938,-0.826664 -1.568338,-1.678297 -0.907555,-2.153177 0.860357,-4.598365 3.124668,-4.576185 z"
         style="fill:#000314;fill-opacity:1;stroke-width:0.264583" />
      <path
         id="path5485"
         d="m -42.194692,20.702597 c -0.862095,-0.01773 -1.236417,0.133863 -1.231714,0.498622 0.002,0.162006 0.551433,1.101238 1.220763,2.087276 v 3.6e-4 l 1.216874,1.792797 4.973473,0.01751 4.973473,0.01751 -4.611763,-0.159672 c -2.536471,-0.08784 -4.699003,-0.18842 -4.805691,-0.223749 -0.298352,-0.0988 -2.481219,-3.334148 -2.343322,-3.473195 0.06685,-0.06741 0.380425,-0.217593 0.696563,-0.333347 l 0.574707,-0.210444 z"
         style="fill:#888493;fill-opacity:1;stroke-width:0.264583" />
      <path
         id="path5487"
         d="m -50.655251,20.334231 c -1.145986,-0.007 -3.593955,0.857904 -4.317879,1.525278 -0.547589,0.504812 -0.601045,0.610537 -0.303071,0.599816 0.547672,-0.01971 1.000123,-0.195903 1.945235,-0.757035 0.473145,-0.280918 1.409066,-0.702695 2.079815,-0.937368 1.07141,-0.374849 1.143798,-0.427374 0.5959,-0.430691 z"
         style="fill:#e4e3e6;fill-opacity:1;stroke-width:0.264583" />
      <path
         id="path5489"
         d="m -14.633597,18.941661 c -0.173777,0.0101 -0.130392,0.386995 0.133516,0.971333 0.357246,0.790969 0.640595,1.064062 0.814549,0.785048 0.117111,-0.187831 -0.506743,-1.52743 -0.792996,-1.702806 -0.06316,-0.0387 -0.114973,-0.0559 -0.155069,-0.05358 z"
         style="fill:#000000;stroke-width:0.264583" />
      <path
         style="fill:#e4e3e6;fill-opacity:1;stroke-width:0.264583"
         d="m -21.257992,22.269306 c 0.04911,-0.0011 0.09834,-6.33e-4 0.147317,9.34e-4 1.30601,0.0407 2.54096,0.975716 2.666913,2.481322 0.03768,0.450724 0.02478,0.992516 -0.0288,1.204226 -0.132391,0.522898 -0.98233,1.456303 -1.549325,1.701207 -0.255027,0.110157 -0.794818,0.202832 -1.199497,0.206105 -2.447591,0.01983 -3.719333,-2.793884 -2.092669,-4.63043 0.572431,-0.646292 1.319257,-0.94824 2.056063,-0.963322 z"
         id="path5491" />
      <path
         style="fill:#e4e3e6;fill-opacity:1;stroke-width:0.264583"
         d="m -48.385044,22.248689 c 0.128217,0.0012 0.258316,0.01183 0.389732,0.03242 2.251128,0.352528 3.211309,3.071553 1.663936,4.711327 -0.226965,0.240516 -0.61991,0.529075 -0.87337,0.641224 -0.672483,0.297556 -1.837482,0.26374 -2.502206,-0.07257 -0.703965,-0.356162 -1.027217,-0.702148 -1.332107,-1.425503 -0.770855,-1.828855 0.730766,-3.905736 2.654015,-3.886898 z"
         id="path5493" />
      <path
         id="path5495"
         d="m -21.25799,23.0631 c 0.03523,-7.89e-4 0.07053,-4.54e-4 0.105664,6.7e-4 0.936745,0.02919 1.822522,0.699839 1.912863,1.779746 0.02703,0.323285 0.01777,0.711889 -0.02066,0.863739 -0.09496,0.375053 -0.704584,1.044544 -1.111265,1.220203 -0.18292,0.07901 -0.570089,0.145483 -0.860348,0.14783 -1.755552,0.01422 -2.667718,-2.003933 -1.500981,-3.321209 0.41058,-0.463557 0.946246,-0.680131 1.474725,-0.690949 z"
         style="fill:#9c9b9c;fill-opacity:1;stroke-width:0.264583" />
      <path
         id="path5497"
         d="m -48.385044,23.042443 c 0.09197,8.61e-4 0.185279,0.0085 0.279538,0.02325 1.614638,0.252853 2.303334,2.203093 1.19347,3.379232 -0.162792,0.172512 -0.444635,0.379483 -0.626431,0.459923 -0.482343,0.213424 -1.317947,0.189169 -1.794725,-0.05205 -0.504924,-0.25546 -0.736779,-0.503621 -0.955463,-1.022453 -0.552901,-1.311759 0.524147,-2.801417 1.903611,-2.787905 z"
         style="fill:#9c9b9c;fill-opacity:1;stroke-width:0.264583" />
      <path
         id="path5499"
         d="m -40.115088,19.138687 c 0,-0.222861 1.533795,-1.177822 3.538802,-2.203306 1.602075,-0.8194 2.043734,-0.984821 2.629374,-0.984821 0.411475,0 3.687312,0.26288 4.977397,0.399428 1.736116,0.183757 2.850433,0.410193 3.407314,0.692386 0.374862,0.189957 0.996569,0.74524 1.196404,1.068576 0.150728,0.243882 0.109072,0.349525 -0.138875,0.352194 -0.05457,5.82e-4 -0.411757,0.02953 -0.79375,0.06432 -0.987028,0.08989 -3.575116,0.22003 -3.613443,0.181703 -0.01767,-0.01768 0.02909,-0.349455 0.103931,-0.737276 0.07484,-0.387821 0.133834,-0.815239 0.131095,-0.949818 -0.0044,-0.21494 -0.0284,-0.176333 -0.197633,0.31755 -0.355507,1.037523 -0.397004,1.123308 -0.59224,1.224269 -0.335018,0.173244 -2.275523,0.309641 -5.759558,0.404836 l -1.626545,0.04444 -0.07852,-0.399123 c -0.103466,-0.525907 -0.300765,-0.745257 -0.670335,-0.745257 -0.491534,0 -1.010664,0.371541 -1.128005,0.807313 -0.03879,0.144057 -0.138858,0.298006 -0.234392,0.360603 -0.19712,0.129158 -1.151018,0.213675 -1.151018,0.101982 z"
         style="fill:#b5afc9;fill-opacity:0.315789;stroke-width:0.0999998;stroke-linecap:round;stroke-linejoin:round" />
    </g>
    <path
       d="m -32.21969,41.440386 c -2.402031,0.01095 -4.45348,-0.184899 -3.913457,-0.516713 0.142779,-0.08772 -0.767308,-0.70739 -2.509407,-1.70769 l -2.733683,-1.569314 -1.497066,0.123866 c -2.86456,0.237228 -9.214941,-0.883814 -11.505758,-2.031089 -0.57542,-0.28818 -1.169819,-0.757562 -1.420068,-1.12153 -0.386485,-0.562131 -0.419882,-0.757198 -0.325562,-1.910852 0.08248,-1.008912 0.0477,-1.332319 -0.162264,-1.505566 -0.147059,-0.121333 -0.267684,-0.408906 -0.267684,-0.639542 0,-0.476767 0.199682,-0.529486 2.658236,-0.699661 l 1.482597,-0.102617 -0.0186,1.42368 c -0.03188,2.44081 0.90429,3.719907 3.044775,4.161686 1.444148,0.298059 2.595014,-0.01307 3.596163,-0.971751 0.900887,-0.862682 1.170622,-1.644451 1.172022,-3.393096 l 0.0016,-1.213781 h 9.675895 c 5.321613,0 9.676994,0.02037 9.678994,0.04509 0.0019,0.02472 0.02943,0.668117 0.06149,1.429899 0.104516,2.485208 1.325743,4.008771 3.38119,4.218178 1.419667,0.144633 2.461702,-0.191651 3.359486,-1.084216 0.910529,-0.905233 1.2377,-1.922461 1.063501,-3.308618 l -0.121957,-0.967087 0.783415,0.118683 c 0.430816,0.06515 1.3071,0.212377 1.947167,0.327546 l 1.163753,0.209898 0.344681,0.988854 c 0.519187,1.490017 0.376608,3.300088 -0.39584,5.034448 -0.330335,0.74168 -0.718016,1.481406 -0.861963,1.644462 -0.231735,0.262508 -0.214656,0.329695 0.151411,0.584605 0.39638,0.276031 0.36268,0.288157 -0.819587,0.288157 -0.960826,0 -1.350155,-0.08298 -1.763717,-0.375744 -0.667491,-0.472529 -1.741663,-0.361973 -3.538803,0.36486 -1.678656,0.678912 -5.219935,1.575273 -7.492058,1.89634 -1.209801,0.170952 -2.777645,0.251997 -4.218864,0.258616 z m -1.785938,-0.530706 c 0.211078,0.0012 0.452055,-0.01691 0.771529,-0.04198 6.718205,-0.527103 7.53309,-0.688639 8.509559,-1.682813 0.387757,-0.394793 0.599286,-0.738844 0.493508,-0.803833 -0.101785,-0.06254 -1.220226,-0.165857 -2.485117,-0.229592 l -2.300118,-0.116092 0.105418,0.433789 c 0.05777,0.238514 0.151349,0.757064 0.20774,1.152627 0.07699,0.539714 0.02395,0.450889 -0.213424,-0.355013 -0.307149,-1.042828 -0.337777,-1.077019 -1.040246,-1.189942 -0.397882,-0.06396 -2.122115,-0.163145 -3.831808,-0.220782 l -3.108854,-0.105208 -0.05581,0.467995 c -0.03102,0.257272 -0.185082,0.54758 -0.342098,0.645243 -0.405771,0.25239 -1.326935,-0.219448 -1.398365,-0.716245 -0.03099,-0.215498 -0.193782,-0.428084 -0.361735,-0.472142 -0.521665,-0.136845 -1.119311,-0.128177 -1.119311,0.01607 0,0.222672 1.756235,1.305119 3.775997,2.32702 1.397151,0.706892 1.759902,0.887191 2.393135,0.890902 z"
       style="fill:#b5afc9;fill-opacity:1;stroke-width:0.264583"
       id="path5516" />
    <path
       id="path5518"
       d="m -21.059552,34.265446 c -0.634355,0.02849 -1.279419,-0.198253 -1.836793,-0.68479 -1.380698,-1.205212 -1.227133,-3.188151 0.319317,-4.125594 1.223539,-0.7417 3.033576,-0.282918 3.663699,0.928506 0.462046,0.888298 0.281879,2.355632 -0.37266,3.034846 -0.51528,0.534708 -1.139211,0.818543 -1.773563,0.847032 z"
       style="fill:#000000;stroke-width:0.264583" />
    <path
       id="path5520"
       d="m -48.385044,34.286166 c -0.368826,-0.011 -0.759674,-0.107737 -1.160713,-0.31114 -1.845682,-0.936118 -1.933991,-3.444166 -0.159307,-4.519964 0.750934,-0.455208 2.036612,-0.460229 2.722694,-0.01054 2.323547,1.522972 0.989707,4.760438 -1.24584,4.841287 -0.05175,0.0019 -0.104145,0.0019 -0.156834,3.57e-4 z"
       style="fill:#000000;stroke-width:0.264583" />
    <path
       id="path5522"
       d="m -21.280679,34.996226 c 0.05782,0.0013 0.115779,7.47e-4 0.173442,-0.0011 1.537612,-0.04806 2.991565,-1.152087 3.139853,-2.929846 0.04436,-0.532198 0.02918,-1.171925 -0.03391,-1.421904 -0.155869,-0.617417 -1.156532,-1.719545 -1.824078,-2.008717 -0.300252,-0.130069 -0.935767,-0.239497 -1.412209,-0.243362 -2.881639,-0.02341 -4.378908,3.298909 -2.463776,5.46743 0.673944,0.763116 1.55321,1.119644 2.420678,1.137452 z"
       style="fill:#b5afc9;fill-opacity:1;stroke-width:0.264583" />
    <path
       id="path5524"
       d="m -48.346543,34.997313 c 0.150956,-0.0014 0.304125,-0.01397 0.458846,-0.03828 2.650335,-0.416251 3.780791,-3.626769 1.959012,-5.562949 -0.267214,-0.283992 -0.729842,-0.624711 -1.02825,-0.757132 -0.791738,-0.351343 -2.163334,-0.311414 -2.945938,0.08569 -0.828803,0.420541 -1.20938,0.829068 -1.568338,1.683178 -0.907555,2.159439 0.860357,4.611739 3.124668,4.589494 z"
       style="fill:#b5afc9;fill-opacity:1;stroke-width:0.264583" />
    <path
       id="path5526"
       d="m -42.194692,36.102107 c -0.862095,0.01778 -1.236417,-0.134252 -1.231714,-0.500072 0.002,-0.162477 0.551433,-1.104441 1.220763,-2.093347 v -3.61e-4 l 1.216874,-1.798011 4.973473,-0.01756 4.973473,-0.01756 -4.611763,0.160137 c -2.536471,0.08809 -4.699003,0.188968 -4.805691,0.224399 -0.298352,0.09909 -2.481219,3.343846 -2.343322,3.483297 0.06685,0.06761 0.380425,0.218226 0.696563,0.334316 l 0.574707,0.211056 z"
       style="fill:#e4e4e4;fill-opacity:1;stroke-width:0.264583" />
    <path
       id="path5528"
       d="m -50.655251,36.471545 c -1.145986,0.007 -3.593955,-0.8604 -4.317879,-1.529715 -0.547589,-0.50628 -0.601045,-0.612312 -0.303071,-0.60156 0.547672,0.01977 1.000123,0.196473 1.945235,0.759237 0.473145,0.281735 1.409066,0.704738 2.079815,0.940094 1.07141,0.375939 1.143798,0.428617 0.5959,0.431944 z"
       style="fill:#e4e3e6;fill-opacity:1;stroke-width:0.264583" />
    <path
       id="path5530"
       d="m -14.633597,37.868165 c -0.173777,-0.01013 -0.130392,-0.388121 0.133516,-0.974158 0.357246,-0.79327 0.640595,-1.067157 0.814549,-0.787332 0.117111,0.188378 -0.506743,1.531873 -0.792996,1.707759 -0.06316,0.03881 -0.114973,0.05606 -0.155069,0.05374 z"
       style="fill:#000000;stroke-width:0.264583" />
    <path
       style="fill:#ebe9ee;fill-opacity:1;stroke-width:0.264583"
       d="m -21.257992,34.530842 c 0.04911,0.0011 0.09834,6.34e-4 0.147317,-9.37e-4 1.30601,-0.04082 2.54096,-0.978554 2.666913,-2.488539 0.03768,-0.452035 0.02478,-0.995402 -0.0288,-1.207728 -0.132391,-0.524419 -0.98233,-1.460539 -1.549325,-1.706155 -0.255027,-0.110477 -0.794818,-0.203422 -1.199497,-0.206704 -2.447591,-0.01989 -3.719333,2.802009 -2.092669,4.643897 0.572431,0.648171 1.319257,0.950998 2.056063,0.966124 z"
       id="path5532" />
    <path
       style="fill:#ebe9ee;fill-opacity:1;stroke-width:0.264583"
       d="m -48.385044,34.551519 c 0.128217,-0.0012 0.258316,-0.01187 0.389732,-0.03251 2.251128,-0.353553 3.211309,-3.080486 1.663936,-4.725029 -0.226965,-0.241216 -0.61991,-0.530614 -0.87337,-0.643089 -0.672483,-0.298421 -1.837482,-0.264507 -2.502206,0.07278 -0.703965,0.357198 -1.027217,0.70419 -1.332107,1.429649 -0.770855,1.834174 0.730766,3.917095 2.654015,3.898203 z"
       id="path5534" />
    <path
       id="path5536"
       d="m -21.25799,33.734739 c 0.03523,7.91e-4 0.07053,4.55e-4 0.105664,-6.72e-4 0.936745,-0.02928 1.822522,-0.701874 1.912863,-1.784922 0.02703,-0.324225 0.01777,-0.71396 -0.02066,-0.866251 -0.09496,-0.376144 -0.704584,-1.047582 -1.111265,-1.223752 -0.18292,-0.07924 -0.570089,-0.145906 -0.860348,-0.14826 -1.755552,-0.01426 -2.667718,2.009761 -1.500981,3.330868 0.41058,0.464906 0.946246,0.682109 1.474725,0.692959 z"
       style="fill:#dedbea;fill-opacity:1;stroke-width:0.264583" />
    <path
       id="path5538"
       d="m -48.385044,33.755456 c 0.09197,-8.63e-4 0.185279,-0.0085 0.279538,-0.02332 1.614638,-0.253588 2.303334,-2.2095 1.19347,-3.38906 -0.162792,-0.173013 -0.444635,-0.380586 -0.626431,-0.46126 -0.482343,-0.214045 -1.317947,-0.18972 -1.794725,0.0522 -0.504924,0.256203 -0.736779,0.505086 -0.955463,1.025427 -0.552901,1.315574 0.524147,2.809564 1.903611,2.796013 z"
       style="fill:#dedbea;fill-opacity:1;stroke-width:0.264583" />
    <path
       id="path5540"
       d="m -40.115088,37.670566 c 0,0.223508 1.533795,1.181247 3.538802,2.209714 1.602075,0.821782 2.043734,0.987685 2.629374,0.987685 0.411475,0 3.687312,-0.263645 4.977397,-0.40059 1.736116,-0.184292 2.850433,-0.411386 3.407314,-0.6944 0.374862,-0.190509 0.996569,-0.747407 1.196404,-1.071683 0.150728,-0.244592 0.109072,-0.350542 -0.138875,-0.353218 -0.05457,-5.84e-4 -0.411757,-0.02962 -0.79375,-0.06451 -0.987028,-0.09015 -3.575116,-0.220671 -3.613443,-0.182232 -0.01767,0.01773 0.02909,0.350471 0.103931,0.73942 0.07484,0.388949 0.133834,0.81761 0.131095,0.952581 -0.0044,0.215565 -0.0284,0.176845 -0.197633,-0.318474 -0.355507,-1.040541 -0.397004,-1.126576 -0.59224,-1.22783 -0.335018,-0.173747 -2.275523,-0.310541 -5.759558,-0.406013 l -1.626545,-0.04457 -0.07852,0.400284 c -0.103466,0.527436 -0.300765,0.747425 -0.670335,0.747425 -0.491534,0 -1.010664,-0.372622 -1.128005,-0.809661 -0.03879,-0.144476 -0.138858,-0.298873 -0.234392,-0.361652 -0.19712,-0.129533 -1.151018,-0.214296 -1.151018,-0.102278 z"
       style="fill:#b5afc9;fill-opacity:0.315789;stroke-width:0.0999999;stroke-linecap:round;stroke-linejoin:round" />
  </g>
</svg>
