<?xml version="1.0" encoding="UTF-8" standalone="no"?>
<svg
   xmlns:dc="http://purl.org/dc/elements/1.1/"
   xmlns:cc="http://creativecommons.org/ns#"
   xmlns:rdf="http://www.w3.org/1999/02/22-rdf-syntax-ns#"
   xmlns:svg="http://www.w3.org/2000/svg"
   xmlns="http://www.w3.org/2000/svg"
   xmlns:sodipodi="http://sodipodi.sourceforge.net/DTD/sodipodi-0.dtd"
   xmlns:inkscape="http://www.inkscape.org/namespaces/inkscape"
   width="41.905991mm"
   height="289.63452mm"
   viewBox="0 0 41.905991 289.63452"
   version="1.1"
   id="svg6658"
   inkscape:version="1.0 (4035a4fb49, 2020-05-01)"
   sodipodi:docname="Congress.svg">
  <defs
     id="defs6652">
    <marker
       inkscape:isstock="true"
       style="overflow:visible"
       id="Arrow1Lstart"
       refX="0"
       refY="0"
       orient="auto"
       inkscape:stockid="Arrow1Lstart">
      <path
         transform="matrix(0.8,0,0,0.8,10,0)"
         style="fill:#000000;fill-opacity:1;fill-rule:evenodd;stroke:#000000;stroke-width:1pt;stroke-opacity:1"
         d="M 0,0 5,-5 -12.5,0 5,5 Z"
         id="path2781" />
    </marker>
  </defs>
  <sodipodi:namedview
     inkscape:object-paths="false"
     inkscape:object-nodes="false"
     id="base"
     pagecolor="#ffffff"
     bordercolor="#666666"
     borderopacity="1.0"
     inkscape:pageopacity="0.0"
     inkscape:pageshadow="2"
     inkscape:zoom="1"
     inkscape:cx="224.16744"
     inkscape:cy="635.57392"
     inkscape:document-units="mm"
     inkscape:current-layer="layer1"
     inkscape:document-rotation="0"
     showgrid="false"
     fit-margin-top="0"
     fit-margin-left="0"
     fit-margin-right="0"
     fit-margin-bottom="0"
     inkscape:window-width="1920"
     inkscape:window-height="1001"
     inkscape:window-x="-9"
     inkscape:window-y="-9"
     inkscape:window-maximized="1" />
  <metadata
     id="metadata6655">
    <rdf:RDF>
      <cc:Work
         rdf:about="">
        <dc:format>image/svg+xml</dc:format>
        <dc:type
           rdf:resource="http://purl.org/dc/dcmitype/StillImage" />
        <dc:title />
      </cc:Work>
    </rdf:RDF>
  </metadata>
  <g
     inkscape:label="Layer 1"
     inkscape:groupmode="layer"
     id="layer1"
     transform="translate(-119.81479,-757.88277)">
    <path
       d="m 139.57563,757.88277 c -0.10011,0 -0.20021,0.0453 -0.27689,0.13458 l -6.36836,7.41486 h -4.40521 c -0.21687,0 -0.39106,0.20363 -0.39106,0.45616 v 15.87418 h -3.29978 c -0.21688,0 -0.39107,0.2028 -0.39107,0.45532 v 27.04799 h -4.22251 c -0.21688,0 -0.39108,0.20282 -0.39108,0.45534 v 92.77063 c 0,0.25253 0.1742,0.45616 0.39108,0.45616 h 41.10826 c 0.21685,0 0.39177,-0.20363 0.39177,-0.45616 V 809.7212 c 0,-0.25252 -0.17492,-0.45534 -0.39177,-0.45534 h -6.06723 v -27.04799 c 0,-0.25252 -0.17492,-0.45532 -0.39178,-0.45532 h -3.85286 v -15.87418 c 0,-0.25253 -0.17489,-0.45616 -0.39177,-0.45616 h -4.40447 l -6.36839,-7.41486 c -0.0766,-0.0892 -0.17682,-0.13458 -0.27688,-0.13458 z"
       style="fill:#c6c6c6;fill-opacity:1;stroke:none;stroke-width:0.264999;stroke-linecap:butt;stroke-linejoin:round;stroke-miterlimit:4;stroke-dasharray:none;stroke-dashoffset:0;stroke-opacity:1"
       id="rect3114" />
    <path
       id="rect3114-6"
       style="fill:#e4dff2;fill-opacity:1;stroke:none;stroke-width:0.264999;stroke-linecap:butt;stroke-linejoin:round;stroke-miterlimit:4;stroke-dasharray:none;stroke-dashoffset:0;stroke-opacity:1"
       d="m 139.56075,1047.5173 c -0.10011,0 -0.20021,-0.045 -0.27689,-0.1341 l -6.36836,-7.3884 h -4.40521 c -0.21687,0 -0.39106,-0.203 -0.39106,-0.4546 v -15.8175 h -3.29978 c -0.21688,0 -0.39107,-0.2021 -0.39107,-0.4537 v -26.95166 h -4.22251 c -0.21688,0 -0.39108,-0.2021 -0.39108,-0.45372 v -92.43989 c 0,-0.25162 0.1742,-0.45453 0.39108,-0.45453 h 41.10826 c 0.21685,0 0.39177,0.20291 0.39177,0.45453 v 92.43989 c 0,0.25162 -0.17492,0.45372 -0.39177,0.45372 h -6.06723 v 26.95166 c 0,0.2516 -0.17492,0.4537 -0.39178,0.4537 h -3.85286 v 15.8175 c 0,0.2516 -0.17489,0.4546 -0.39177,0.4546 h -4.40447 l -6.36839,7.3884 c -0.0766,0.089 -0.17682,0.1341 -0.27688,0.1341 z" />
  </g>
</svg>
