<?xml version="1.0" encoding="UTF-8" standalone="no"?>
<svg
   xmlns:dc="http://purl.org/dc/elements/1.1/"
   xmlns:cc="http://creativecommons.org/ns#"
   xmlns:rdf="http://www.w3.org/1999/02/22-rdf-syntax-ns#"
   xmlns:svg="http://www.w3.org/2000/svg"
   xmlns="http://www.w3.org/2000/svg"
   xmlns:sodipodi="http://sodipodi.sourceforge.net/DTD/sodipodi-0.dtd"
   xmlns:inkscape="http://www.inkscape.org/namespaces/inkscape"
   sodipodi:docname="GitHub Logo.svg"
   inkscape:version="1.0 (4035a4fb49, 2020-05-01)"
   id="svg4822"
   version="1.1"
   viewBox="0 0 11.49292 11.209466"
   height="11.209466mm"
   width="11.49292mm">
  <defs
     id="defs4816" />
  <sodipodi:namedview
     inkscape:window-maximized="1"
     inkscape:window-y="-9"
     inkscape:window-x="-9"
     inkscape:window-height="1001"
     inkscape:window-width="1920"
     showgrid="false"
     inkscape:document-rotation="0"
     inkscape:current-layer="layer1"
     inkscape:document-units="mm"
     inkscape:cy="53.086962"
     inkscape:cx="28.273446"
     inkscape:zoom="5.6568542"
     inkscape:pageshadow="2"
     inkscape:pageopacity="0.0"
     borderopacity="1.0"
     bordercolor="#666666"
     pagecolor="#ffffff"
     id="base" />
  <metadata
     id="metadata4819">
    <rdf:RDF>
      <cc:Work
         rdf:about="">
        <dc:format>image/svg+xml</dc:format>
        <dc:type
           rdf:resource="http://purl.org/dc/dcmitype/StillImage" />
        <dc:title></dc:title>
      </cc:Work>
    </rdf:RDF>
  </metadata>
  <g
     transform="translate(111.57991,-4.9786001)"
     id="layer1"
     inkscape:groupmode="layer"
     inkscape:label="Layer 1">
    <path
       d="m -105.83386,4.9786001 c -3.17324,0 -5.74605,2.5728083 -5.74605,5.7467499 0,2.538941 1.64642,4.69265 3.92995,5.452886 0.28751,0.05256 0.39229,-0.124884 0.39229,-0.277284 0,-0.136172 -0.005,-0.497769 -0.008,-0.977194 -1.59844,0.347133 -1.9357,-0.770467 -1.9357,-0.770467 -0.2614,-0.663575 -0.63817,-0.840316 -0.63817,-0.840316 -0.52176,-0.356659 0.0395,-0.349603 0.0395,-0.349603 0.57679,0.04092 0.88018,0.592314 0.88018,0.592314 0.51259,0.878064 1.34514,0.624416 1.67252,0.477661 0.0522,-0.371475 0.20038,-0.624769 0.36477,-0.76835 -1.27599,-0.144992 -2.61761,-0.638175 -2.61761,-2.840214 0,-0.6272385 0.22402,-1.1401775 0.59161,-1.5419912 -0.0593,-0.1453447 -0.25647,-0.7295447 0.0561,-1.5208251 0,0 0.4826,-0.1545167 1.58045,0.5891388 0.45825,-0.1273527 0.95003,-0.1912054 1.43862,-0.1933221 0.4879,0.00212 0.97967,0.065969 1.43863,0.1933221 1.09714,-0.7436555 1.57868,-0.5891388 1.57868,-0.5891388 0.31362,0.7912804 0.11642,1.3754804 0.0571,1.5208251 0.3683,0.4018137 0.5909,0.9147527 0.5909,1.5419912 0,2.207683 -1.34373,2.693458 -2.62396,2.835628 0.20638,0.177447 0.39018,0.528108 0.39018,1.06433 0,0.767998 -0.007,1.387828 -0.007,1.576211 0,0.153812 0.10336,0.33267 0.39511,0.276578 2.28177,-0.761647 3.92677,-2.913944 3.92677,-5.45218 0,-3.1739416 -2.57316,-5.7467499 -5.7471,-5.7467499"
       style="fill:#000314;fill-opacity:1;fill-rule:evenodd;stroke:none;stroke-width:0.352777"
       id="path3900" />
  </g>
</svg>
