<?xml version="1.0" encoding="UTF-8" standalone="no"?>
<svg
   xmlns:dc="http://purl.org/dc/elements/1.1/"
   xmlns:cc="http://creativecommons.org/ns#"
   xmlns:rdf="http://www.w3.org/1999/02/22-rdf-syntax-ns#"
   xmlns:svg="http://www.w3.org/2000/svg"
   xmlns="http://www.w3.org/2000/svg"
   xmlns:sodipodi="http://sodipodi.sourceforge.net/DTD/sodipodi-0.dtd"
   xmlns:inkscape="http://www.inkscape.org/namespaces/inkscape"
   width="76.435448mm"
   height="113.04427mm"
   viewBox="0 0 76.435447 113.04427"
   version="1.1"
   id="svg6658"
   inkscape:version="1.0 (4035a4fb49, 2020-05-01)"
   sodipodi:docname="One Eleven Congress.svg">
  <defs
     id="defs6652">
    <marker
       inkscape:isstock="true"
       style="overflow:visible"
       id="Arrow1Lstart"
       refX="0"
       refY="0"
       orient="auto"
       inkscape:stockid="Arrow1Lstart">
      <path
         transform="matrix(0.8,0,0,0.8,10,0)"
         style="fill:#000000;fill-opacity:1;fill-rule:evenodd;stroke:#000000;stroke-width:1pt;stroke-opacity:1"
         d="M 0,0 5,-5 -12.5,0 5,5 Z"
         id="path2781" />
    </marker>
  </defs>
  <sodipodi:namedview
     inkscape:object-paths="false"
     inkscape:object-nodes="false"
     id="base"
     pagecolor="#ffffff"
     bordercolor="#666666"
     borderopacity="1.0"
     inkscape:pageopacity="0.0"
     inkscape:pageshadow="2"
     inkscape:zoom="1.4142136"
     inkscape:cx="179.29964"
     inkscape:cy="237.30518"
     inkscape:document-units="mm"
     inkscape:current-layer="layer1"
     inkscape:document-rotation="0"
     showgrid="false"
     fit-margin-top="0"
     fit-margin-left="0"
     fit-margin-right="0"
     fit-margin-bottom="0"
     inkscape:window-width="1668"
     inkscape:window-height="1001"
     inkscape:window-x="234"
     inkscape:window-y="0"
     inkscape:window-maximized="0" />
  <metadata
     id="metadata6655">
    <rdf:RDF>
      <cc:Work
         rdf:about="">
        <dc:format>image/svg+xml</dc:format>
        <dc:type
           rdf:resource="http://purl.org/dc/dcmitype/StillImage" />
        <dc:title />
      </cc:Work>
    </rdf:RDF>
  </metadata>
  <g
     inkscape:label="Layer 1"
     inkscape:groupmode="layer"
     id="layer1"
     transform="translate(-75.958309,-443.80105)">
    <path
       sodipodi:nodetypes="ccccccccccccsscsscsssscccssscssscsscsscsscsssscsscccccccccccccc"
       d="m 106.89593,443.80105 v 7.41165 h -2.4939 v 7.0411 h -2.96894 v 7.22637 h -3.206429 v 7.41165 h -2.968946 v 6.5778 h -2.85013 c 0,0 0.03564,6.25766 0.04789,11.9574 h -2.401216 c -0.0235,0 -0.04247,0.0189 -0.04247,0.0425 v 1.81413 h -4.103941 c -0.0235,0 -0.04247,0.019 -0.04247,0.0425 v 3.48509 h -9.859441 c -0.02352,0 -0.04247,0.019 -0.04247,0.0425 v 3.56645 c 0,0.0235 0.01895,0.0424 0.04247,0.0424 h 16.406139 c -0.0015,0.0153 -0.003,0.0291 -0.0045,0.0377 20.067664,-0.13476 40.295854,0.0861 59.943784,0.0861 0.0235,0 0.0424,-0.0189 0.0424,-0.0424 v -3.25704 c 0,-0.0235 -0.0189,-0.0425 -0.0424,-0.0425 h -1.31913 v -0.20507 c 0,-0.0235 -0.0189,-0.0425 -0.0424,-0.0425 h -1.0291 c -0.0235,0 -0.0425,0.019 -0.0425,0.0425 v -0.49509 c 0,-0.0235 -0.0189,-0.0425 -0.0424,-0.0425 h -1.07157 v -3.60886 c 0,-0.0235 -0.0189,-0.0425 -0.0424,-0.0425 h -1.07156 v -0.51451 c 0,-0.0235 -0.0189,-0.0425 -0.0424,-0.0425 h -0.70024 v -0.26696 c 0,-0.0235 -0.019,-0.0425 -0.0425,-0.0425 h -8.51734 c -0.0235,0 -0.0425,0.019 -0.0425,0.0425 v 0.26696 h -1.07149 c -0.0235,0 -0.0425,0.019 -0.0425,0.0425 v 0.51451 h -1.00257 v -14.21456 h -2.90235 v -6.02198 h -3.47262 v -7.59699 h -3.08761 v -6.85575 h -2.73146 v -7.31898 h -2.40128 v -7.0411 z"
       style="fill:#000314;fill-opacity:1;stroke:none;stroke-width:0.264582px;stroke-linecap:butt;stroke-linejoin:miter;stroke-opacity:1"
       id="path3090" />
    <path
       id="path4016"
       style="fill:#cdc8e0;fill-opacity:1;stroke:none;stroke-width:0.264582px;stroke-linecap:butt;stroke-linejoin:miter;stroke-opacity:1"
       d="m 106.89078,556.84532 v -7.37518 h -2.4939 v -7.00644 h -2.96894 v -7.19081 h -3.206437 v -7.37516 h -2.968946 v -6.54543 h -2.85013 c 0,0 0.03564,-6.22686 0.04789,-11.89855 h -2.401216 c -0.0235,0 -0.04247,-0.0188 -0.04247,-0.0423 v -1.80521 H 85.90269 c -0.0235,0 -0.04247,-0.019 -0.04247,-0.0423 V 504.096 h -9.859441 c -0.02352,0 -0.04247,-0.019 -0.04247,-0.0423 v -3.5489 c 0,-0.0234 0.01895,-0.0422 0.04247,-0.0422 h 16.406139 c -0.0015,-0.0152 -0.003,-0.0289 -0.0045,-0.0375 20.067672,0.13411 40.295862,-0.0857 59.943792,-0.0857 0.0235,0 0.0424,0.0188 0.0424,0.0422 v 3.24101 c 0,0.0234 -0.0189,0.0423 -0.0424,0.0423 h -1.31913 v 0.20407 c 0,0.0234 -0.0189,0.0423 -0.0424,0.0423 h -1.0291 c -0.0235,0 -0.0425,-0.0188 -0.0425,-0.0423 v 0.49265 c 0,0.0234 -0.0189,0.0423 -0.0424,0.0423 h -1.07157 v 3.59111 c 0,0.0234 -0.0189,0.0423 -0.0424,0.0423 h -1.07156 v 0.51198 c 0,0.0234 -0.0189,0.0423 -0.0424,0.0423 h -0.70024 v 0.26564 c 0,0.0234 -0.019,0.0423 -0.0425,0.0423 h -8.51734 c -0.0235,0 -0.0425,-0.019 -0.0425,-0.0423 v -0.26564 h -1.07149 c -0.0235,0 -0.0425,-0.019 -0.0425,-0.0423 v -0.51198 h -1.00257 v 14.14458 h -2.90235 v 5.99233 h -3.47262 v 7.55961 h -3.08761 v 6.822 h -2.73146 v 7.28296 h -2.40128 v 7.00644 z"
       sodipodi:nodetypes="ccccccccccccsscsscsssscccssscssscsscsscsscsssscsscccccccccccccc" />
  </g>
</svg>
