<?xml version="1.0" encoding="UTF-8" standalone="no"?>
<svg
   xmlns:dc="http://purl.org/dc/elements/1.1/"
   xmlns:cc="http://creativecommons.org/ns#"
   xmlns:rdf="http://www.w3.org/1999/02/22-rdf-syntax-ns#"
   xmlns:svg="http://www.w3.org/2000/svg"
   xmlns="http://www.w3.org/2000/svg"
   xmlns:xlink="http://www.w3.org/1999/xlink"
   xmlns:sodipodi="http://sodipodi.sourceforge.net/DTD/sodipodi-0.dtd"
   xmlns:inkscape="http://www.inkscape.org/namespaces/inkscape"
   width="60mm"
   height="150mm"
   viewBox="0 0 60 150"
   version="1.1"
   id="svg8"
   inkscape:version="1.0 (4035a4fb49, 2020-05-01)"
   sodipodi:docname="Project 3--dark.svg">
  <defs
     id="defs2">
    <linearGradient
       id="linearGradient2244"
       inkscape:collect="always">
      <stop
         id="stop2240"
         offset="0"
         style="stop-color:#c6c6c6;stop-opacity:1" />
      <stop
         id="stop2242"
         offset="1"
         style="stop-color:#48484d;stop-opacity:0;" />
    </linearGradient>
    <linearGradient
       id="linearGradient918-1-9-0-2"
       inkscape:collect="always">
      <stop
         id="stop922"
         offset="0"
         style="stop-color:#c6c6c6;stop-opacity:1" />
      <stop
         id="stop924"
         offset="1"
         style="stop-color:#8f8fa4;stop-opacity:0;" />
    </linearGradient>
    <linearGradient
       inkscape:collect="always"
       xlink:href="#linearGradient918-1-9-0-2"
       id="linearGradient2016"
       x1="37.112614"
       y1="58.987457"
       x2="55.998299"
       y2="82.747719"
       gradientUnits="userSpaceOnUse"
       gradientTransform="matrix(0.98413201,0,0,1.3855186,0.58553232,-67.193712)" />
    <linearGradient
       gradientUnits="userSpaceOnUse"
       y2="120.98819"
       x2="40.784431"
       y1="100.87986"
       x1="30.749365"
       id="linearGradient2246"
       xlink:href="#linearGradient2244"
       inkscape:collect="always" />
  </defs>
  <sodipodi:namedview
     id="base"
     pagecolor="#ffffff"
     bordercolor="#666666"
     borderopacity="1.0"
     inkscape:pageopacity="0.0"
     inkscape:pageshadow="2"
     inkscape:zoom="1"
     inkscape:cx="107.11634"
     inkscape:cy="329.8552"
     inkscape:document-units="mm"
     inkscape:current-layer="layer1"
     inkscape:document-rotation="0"
     showgrid="false"
     inkscape:window-width="1275"
     inkscape:window-height="991"
     inkscape:window-x="627"
     inkscape:window-y="0"
     inkscape:window-maximized="0"
     inkscape:snap-global="true" />
  <metadata
     id="metadata5">
    <rdf:RDF>
      <cc:Work
         rdf:about="">
        <dc:format>image/svg+xml</dc:format>
        <dc:type
           rdf:resource="http://purl.org/dc/dcmitype/StillImage" />
        <dc:title />
      </cc:Work>
    </rdf:RDF>
  </metadata>
  <g
     inkscape:label="Layer 1"
     inkscape:groupmode="layer"
     id="layer1">
    <path
       id="rect1794"
       style="fill:#e2e1e6;fill-opacity:1;stroke:#000000;stroke-width:0.75;stroke-linecap:butt;stroke-linejoin:round;stroke-miterlimit:4;stroke-dasharray:none;stroke-opacity:1"
       d="m 7.6843966,85.23825 v 58.38441 l -4.0361806,4.85279 0.1019426,3.6393 H 57.913777 l -0.217437,-3.6393 -4.376251,-4.70574 V 85.385301 Z"
       sodipodi:nodetypes="ccccccccc" />
    <rect
       ry="2.8728089"
       y="9.9157019"
       x="1.6364186"
       height="75.768105"
       width="56.983345"
       id="rect904"
       style="fill:#e2e1e6;fill-opacity:1;stroke:#000000;stroke-width:0.75;stroke-linecap:butt;stroke-linejoin:round;stroke-miterlimit:4;stroke-dasharray:none;stroke-opacity:1"
       rx="2.8728087" />
    <rect
       style="fill:none;fill-opacity:1;stroke:url(#linearGradient2246);stroke-width:0.75;stroke-linecap:butt;stroke-linejoin:round;stroke-miterlimit:4;stroke-dasharray:none;stroke-opacity:1"
       id="rect843"
       width="35.19965"
       height="29.671659"
       x="13.272283"
       y="99.405487"
       ry="0"
       rx="0" />
    <rect
       style="fill:none;fill-opacity:1;stroke:url(#linearGradient2016);stroke-width:0.75;stroke-linecap:butt;stroke-linejoin:round;stroke-miterlimit:4;stroke-dasharray:none;stroke-opacity:1"
       id="rect862"
       width="50.191113"
       height="69.117584"
       x="5.0120759"
       y="12.896"
       rx="2.0579753"
       ry="2.0579753" />
    <path
       d="m 6.0678379,0.11091057 c 0.739348,-0.0015 1.456807,0.541468 1.797334,1.42845403 0.309208,0.796334 0.598368,1.6240701 1.101078,2.2451109 0.96105,1.3993241 2.0612851,2.684213 2.7163651,4.3985292 0.372243,0.8450101 0.685834,1.7301249 0.968267,2.6332903 0.0864,0.417951 0.04525,0.333868 -0.527336,0.172237 -0.749099,-0.109783 -0.241633,0.08575 -0.193633,0.558249 0.326488,1.023415 0.547489,1.236217 0.752424,2.316056 -0.425475,0.350966 -0.969855,-0.672707 -1.312687,-1.05372 -0.237036,-0.264254 -0.512891,-0.990469 -0.698206,-1.033045 0.110576,0.874596 0.360171,1.705271 0.497025,2.569814 -0.137227,0.678797 -0.837401,-0.330084 -1.037393,-0.64553 -0.7507095,-1.303762 -0.2606221,-0.449026 -0.6448831,-1.972882 -0.09378,-0.301473 -0.06822,-0.835108 -0.415382,-0.678272 -0.358786,0.0089 -0.802423,0.02463 -1.003425,-0.446384 C 7.8510329,10.176175 7.5065249,9.9200937 7.1294399,9.8210927 6.2019229,9.1521758 5.3219449,8.1777286 4.9910209,6.7928515 4.5567139,5.3775995 4.6524199,3.8291907 4.5952079,2.3391146 c 0.134782,-0.691108 -1.249228,-0.696245 -0.586152,-1.161284 0.563236,-0.01433 0.932223,-0.57237703 1.393531,-0.89770203 0.208976,-0.120124 0.437811,-0.174733 0.665251,-0.169218 z"
       style="fill:#8f8fa4;stroke-width:0.75;stroke-miterlimit:4;stroke-dasharray:none"
       id="path3523"
       sodipodi:nodetypes="ccccccccccccccccccccc" />
  </g>
</svg>
