<?xml version="1.0" encoding="UTF-8" standalone="no"?>
<svg
   xmlns:dc="http://purl.org/dc/elements/1.1/"
   xmlns:cc="http://creativecommons.org/ns#"
   xmlns:rdf="http://www.w3.org/1999/02/22-rdf-syntax-ns#"
   xmlns:svg="http://www.w3.org/2000/svg"
   xmlns="http://www.w3.org/2000/svg"
   xmlns:xlink="http://www.w3.org/1999/xlink"
   xmlns:sodipodi="http://sodipodi.sourceforge.net/DTD/sodipodi-0.dtd"
   xmlns:inkscape="http://www.inkscape.org/namespaces/inkscape"
   sodipodi:docname="Project 2.svg"
   inkscape:version="1.0 (4035a4fb49, 2020-05-01)"
   id="svg8"
   version="1.1"
   viewBox="0 0 60 150"
   height="150mm"
   width="60mm">
  <defs
     id="defs2">
    <linearGradient
       id="linearGradient2204"
       inkscape:collect="always">
      <stop
         id="stop2200"
         offset="0"
         style="stop-color:#c6c6c6;stop-opacity:1" />
      <stop
         id="stop2202"
         offset="1"
         style="stop-color:#000000;stop-opacity:0;" />
    </linearGradient>
    <linearGradient
       gradientTransform="matrix(0.90053315,0,0,1,2.9881084,0)"
       gradientUnits="userSpaceOnUse"
       y2="103.14068"
       x2="31.137592"
       y1="59.923203"
       x1="35.680096"
       id="linearGradient2206"
       xlink:href="#linearGradient2204"
       inkscape:collect="always" />
    <linearGradient
       gradientTransform="matrix(0.68168968,0,0,0.58790603,9.2331999,81.438975)"
       inkscape:collect="always"
       xlink:href="#linearGradient2204"
       id="linearGradient2206-2"
       x1="35.680096"
       y1="59.923203"
       x2="31.137592"
       y2="103.14068"
       gradientUnits="userSpaceOnUse" />
  </defs>
  <sodipodi:namedview
     inkscape:snap-global="false"
     inkscape:window-maximized="0"
     inkscape:window-y="0"
     inkscape:window-x="979"
     inkscape:window-height="991"
     inkscape:window-width="923"
     showgrid="false"
     inkscape:document-rotation="0"
     inkscape:current-layer="layer1"
     inkscape:document-units="mm"
     inkscape:cy="474.80922"
     inkscape:cx="103.22038"
     inkscape:zoom="1.0000001"
     inkscape:pageshadow="2"
     inkscape:pageopacity="0.0"
     borderopacity="1.0"
     bordercolor="#666666"
     pagecolor="#ffffff"
     id="base" />
  <metadata
     id="metadata5">
    <rdf:RDF>
      <cc:Work
         rdf:about="">
        <dc:format>image/svg+xml</dc:format>
        <dc:type
           rdf:resource="http://purl.org/dc/dcmitype/StillImage" />
        <dc:title />
      </cc:Work>
    </rdf:RDF>
  </metadata>
  <g
     id="layer1"
     inkscape:groupmode="layer"
     inkscape:label="Layer 1">
    <path
       id="path4778"
       style="fill:#8f8fa4;stroke-width:0.75;stroke-miterlimit:4;stroke-dasharray:none"
       d="m 39.47545,32.469052 c -0.67773,-0.0035 -1.402331,0.317341 -2.08153,0.945679 -1.462011,1.352563 -5.547391,4.186806 -6.621811,4.594034 -0.58208,0.220626 -1.9513,0.61762 -3.04271,0.882118 -1.91613,0.46437 -1.9546,0.488829 -1.11156,0.709518 0.52539,0.137541 1.46716,0.118803 2.3642,-0.04702 1.99771,-0.369297 2.27347,-0.353168 2.09134,0.121439 -0.11969,0.311927 0.0865,0.40251 0.96377,0.42323 1.83498,0.04336 2.42894,0.304241 2.52284,1.108458 0.0583,0.499237 0.0794,1.0263 -0.0474,1.159935 -0.12833,-0.08241 1.89102,-0.06022 2.80195,-0.0063 -0.38359,-0.326421 -0.594539,-0.561875 -0.58933,-0.828037 0,-0.474165 0.21355,-0.695917 0.88264,-0.916739 1.67963,-0.554328 2.821531,-2.220163 2.821531,-4.115511 0,-1.640327 0.32361,-2.150076 1.51412,-2.383835 l 0.99942,-0.195853 -0.79375,-0.297656 c -0.43656,-0.163674 -1.122571,-0.520724 -1.52445,-0.793234 -0.35282,-0.239239 -0.742651,-0.35809 -1.149291,-0.360185 z m -3.969261,8.396388 c 0.34667,0 0.689881,0.537247 0.689881,1.080037 0,0.410845 -0.727181,0.26848 -0.897621,-0.1757 -0.25021,-0.652015 -0.19239,-0.904337 0.20774,-0.904337 z"
       sodipodi:nodetypes="ccssssscscccsscccsccssss" />
    <path
       d="m 30.034354,41.908036 c -15.233869,0 -27.4975581,5.715154 -27.4975581,12.814205 0,0.112665 0.00314,0.224978 0.00928,0.336931 -0.00423,0.06584 -0.00928,0.131424 -0.00928,0.198437 v 54.307281 c 0,1.59153 1.2112302,2.87269 2.7158987,2.87269 H 54.816505 c 1.504668,0 2.715898,-1.28116 2.715898,-2.87269 V 55.257609 c 0,-0.06701 -0.0051,-0.132598 -0.0093,-0.198437 0.0062,-0.111953 0.0093,-0.224266 0.0093,-0.336931 0,-7.099051 -12.264176,-12.814205 -27.498049,-12.814205 z"
       style="fill:#f6f3f8;fill-opacity:1;stroke:#000000;stroke-width:0.75;stroke-linecap:butt;stroke-linejoin:round;stroke-miterlimit:4;stroke-dasharray:none;stroke-opacity:1"
       id="rect2035" />
    <rect
       ry="0"
       y="111.68492"
       x="3.6270072"
       height="41.53521"
       width="52.440899"
       id="rect1794"
       style="fill:#f6f3f8;fill-opacity:1;stroke:#000000;stroke-width:0.75;stroke-linecap:butt;stroke-linejoin:round;stroke-miterlimit:4;stroke-dasharray:none;stroke-opacity:1"
       rx="0" />
    <path
       d="m 6.0855672,57.429885 c 0,16.878755 0,33.75751 0,50.636265 0.3188983,0.42336 0.9023361,0.37215 1.4672359,0.3542 15.3159809,0 30.6319629,0 45.9479449,0 0.569734,-0.23698 0.500815,-0.67052 0.47665,-1.09029 0,-16.633392 0,-33.266784 0,-49.900175 -0.318899,-0.423361 -0.902336,-0.372148 -1.467236,-0.354191 -15.315983,0 -30.631964,0 -45.9479454,0 -0.1588831,0.118064 -0.3177663,0.236128 -0.4766494,0.354191 z"
       style="fill:none;fill-opacity:1;stroke:url(#linearGradient2206);stroke-width:0.75;stroke-linecap:butt;stroke-linejoin:round;stroke-miterlimit:4;stroke-dasharray:none;stroke-opacity:1"
       id="rect866" />
    <path
       sodipodi:nodetypes="cccc"
       id="path5216"
       d="m 3.7254433,150.30042 c 2.6230461,-3.48843 -0.083147,-15.20921 -0.083147,-15.20921 3.2242716,7.5612 1.4745231,15.17115 1.4745231,15.17115 z"
       style="fill:#8f8fa4;fill-opacity:1;stroke:none;stroke-width:0.75;stroke-linecap:butt;stroke-linejoin:miter;stroke-miterlimit:4;stroke-dasharray:none;stroke-opacity:1" />
    <path
       sodipodi:nodetypes="cccc"
       id="path5220"
       d="m 2.7909497,150.3539 c 0.4726153,-5.88205 -1.2365663,-8.04474 0.7005241,-12.49883 -0.4445299,4.16147 0.5316846,12.36931 0.669348,12.46607 z"
       style="fill:#8f8fa4;fill-opacity:1;stroke:none;stroke-width:0.75;stroke-linecap:butt;stroke-linejoin:miter;stroke-miterlimit:4;stroke-dasharray:none;stroke-opacity:1" />
    <path
       d="m 19.805937,31.797155 c 0.920178,0.100616 2.016993,0.587651 2.749584,0.779816 -0.160657,0.933828 -1.600014,1.254131 -1.269958,2.413769 0.05279,1.216529 1.335197,1.728796 1.751915,2.772372 0.82101,1.576051 0.600385,3.402589 0.963064,5.085476 0.456057,1.298617 1.844261,1.869813 2.785586,2.764991 0.44205,0.315448 1.508522,1.574673 0.547689,1.655317 -1.046656,-1.239334 0.283579,1.841527 -0.967453,0.988255 -0.374907,-0.436504 -0.771394,-0.533364 -0.746373,0.174351 -0.778113,0.392081 -1.138596,-1.144527 -1.765177,-1.563658 -0.529474,-0.651195 -1.060052,-1.301938 -1.617432,-1.929626 -0.982963,-0.185703 -1.845825,-0.786226 -2.885897,-0.90671 -0.950208,-0.711629 -1.48922,-1.886481 -2.240141,-2.825183 -1.330065,-2.590243 -0.994705,-5.916248 0.660935,-8.282568 0.49827,-0.613614 1.219475,-1.110137 2.033658,-1.126602 z"
       style="fill:#8f8fa4;stroke-width:0.75;stroke-miterlimit:4;stroke-dasharray:none"
       id="path3488" />
    <path
       id="rect866-8"
       style="fill:none;fill-opacity:1;stroke:url(#linearGradient2206-2);stroke-width:0.75;stroke-linecap:butt;stroke-linejoin:round;stroke-miterlimit:4;stroke-dasharray:none;stroke-opacity:1"
       d="m 11.577928,115.20235 c 0,9.92313 0,19.84624 0,29.76937 0.241402,0.24889 0.683055,0.21879 1.110675,0.20823 11.593962,0 23.187923,0 34.781885,0 0.43128,-0.13932 0.379108,-0.39419 0.360816,-0.64099 0,-9.77886 0,-19.55774 0,-29.33661 -0.241401,-0.24889 -0.683054,-0.21879 -1.110675,-0.20823 -11.593963,0 -23.187924,0 -34.781884,0 -0.120272,0.0694 -0.240545,0.13882 -0.360817,0.20823 z" />
  </g>
</svg>
