<?xml version="1.0" encoding="UTF-8" standalone="no"?>
<svg
   xmlns:dc="http://purl.org/dc/elements/1.1/"
   xmlns:cc="http://creativecommons.org/ns#"
   xmlns:rdf="http://www.w3.org/1999/02/22-rdf-syntax-ns#"
   xmlns:svg="http://www.w3.org/2000/svg"
   xmlns="http://www.w3.org/2000/svg"
   xmlns:sodipodi="http://sodipodi.sourceforge.net/DTD/sodipodi-0.dtd"
   xmlns:inkscape="http://www.inkscape.org/namespaces/inkscape"
   sodipodi:docname="San Jacinto Center.svg"
   inkscape:version="1.0 (4035a4fb49, 2020-05-01)"
   id="svg6658"
   version="1.1"
   viewBox="0 0 29.70943 146.94977"
   height="146.94977mm"
   width="29.709431mm">
  <defs
     id="defs6652">
    <marker
       inkscape:stockid="Arrow1Lstart"
       orient="auto"
       refY="0"
       refX="0"
       id="Arrow1Lstart"
       style="overflow:visible"
       inkscape:isstock="true">
      <path
         id="path2781"
         d="M 0,0 5,-5 -12.5,0 5,5 Z"
         style="fill:#000000;fill-opacity:1;fill-rule:evenodd;stroke:#000000;stroke-width:1pt;stroke-opacity:1"
         transform="matrix(0.8,0,0,0.8,10,0)" />
    </marker>
  </defs>
  <sodipodi:namedview
     inkscape:window-maximized="1"
     inkscape:window-y="-9"
     inkscape:window-x="-9"
     inkscape:window-height="1001"
     inkscape:window-width="1920"
     fit-margin-bottom="0"
     fit-margin-right="0"
     fit-margin-left="0"
     fit-margin-top="0"
     showgrid="false"
     inkscape:document-rotation="0"
     inkscape:current-layer="layer1"
     inkscape:document-units="mm"
     inkscape:cy="298.38044"
     inkscape:cx="-216.20844"
     inkscape:zoom="1"
     inkscape:pageshadow="2"
     inkscape:pageopacity="0.0"
     borderopacity="1.0"
     bordercolor="#666666"
     pagecolor="#ffffff"
     id="base"
     inkscape:object-nodes="false"
     inkscape:object-paths="false" />
  <metadata
     id="metadata6655">
    <rdf:RDF>
      <cc:Work
         rdf:about="">
        <dc:format>image/svg+xml</dc:format>
        <dc:type
           rdf:resource="http://purl.org/dc/dcmitype/StillImage" />
        <dc:title />
      </cc:Work>
    </rdf:RDF>
  </metadata>
  <g
     transform="translate(-111.31057,-426.66145)"
     id="layer1"
     inkscape:groupmode="layer"
     inkscape:label="Layer 1">
    <path
       id="rect3102"
       style="fill:#c6c6c6;fill-opacity:1;stroke:none;stroke-width:0.265001;stroke-linecap:butt;stroke-linejoin:round;stroke-miterlimit:4;stroke-dasharray:none;stroke-dashoffset:0;stroke-opacity:1"
       d="m 126.15944,426.66145 -7.33233,4.2334 h -2.53462 c -0.12693,0 -0.22931,0.10239 -0.22931,0.22932 v 1.71508 h -1.93105 c -0.12693,0 -0.22931,0.10197 -0.22931,0.2289 v 4.84785 h -2.36335 c -0.12696,0 -0.2289,0.10237 -0.2289,0.22932 v 61.7593 c 0,0.12695 0.10194,0.22932 0.2289,0.22932 h 29.24663 c 0.12695,0 0.22932,-0.10237 0.22932,-0.22932 v -61.7593 c 0,-0.12695 -0.10237,-0.22932 -0.22932,-0.22932 h -2.68749 v -4.84785 c 0,-0.12693 -0.10196,-0.2289 -0.2289,-0.2289 h -1.71508 v -1.71508 c 0,-0.12693 -0.10238,-0.22932 -0.22932,-0.22932 h -2.43393 z" />
    <path
       d="m 126.16402,573.61122 -7.33233,-4.23416 h -2.53462 c -0.12693,0 -0.22931,-0.10241 -0.22931,-0.22935 v -1.7154 h -1.93105 c -0.12693,0 -0.22931,-0.10198 -0.22931,-0.22894 v -4.84871 h -2.36335 c -0.12696,0 -0.2289,-0.10239 -0.2289,-0.22936 v -61.77038 c 0,-0.12697 0.10194,-0.22935 0.2289,-0.22935 h 29.24663 c 0.12695,0 0.22932,0.10238 0.22932,0.22935 v 61.77038 c 0,0.12697 -0.10237,0.22936 -0.22932,0.22936 h -2.68749 v 4.84871 c 0,0.12696 -0.10196,0.22894 -0.2289,0.22894 h -1.71508 v 1.7154 c 0,0.12695 -0.10238,0.22935 -0.22932,0.22935 h -2.43393 z"
       style="fill:#e4dff2;fill-opacity:1;stroke:none;stroke-width:0.265001;stroke-linecap:butt;stroke-linejoin:round;stroke-miterlimit:4;stroke-dasharray:none;stroke-dashoffset:0;stroke-opacity:1"
       id="rect3102-3" />
  </g>
</svg>
