<?xml version="1.0" encoding="UTF-8" standalone="no"?>
<svg
   xmlns:dc="http://purl.org/dc/elements/1.1/"
   xmlns:cc="http://creativecommons.org/ns#"
   xmlns:rdf="http://www.w3.org/1999/02/22-rdf-syntax-ns#"
   xmlns:svg="http://www.w3.org/2000/svg"
   xmlns="http://www.w3.org/2000/svg"
   xmlns:sodipodi="http://sodipodi.sourceforge.net/DTD/sodipodi-0.dtd"
   xmlns:inkscape="http://www.inkscape.org/namespaces/inkscape"
   sodipodi:docname="Slides Background.svg"
   inkscape:version="1.0 (4035a4fb49, 2020-05-01)"
   id="svg7864"
   version="1.1"
   viewBox="0 0 268.02292 29.717565"
   height="29.717566mm"
   width="268.02292mm">
  <defs
     id="defs7858" />
  <sodipodi:namedview
     inkscape:snap-global="false"
     inkscape:window-maximized="1"
     inkscape:window-y="-8"
     inkscape:window-x="-8"
     inkscape:window-height="838"
     inkscape:window-width="1600"
     showgrid="false"
     inkscape:document-rotation="0"
     inkscape:current-layer="layer1"
     inkscape:document-units="mm"
     inkscape:cy="215.78565"
     inkscape:cx="385.12949"
     inkscape:zoom="1"
     inkscape:pageshadow="2"
     inkscape:pageopacity="0.0"
     borderopacity="1.0"
     bordercolor="#666666"
     pagecolor="#ffffff"
     id="base" />
  <metadata
     id="metadata7861">
    <rdf:RDF>
      <cc:Work
         rdf:about="">
        <dc:format>image/svg+xml</dc:format>
        <dc:type
           rdf:resource="http://purl.org/dc/dcmitype/StillImage" />
        <dc:title />
      </cc:Work>
    </rdf:RDF>
  </metadata>
  <g
     transform="translate(-305.07284,-437.08833)"
     id="layer1"
     inkscape:groupmode="layer"
     inkscape:label="Layer 1">
    <path
       id="rect1225"
       style="fill:#c6c6c6;fill-opacity:1;stroke-width:18.8976;stroke-linejoin:round"
       d="m 272.00977,0 v 9.2011719 l -4.61915,3.8300781 0.1211,0.07813 c -0.004,0.01134 -0.008,0.02634 -0.008,0.04297 V 35.564459 H 266.117 v -7.353515 h -0.63672 v 7.353515 h -1.01172 c -0.0661,0 -0.11914,0.053 -0.11914,0.119141 v 9.214844 h -5.62109 c -0.10319,0 -0.1875,0.02943 -0.1875,0.06836 v 3.597656 h -9.51368 V 33.880859 c 0,-0.06614 -0.053,-0.11914 -0.11914,-0.11914 h -2.49609 v -5.708985 h -0.42188 v 5.708985 h -2.37109 v -6.640625 c 0,-0.06614 -0.0526,-0.119141 -0.11914,-0.119141 h -21.84375 c -0.0661,0 -0.11914,0.053 -0.11914,0.119141 v 6.640625 h -4.38672 c -0.0661,0 -0.11914,0.053 -0.11914,0.11914 v 12.5 h -8.0625 v -3.248047 c 0,-0.03855 -0.0843,-0.06836 -0.1875,-0.06836 h -10.45313 v -6.478515 c 0,-0.06614 -0.053,-0.121094 -0.11914,-0.121094 H 189.992 V 30.27539 c 0,-0.06614 -0.053,-0.119141 -0.11914,-0.119141 h -4.38867 v -3.035156 c 0,-0.06614 -0.053,-0.119141 -0.11915,-0.119141 h -0.7832 l 0.91406,-3.412109 -22.33007,3.412109 h -0.0937 c -0.0265,0 -0.0503,0.01223 -0.0703,0.02734 l -0.44922,0.06836 0.4043,0.0078 c 0,0.0076 -0.004,0.01002 -0.004,0.01758 v 3.035156 h -10.24609 c -0.0661,0 -0.11914,0.05495 -0.11914,0.121094 v 6.189453 H 143.3494 V 22.617188 c 0,-0.06614 -0.053,-0.119141 -0.11914,-0.119141 h -3.14453 c -4.61269,-4.151698 -12.29579,-5.178019 -18.54883,-5.216797 -0.26145,-0.0016 -0.5056,0.0061 -0.76172,0.0078 l -1.50781,-0.966796 -0.66992,1.019531 c -4.17593,0.169059 -7.18946,0.673828 -7.18946,0.673828 l -5.09765,4.460937 0.0234,0.01953 h -0.26757 c -0.0662,0 -0.11914,0.053 -0.11914,0.11914 v 11.498047 l -3.14844,0.832031 h -0.5918 c -0.10318,0 -0.18555,0.03025 -0.18555,0.07031 v 1.451172 h -8.123042 c -0.06614,0 -0.119141,0.053 -0.119141,0.119141 v 7.214843 l -2.539063,-2.035156 c -0.05858,-0.04687 -0.150401,-0.04687 -0.208984,0 l -5.150391,4.128906 h -3.86914 c -0.08239,0 -0.148438,0.05105 -0.148438,0.117188 v 1.683593 H 75.398438 V 22.353516 c 0,-0.06614 -0.06604,-0.117188 -0.148438,-0.117188 H 69.777344 V 10.863281 c 0,-0.06614 -0.06604,-0.11914 -0.148438,-0.11914 h -1.107422 c -0.08239,0 -0.148437,0.053 -0.148437,0.11914 v 11.373047 h -6.033203 c -0.08239,0 -0.150391,0.05105 -0.150391,0.117188 v 25.830078 h -7.236328 l -1.005859,-5.355469 c 0,0 -2.746227,-0.638172 -6.382813,-0.724609 l -1.164062,-6.205078 c 0,0 -13.67561,-3.191929 -20.433594,3.71289 -2.509493,-0.606312 -8.463192,-1.30772 -11.589844,4.515625 h -0.919922 c -0.06614,0 -0.11914,0.053 -0.11914,0.119141 v 7.542968 H -2 V 112.31836 H 1011 V 26.962891 h -4.6953 c -0.083,0 -0.1484,0.053 -0.1485,0.11914 v 6.640625 h -2.957 v -5.708984 h -0.5254 v 5.708984 h -2.1836 V 22.386719 c 0,-0.06614 -0.053,-0.119141 -0.1191,-0.119141 h -4.8379 V 10.894531 c 0,-0.06614 -0.053,-0.11914 -0.11914,-0.11914 h -0.88867 c -0.0661,0 -0.11914,0.053 -0.11914,0.11914 v 11.373047 h -4.38672 c -0.0661,0 -0.11914,0.053 -0.11914,0.119141 v 25.341797 h -5.18359 v -1.683594 c 0,-0.06614 -0.053,-0.119141 -0.11914,-0.119141 h -3.10352 l -1.19141,-1.191406 v -9.089844 c 0,-0.06614 -0.066,-0.11914 -0.14843,-0.11914 h -1.26172 v -7.353516 h -0.79492 v 7.353516 h -1.72852 v -22.41211 c 0,-0.01512 -0.006,-0.03012 -0.01,-0.04297 l 0.15039,-0.07812 -5.76172,-3.8300786 V 0 H 956.13477 V 9.1699219 L 949.44531,13 h -0.46875 c -0.0824,0 -0.15039,0.05495 -0.15039,0.121094 V 30.125 h -11.65429 c -0.0824,0 -0.14844,0.05105 -0.14844,0.117188 v 5.289062 h -3.22266 c -0.0824,0 -0.14844,0.053 -0.14844,0.119141 v 14.044921 c -12.33429,0.457723 -23.87278,1.191983 -32.58789,2.357422 h -12.30273 c -0.25663,0 -0.4668,0.03138 -0.4668,0.07031 v 7.091797 h -36.15625 v -2.638672 c 0,-0.03855 -0.20947,-0.07031 -0.46679,-0.07031 h -3.42579 c -0.1337,-0.06222 -0.27919,-0.109375 -0.44531,-0.109375 h -3.94922 c -0.1406,0 -0.27288,0.03031 -0.39258,0.07227 h -10.87109 c -0.0803,0 -0.1522,0.02213 -0.22656,0.03711 h -3.34375 c -0.15886,-0.09699 -0.34662,-0.166015 -0.5625,-0.166015 h -1.59961 v -1.242188 c 0,-0.419565 -0.41986,-0.757812 -0.94336,-0.757812 h -2.2168 c -0.16554,-0.116032 -0.37907,-0.19336 -0.61719,-0.19336 h -3.06835 v -1.548828 c 0,-0.419905 -0.42185,-0.757812 -0.94532,-0.757812 h -12.37109 c -0.52369,0 -0.94336,0.337907 -0.94336,0.757812 v 1.617188 h -0.34766 c -0.008,0 -0.0159,0.0039 -0.0234,0.0039 h -3.65235 v -3.746094 c 0,-0.419565 -0.42185,-0.757812 -0.94531,-0.757812 h -6.72266 c -0.52361,0 -0.94336,0.337907 -0.94336,0.757812 v 1.240235 c -0.11452,-0.0378 -0.24,-0.06055 -0.37304,-0.06055 h -1.59766 v -1.242188 c 0,-0.419905 -0.42185,-0.757812 -0.94531,-0.757812 h -2.2168 c -0.16554,-0.116032 -0.3772,-0.191407 -0.61523,-0.191406 h -3.07031 v -1.550782 c 0,-0.419905 -0.4199,-0.757812 -0.94336,-0.757812 h -11.23633 v -7.488282 c 0,-0.419715 -0.33792,-0.757812 -0.75781,-0.757812 h -6 V 31.55273 c 0,-0.419716 -0.33791,-0.757812 -0.75782,-0.757812 h -13.918 V 15.802734 c 0,-0.419716 -0.33828,-0.755859 -0.75781,-0.755859 h -10.28711 c -0.41971,0 -0.75781,0.335992 -0.75781,0.755859 V 43.810547 H 736.9668 V 32.755859 c 0,-0.419716 -0.0746,-0.757812 -0.16797,-0.757812 -0.0934,0 -0.16797,0.337907 -0.16797,0.757812 v 11.054688 h -0.62891 v -4.808594 c 0,-0.419716 -0.33787,-0.757812 -0.75781,-0.757812 h -1.65039 c -0.41975,0 -0.75781,0.337907 -0.75781,0.757812 v 3.578125 c -0.034,-0.01512 -0.0704,-0.02577 -0.10742,-0.03711 -0.0915,-0.315969 -0.36887,-0.550781 -0.71485,-0.550781 h -0.84375 c -0.32995,0 -0.60072,0.212416 -0.70508,0.505859 h -1.66601 c -0.41976,0 -0.75781,0.338247 -0.75781,0.757812 v 5.148438 h -3.37305 v -5.251953 c 0,-0.419717 -0.33791,-0.757813 -0.75781,-0.757813 h -4.02735 V 27.402344 c 0,-0.419717 -0.3379,-0.757813 -0.75781,-0.757813 h -3.29492 v -0.234375 c 0,-0.419716 -0.33825,-0.757812 -0.75781,-0.757812 h -2.51563 c -0.41972,0 -0.75781,0.337907 -0.75781,0.757812 v 0.234375 h -0.082 c -0.41972,0 -0.75782,0.337907 -0.75782,0.757813 v 9.189453 h -0.17773 c -0.41975,0 -0.75781,0.337907 -0.75781,0.757812 v 14.335938 h -2.18946 v -2.523438 c 0,-0.419716 -0.3379,-0.757812 -0.75781,-0.757812 h -0.84179 c -0.41972,0 -0.75782,0.337907 -0.75782,0.757812 v 2.523438 h -1.08594 V 49.5 c 0,-0.419717 -0.33824,-0.757812 -0.75781,-0.757812 h -5.38867 c -0.41972,0 -0.75781,0.337906 -0.75781,0.757812 v 2.589844 h -3.50781 c -0.52373,0 -0.94532,0.338247 -0.94532,0.757812 v 1.388672 c -0.045,-0.0076 -0.0836,-0.02344 -0.13086,-0.02344 h -1.81445 v -1.140625 c 0,-0.419717 -0.0746,-0.757813 -0.16797,-0.757813 -0.0934,0 -0.16797,0.337907 -0.16797,0.757813 v 1.140625 h -4.57422 c -0.52365,0 -0.9414,0.338247 -0.9414,0.757812 v 1.164063 c -0.16706,0.01512 -0.31822,0.07575 -0.4375,0.179687 h -1.87891 c -0.12434,0 -0.23666,0.03384 -0.33984,0.08789 v -0.18359 c 0,-0.419565 -0.42185,-0.757813 -0.94531,-0.757812 h -7.16016 V 53.96875 c 0,-0.419906 -0.42189,-0.757813 -0.94531,-0.757812 h -7.77539 c -0.27893,0 -0.52492,0.09888 -0.69727,0.251953 h -3.02539 v -1.939453 c 0,-0.419717 -0.84221,-0.757813 -1.88672,-0.757813 H 658.5723 V 49.96875 c 0,-0.419868 -0.13783,-0.757812 -0.31055,-0.757812 -0.17235,0 -0.3125,0.338284 -0.3125,0.757812 v 0.796875 H 625.49609 V 35.773438 c 0,-0.419717 -0.84229,-0.75586 -1.88671,-0.75586 H 598 c -1.04447,0 -1.88672,0.335992 -1.88672,0.75586 v 22.826171 h -4.1914 v -2.878906 c 0,-0.314079 -0.23622,-0.582029 -0.57422,-0.697265 v -2.296876 c 0,-0.419677 -0.1818,-0.757812 -0.41602,-0.757812 -0.23433,0 -0.41797,0.338248 -0.41797,0.757812 v 2.236329 h -8.11328 v -0.222657 c 0,-0.03855 -0.20699,-0.07031 -0.4668,-0.07031 h -33.11914 v -7.296875 c 0,-0.419717 -0.84111,-0.757813 -1.88672,-0.757813 h -8.20117 v -0.234375 c 0,-0.419716 -0.84164,-0.757812 -1.88672,-0.757812 h -6.26367 c -1.04447,0 -1.88672,0.338247 -1.88672,0.757812 v 0.234375 h -0.20507 c -1.04504,0 -1.88672,0.338248 -1.88672,0.757813 v 3.089844 c -1.27851,-0.157713 -2.55812,-0.238801 -3.79102,-0.273438 v -0.185547 c 0,-0.419716 -0.11167,-0.757812 -0.25,-0.757812 -0.13833,0 -0.25,0.338247 -0.25,0.757812 v 0.171875 c -2.39334,-0.04249 -4.55339,0.08857 -5.98828,0.216797 -10.62059,-4.013669 -32.11328,-2.158203 -32.11328,-2.158203 l -1.82813,3.607422 c -1.62988,0.01512 -3.09299,0.05715 -4.42773,0.107422 -0.0302,-0.0019 -0.0575,-0.0078 -0.0957,-0.0078 h -8.06836 v -1.560547 c 0,-0.419716 -0.33829,-0.757812 -0.75782,-0.757812 h -6.35156 v -4.292969 c 0,-0.03855 -0.16442,-0.06836 -0.37305,-0.06836 h -2.78711 c -0.2086,0 -0.37304,0.02943 -0.37304,0.06836 v 2.128906 l -1.04492,-1.044922 c -0.2967,-0.296691 -0.77546,-0.296691 -1.07227,0 l -3.20898,3.208985 h -9.22461 v -1.804688 c 0,-0.419716 -0.33825,-0.757812 -0.75782,-0.757812 h -0.11328 c -0.41971,0 -0.75781,0.338247 -0.75781,0.757812 v 1.882813 c -0.0265,-0.0031 -0.0533,-0.01367 -0.082,-0.01367 h -2.78906 v -0.222656 c 0,-0.419566 -0.42185,-0.757813 -0.94532,-0.757813 h -4.68164 C 434.45728,48.315019 434.3896,48 434.30078,48 c -0.0888,0 -0.15764,0.315208 -0.16406,0.707031 h -1.20508 v -0.761719 c 0,-0.419753 -0.33791,-0.757812 -0.75781,-0.757812 h -7.71875 v -9.873047 c 0,-0.419905 -0.42185,-0.757812 -0.94531,-0.757812 h -0.22071 v -9.189453 c 0,-0.419906 -0.42188,-0.757813 -0.94531,-0.757813 h -0.10352 V 26.375 c 0,-0.419565 -0.4199,-0.757812 -0.94335,-0.757812 h -3.13868 c -0.52373,0 -0.94531,0.338247 -0.94531,0.757812 v 0.234375 h -4.10937 c -0.52373,0 -0.94532,0.337907 -0.94532,0.757813 v 14.992187 h -5.02539 c -0.52373,0 -0.94531,0.338247 -0.94531,0.757813 v 5.251953 h -3.63086 v -1.748047 c 0,-0.0076 1.3e-4,-0.01978 -0.0723,-0.02734 l 0.4746,-0.04492 -0.97656,-0.121094 v -3.207031 c 0,-0.419565 -0.42181,-0.757812 -0.94531,-0.757812 h -2.07813 c -0.13001,-0.293292 -0.46739,-0.50586 -0.8789,-0.50586 h -1.05274 c -0.43143,0 -0.77843,0.234701 -0.89257,0.550781 -0.0461,0.01134 -0.0909,0.02199 -0.13282,0.03711 v -3.578125 c 0,-0.419565 -0.42181,-0.757813 -0.94531,-0.757813 h -2.05859 c -0.52377,0 -0.94532,0.337907 -0.94532,0.757813 v 4.808594 h -0.78515 V 32.720703 c 0,-0.419905 -0.0926,-0.757812 -0.20899,-0.757812 -0.11641,0 -0.20898,0.337907 -0.20898,0.757812 V 43.775391 H 390.625 v -3.263672 c 0,-0.03855 -0.0839,-0.06836 -0.1875,-0.06836 h -0.41992 l 0.0293,-0.01172 -1.58399,-0.513672 V 15.767578 c 0,-0.419868 -0.42185,-0.755859 -0.94531,-0.755859 H 374.6875 c -0.52328,0 -0.94531,0.335991 -0.94531,0.755859 v 14.992188 h -7.37891 v -0.904297 c 0,-0.02268 -0.0875,-0.04341 -0.2168,-0.05664 0,-0.0022 0.10938,-0.01172 0.10938,-0.01172 l -7.17774,-1.853515 -3.04296,1.855468 0.0703,0.0078 c -0.15874,0.01134 -0.27344,0.03302 -0.27344,0.0625 v 1.058594 c -0.2321,0.137844 -0.39258,0.349056 -0.39258,0.599609 v 3.953125 c -1.56129,0.191462 -4.31879,0.240368 -9.31054,0.34375 h -6.58203 c -0.2589,0 -0.4668,0.03025 -0.4668,0.07031 v 3.951172 c -0.73614,0.190864 -1.45014,0.391208 -2.11133,0.611328 h -4.94141 c -0.10318,0 -0.1875,0.02943 -0.1875,0.06836 v 4.582031 l -13.74414,1.457032 h -0.77734 v -1.583985 c 0,-0.03855 -0.0839,-0.07031 -0.1875,-0.07031 h -15.37891 v -9.216797 c 0,-0.06614 -0.053,-0.119141 -0.11914,-0.119141 h -2.58398 v -5.289062 c 0,-0.06614 -0.053,-0.119141 -0.11914,-0.119141 h -9.34375 V 13.152344 c 0,-0.06614 -0.053,-0.121094 -0.11914,-0.121094 h -0.37696 L 283.72656,9.2011719 V 0 Z"
       transform="matrix(0.26458333,0,0,0.26458333,305.60201,437.08833)" />
  </g>
</svg>
