<?xml version="1.0" encoding="UTF-8" standalone="no"?>
<svg
   xmlns:dc="http://purl.org/dc/elements/1.1/"
   xmlns:cc="http://creativecommons.org/ns#"
   xmlns:rdf="http://www.w3.org/1999/02/22-rdf-syntax-ns#"
   xmlns:svg="http://www.w3.org/2000/svg"
   xmlns="http://www.w3.org/2000/svg"
   xmlns:sodipodi="http://sodipodi.sourceforge.net/DTD/sodipodi-0.dtd"
   xmlns:inkscape="http://www.inkscape.org/namespaces/inkscape"
   sodipodi:docname="The Northshore.svg"
   inkscape:version="1.0 (4035a4fb49, 2020-05-01)"
   id="svg6658"
   version="1.1"
   viewBox="0 0 33.786159 100.83363"
   height="100.83363mm"
   width="33.78616mm">
  <defs
     id="defs6652">
    <marker
       inkscape:stockid="Arrow1Lstart"
       orient="auto"
       refY="0"
       refX="0"
       id="Arrow1Lstart"
       style="overflow:visible"
       inkscape:isstock="true">
      <path
         id="path2781"
         d="M 0,0 5,-5 -12.5,0 5,5 Z"
         style="fill:#000000;fill-opacity:1;fill-rule:evenodd;stroke:#000000;stroke-width:1pt;stroke-opacity:1"
         transform="matrix(0.8,0,0,0.8,10,0)" />
    </marker>
  </defs>
  <sodipodi:namedview
     inkscape:window-maximized="1"
     inkscape:window-y="-9"
     inkscape:window-x="-9"
     inkscape:window-height="1001"
     inkscape:window-width="1920"
     fit-margin-bottom="0"
     fit-margin-right="0"
     fit-margin-left="0"
     fit-margin-top="0"
     showgrid="false"
     inkscape:document-rotation="0"
     inkscape:current-layer="layer1"
     inkscape:document-units="mm"
     inkscape:cy="224.58646"
     inkscape:cx="26.660727"
     inkscape:zoom="1"
     inkscape:pageshadow="2"
     inkscape:pageopacity="0.0"
     borderopacity="1.0"
     bordercolor="#666666"
     pagecolor="#ffffff"
     id="base"
     inkscape:object-nodes="false"
     inkscape:object-paths="false" />
  <metadata
     id="metadata6655">
    <rdf:RDF>
      <cc:Work
         rdf:about="">
        <dc:format>image/svg+xml</dc:format>
        <dc:type
           rdf:resource="http://purl.org/dc/dcmitype/StillImage" />
        <dc:title />
      </cc:Work>
    </rdf:RDF>
  </metadata>
  <g
     transform="translate(-375.80574,-811.78909)"
     id="layer1"
     inkscape:groupmode="layer"
     inkscape:label="Layer 1">
    <g
       style="stroke-width:5.13836"
       id="g4833"
       transform="matrix(0.19461467,0,0,0.19461467,1176.1497,618.44701)">
      <path
         d="m -4033.82,1511.5802 c -0.049,0 -0.088,-0.039 -0.088,-0.088 v -52.8484 h -15.4331 c -0.049,0 -0.088,-0.039 -0.088,-0.088 v -104.8477 h -43.6536 c -0.049,0 -0.088,-0.039 -0.088,-0.088 v -65.9653 h -19.1957 c -0.049,0 -0.088,-0.039 -0.088,-0.088 v -34.4905 c 0,-0.049 0.039,-0.088 0.088,-0.088 h 173.3796 c 0.049,0 0.088,0.039 0.088,0.088 v 34.4905 c 0,0.049 -0.039,0.088 -0.088,0.088 h -6.0263 v 65.9653 c 0,0.049 -0.039,0.088 -0.088,0.088 h -0.8525 v 104.8478 c 0,0.049 -0.039,0.088 -0.088,0.088 h -8.3779 v 52.8484 c 0,0.049 -0.039,0.088 -0.088,0.088 z"
         style="fill:#dad7e9;fill-opacity:1;stroke:none;stroke-width:1.36166;stroke-linejoin:round"
         id="rect4941-0-2" />
      <path
         id="rect4941-0"
         style="fill:#8f8fa4;fill-opacity:1;stroke:none;stroke-width:1.36166;stroke-linejoin:round"
         d="m -4033.7702,993.46106 c -0.049,0 -0.088,0.039 -0.088,0.088 v 53.06044 h -15.4331 c -0.049,0 -0.088,0.039 -0.088,0.088 v 105.2684 h -43.6536 c -0.049,0 -0.088,0.039 -0.088,0.088 v 66.23 h -19.1957 c -0.049,0 -0.088,0.039 -0.088,0.088 v 34.6289 c 0,0.049 0.039,0.088 0.088,0.088 h 173.3796 c 0.049,0 0.088,-0.039 0.088,-0.088 v -34.6289 c 0,-0.049 -0.039,-0.088 -0.088,-0.088 h -6.0263 v -66.23 c 0,-0.049 -0.039,-0.088 -0.088,-0.088 h -0.8525 v -105.2685 c 0,-0.049 -0.039,-0.088 -0.088,-0.088 h -8.3779 v -53.06044 c 0,-0.049 -0.039,-0.088 -0.088,-0.088 z" />
    </g>
  </g>
</svg>
