<?xml version="1.0" encoding="UTF-8" standalone="no"?>
<svg
   xmlns:dc="http://purl.org/dc/elements/1.1/"
   xmlns:cc="http://creativecommons.org/ns#"
   xmlns:rdf="http://www.w3.org/1999/02/22-rdf-syntax-ns#"
   xmlns:svg="http://www.w3.org/2000/svg"
   xmlns="http://www.w3.org/2000/svg"
   xmlns:sodipodi="http://sodipodi.sourceforge.net/DTD/sodipodi-0.dtd"
   xmlns:inkscape="http://www.inkscape.org/namespaces/inkscape"
   sodipodi:docname="The Ashton.svg"
   inkscape:version="1.0 (4035a4fb49, 2020-05-01)"
   id="svg6658"
   version="1.1"
   viewBox="0 0 33.975471 169.38711"
   height="169.38712mm"
   width="33.975471mm">
  <defs
     id="defs6652">
    <marker
       inkscape:stockid="Arrow1Lstart"
       orient="auto"
       refY="0"
       refX="0"
       id="Arrow1Lstart"
       style="overflow:visible"
       inkscape:isstock="true">
      <path
         id="path2781"
         d="M 0,0 5,-5 -12.5,0 5,5 Z"
         style="fill:#000000;fill-opacity:1;fill-rule:evenodd;stroke:#000000;stroke-width:1pt;stroke-opacity:1"
         transform="matrix(0.8,0,0,0.8,10,0)" />
    </marker>
  </defs>
  <sodipodi:namedview
     inkscape:snap-bbox="false"
     inkscape:window-maximized="1"
     inkscape:window-y="-9"
     inkscape:window-x="-9"
     inkscape:window-height="1001"
     inkscape:window-width="1920"
     fit-margin-bottom="0"
     fit-margin-right="0"
     fit-margin-left="0"
     fit-margin-top="0"
     showgrid="false"
     inkscape:document-rotation="0"
     inkscape:current-layer="layer1"
     inkscape:document-units="mm"
     inkscape:cy="260.08334"
     inkscape:cx="67.165532"
     inkscape:zoom="1"
     inkscape:pageshadow="2"
     inkscape:pageopacity="0.0"
     borderopacity="1.0"
     bordercolor="#666666"
     pagecolor="#ffffff"
     id="base"
     inkscape:object-nodes="false"
     inkscape:object-paths="false" />
  <metadata
     id="metadata6655">
    <rdf:RDF>
      <cc:Work
         rdf:about="">
        <dc:format>image/svg+xml</dc:format>
        <dc:type
           rdf:resource="http://purl.org/dc/dcmitype/StillImage" />
        <dc:title />
      </cc:Work>
    </rdf:RDF>
  </metadata>
  <g
     transform="translate(-473.98522,-812.94792)"
     id="layer1"
     inkscape:groupmode="layer"
     inkscape:label="Layer 1">
    <g
       style="stroke-width:7.58303"
       id="g4837"
       transform="matrix(0.13187352,0,0,0.13187352,983.55277,732.58806)">
      <path
         sodipodi:nodetypes="sccccssssscsscssssccsscs"
         d="m -3837.2207,1893.8361 c -16.3222,0.066 -26.842,-2.9693 -26.842,-2.9693 v -30.3453 h 12.9256 c 0,-202.5525 0,-405.1051 0,-607.6576 0,-0.095 0.077,-0.1721 0.1729,-0.1721 h 244.3153 c 0.095,0 0.1732,0.077 0.1732,0.1721 v 589.094 c 0,0.096 -0.077,0.1722 -0.1732,0.1722 h -10.906 v 8.1037 c 0,0.096 -0.077,0.1725 -0.1729,0.1725 h -14.5988 v 7.1841 c 0,0.096 -0.077,0.1722 -0.1734,0.1722 h -102.1346 c -0.095,0 -0.1729,-0.077 -0.1729,-0.1722 v -7.1841 h -13.8489 v 27.4145 c 0,0.096 -0.077,0.1722 -0.1732,0.1722 h -26.3471 c -23.3506,12.5742 -45.631,15.7771 -62.044,15.8431 z"
         style="fill:#dad7e9;fill-opacity:1;stroke:none;stroke-width:2.0095;stroke-linejoin:round"
         id="rect4956-5" />
      <path
         id="rect4956"
         style="fill:#8f8fa4;fill-opacity:1;stroke:none;stroke-width:2.0095;stroke-linejoin:round"
         d="m -3837.1709,609.37176 c -16.3222,-0.066 -26.842,2.9812 -26.842,2.9812 v 30.4671 h 12.9256 c 0,203.3653 0,406.73064 0,610.09594 0,0.095 0.077,0.1728 0.1729,0.1728 h 244.3153 c 0.095,0 0.1732,-0.077 0.1732,-0.1728 V 661.45816 c 0,-0.096 -0.077,-0.1729 -0.1732,-0.1729 h -10.906 v -8.1362 c 0,-0.096 -0.077,-0.1732 -0.1729,-0.1732 h -14.5988 v -7.2129 c 0,-0.096 -0.077,-0.1729 -0.1734,-0.1729 h -102.1346 c -0.095,0 -0.1729,0.077 -0.1729,0.1729 v 7.2129 h -13.8489 v -27.5245 c 0,-0.096 -0.077,-0.1729 -0.1732,-0.1729 h -26.3471 c -23.3506,-12.6247 -45.631,-15.8404 -62.044,-15.9067 z"
         sodipodi:nodetypes="sccccssssscsscssssccsscs" />
    </g>
  </g>
</svg>
