<?xml version="1.0" encoding="UTF-8" standalone="no"?>
<svg
   xmlns:dc="http://purl.org/dc/elements/1.1/"
   xmlns:cc="http://creativecommons.org/ns#"
   xmlns:rdf="http://www.w3.org/1999/02/22-rdf-syntax-ns#"
   xmlns:svg="http://www.w3.org/2000/svg"
   xmlns="http://www.w3.org/2000/svg"
   xmlns:sodipodi="http://sodipodi.sourceforge.net/DTD/sodipodi-0.dtd"
   xmlns:inkscape="http://www.inkscape.org/namespaces/inkscape"
   sodipodi:docname="The Shore.svg"
   inkscape:version="1.0 (4035a4fb49, 2020-05-01)"
   id="svg6658"
   version="1.1"
   viewBox="0 0 45.730541 211.7009"
   height="211.7009mm"
   width="45.730541mm">
  <defs
     id="defs6652">
    <marker
       inkscape:stockid="Arrow1Lstart"
       orient="auto"
       refY="0"
       refX="0"
       id="Arrow1Lstart"
       style="overflow:visible"
       inkscape:isstock="true">
      <path
         id="path2781"
         d="M 0,0 5,-5 -12.5,0 5,5 Z"
         style="fill:#000000;fill-opacity:1;fill-rule:evenodd;stroke:#000000;stroke-width:1pt;stroke-opacity:1"
         transform="matrix(0.8,0,0,0.8,10,0)" />
    </marker>
  </defs>
  <sodipodi:namedview
     inkscape:window-maximized="1"
     inkscape:window-y="-9"
     inkscape:window-x="-9"
     inkscape:window-height="1001"
     inkscape:window-width="1920"
     fit-margin-bottom="0"
     fit-margin-right="0"
     fit-margin-left="0"
     fit-margin-top="0"
     showgrid="false"
     inkscape:document-rotation="0"
     inkscape:current-layer="layer1"
     inkscape:document-units="mm"
     inkscape:cy="527.1133"
     inkscape:cx="-179.66806"
     inkscape:zoom="1"
     inkscape:pageshadow="2"
     inkscape:pageopacity="0.0"
     borderopacity="1.0"
     bordercolor="#666666"
     pagecolor="#ffffff"
     id="base"
     inkscape:object-nodes="false"
     inkscape:object-paths="false" />
  <metadata
     id="metadata6655">
    <rdf:RDF>
      <cc:Work
         rdf:about="">
        <dc:format>image/svg+xml</dc:format>
        <dc:type
           rdf:resource="http://purl.org/dc/dcmitype/StillImage" />
        <dc:title />
      </cc:Work>
    </rdf:RDF>
  </metadata>
  <g
     transform="translate(-99.019337,-418.14763)"
     id="layer1"
     inkscape:groupmode="layer"
     inkscape:label="Layer 1">
    <path
       sodipodi:nodetypes="ccsscsscsssccsssccscccsscssccc"
       d="m 117.8253,418.14763 v 4.74268 h -13.34017 c -0.22292,0 -0.40269,0.21715 -0.40269,0.4864 v 0.86827 h -1.13993 c -0.22292,0 -0.40271,0.21713 -0.40271,0.48641 v 8.82974 h -3.102874 c -0.222944,0 -0.402718,0.21625 -0.402718,0.48552 v 89.47577 c 0,0.26925 0.179774,0.48552 0.402718,0.48552 H 144.3479 c 0.22293,0 0.40198,-0.21627 0.40198,-0.48552 V 427.9493 c 0,-0.26928 -0.17905,-0.48552 -0.40198,-0.48552 h -0.58021 v -8.1307 c -4.41276,0.50814 -3.76387,1.57392 -6.40529,3.73974 -2.6414,2.16582 -3.97066,1.5115 -3.97066,1.5115 v 2.87946 h -1.26242 v -2.73239 c 0,-0.26928 -0.17979,-0.48641 -0.40272,-0.48641 h -2.2615 v -0.86827 c 0,-0.26925 -0.17978,-0.4864 -0.4027,-0.4864 h -1.28076 v -3.04869 c -3.08512,-1.69378 -9.95634,-1.69399 -9.95634,-1.69399 z"
       style="fill:#c6c6c6;stroke-width:0.264999;stroke-linejoin:round"
       id="rect4902" />
    <path
       id="rect4902-0"
       style="fill:#e4dff2;fill-opacity:1;stroke-width:0.264999;stroke-linejoin:round"
       d="m 117.81043,629.84853 v -4.74164 h -13.34017 c -0.22292,0 -0.40269,-0.2171 -0.40269,-0.48629 v -0.86808 h -1.13993 c -0.22292,0 -0.40271,-0.21709 -0.40271,-0.48631 v -8.82781 h -3.102873 c -0.22294,0 -0.40272,-0.2162 -0.40272,-0.48541 v -89.45622 c 0,-0.26918 0.17978,-0.48541 0.40272,-0.48541 h 44.910973 c 0.22293,0 0.40198,0.21623 0.40198,0.48541 v 95.55224 c 0,0.26922 -0.17905,0.48541 -0.40198,0.48541 h -0.58021 v 8.12892 c -4.41276,-0.50802 -3.76387,-1.57357 -6.40529,-3.73891 -2.6414,-2.16536 -3.97066,-1.51118 -3.97066,-1.51118 v -2.87883 h -1.26242 v 2.73179 c 0,0.26922 -0.17979,0.48631 -0.40272,0.48631 h -2.2615 v 0.86808 c 0,0.26919 -0.17978,0.48629 -0.4027,0.48629 h -1.28076 v 3.04803 c -3.08512,1.69341 -9.95634,1.69361 -9.95634,1.69361 z"
       sodipodi:nodetypes="ccsscsscsssccsssccscccsscssccc" />
  </g>
</svg>
