<?xml version="1.0" encoding="UTF-8" standalone="no"?>
<svg
   xmlns:dc="http://purl.org/dc/elements/1.1/"
   xmlns:cc="http://creativecommons.org/ns#"
   xmlns:rdf="http://www.w3.org/1999/02/22-rdf-syntax-ns#"
   xmlns:svg="http://www.w3.org/2000/svg"
   xmlns="http://www.w3.org/2000/svg"
   xmlns:sodipodi="http://sodipodi.sourceforge.net/DTD/sodipodi-0.dtd"
   xmlns:inkscape="http://www.inkscape.org/namespaces/inkscape"
   sodipodi:docname="The Austonian.svg"
   inkscape:version="1.0 (4035a4fb49, 2020-05-01)"
   id="svg6658"
   version="1.1"
   viewBox="0 0 50.472727 242.81599"
   height="242.81598mm"
   width="50.472725mm">
  <defs
     id="defs6652">
    <marker
       inkscape:stockid="Arrow1Lstart"
       orient="auto"
       refY="0"
       refX="0"
       id="Arrow1Lstart"
       style="overflow:visible"
       inkscape:isstock="true">
      <path
         id="path2781"
         d="M 0,0 5,-5 -12.5,0 5,5 Z"
         style="fill:#000000;fill-opacity:1;fill-rule:evenodd;stroke:#000000;stroke-width:1pt;stroke-opacity:1"
         transform="matrix(0.8,0,0,0.8,10,0)" />
    </marker>
  </defs>
  <sodipodi:namedview
     inkscape:window-maximized="1"
     inkscape:window-y="-9"
     inkscape:window-x="-9"
     inkscape:window-height="1001"
     inkscape:window-width="1920"
     fit-margin-bottom="0"
     fit-margin-right="0"
     fit-margin-left="0"
     fit-margin-top="0"
     showgrid="false"
     inkscape:document-rotation="0"
     inkscape:current-layer="layer1"
     inkscape:document-units="mm"
     inkscape:cy="656.87285"
     inkscape:cx="-153.03232"
     inkscape:zoom="1.4142136"
     inkscape:pageshadow="2"
     inkscape:pageopacity="0.0"
     borderopacity="1.0"
     bordercolor="#666666"
     pagecolor="#ffffff"
     id="base"
     inkscape:object-nodes="false"
     inkscape:object-paths="false" />
  <metadata
     id="metadata6655">
    <rdf:RDF>
      <cc:Work
         rdf:about="">
        <dc:format>image/svg+xml</dc:format>
        <dc:type
           rdf:resource="http://purl.org/dc/dcmitype/StillImage" />
        <dc:title></dc:title>
      </cc:Work>
    </rdf:RDF>
  </metadata>
  <g
     transform="translate(-86.905817,-706.62344)"
     id="layer1"
     inkscape:groupmode="layer"
     inkscape:label="Layer 1">
    <g
       id="g4882"
       transform="matrix(0.15072446,0,0,0.15072446,423.88458,645.93334)"
       style="stroke-width:6.63462">
      <path
         sodipodi:nodetypes="cccccccccccccsscsssscccccccccccc"
         id="path3086-8"
         style="fill:#000314;fill-opacity:1;stroke:none;stroke-width:1.75541px;stroke-linecap:butt;stroke-linejoin:miter;stroke-opacity:1"
         d="m -2010.055,402.65596 -16.0331,31.6575 v 93.36847 l -9.2687,1.80557 -1.6811,82.09989 -7.676,4.28294 -1.3593,229.91466 h -11.0485 l 0.3103,233.26151 -10.2304,0.2045 -0.271,33.5931 -66.6706,0.594 v 21.1137 h -59.2475 c -0.1571,0 -0.2837,0.1266 -0.2837,0.2837 v 44.3647 h -41.8843 c -0.1571,0 -0.2837,0.1267 -0.2837,0.2838 v 28.3719 c 0,0.157 0.1266,0.2831 0.2837,0.2831 h 42.168 6.874 l 285.4973,0.2518 -0.6082,-361.71454 -11.9551,-0.31032 0.2229,-229.91414 -6.8621,-4.68654 -0.7865,-83.47501 -9.7007,-1.21647 v -92.13235 l -15.8486,-32.28537 z" />
    </g>
    <g
       style="fill:#cdc8e0;fill-opacity:1;stroke-width:6.63462"
       transform="matrix(0.15072446,0,0,-0.15072442,423.87787,1010.1295)"
       id="g90685">
      <path
         d="m -2010.055,402.65596 -16.0331,31.6575 v 93.36847 l -9.2687,1.80557 -1.6811,82.09989 -7.676,4.28294 -1.3593,229.91466 h -11.0485 l 0.3103,233.26151 -10.2304,0.2045 -0.271,33.5931 -66.6706,0.594 v 21.1137 h -59.2475 c -0.1571,0 -0.2837,0.1266 -0.2837,0.2837 v 44.3647 h -41.8843 c -0.1571,0 -0.2837,0.1267 -0.2837,0.2838 v 28.3719 c 0,0.157 0.1266,0.2831 0.2837,0.2831 l 334.5393,0.2518 -0.6082,-361.71454 -11.9551,-0.31032 0.2229,-229.91414 -6.8621,-4.68654 -0.7865,-83.47501 -9.7007,-1.21647 v -92.13235 l -15.8486,-32.28537 z"
         style="fill:#cdc8e0;fill-opacity:1;stroke:none;stroke-width:1.75541px;stroke-linecap:butt;stroke-linejoin:miter;stroke-opacity:1"
         id="path90683"
         sodipodi:nodetypes="cccccccccccccsscsssccccccccccc" />
    </g>
  </g>
</svg>
