<?xml version="1.0" encoding="UTF-8" standalone="no"?>
<svg
   xmlns:dc="http://purl.org/dc/elements/1.1/"
   xmlns:cc="http://creativecommons.org/ns#"
   xmlns:rdf="http://www.w3.org/1999/02/22-rdf-syntax-ns#"
   xmlns:svg="http://www.w3.org/2000/svg"
   xmlns="http://www.w3.org/2000/svg"
   xmlns:sodipodi="http://sodipodi.sourceforge.net/DTD/sodipodi-0.dtd"
   xmlns:inkscape="http://www.inkscape.org/namespaces/inkscape"
   width="56.718555mm"
   height="93.402084mm"
   viewBox="0 0 56.718555 93.402095"
   version="1.1"
   id="svg8565"
   inkscape:version="1.0 (4035a4fb49, 2020-05-01)"
   sodipodi:docname="UT Main Building.svg">
  <defs
     id="defs8559" />
  <sodipodi:namedview
     id="base"
     pagecolor="#ffffff"
     bordercolor="#666666"
     borderopacity="1.0"
     inkscape:pageopacity="0.0"
     inkscape:pageshadow="2"
     inkscape:zoom="4"
     inkscape:cx="98.732614"
     inkscape:cy="199.32411"
     inkscape:document-units="mm"
     inkscape:current-layer="layer1"
     inkscape:document-rotation="0"
     showgrid="false"
     fit-margin-top="0"
     fit-margin-left="0"
     fit-margin-right="0"
     fit-margin-bottom="0"
     inkscape:window-width="1920"
     inkscape:window-height="1001"
     inkscape:window-x="-9"
     inkscape:window-y="-9"
     inkscape:window-maximized="1" />
  <metadata
     id="metadata8562">
    <rdf:RDF>
      <cc:Work
         rdf:about="">
        <dc:format>image/svg+xml</dc:format>
        <dc:type
           rdf:resource="http://purl.org/dc/dcmitype/StillImage" />
        <dc:title></dc:title>
      </cc:Work>
    </rdf:RDF>
  </metadata>
  <g
     inkscape:label="Layer 1"
     inkscape:groupmode="layer"
     id="layer1"
     transform="translate(-99.361416,-312.29902)">
    <path
       d="m 126.58982,405.70108 v -0.68163 h -0.75034 v -0.88621 h 0.614 v -3.79503 h -1.79016 v -2.989 h -2.09007 v -27.29843 h -10.54747 l -4.82598,-1.29196 v -1.77539 h -3.30418 v -1.13185 h -4.534204 v -6.84444 l 56.706634,-0.0693 v 7.36398 h -5.32091 v 0.95434 l -2.79495,0.0172 v 1.28561 l -4.29969,1.34398 h -9.75509 v 27.34572 h -2.18304 v 3.05708 h -1.57724 v 3.89564 h 0.54582 v 0.74998 h -0.80281 v 0.74975 z m 0.0995,-1.61712 h 0.24223 v -3.6445 h -0.24223 z m 0.4758,0 h 0.24223 v -3.6445 h -0.24223 z m 2.06374,0 h 0.24223 v -3.6445 h -0.24223 z m 0.46038,0 h 0.24223 v -3.6445 h -0.24223 z"
       style="fill:#cdc8e0;fill-opacity:1;stroke:none;stroke-width:0.264583px;stroke-linecap:butt;stroke-linejoin:miter;stroke-opacity:1"
       id="path7229-0" />
    <path
       d="m 126.60174,312.29902 v 0.68232 h -0.75034 v 0.88711 h 0.614 v 3.79891 h -1.79016 v 2.99203 h -2.09007 v 27.32623 H 112.0377 l -4.82598,1.29327 v 1.77719 h -3.30418 v 1.13301 h -4.534204 v 6.85141 l 56.706634,0.0694 v -7.37149 h -5.32091 v -0.9553 l -2.79495,-0.0172 v -1.28693 l -4.29969,-1.34534 h -9.75509 v -27.37357 h -2.18304 v -3.06021 h -1.57724 v -3.8996 h 0.54582 v -0.75074 h -0.80281 v -0.7505 z m 0.0995,1.61875 h 0.24223 v 3.64821 h -0.24223 z m 0.4758,0 h 0.24223 v 3.64821 h -0.24223 z m 2.06374,0 h 0.24223 v 3.64821 h -0.24223 z m 0.46038,0 h 0.24223 v 3.64821 h -0.24223 z"
       style="fill:#000314;fill-opacity:1;stroke:none;stroke-width:0.264583px;stroke-linecap:butt;stroke-linejoin:miter;stroke-opacity:1"
       id="path7229" />
  </g>
</svg>
