<?xml version="1.0" encoding="UTF-8" standalone="no"?>
<svg
   xmlns:dc="http://purl.org/dc/elements/1.1/"
   xmlns:cc="http://creativecommons.org/ns#"
   xmlns:rdf="http://www.w3.org/1999/02/22-rdf-syntax-ns#"
   xmlns:svg="http://www.w3.org/2000/svg"
   xmlns="http://www.w3.org/2000/svg"
   xmlns:sodipodi="http://sodipodi.sourceforge.net/DTD/sodipodi-0.dtd"
   xmlns:inkscape="http://www.inkscape.org/namespaces/inkscape"
   sodipodi:docname="West Sixth.svg"
   inkscape:version="1.0 (4035a4fb49, 2020-05-01)"
   id="svg6658"
   version="1.1"
   viewBox="0 0 32.7938 174.36923"
   height="174.36923mm"
   width="32.7938mm">
  <defs
     id="defs6652">
    <marker
       inkscape:stockid="Arrow1Lstart"
       orient="auto"
       refY="0"
       refX="0"
       id="Arrow1Lstart"
       style="overflow:visible"
       inkscape:isstock="true">
      <path
         id="path2781"
         d="M 0,0 5,-5 -12.5,0 5,5 Z"
         style="fill:#000000;fill-opacity:1;fill-rule:evenodd;stroke:#000000;stroke-width:1pt;stroke-opacity:1"
         transform="matrix(0.8,0,0,0.8,10,0)" />
    </marker>
  </defs>
  <sodipodi:namedview
     inkscape:window-maximized="1"
     inkscape:window-y="-9"
     inkscape:window-x="-9"
     inkscape:window-height="1001"
     inkscape:window-width="1920"
     fit-margin-bottom="0"
     fit-margin-right="0"
     fit-margin-left="0"
     fit-margin-top="0"
     showgrid="false"
     inkscape:document-rotation="0"
     inkscape:current-layer="layer1"
     inkscape:document-units="mm"
     inkscape:cy="349.41374"
     inkscape:cx="312.28995"
     inkscape:zoom="0.99999999"
     inkscape:pageshadow="2"
     inkscape:pageopacity="0.0"
     borderopacity="1.0"
     bordercolor="#666666"
     pagecolor="#ffffff"
     id="base"
     inkscape:object-nodes="false"
     inkscape:object-paths="false" />
  <metadata
     id="metadata6655">
    <rdf:RDF>
      <cc:Work
         rdf:about="">
        <dc:format>image/svg+xml</dc:format>
        <dc:type
           rdf:resource="http://purl.org/dc/dcmitype/StillImage" />
        <dc:title />
      </cc:Work>
    </rdf:RDF>
  </metadata>
  <g
     transform="translate(-100.93986,-285.9565)"
     id="layer1"
     inkscape:groupmode="layer"
     inkscape:label="Layer 1">
    <path
       id="rect3092"
       style="fill:#c6c6c6;fill-opacity:1;stroke:none;stroke-width:0.264998;stroke-linecap:butt;stroke-linejoin:round;stroke-miterlimit:4;stroke-dasharray:none;stroke-dashoffset:0;stroke-opacity:1"
       d="m 120.24028,285.95925 c -4.68309,-0.0808 -9.13531,1.61957 -13.4125,4.67017 v 6.83469 h -1.21116 v 44.12177 h -4.41233 c -0.1438,0 -0.25926,0.11549 -0.25926,0.25929 v 30.88528 c 0,0.1438 0.11546,0.25975 0.25926,0.25975 h 32.52937 v -75.52609 h -0.51901 v -6.83469 c -4.53004,-3.14072 -8.84219,-4.59885 -12.97437,-4.67017 z"
       sodipodi:nodetypes="sccccssscccccs" />
    <path
       sodipodi:nodetypes="sccccssscccccs"
       d="m 120.23511,460.32296 c -4.68309,0.0811 -9.13531,-1.62513 -13.4125,-4.68622 v -6.85819 h -1.21116 v -44.27347 h -4.41233 c -0.1438,0 -0.25926,-0.11588 -0.25926,-0.26018 v -30.99146 c 0,-0.1443 0.11546,-0.26065 0.25926,-0.26065 h 32.52937 v 75.78576 h -0.51901 v 6.85819 c -4.53004,3.15152 -8.84219,4.61466 -12.97437,4.68622 z"
       style="fill:#e4dff2;fill-opacity:1;stroke:none;stroke-width:0.264998;stroke-linecap:butt;stroke-linejoin:round;stroke-miterlimit:4;stroke-dasharray:none;stroke-dashoffset:0;stroke-opacity:1"
       id="path15864" />
  </g>
</svg>
