<?xml version="1.0" encoding="UTF-8" standalone="no"?>
<svg
   xmlns:dc="http://purl.org/dc/elements/1.1/"
   xmlns:cc="http://creativecommons.org/ns#"
   xmlns:rdf="http://www.w3.org/1999/02/22-rdf-syntax-ns#"
   xmlns:svg="http://www.w3.org/2000/svg"
   xmlns="http://www.w3.org/2000/svg"
   xmlns:sodipodi="http://sodipodi.sourceforge.net/DTD/sodipodi-0.dtd"
   xmlns:inkscape="http://www.inkscape.org/namespaces/inkscape"
   sodipodi:docname="birds.svg"
   inkscape:version="1.0 (4035a4fb49, 2020-05-01)"
   id="svg2878"
   version="1.1"
   viewBox="0 0 259.55624 223.57292"
   height="223.57292mm"
   width="259.55624mm">
  <defs
     id="defs2872" />
  <sodipodi:namedview
     inkscape:window-maximized="0"
     inkscape:window-y="0"
     inkscape:window-x="363"
     inkscape:window-height="1001"
     inkscape:window-width="1548"
     showgrid="false"
     inkscape:document-rotation="0"
     inkscape:current-layer="layer1"
     inkscape:document-units="mm"
     inkscape:cy="773.96935"
     inkscape:cx="557.90656"
     inkscape:zoom="0.98994949"
     inkscape:pageshadow="2"
     inkscape:pageopacity="0.0"
     borderopacity="1.0"
     bordercolor="#666666"
     pagecolor="#ffffff"
     id="base" />
  <metadata
     id="metadata2875">
    <rdf:RDF>
      <cc:Work
         rdf:about="">
        <dc:format>image/svg+xml</dc:format>
        <dc:type
           rdf:resource="http://purl.org/dc/dcmitype/StillImage" />
        <dc:title></dc:title>
      </cc:Work>
    </rdf:RDF>
  </metadata>
  <g
     transform="translate(23.944788,-38.64806)"
     id="layer1"
     inkscape:groupmode="layer"
     inkscape:label="Layer 1">
    <path
       id="path3490"
       d="m 56.269658,104.81131 c -2.626352,-0.0192 -5.207021,0.94837 -6.888985,2.63033 -1.28996,1.28998 -2.702063,4.28188 -3.232878,6.85023 -0.220025,1.06458 -0.758735,2.59065 -1.197342,3.39101 -2.461784,4.49224 -3.201821,6.383 -3.490228,8.92193 -0.476784,4.1973 0.05116,10.3045 1.40715,16.27808 0.619167,2.72763 1.048065,5.03689 0.952915,5.13199 -0.09515,0.0951 -5.086344,0.22775 -11.09183,0.29455 l -10.91923,0.12144 2.116667,-1.43763 c 2.356905,-1.60055 2.935245,-2.33743 4.834329,-6.16242 1.057788,-2.13051 1.498488,-3.47296 2.273763,-6.92516 1.322318,-5.88813 1.307335,-7.63645 -0.114205,-13.28652 -0.93531,-3.71752 -1.03654,-4.39577 -0.775145,-5.1878 0.395409,-1.1981 2.301923,-2.84939 4.00699,-3.47008 2.343637,-0.85314 2.395967,-1.94399 0.09302,-1.94199 -0.582083,5.9e-4 -2.764316,-0.26262 -4.849315,-0.58447 -3.345272,-0.51638 -4.041489,-0.54843 -5.921602,-0.2744 -2.743999,0.39994 -4.120581,1.20474 -5.675625,3.31711 -3.082974,4.18793 -6.245202,13.60883 -8.0811595,24.07657 -0.5980264,3.40965 -0.7954288,9.14855 -0.3860229,11.22515 l 0.2216917,1.12448 -8.4237749,0.003 c -8.6527938,0.003 -10.5026218,0.11533 -10.3280518,0.62839 0.07159,0.21035 2.707921,0.27537 9.23199438,0.22737 l 9.13174232,-0.0672 0.182418,3.51709 c 0.2134839,4.11596 0.7053877,6.73789 1.5084347,8.03724 0.500255,0.80943 0.556347,1.18505 0.428398,2.87683 -0.116626,1.54205 -0.06431,2.01463 0.251664,2.27686 1.020778,0.84717 3.884896,-0.19588 4.857067,-1.76888 0.280763,-0.45429 0.684977,-1.64971 0.898139,-2.65617 0.588843,-2.78034 2.217605,-8.21662 3.09335,-10.32444 l 0.781349,-1.87947 2.438609,-0.16691 c 1.341289,-0.0916 6.503677,-0.24669 11.472169,-0.34469 l 9.033557,-0.17776 0.43098,0.83302 c 0.236955,0.45822 0.768398,1.70918 1.180806,2.78019 0.412409,1.071 1.237957,2.5945 1.835031,3.38533 l 1.085723,1.43763 0.07751,8.23516 0.077,8.23464 0.814419,1.01596 c 0.44799,0.55897 1.698148,1.62992 2.778125,2.3797 v 5.2e-4 c 1.079984,0.74977 2.179846,1.37486 2.444297,1.38906 0.478343,0.0257 1.582669,-0.76683 3.780647,-2.71457 0.63363,-0.56149 1.468581,-1.66855 1.855701,-2.45979 0.843938,-1.72495 0.820943,-2.54473 -0.312643,-11.13989 l -0.731737,-5.55005 1.697054,-3.99924 1.697053,-3.99924 2.682523,-0.005 c 0.133665,-2.4e-4 0.349621,-0.007 0.511598,-0.009 v -1.3193 h -2.738334 l 0.892969,-3.50573 c 1.250339,-4.90811 1.570138,-8.53993 1.229381,-13.95677 -0.249068,-3.95925 -0.362252,-4.60866 -1.214914,-6.97529 -0.517093,-1.43525 -1.362919,-3.31918 -1.87947,-4.18631 -0.516549,-0.86714 -0.938961,-1.69249 -0.938961,-1.83451 0,-0.7182 2.746613,-2.92972 4.83898,-3.8964 1.227389,-0.56706 2.319041,-1.17328 2.426208,-1.34669 0.307356,-0.49731 -0.572053,-1.25847 -2.66392,-2.30632 -1.063064,-0.53251 -2.626323,-1.52922 -3.473688,-2.21485 -2.023912,-1.63763 -3.324207,-2.27001 -5.09633,-2.47737 -0.374552,-0.0438 -0.750837,-0.0665 -1.12603,-0.0692 z"
       style="fill:#000000;stroke-width:1" />
    <path
       sodipodi:nodetypes="ssssssssccasssssssssccsssscccssssss"
       id="path3488"
       d="m 47.075327,189.53702 c 1.440861,-0.037 2.913823,0.31696 4.364319,1.08675 1.421507,0.7544 2.150167,0.95848 3.960751,1.10949 1.220314,0.10178 2.326754,0.29343 2.458612,0.4253 0.143281,0.14329 -0.827439,1.3373 -2.412107,2.96829 -2.974372,3.06131 -3.196356,3.57921 -2.843575,6.63371 0.272713,2.36125 0.42222,2.63435 2.897317,5.28701 4.126523,4.42254 5.289231,7.69234 6.077285,17.09405 0.582688,6.95162 0.69451,7.39619 2.310828,9.16481 l 1.326967,1.4516 c 0,0 0.951914,0.79709 1.431349,1.19143 1.508674,1.2409 1.598079,1.41259 4.547758,3.69612 2.830321,2.19113 4.165582,3.76561 4.652142,5.48701 0.338817,1.19872 0.285314,2.32595 -0.110065,2.32595 -0.129728,0 -0.893546,-0.53578 -1.697467,-1.19062 -0.803921,-0.65485 -1.517494,-1.19063 -1.585851,-1.19063 -0.06836,0 0.06405,0.50602 0.294022,1.12448 0.579576,1.55863 0.615601,4.5456 0.06149,5.09995 -0.38758,0.38775 -0.498142,0.36248 -1.322834,-0.30231 -0.494949,-0.39897 -1.328941,-1.12782 -1.853,-1.61954 l -0.952853,-0.894 -0.173625,1.66191 c -0.09551,0.91389 -0.329336,1.81712 -0.519832,2.00763 -0.403538,0.40357 -0.214039,0.61602 -7.038925,-7.87187 -2.515703,-3.1287 -4.762495,-5.83737 -4.992665,-6.01927 -0.230168,-0.1819 -1.106649,-0.33073 -1.947564,-0.33073 -1.500359,0 -1.53978,-0.0195 -2.124802,-1.03611 l -0.59631,-1.03611 -2.916953,-0.1478 c -3.845146,-0.78461 -3.050353,-0.85334 -4.174581,-1.4666 -1.270611,-0.69312 -0.754176,-1.8895 -2.350707,-3.65091 -4.602764,-5.0781 -6.199305,-8.27092 -7.266289,-14.5309 -0.975237,-5.72168 0.235726,-13.43424 2.985165,-19.00866 2.356703,-4.77817 5.829798,-7.42494 9.512,-7.51943 z"
       style="fill:#000314;stroke-width:0.999999" />
    <path
       d="m 162.34956,176.23604 c -3.44379,0.0136 -6.76714,1.92832 -8.32312,5.03502 -1.41318,2.78928 -2.73192,5.68773 -5.05235,7.86968 -4.42886,4.91198 -9.5099,9.42781 -12.50291,15.43219 -1.70513,2.9609 -3.13571,6.06038 -4.42055,9.22211 -0.38826,1.462 -1.37064,3.95101 1.29088,3.37189 3.48543,-0.40253 -0.14698,3.56776 -0.3545,5.21932 -1.48596,3.58286 -3.2436,7.11311 -4.16147,10.88995 1.9937,1.215 4.49455,-2.37431 6.07845,-3.71383 1.0951,-0.92901 2.35531,-3.47253 3.21703,-3.62596 -0.48534,3.05757 -1.61969,5.96528 -2.22776,8.9884 0.66223,2.36738 3.88924,-1.17423 4.81005,-2.2811 3.45238,-4.57285 4.38073,-10.4145 6.11878,-15.74675 0.42659,-1.05536 0.28942,-2.91857 1.91173,-2.37962 1.67146,0.022 3.73837,0.0656 4.6586,-1.58467 0.99324,-1.49567 2.58919,-2.39888 4.34222,-2.75427 4.29748,-2.35999 8.36315,-5.78591 9.85749,-10.63138 1.97485,-4.9542 1.47647,-10.35998 1.69234,-15.56591 -0.65126,-2.41044 5.79502,-2.46364 2.69074,-4.07102 -2.62393,-0.0357 -4.36156,-1.97543 -6.52129,-3.09996 -0.97745,-0.41424 -2.04518,-0.59915 -3.10436,-0.57409 z"
       style="fill:#000314;stroke-width:1"
       id="path3523" />
    <path
       id="path3521"
       transform="matrix(0.26458333,0,0,0.26458333,-23.944788,38.64806)"
       d="m 907.42773,253.39258 c -14.98711,0.13077 -24.1607,8.98565 -26.17968,25.27148 -0.51493,4.15344 -2.082,10.10602 -3.48243,13.22852 -1.40045,3.12253 -2.24387,6.16478 -1.875,6.76172 0.37871,0.61285 3.01826,0.9887 6.0625,0.86132 4.52255,-0.18934 5.82299,0.17044 8.0625,2.23633 5.15736,4.75741 5.70046,7.7582 3.38868,18.71875 -4.26754,20.23325 -4.98084,54.96036 -1.52344,74.17578 0.83448,4.63733 1.2626,8.68744 0.95117,9 -0.44603,0.44762 -9.45859,0.8485 -21.41601,1.16993 0.004,0.0783 0.0117,0.15518 0.0117,0.23437 v 3.42578 l 24.00391,-0.26172 1.58203,5.44141 c 2.69673,9.2787 9.14404,17.05859 14.13672,17.05859 1.25261,0 2.27772,0.56251 2.27734,1.25 -3.7e-4,0.68754 -1.13195,9.35002 -2.51367,19.25 -3.47508,24.89862 -4.02699,33.31105 -2.49609,38.07813 1.79663,5.59476 6.92557,12.02462 11.00976,13.80273 1.92503,0.83811 5.11203,2.52618 7.08204,3.75196 l 3.58203,2.22851 8.22461,-4.85742 c 8.32365,-4.91512 10.6927,-7.32526 13.08007,-13.30859 1.74807,-4.38108 0.97718,-13.22592 -3.45507,-39.62305 -1.93259,-11.5101 -3.51368,-21.79604 -3.51368,-22.85938 0,-1.76885 0.17046,-1.73418 2.00391,0.42579 l 2.00391,2.36132 2.47265,-2.98632 c 1.36007,-1.64293 4.17076,-6.70207 6.2461,-11.24219 3.32836,-7.28122 4.12731,-8.31159 6.77343,-8.74219 1.64999,-0.26835 13.91009,-0.87003 27.24415,-1.33594 22.44682,-0.78432 26.54412,-1.23713 25.01362,-2.76758 -0.3163,-0.31633 -12.5408,-0.83764 -27.16597,-1.15624 -14.62526,-0.31862 -26.5918,-0.77197 -26.5918,-1.00782 0,-0.23584 0.86706,-3.87903 1.92579,-8.0957 6.62248,-26.37623 5.99874,-58.45208 -1.58594,-81.66602 -10.98837,-33.63144 -34.85613,-59.00103 -55.33985,-58.82226 z"
       style="fill:#000000;stroke-width:3.77953" />
    <path
       id="path3455"
       transform="matrix(0.26458333,0,0,0.26458333,-23.944788,38.64806)"
       d="m 696.7793,205.17383 c -0.63179,0.0457 -1.22141,0.55838 -2.21875,1.6289 -1.13103,1.21403 -7.77,12.37942 -14.75196,24.81055 -34.19814,60.88828 -31.25124,56.75541 -43.48047,60.96289 -7.34924,2.52851 -37.75467,17.96607 -45.40039,23.05078 -3.29998,2.19462 -10.72499,8.09958 -16.5,13.1211 -11.57472,10.06465 -13.25623,11.12613 -20.38476,12.86914 -10.98403,2.68569 -16.04309,7.22629 -19.76563,17.74219 -1.75237,4.95007 -1.97226,7.20546 -1.42578,14.59179 0.46061,6.22632 0.18107,11.21334 -0.9707,17.35938 -2.88953,15.42077 -0.18372,17.19344 10.49609,6.88281 6.58409,-6.35641 6.95262,-6.55486 14.65235,-7.92774 4.34422,-0.7746 10.97682,-2.57806 14.73828,-4.00585 6.65208,-2.52556 7.44475,-2.59202 29,-2.49415 12.18856,0.0552 24.52267,-0.21618 27.41015,-0.60351 l 5.25,-0.70508 v 3.0918 c 0,1.70022 -0.93951,5.60259 -2.08789,8.67187 -2.03384,5.43591 -3.9735,7.36842 -12.18554,12.15039 -2.90604,1.69225 -19.3173,2.32969 -85.70508,3.32813 -7.36755,0.11074 -12.65498,0.1688 -18.44922,0.24023 v 4.17578 c 49.0437,-0.77035 115.5515,-1.62677 157.14258,-2.01757 v -4.43946 c -7.69265,-0.0676 -14.43073,-0.25697 -17.5,-0.57812 l -6.08008,-0.63672 2.89258,-5.12305 c 4.75423,-8.424 6.15407,-13.54336 6.83008,-24.97265 l 0.64257,-10.86524 5.56641,-1.71875 c 8.51667,-2.63002 23.47176,-10.92237 30.81055,-17.08398 8.97845,-7.53835 15.33468,-15.70995 20.57031,-26.44531 7.30904,-14.98674 6.98548,-20.0044 -1.03906,-16.17774 l -3.40821,1.625 v -3.5293 -3.52929 l -3.75,0.67968 c -4.63457,0.83914 -8.04727,2.5281 -12.25,6.06446 l -3.24023,2.72656 0.69141,-4.08594 c 0.83531,-4.94422 -0.30087,-5.93986 -4.37305,-3.83398 -4.24547,2.19537 -5.07813,1.94225 -5.07813,-1.53711 0,-3.78611 2.14511,-5.92582 15.96094,-15.92188 18.94367,-13.70619 34.80819,-31.74959 39.91406,-45.39648 1.13239,-3.02653 2.36121,-8.44975 2.73047,-12.05274 0.82194,-8.02274 -0.0937,-8.34175 -7.34961,-2.56445 l -5.00586,3.98438 -2.74609,-7.73438 c -4.62792,-13.04281 -4.37378,-12.95451 -12.50976,-4.37109 -7.56719,7.98331 -9.99415,8.68719 -9.99415,2.90039 0,-3.90393 -2.82804,-9.57545 -5.73828,-11.50781 -0.68938,-0.45774 -1.18712,-0.73198 -1.63476,-0.79102 -0.0934,-0.0125 -0.18506,-0.0142 -0.27539,-0.008 z"
       style="fill:#000000;stroke-width:3.77953" />
    <path
       id="path3459"
       d="m 133.99042,151.99912 c 0.84075,-0.70745 1.41517,-2.22901 1.75251,-4.64217 0.11612,-0.8307 0.0693,-1.28853 -0.14531,-1.42117 -0.61999,-0.38318 -1.43933,0.9131 -2.05079,3.24453 -0.33357,1.2719 -0.67703,2.58043 -0.76324,2.90786 -0.20684,0.78559 0.20335,0.75532 1.20683,-0.089 z"
       style="fill:#000000;stroke-width:1" />
    <path
       d="m 151.78575,157.64046 c 0.73934,-0.001 1.4568,0.54146 1.79733,1.42845 0.30921,0.79633 0.59837,1.62407 1.10108,2.24511 0.96105,1.39933 2.06128,2.68421 2.71636,4.39853 0.37225,0.84501 0.68584,1.73013 0.96827,2.63329 0.0864,0.41795 0.3025,1.129 -0.27009,0.96736 -0.7491,-0.10978 0.039,1.02119 0.087,1.4937 0.32649,1.02341 0.71119,2.03134 0.91613,3.11118 -0.42548,0.35097 -0.96986,-0.67271 -1.31269,-1.05372 -0.23703,-0.26425 -0.51289,-0.99047 -0.6982,-1.03305 0.11057,0.8746 0.36017,1.70528 0.49702,2.56982 -0.13723,0.6788 -0.8374,-0.33009 -1.03739,-0.64553 -0.75071,-1.30376 -0.96221,-2.97472 -1.34647,-4.49858 -0.0938,-0.30147 -0.0682,-0.83511 -0.41538,-0.67827 -0.35879,0.009 -0.80242,0.0246 -1.00343,-0.44639 -0.21635,-0.42664 -0.56086,-0.68272 -0.93794,-0.78172 -0.92752,-0.66892 -1.8075,-1.64337 -2.13842,-3.02824 -0.43431,-1.41525 -0.3386,-2.96366 -0.39581,-4.45374 0.13478,-0.69111 -1.24923,-0.69624 -0.58616,-1.16128 0.56324,-0.0143 0.93223,-0.57238 1.39354,-0.89771 0.20897,-0.12012 0.43781,-0.17473 0.66525,-0.16921 z"
       style="fill:#000314;stroke-width:0.999998"
       id="path3523-6" />
  </g>
</svg>
