<?xml version="1.0" encoding="UTF-8" standalone="no"?>
<svg
   xmlns:dc="http://purl.org/dc/elements/1.1/"
   xmlns:cc="http://creativecommons.org/ns#"
   xmlns:rdf="http://www.w3.org/1999/02/22-rdf-syntax-ns#"
   xmlns:svg="http://www.w3.org/2000/svg"
   xmlns="http://www.w3.org/2000/svg"
   xmlns:sodipodi="http://sodipodi.sourceforge.net/DTD/sodipodi-0.dtd"
   xmlns:inkscape="http://www.inkscape.org/namespaces/inkscape"
   sodipodi:docname="birds2.svg"
   inkscape:version="1.0 (4035a4fb49, 2020-05-01)"
   id="svg4179"
   version="1.1"
   viewBox="0 0 149.22501 149.22501"
   height="149.22501mm"
   width="149.22501mm">
  <defs
     id="defs4173" />
  <sodipodi:namedview
     inkscape:window-maximized="1"
     inkscape:window-y="-9"
     inkscape:window-x="-9"
     inkscape:window-height="1001"
     inkscape:window-width="1920"
     showgrid="false"
     inkscape:document-rotation="0"
     inkscape:current-layer="layer1"
     inkscape:document-units="mm"
     inkscape:cy="306.46223"
     inkscape:cx="151.54773"
     inkscape:zoom="5.6"
     inkscape:pageshadow="2"
     inkscape:pageopacity="0.0"
     borderopacity="1.0"
     bordercolor="#666666"
     pagecolor="#ffffff"
     id="base" />
  <metadata
     id="metadata4176">
    <rdf:RDF>
      <cc:Work
         rdf:about="">
        <dc:format>image/svg+xml</dc:format>
        <dc:type
           rdf:resource="http://purl.org/dc/dcmitype/StillImage" />
        <dc:title></dc:title>
      </cc:Work>
    </rdf:RDF>
  </metadata>
  <g
     transform="translate(153.23155,148.69583)"
     id="layer1"
     inkscape:groupmode="layer"
     inkscape:label="Layer 1">
    <path
       id="path4782"
       transform="matrix(0.26458333,0,0,0.26458333,-153.23155,-148.69583)"
       d="m 354.46875,296 c 2.05988,0 2.01642,4.59932 -0.0508,5.39258 -2.01629,0.77372 -2.2083,0.76416 -2.74219,-0.14258 -0.81426,-1.38291 1.24343,-5.25 2.79297,-5.25 z"
       style="fill:#000000;stroke-width:3.77953" />
    <path
       sodipodi:nodetypes="ccssssscscccsscccsccssss"
       d="m -114.20538,-69.525205 c -0.67773,-0.0035 -1.40233,0.317341 -2.08153,0.945679 -1.46201,1.352563 -5.54739,4.186806 -6.62181,4.594034 -0.58208,0.220626 -1.9513,0.61762 -3.04271,0.882118 -1.91613,0.46437 -1.9546,0.488829 -1.11156,0.709518 0.52539,0.137541 1.46716,0.118803 2.3642,-0.04702 1.99771,-0.369297 2.27347,-0.353168 2.09134,0.121439 -0.11969,0.311927 0.0865,0.40251 0.96377,0.42323 1.83498,0.04336 2.42894,0.304241 2.52284,1.108458 0.0583,0.499237 0.0794,1.0263 -0.0474,1.159935 -0.12833,-0.08241 1.89102,-0.06022 2.80195,-0.0063 -0.38359,-0.326421 -0.59454,-0.561875 -0.58933,-0.828037 0,-0.474165 0.21355,-0.695917 0.88264,-0.916739 1.67963,-0.554328 2.82153,-2.220163 2.82153,-4.115511 0,-1.640327 0.32361,-2.150076 1.51412,-2.383835 l 0.99942,-0.195853 -0.79375,-0.297656 c -0.43656,-0.163674 -1.12257,-0.520724 -1.52445,-0.793234 -0.35282,-0.239239 -0.74265,-0.35809 -1.14929,-0.360185 z m -3.96926,8.396388 c 0.34667,0 0.68988,0.537247 0.68988,1.080037 0,0.410845 -0.72718,0.26848 -0.89762,-0.1757 -0.25021,-0.652015 -0.19239,-0.904337 0.20774,-0.904337 z"
       style="fill:#000000;stroke-width:1"
       id="path4778" />
    <path
       id="path4776"
       transform="matrix(0.26458333,0,0,0.26458333,-153.23155,-148.69583)"
       d="m 73.017578,241.08008 c -1.785032,0.0517 -3.548482,0.57002 -5.044922,1.5664 C 62.960776,245.98363 61.337033,250 65,250 c 1.099994,0 2,0.40615 2,0.90234 0,1.04179 -18.564231,18.81082 -20.923828,20.02735 C 44.24911,271.87167 24.137298,265.39832 11,259.64062 0.81405997,255.17639 0.5,255.09799 0.5,256.97266 c 0,1.88679 15.83817,8.70151 32.785156,14.10742 l 12.783203,4.07812 -2.783203,2.08789 C 39.06006,280.41554 34,285.29213 34,286.19531 c 0,2.08185 5.003662,0.35483 12.039062,-4.1582 l 7.738282,-4.96484 9.861328,2.36523 c 11.963692,2.86869 26.536033,5.79291 42.019528,8.5332 0.5662,-1.08706 1.60543,-1.92695 2.88868,-2.33008 C 93.210516,282.89475 74.798759,279.32443 72,278.36523 c -1.040315,-0.35654 -0.556401,-0.91361 1.578125,-1.81835 7.442079,-3.15445 13.431007,-11.05784 13.412109,-17.69727 -0.01308,-4.48288 -4.082702,-12.9897 -7.5,-15.67773 -1.847076,-1.45291 -4.177614,-2.15832 -6.472656,-2.0918 z"
       style="fill:#000000;stroke-width:3.77953" />
    <path
       id="path4756"
       transform="matrix(0.26458333,0,0,0.26458333,-153.23155,-148.69583)"
       d="m 515.93359,236.43359 c -2.70875,0.0589 -5.52604,1.4773 -8.01367,4.31055 -2.91939,3.325 -3.03089,3.7026 -1.43554,4.86914 1.3947,1.01985 1.68015,2.57982 1.47851,8.07422 -0.42559,11.59694 -0.15963,13.01992 3.13086,16.76758 l 3.09375,3.52344 -2.34375,0.88281 c -3.49809,1.31768 -31.01642,8.31359 -31.27539,7.95117 -0.12303,-0.17218 -6.60151,-7.16474 -14.39648,-15.53906 C 455.25758,255.54796 452,251.43219 452,249.36914 c 0,-2.6126 -0.0503,-2.63418 -1.99414,-0.875 -1.09629,0.99213 -3.85027,4.21285 -6.12109,7.15625 -3.07718,3.98864 -3.85808,5.67656 -3.06446,6.63281 0.67495,0.81328 0.72659,1.82044 0.13867,2.75 -1.45807,2.30541 -1.07946,7.10357 0.90625,11.47461 C 443.61976,280.36991 450.04596,287 452.03516,287 452.56602,287 453,287.3826 453,287.84961 453,288.4891 430.9601,293 427.83594,293 c -0.30077,0 -0.80375,-3.39087 -1.11719,-7.53516 -0.59669,-7.8896 -3.15221,-13.83639 -7.72266,-17.96679 -1.21644,-1.09934 -3.29096,-4.12475 -4.60937,-6.72461 -2.36999,-4.67354 -6.44519,-7.80309 -10.08789,-7.7461 -0.98981,0.0155 -4.27383,0.86497 -7.29883,1.88672 -5.20624,1.75852 -5.35176,1.89648 -2.72656,2.58594 4.53623,1.19135 5.72656,3.96892 5.72656,13.35742 0,10.76112 1.50816,15.65068 6.30859,20.45117 2.12154,2.12154 3.70874,3.99767 3.52539,4.16797 -0.36023,0.33461 -32.64989,4.01079 -44.7207,5.0918 l -7.38867,0.66211 0.71875,-2.86328 c 0.39525,-1.57477 0.79588,-2.88124 0.88867,-2.9043 0.0928,-0.0229 2.47761,-1.08949 5.30078,-2.36914 4.47723,-2.0294 5.5856,-2.17742 8.66797,-1.16016 3.76003,1.24092 9.77928,0.32429 10.41602,-1.58593 0.19719,-0.59158 -2.42363,-1.62498 -5.93164,-2.33985 -4.83856,-0.98602 -7.20587,-2.12924 -10.28516,-4.96679 -2.2,-2.0273 -5.575,-4.95041 -7.5,-6.4961 -2.69471,-2.16375 -3.61504,-3.75147 -4,-6.89648 -0.37641,-3.07515 -1.14635,-4.44562 -3.11328,-5.54492 -3.80283,-2.12536 -8.00411,-0.0525 -13.45313,6.63671 -4.90397,6.02015 -5.65616,9.99723 -2.89843,15.33008 1.8187,3.51699 8.93591,8.92969 11.74023,8.92969 1.68552,0 1.88215,0.46626 1.33984,3.17773 -0.34947,1.7474 -0.7696,3.31058 -0.93359,3.47461 -0.34743,0.34742 -33.50882,2.32479 -38.68164,2.30664 l -3.5,-0.0137 3.17383,-2.72265 c 8.50747,-7.29992 10.33627,-14.85128 5.74609,-23.73047 -4.68472,-9.06207 -9.67463,-11.47992 -16.45312,-7.97461 -3.27847,1.69536 -6.93167,7.4716 -4.74219,7.49804 0.70162,0.008 1.92889,0.42702 2.72656,0.93165 1.13713,0.71937 -0.97166,3.35877 -9.76172,12.21875 -9.33857,9.41285 -10.91787,11.43051 -9.45117,12.08398 0.96845,0.43147 -3.60763,0.54479 -10.16992,0.25195 -6.56229,-0.29282 -12.10072,-0.70224 -12.30859,-0.91015 -0.2079,-0.20789 0.54895,-2.10737 1.68164,-4.22071 2.8396,-5.2981 2.64458,-11.59111 -0.56641,-18.37109 -1.43264,-3.025 -2.70015,-7.38422 -2.81641,-9.6875 C 253.29937,264.17624 251.63096,262 247.94922,262 244.18752,262 242,264.41043 242,268.55664 c 0,1.97863 -1.47165,6.18832 -3.5,10.01172 -3.8961,7.34406 -4.43445,12.25802 -1.98633,18.11719 0.83222,1.99178 1.38602,3.74679 1.23242,3.90039 C 237.15947,301.17257 209,298.65089 209,298.01172 c 0,-0.37016 1.04709,-1.23342 2.32617,-1.91797 C 214.74153,294.2659 219,287.14757 219,283.26758 c 0,-1.83257 -0.65977,-4.91226 -1.4668,-6.84375 -1.25908,-3.01346 -1.26811,-3.58905 -0.0547,-4.05469 C 219.87551,271.44933 212.63487,265 209.20508,265 c -5.13862,0 -18.23735,10.29556 -21.75586,17.09961 -0.91117,1.76199 -1.75557,5.37895 -1.875,8.03906 -0.11951,2.6601 -0.49584,5.11694 -0.83789,5.45899 -0.29753,0.29752 -10.4464,-0.72151 -21.01758,-1.94727 0.03,0.22359 0.0527,0.45153 0.0527,0.68359 v 2.30469 c 2.42328,0.29149 4.8585,0.58911 7.22852,0.85352 3.02502,0.33748 6.74571,0.8529 8.26758,1.14453 l 2.76562,0.5293 -5.15429,6.16796 c -4.19687,5.02028 -4.82556,6.23179 -3.38477,6.51563 1.12944,0.2225 4.04597,-1.9741 8.06055,-6.06836 l 6.29101,-6.41602 7.26368,0.77735 c 3.99566,0.42694 15.84368,1.48371 26.32812,2.34961 15.58765,1.28736 19.30506,1.88738 20.39453,3.29101 1.31283,1.6914 1.25017,4.014 -0.47851,17.4668 l -0.61133,4.75 h 3.6289 c 1.99586,0 3.67849,-0.3375 3.73829,-0.75 0.0597,-0.4125 0.21131,-4.35 0.33789,-8.75 0.12656,-4.4 0.82578,-9.2375 1.55273,-10.75 1.23693,-2.57358 1.7113,-2.74299 7.41016,-2.65039 3.34921,0.0544 8.47793,0.39189 11.39648,0.75 l 5.30664,0.65039 -4.05664,3.83398 C 267.82559,312.44287 266,314.63012 266,315.19336 c 0,1.86236 5.36491,-0.17858 11.2832,-4.29102 l 5.78321,-4.01757 24.21679,-0.35547 c 30.47842,-0.44733 55.61176,-2.42263 103.2168,-8.11133 l 5,-0.59766 2.92773,9.64258 c 4.33019,14.26262 8.94949,17.67464 19.07227,14.08984 5.41676,-1.91825 5.11023,-4.27387 -1.96289,-15.125 -3.07168,-4.71237 -5.68597,-9.04789 -5.81055,-9.63281 -0.13326,-0.62563 5.53755,-2.05668 13.77344,-3.47656 7.7,-1.32749 16.65392,-3.02146 19.89844,-3.76563 l 5.90039,-1.35351 4.71289,4.4082 c 2.59232,2.42482 6.67633,7.10489 9.07617,10.40039 3.79692,5.21399 4.78952,5.99219 7.63867,5.99219 1.80081,0 3.27344,-0.44837 3.27344,-0.99609 0,-0.54772 -2.90171,-4.15603 -6.44727,-8.01953 -8.68919,-9.46845 -11.06965,-12.87576 -9.37304,-13.40626 0.72657,-0.22718 8.97031,-2.31678 18.32031,-4.64453 9.35,-2.32774 17.61662,-4.45775 18.36914,-4.73437 1.12615,-0.41394 1.24013,1.09297 0.65234,8.51953 -0.71341,9.01377 -0.70977,9.02561 2.12305,11.65234 3.5686,3.30898 4.64335,3.29204 7.88867,-0.12109 2.33848,-2.4594 2.54876,-3.27837 1.99024,-7.75 -0.34348,-2.75 -0.87236,-7.475 -1.17578,-10.5 l -0.55078,-5.5 8.35156,-2.89258 c 9.18909,-3.18206 27.85216,-11.21321 29.21484,-12.57226 0.47457,-0.47333 0.58059,-1.31602 0.23633,-1.87305 -0.37919,-0.61354 -4.26749,0.6761 -9.86328,3.27344 -5.08032,2.35808 -11.74587,5.21522 -14.8125,6.34765 l -5.57422,2.0586 0.43359,-5.2461 C 534.23929,257.09581 531.9981,250.90316 528.5,248 c -0.9054,-0.75141 -2.51683,-3.07415 -3.58203,-5.16211 -2.19739,-4.30724 -5.50169,-6.47999 -8.98438,-6.4043 z"
       style="fill:#000000;stroke-width:3.77953" />
  </g>
</svg>
